<?xml version="1.0"?>
<svg xmlns="http://www.w3.org/2000/svg" xmlns:xlink="http://www.w3.org/1999/xlink" version="1.1" id="Capa_1" x="0px" y="0px" viewBox="0 0 511.998 511.998" style="enable-background:new 0 0 511.998 511.998;" xml:space="preserve" width="512px" height="512px"><g><g>
	<g>
		<path d="M416.138,277.719c-0.206-9.994-1.56-19.908-4.033-29.511c-1.032-4.009-5.12-6.425-9.129-5.39    c-4.01,1.033-6.423,5.12-5.391,9.13c2.38,9.24,3.586,18.812,3.586,28.452c0,1.269-0.028,2.66-0.088,4.254    c-0.075,2.035,0.681,4.013,2.094,5.479c1.413,1.466,3.362,2.295,5.398,2.295h0.82c35.323,0,64.06,28.737,64.06,64.06    c0,35.323-28.737,64.06-64.06,64.06h-48.078c0.688-4.876,1.051-9.854,1.051-14.916c0-58.652-47.717-106.369-106.369-106.369    c-19.097,0-37.829,5.122-54.172,14.81c-3.561,2.111-4.737,6.71-2.625,10.272c2.111,3.561,6.71,4.739,10.272,2.625    c14.03-8.317,30.118-12.714,46.526-12.714c50.385,0,91.376,40.991,91.376,91.376c0,50.385-40.991,91.376-91.376,91.376    s-91.376-40.991-91.376-91.376c0-22.586,8.306-44.268,23.388-61.051c2.768-3.08,2.514-7.819-0.565-10.586    c-3.08-2.769-7.82-2.516-10.587,0.565c-17.558,19.539-27.229,44.78-27.229,71.072c0,5.062,0.364,10.041,1.051,14.916H102.6    c-35.323,0-64.059-28.737-64.059-64.06c0-15.135,5.376-29.824,15.138-41.359c2.675-3.16,2.281-7.891-0.88-10.564    c-3.162-2.676-7.891-2.28-10.565,0.88c-12.05,14.238-18.686,32.366-18.686,51.044c0,43.59,35.463,79.053,79.052,79.053h51.316    c12.953,44.137,53.811,76.46,102.082,76.46s89.128-32.323,102.082-76.46h51.315c43.59,0,79.053-35.464,79.053-79.053    C488.449,315.166,456.586,281.148,416.138,277.719z" data-original="#000000" class="active-path" data-old_color="#000000" fill="#044630"/>
	</g>
</g><g>
	<g>
		<path d="M400.162,218.199c-7.282-13.168-16.685-24.723-27.634-34.36V70.909h15.149c2.944,0,5.616-1.723,6.83-4.405    c1.213-2.683,0.746-5.826-1.198-8.038L344.198,2.55C342.775,0.93,340.723,0,338.566,0s-4.209,0.93-5.633,2.55l-49.112,55.916    c-1.943,2.212-2.411,5.356-1.198,8.039c1.214,2.683,3.886,4.405,6.83,4.405h15.15v21.9c0,4.141,3.356,7.497,7.497,7.497    c4.141,0,7.497-3.356,7.497-7.497V63.412c0-4.141-3.356-7.497-7.497-7.497h-6.085l32.55-37.059l32.549,37.059h-6.084    c-4.141,0-7.497,3.356-7.497,7.497v109.056c-11.614-7.538-24.418-13.19-37.936-16.681v-32.992c0-4.141-3.356-7.497-7.497-7.497    c-4.141,0-7.497,3.356-7.497,7.497v30.045c-5.64-0.758-11.365-1.149-17.146-1.149c-2.944,0-5.872,0.109-8.786,0.31V99.519    c0-4.141-3.356-7.497-7.497-7.497h-52.93c-4.14,0-7.497,3.356-7.497,7.497v77.61c-9.739,7.22-18.494,15.829-25.933,25.635v-51.799    c0-4.141-3.357-7.497-7.497-7.497h-52.93c-4.14,0-7.497,3.356-7.497,7.497v89.754c-9.238,10.515-15.718,23.181-18.777,36.838    c-10.634,0.587-20.85,3.267-30.426,7.986c-3.713,1.831-5.241,6.325-3.409,10.04c1.305,2.647,3.965,4.183,6.73,4.183    c1.112,0,2.243-0.249,3.309-0.774c8.836-4.356,18.352-6.564,28.284-6.564h1.775c3.727,0,6.889-2.739,7.42-6.429    c4.818-33.47,33.99-58.711,67.857-58.711c0.751,0,1.494,0.028,2.239,0.056l0.265,0.01c2.785,0.084,5.374-1.339,6.761-3.741    c20.283-35.113,58.041-56.925,98.539-56.925c41.379,0,79.536,22.518,99.583,58.768c2.006,3.623,6.566,4.936,10.189,2.933    C400.853,226.383,402.165,221.822,400.162,218.199z M169.822,212.889c-13.644,1.615-26.67,6.57-37.936,14.428v-68.855h37.936    V212.889z M263.678,153.935c-13.349,2.528-26.146,7.149-37.936,13.6v-60.519h37.936V153.935z" data-original="#000000" class="active-path" data-old_color="#000000" fill="#044630"/>
	</g>
</g><g>
	<g>
		<path d="M312.454,364.717c-3.762-3.761-8.764-5.833-14.084-5.833c-5.32,0-10.321,2.072-14.083,5.833l-42.413,42.414    l-14.165-14.166c-7.766-7.765-20.401-7.765-28.167,0c-7.766,7.767-7.766,20.401,0,28.168l28.249,28.249    c3.761,3.76,8.763,5.831,14.083,5.831c5.321,0,10.322-2.071,14.083-5.832l56.497-56.496    C320.219,385.119,320.219,372.484,312.454,364.717z M301.853,382.283l-56.496,56.497c-0.93,0.931-2.166,1.441-3.482,1.441    s-2.552-0.512-3.481-1.441l-28.249-28.249c-1.92-1.92-1.92-5.044,0-6.963c0.931-0.931,2.167-1.442,3.482-1.442    c1.314,0,2.551,0.513,3.481,1.442l19.466,19.466c2.928,2.927,7.675,2.927,10.602,0l47.715-47.715    c0.93-0.93,2.165-1.441,3.479-1.441c1.315,0,2.552,0.513,3.482,1.442C303.773,377.24,303.773,380.364,301.853,382.283z" data-original="#000000" class="active-path" data-old_color="#000000" fill="#044630"/>
	</g>
</g></g> </svg>
