<?xml version="1.0"?>
<svg xmlns="http://www.w3.org/2000/svg" xmlns:xlink="http://www.w3.org/1999/xlink" version="1.1" id="Capa_1" x="0px" y="0px" viewBox="0 0 512.001 512.001" style="enable-background:new 0 0 512.001 512.001;" xml:space="preserve" width="512px" height="512px"><g><g>
	<g>
		<path d="M479.451,502.538v-65.572c0-4.134-3.351-7.486-7.486-7.486s-7.486,3.352-7.486,7.486v51.02L309.048,354.519    l155.431-116.005v168.509c0,4.134,3.351,7.486,7.486,7.486s7.486-3.352,7.486-7.486V223.586c0-0.05-0.009-0.098-0.01-0.148    c-0.01-2.166-0.948-4.228-2.599-5.645l-38.587-33.133V7.486c0-4.134-3.351-7.486-7.486-7.486H81.51    c-4.134,0-7.486,3.352-7.486,7.486v62.835c0,4.134,3.352,7.486,7.486,7.486c4.134,0,7.486-3.352,7.486-7.486V14.972h334.288    v235.605l-125.875,93.946l-36.391-31.249c-1.439-1.236-3.23-1.827-5.012-1.795c-1.784-0.033-3.575,0.558-5.016,1.795    l-36.519,31.358L88.996,250.985v-150.72c0-4.134-3.352-7.486-7.486-7.486c-4.134,0-7.486,3.352-7.486,7.486v83.922L34.89,217.792    c-1.648,1.415-2.585,3.474-2.598,5.636c-0.001,0.053-0.011,0.105-0.011,0.158v58.497c0,4.134,3.352,7.486,7.486,7.486    s7.486-3.352,7.486-7.486v-43.569l155.578,116.115L47.252,488.219V312.027c0-4.134-3.352-7.486-7.486-7.486    c-4.134,0-7.486,3.352-7.486,7.486v192.488c0,2.924,1.703,5.582,4.361,6.802c1,0.459,2.065,0.684,3.123,0.684    c0.059,0,0.117-0.006,0.176-0.008c0.034,0,0.066,0.008,0.1,0.008h432.198c3.132,0,5.932-1.949,7.02-4.886    C479.816,505.612,479.857,504.015,479.451,502.538z M438.255,204.392l21.745,18.672l-21.745,16.241V204.392z M74.024,239.712    l-22.292-16.65l22.292-19.141V239.712z M60.25,497.028l195.753-168.089l195.754,168.089H60.25z" data-original="#000000" class="active-path" data-old_color="#000000" fill="#044630"/>
	</g>
</g><g>
	<g>
		<path d="M351.86,98.472c-11.151-11.149-29.293-11.151-40.445,0.001l-75.816,75.816l-27.798-27.799    c-11.151-11.149-29.294-11.149-40.444,0.001s-11.15,29.294,0,40.445l48.02,48.02c5.402,5.401,12.584,8.375,20.222,8.375    c7.639,0,14.82-2.974,20.222-8.376l96.039-96.038C363.01,127.767,363.01,109.623,351.86,98.472z M341.273,128.33l-96.038,96.038    c-2.574,2.574-5.996,3.992-9.635,3.992s-7.062-1.417-9.636-3.99l-48.019-48.019c-5.314-5.313-5.314-13.959-0.001-19.272    c2.657-2.657,6.146-3.984,9.636-3.984c3.489,0,6.979,1.328,9.635,3.984l33.091,33.091c1.403,1.404,3.308,2.193,5.293,2.193    c1.985,0,3.89-0.789,5.293-2.193l81.109-81.11c5.314-5.313,13.959-5.313,19.272-0.001    C346.586,114.371,346.586,123.016,341.273,128.33z" data-original="#000000" class="active-path" data-old_color="#000000" fill="#044630"/>
	</g>
</g></g> </svg>
