<?xml version="1.0"?>
<svg xmlns="http://www.w3.org/2000/svg" xmlns:xlink="http://www.w3.org/1999/xlink" version="1.1" id="Capa_1" x="0px" y="0px" viewBox="0 0 511.998 511.998" style="enable-background:new 0 0 511.998 511.998;" xml:space="preserve" width="512px" height="512px"><g><g>
	<g>
		<path d="M458.176,343.584c-1.371-4.219-4.951-7.235-9.339-7.873l-19.826-2.881l-8.864-17.962    c-1.963-3.979-5.937-6.451-10.375-6.452c-0.001,0-0.001,0-0.002,0c-4.436,0-8.412,2.471-10.375,6.45l-8.865,17.964l-19.823,2.881    c-4.39,0.637-7.97,3.653-9.341,7.872c-1.372,4.22-0.251,8.765,2.927,11.862l14.345,13.983l-3.386,19.744    c-0.751,4.372,1.013,8.708,4.602,11.316c3.588,2.606,8.258,2.944,12.184,0.881l17.731-9.322l17.732,9.322    c1.708,0.898,3.556,1.341,5.394,1.341c2.39,0,4.762-0.749,6.79-2.223c3.59-2.607,5.353-6.944,4.602-11.316l-3.386-19.744    l14.346-13.983C458.426,352.348,459.547,347.803,458.176,343.584z M429.153,359.949c-2.727,2.657-3.971,6.485-3.328,10.242    l2.518,14.686l-13.185-6.933c-3.372-1.775-7.399-1.775-10.771-0.002l-13.188,6.935l2.519-14.688    c0.643-3.755-0.603-7.582-3.328-10.239l-10.67-10.4l14.743-2.142c3.77-0.547,7.028-2.913,8.714-6.33l6.595-13.361l6.595,13.361    c1.687,3.417,4.944,5.783,8.712,6.329l14.746,2.144L429.153,359.949z" data-original="#000000" class="active-path" data-old_color="#000000" fill="#044630"/>
	</g>
</g><g>
	<g>
		<path d="M510.729,471.051l-27.395-56.284c12.345-15.819,19.711-35.703,19.711-57.277c0-36.519-21.101-68.198-51.747-83.5V99.693    c0-9.643-7.846-17.489-17.489-17.489h-25.757c-4.14,0-7.495,3.355-7.495,7.495s3.355,7.495,7.495,7.495h25.757    c1.378,0,2.498,1.12,2.498,2.498v69.368c0,35.761-29.095,64.857-64.857,64.857h-5.253v-22.604c0-4.14-3.355-7.495-7.495-7.495    h-45.354c-4.14,0-7.495,3.355-7.495,7.495v22.604H145.915v-22.604c0-4.14-3.356-7.495-7.495-7.495H93.066    c-4.139,0-7.495,3.355-7.495,7.495v22.604H80.36c-35.762,0-64.857-29.095-64.857-64.857V99.693c0-1.378,1.121-2.498,2.498-2.498    h360.066c4.139,0,7.495-3.355,7.495-7.495s-3.356-7.495-7.495-7.495h-40.645V50.402C337.422,22.61,314.812,0,287.02,0H164.787    c-27.792,0-50.402,22.61-50.402,50.402v31.802H18.002c-9.643,0-17.489,7.846-17.489,17.489v272.733    c0,9.643,7.846,17.489,17.489,17.489h73.977c4.139,0,7.495-3.355,7.495-7.495c0-4.14-3.356-7.495-7.495-7.495H18.002    c-1.377,0-2.498-1.12-2.498-2.498V215.55c14.506,20.179,38.164,33.359,64.857,33.359h5.211v2.897    c0,16.638,13.535,30.172,30.172,30.172c16.638,0,30.172-13.536,30.172-30.172v-2.897H305.85v2.897    c0,16.638,13.535,30.172,30.172,30.172c16.637,0,30.172-13.536,30.172-30.172v-2.897h5.253c26.693,0,50.351-13.18,64.857-33.358    v52.522c-8.414-2.501-17.318-3.851-26.533-3.851c-22.18,0-43.674,7.92-60.523,22.301c-3.148,2.687-3.522,7.418-0.834,10.566    c2.687,3.148,7.418,3.523,10.566,0.834c14.137-12.066,32.175-18.712,50.791-18.712c43.164,0,78.281,35.117,78.281,78.281    c0,27.763-14.541,52.18-36.395,66.081c-0.453,0.287-0.895,0.59-1.353,0.866c-0.028,0.017-0.058,0.033-0.087,0.05    c-6.838,4.124-14.28,7.193-22.056,9.08c-0.128,0.031-0.257,0.059-0.385,0.089c-1.124,0.267-2.257,0.509-3.394,0.726    c-0.279,0.053-0.559,0.1-0.839,0.15c-0.983,0.177-1.972,0.335-2.963,0.474c-0.426,0.059-0.854,0.111-1.281,0.163    c-0.855,0.105-1.714,0.198-2.574,0.275c-0.537,0.047-1.075,0.087-1.614,0.123c-0.782,0.053-1.564,0.097-2.35,0.127    c-0.994,0.038-1.989,0.076-2.991,0.076c-1.002,0-1.996-0.038-2.99-0.076c-0.786-0.03-1.57-0.073-2.354-0.127    c-0.538-0.037-1.075-0.075-1.61-0.123c-0.862-0.077-1.723-0.17-2.581-0.276c-0.426-0.052-0.851-0.104-1.274-0.163    c-0.994-0.139-1.985-0.298-2.97-0.476c-0.277-0.05-0.555-0.097-0.831-0.149c-1.14-0.218-2.275-0.46-3.402-0.728    c-0.125-0.03-0.251-0.057-0.376-0.087c-7.779-1.888-15.224-4.958-22.065-9.085c-0.026-0.016-0.053-0.03-0.08-0.046    c-0.468-0.283-0.92-0.593-1.382-0.885c-21.837-13.904-36.365-38.311-36.365-66.062c0-13.286,3.387-26.406,9.793-37.945    c2.01-3.619,0.705-8.181-2.914-10.191c-3.62-2.01-8.181-0.704-10.191,2.914c-7.64,13.758-11.679,29.395-11.679,45.221    c0,5.957,0.569,11.783,1.641,17.432H121.96c-4.139,0-7.495,3.355-7.495,7.495s3.356,7.495,7.495,7.495h200.356    c3.356,9.023,8.07,17.391,13.894,24.854l-27.395,56.284c-1.233,2.532-0.941,5.542,0.754,7.792c1.696,2.25,4.511,3.355,7.283,2.87    l36.577-6.431l17.505,32.753c1.305,2.441,3.849,3.962,6.609,3.962c0.048,0,0.096,0,0.143-0.001    c2.816-0.054,5.365-1.682,6.598-4.214l25.489-52.368l25.488,52.368c1.233,2.532,3.782,4.16,6.598,4.214    c0.048,0.001,0.095,0.001,0.143,0.001c2.761,0,5.305-1.52,6.609-3.962l17.505-32.753l36.577,6.431    c2.772,0.488,5.587-0.621,7.283-2.87C511.67,476.593,511.962,473.583,510.729,471.051z M294.385,82.204H157.422V56.02    c0-7.335,5.968-13.303,13.304-13.303h110.357c7.335,0,13.303,5.967,13.303,13.303V82.204z M129.377,50.402    c0-19.526,15.885-35.412,35.411-35.412h122.232c19.527,0,35.413,15.886,35.413,35.412v31.802h-13.057V56.02    c0-15.6-12.692-28.293-28.293-28.293H170.725c-15.601,0-28.294,12.692-28.294,28.293v26.185h-13.055V50.402z M130.925,241.413    v10.392c0,8.372-6.81,15.181-15.181,15.181c-8.371,0-15.181-6.81-15.181-15.181v-10.392v-22.604h30.363V241.413z M351.206,241.413    L351.206,241.413l-0.001,10.392c0,8.372-6.81,15.181-15.181,15.181s-15.181-6.81-15.181-15.181v-10.392v-22.604h30.364V241.413z     M377.232,488.019l-13.142-24.591c-1.318-2.468-3.879-3.962-6.608-3.962c-0.431,0-0.865,0.037-1.3,0.113l-27.461,4.829    l18.409-37.822c3.655,3.308,7.561,6.298,11.662,8.972c0.499,0.327,1,0.649,1.505,0.966c0.26,0.163,0.518,0.327,0.779,0.487    c10.426,6.408,22.201,10.825,34.793,12.715L377.232,488.019z M463.361,459.579c-3.196-0.56-6.382,0.992-7.908,3.85l-13.142,24.589    l-18.637-38.292c12.591-1.89,24.366-6.306,34.792-12.715c0.261-0.16,0.52-0.324,0.78-0.487c0.505-0.317,1.006-0.64,1.505-0.966    c4.1-2.674,8.007-5.664,11.662-8.972l18.409,37.822L463.361,459.579z" data-original="#000000" class="active-path" data-old_color="#000000" fill="#044630"/>
	</g>
</g></g> </svg>
