<?xml version="1.0"?>
<svg xmlns="http://www.w3.org/2000/svg" xmlns:xlink="http://www.w3.org/1999/xlink" version="1.1" id="Capa_1" x="0px" y="0px" viewBox="0 0 512.004 512.004" style="enable-background:new 0 0 512.004 512.004;" xml:space="preserve" width="512px" height="512px"><g><g>
	<g>
		<path d="M436.505,178.499l26.84-26.84l13.721,13.721c1.466,1.465,3.387,2.198,5.306,2.198c1.92,0,3.841-0.732,5.306-2.198    c2.93-2.93,2.93-7.682,0-10.611l-38.054-38.054c-2.931-2.93-7.682-2.93-10.612,0c-2.93,2.93-2.93,7.682,0,10.611l13.721,13.721    l-27.828,27.828c-22.177-16.989-48.162-29.238-76.437-35.22v-31.956c0-1.845-0.137-3.657-0.382-5.435    c10.782-10.537,16.901-24.911,16.901-40.122C364.987,25.185,339.802,0,308.846,0c-30.956,0-56.141,25.185-56.141,56.142    c0,15.21,6.118,29.585,16.9,40.122c-0.245,1.778-0.382,3.591-0.382,5.435v31.94c-2.811,0.592-5.606,1.25-8.381,1.967l-20.31-2.883    c-1.856-6.153-4.317-12.096-7.355-17.755L247.4,96.039c2.244-2.987,1.949-7.171-0.692-9.813l-24.485-24.484    c-2.644-2.644-6.827-2.937-9.815-0.693l-18.929,14.223c-5.661-3.038-11.603-5.5-17.755-7.355l-3.328-23.442    c-0.525-3.7-3.693-6.449-7.429-6.449h-34.625c-3.736,0-6.903,2.749-7.429,6.449l-3.328,23.442    c-6.152,1.855-12.094,4.317-17.755,7.355l-18.93-14.223c-2.985-2.245-7.169-1.949-9.813,0.693L48.603,86.225    c-2.642,2.642-2.937,6.826-0.692,9.813l14.223,18.929c-3.037,5.66-5.498,11.602-7.354,17.755l-23.442,3.328    c-3.7,0.525-6.449,3.693-6.449,7.429v34.626c0,3.737,2.749,6.904,6.449,7.429l23.442,3.328c1.856,6.154,4.317,12.094,7.354,17.755    l-14.223,18.929c-2.244,2.987-1.949,7.171,0.693,9.813l24.485,24.484c2.641,2.643,6.825,2.936,9.812,0.693l18.93-14.222    c5.66,3.037,11.602,5.5,17.755,7.355l3.225,22.721c-1.91,8.056-3.294,16.27-4.149,24.597h-15.932    c-3.737,0-6.903,2.749-7.429,6.449l-2.728,19.225c-4.828,1.502-9.505,3.44-13.981,5.792l-15.524-11.664    c-2.985-2.245-7.169-1.949-9.813,0.693L32.437,342.3c-2.642,2.642-2.937,6.826-0.692,9.813l11.663,15.523    c-2.353,4.476-4.289,9.151-5.791,13.981l-19.225,2.729c-3.7,0.525-6.449,3.693-6.449,7.429v29.44c0,3.737,2.749,6.904,6.449,7.429    l19.225,2.729c1.502,4.829,3.44,9.505,5.791,13.98l-11.663,15.523c-2.244,2.987-1.949,7.171,0.692,9.813l20.818,20.818    c2.643,2.642,6.827,2.936,9.813,0.693l15.524-11.664c4.476,2.353,9.152,4.29,13.981,5.792l2.728,19.224    c0.525,3.7,3.692,6.449,7.429,6.449h29.44c3.737,0,6.903-2.749,7.429-6.449l2.729-19.224c4.829-1.502,9.504-3.44,13.981-5.792    l15.523,11.664c2.987,2.244,7.171,1.949,9.814-0.693l15.543-15.543c32.648,23.564,71.106,35.99,111.658,35.99    c38.48,0,75.58-11.381,107.293-32.915c30.947-21.014,54.893-50.308,69.251-84.715c1.596-3.825-0.211-8.218-4.035-9.814    c-3.824-1.595-8.219,0.21-9.815,4.035C444.065,454.4,380.203,496.95,308.85,496.95c-38.164,0-74.317-11.933-104.806-34.554    c-0.018-0.042-0.043-0.081-0.062-0.122c-0.079-0.174-0.166-0.344-0.259-0.513c-0.039-0.07-0.075-0.14-0.116-0.209    c-0.137-0.23-0.283-0.456-0.447-0.674l-11.668-15.526c2.353-4.475,4.289-9.151,5.792-13.98l10.02-1.423    c27.687,25.773,63.598,39.921,101.542,39.921c82.234,0,149.137-66.902,149.137-149.136c0-82.234-66.902-149.137-149.137-149.137    c-30.863,0-60.48,9.347-85.647,27.031c-3.392,2.382-4.208,7.063-1.826,10.454s7.064,4.208,10.453,1.826    c22.628-15.899,49.261-24.304,77.02-24.304c73.96,0,134.13,60.17,134.13,134.13s-60.171,134.129-134.13,134.129    c-31.846,0-62.098-11.081-86.234-31.397c0.008-0.024,0.01-0.05,0.017-0.074c0.094-0.31,0.168-0.628,0.222-0.952    c0.01-0.062,0.017-0.124,0.026-0.187c0.016-0.115,0.037-0.229,0.048-0.345c0.021-0.229,0.032-0.46,0.032-0.693v-29.44    c0-1.167-0.268-2.28-0.75-3.273c-1.06-2.185-3.155-3.795-5.699-4.156l-19.225-2.729c-1.502-4.829-3.439-9.504-5.791-13.98    l11.664-15.524c0.701-0.933,1.155-1.984,1.366-3.067c0.465-2.384-0.242-4.929-2.059-6.745l-20.818-20.818    c-0.209-0.209-0.431-0.399-0.658-0.578c-0.06-0.047-0.12-0.092-0.181-0.137c-0.191-0.142-0.387-0.274-0.589-0.396    c-0.046-0.028-0.09-0.058-0.136-0.085c-0.088-0.05-0.177-0.095-0.266-0.142c-0.162-0.085-0.326-0.166-0.493-0.238    c-0.049-0.021-0.099-0.039-0.148-0.059c-0.221-0.09-0.445-0.169-0.672-0.237c-0.059-0.018-0.117-0.036-0.176-0.052    c-0.546-0.15-1.107-0.236-1.67-0.26c-0.063-0.003-0.125-0.004-0.187-0.005c-0.086-0.001-0.172-0.008-0.258-0.007    c-0.163,0.003-0.326,0.016-0.488,0.03c-0.035,0.003-0.07,0.003-0.105,0.007c-0.278,0.027-0.553,0.071-0.828,0.128    c-0.022,0.005-0.044,0.005-0.066,0.01c0.319-34.133,13.426-66.483,36.989-91.22c2.858-3,2.742-7.75-0.258-10.609    c-3-2.857-7.75-2.742-10.609,0.258c-26.526,27.848-41.135,64.372-41.135,102.846c0,2.939,0.099,5.938,0.28,8.951l-3.681,2.766    c-4.476-2.353-9.152-4.29-13.981-5.792l-2.729-19.225c-0.051-0.36-0.134-0.708-0.234-1.048c-0.016-0.056-0.031-0.113-0.048-0.168    c-0.102-0.321-0.225-0.631-0.367-0.93c-0.028-0.06-0.057-0.118-0.087-0.176c-0.151-0.298-0.317-0.587-0.504-0.861    c-0.023-0.033-0.048-0.064-0.072-0.097c-0.187-0.263-0.39-0.513-0.608-0.749c-0.026-0.028-0.049-0.057-0.075-0.085    c-0.228-0.24-0.475-0.461-0.733-0.668c-0.049-0.039-0.097-0.078-0.146-0.116c-0.259-0.198-0.53-0.381-0.814-0.544    c-0.048-0.028-0.098-0.053-0.147-0.079c-0.301-0.165-0.61-0.315-0.934-0.438c-0.002-0.001-0.005-0.001-0.007-0.002    c-0.322-0.122-0.657-0.215-0.997-0.292c-0.035-0.008-0.066-0.022-0.101-0.029c0.866-7.833,2.251-15.552,4.131-23.118    c0.015-0.054,0.04-0.102,0.053-0.157c7.107-28.443,21.423-54.924,41.399-76.582c0.005-0.006,0.009-0.013,0.015-0.019    c2.841-3.076,5.796-6.068,8.872-8.96c0.065-0.061,0.132-0.12,0.196-0.18c0.001-0.001,0.002-0.001,0.003-0.002    c1.235-1.157,2.489-2.292,3.756-3.413c0.216-0.192,0.435-0.38,0.652-0.571c1.176-1.029,2.362-2.045,3.564-3.042    c0.088-0.073,0.175-0.147,0.263-0.22c17.973-14.85,38.805-26.052,61.026-32.798c0.216-0.065,0.431-0.132,0.647-0.196    c1.631-0.488,3.267-0.956,4.912-1.397c0.006-0.001,0.011-0.004,0.017-0.005c5.164-1.379,10.402-2.52,15.696-3.426    c0.592-0.101,1.185-0.198,1.778-0.293c0.698-0.112,1.397-0.22,2.097-0.324c0.678-0.1,1.357-0.197,2.037-0.29    c0.578-0.079,1.158-0.153,1.737-0.226c0.81-0.102,1.621-0.201,2.432-0.291c0.41-0.046,0.821-0.088,1.232-0.131    c0.973-0.102,1.948-0.2,2.923-0.285c0.198-0.018,0.398-0.032,0.596-0.049c7.554-0.637,15.17-0.797,22.754-0.474    c0.043,0.002,0.085,0.003,0.128,0.005c1.115,0.048,2.229,0.111,3.343,0.18c0.296,0.018,0.592,0.036,0.887,0.056    c0.966,0.065,1.932,0.139,2.896,0.219c0.491,0.041,0.981,0.086,1.472,0.131c0.803,0.074,1.606,0.15,2.407,0.235    c0.792,0.084,1.582,0.177,2.37,0.272c0.518,0.062,1.036,0.12,1.554,0.186c86.47,11.182,153.489,85.286,153.489,174.751    c0,15.216-1.94,30.32-5.768,44.893c-1.052,4.008,1.344,8.111,5.351,9.163c4.01,1.055,8.111-1.344,9.163-5.351    c4.153-15.817,6.26-32.204,6.26-48.705C500.065,264.314,475.496,213.531,436.505,178.499z M133.805,339.862    c4.396,1.076,8.656,2.586,12.737,4.499c2.206,1.034,4.363,2.181,6.454,3.451c1.64,0.995,3.554,1.305,5.357,0.945    c1.083-0.215,2.125-0.669,3.045-1.361l14.238-10.7l11.606,11.606l-10.699,14.239c-1.843,2.452-2.007,5.78-0.415,8.401    c3.618,5.96,6.293,12.417,7.95,19.193c0.729,2.979,3.196,5.215,6.235,5.647l17.635,2.504V414.7l-17.633,2.503    c-3.036,0.431-5.505,2.666-6.235,5.646c-1.658,6.777-4.333,13.234-7.951,19.193c-1.592,2.622-1.428,5.95,0.415,8.402l10.699,14.24    l-11.606,11.606l-14.238-10.7c-2.453-1.843-5.781-2.008-8.402-0.415c-5.962,3.619-12.42,6.294-19.193,7.951    c-2.98,0.728-5.216,3.197-5.648,6.234l-2.503,17.634h-16.412l-2.503-17.634c-0.431-3.036-2.667-5.505-5.648-6.234    c-6.774-1.657-13.231-4.332-19.192-7.951c-2.623-1.594-5.951-1.428-8.401,0.414l-14.239,10.7l-11.606-11.606l10.699-14.239    c1.843-2.453,2.007-5.78,0.414-8.402c-3.618-5.958-6.293-12.415-7.95-19.191c-0.729-2.979-3.196-5.215-6.235-5.647L26.947,414.7    v-16.414l17.634-2.503c3.037-0.431,5.506-2.667,6.235-5.647c1.657-6.776,4.332-13.234,7.95-19.192    c1.593-2.622,1.429-5.949-0.414-8.402l-10.699-14.24l11.605-11.606l14.24,10.7c2.45,1.842,5.778,2.006,8.401,0.415    c5.96-3.619,12.417-6.294,19.192-7.951c2.98-0.728,5.216-3.197,5.648-6.234l2.503-17.634h16.302h0.11l2.503,17.634    C128.589,336.664,130.825,339.133,133.805,339.862z M177.51,181.767c-3.006,2.844-5.911,5.773-8.71,8.78    c-6.202,4.419-13.495,6.757-21.146,6.757c-20.133,0-36.513-16.379-36.513-36.513c0-20.133,16.379-36.513,36.513-36.513    c20.133,0,36.513,16.379,36.513,36.513C184.167,168.363,181.857,175.597,177.51,181.767z M217.8,118.297    c4.324,7.122,7.523,14.842,9.504,22.943c0.509,2.083,1.87,3.802,3.68,4.795c-11.152,4.974-21.842,11.025-31.919,18.107    c0.071-1.112,0.107-2.229,0.107-3.351c0-28.408-23.112-51.519-51.519-51.519c-28.409,0-51.519,23.112-51.519,51.519    c0,28.408,23.11,51.519,51.519,51.519c1.255,0,2.503-0.045,3.743-0.134c-7.125,10.31-13.187,21.268-18.132,32.717    c-0.893-2.192-2.791-3.873-5.159-4.452c-8.102-1.982-15.82-5.179-22.943-9.504c-1.201-0.729-2.549-1.09-3.894-1.09    c-1.593,0-3.179,0.505-4.508,1.505l-17.666,13.273L63.82,229.353l13.274-17.665c1.843-2.452,2.007-5.78,0.414-8.402    c-4.325-7.123-7.523-14.843-9.504-22.944c-0.729-2.979-3.197-5.215-6.235-5.647l-21.875-3.105v-21.598l21.875-3.105    c3.037-0.431,5.505-2.667,6.235-5.647c1.981-8.102,5.18-15.821,9.504-22.943c1.593-2.622,1.429-5.95-0.414-8.402L63.821,92.23    l15.273-15.273l17.665,13.274c2.45,1.842,5.777,2.006,8.401,0.415c7.123-4.326,14.843-7.523,22.943-9.504    c2.98-0.728,5.215-3.196,5.648-6.234l3.105-21.876h21.598l3.105,21.876c0.432,3.037,2.667,5.505,5.648,6.234    c8.1,1.981,15.819,5.178,22.943,9.504c2.623,1.593,5.95,1.428,8.402-0.415l17.664-13.274l15.273,15.273l-13.274,17.665    C216.372,112.348,216.207,115.675,217.8,118.297z M333.462,131.091c-0.056-0.007-0.113-0.012-0.17-0.019    c-1.853-0.237-3.715-0.443-5.583-0.626c-0.434-0.043-0.868-0.077-1.303-0.116c-1.498-0.137-2.999-0.257-4.507-0.36    c-0.481-0.032-0.962-0.063-1.444-0.092c-1.57-0.094-3.144-0.169-4.724-0.226c-0.34-0.012-0.678-0.028-1.018-0.039    c-1.95-0.059-3.904-0.098-5.868-0.098c-1.943,0-3.88,0.04-5.815,0.098c-0.309,0.009-0.617,0.022-0.926,0.033    c-1.681,0.058-3.357,0.138-5.03,0.24c-0.293,0.018-0.586,0.033-0.879,0.052c-3.814,0.25-7.607,0.614-11.378,1.088    c-0.196,0.025-0.392,0.041-0.588,0.066v-29.391c0-13.573,11.043-24.616,24.616-24.616c13.573,0,24.617,11.043,24.617,24.616    V131.091z M308.846,62.075c-13.956,0-26.242,7.26-33.302,18.194c-5.043-6.948-7.833-15.347-7.833-24.128    c0-22.681,18.453-41.135,41.135-41.135c22.682,0,41.135,18.453,41.135,41.135c0,8.781-2.789,17.181-7.832,24.13    C335.089,69.336,322.803,62.075,308.846,62.075z" data-original="#000000" class="active-path" data-old_color="#000000" fill="#044630"/>
	</g>
</g><g>
	<g>
		<path d="M117.449,361.566c-24.774,0-44.928,20.155-44.928,44.927c0,13.8,6.209,26.638,17.033,35.222    c3.247,2.574,7.968,2.03,10.542-1.218s2.029-7.967-1.218-10.542c-7.214-5.72-11.351-14.272-11.351-23.463    c0-16.498,13.423-29.921,29.922-29.921c16.498,0,29.921,13.423,29.921,29.921c0,16.499-13.422,29.922-29.921,29.922    c-4.145,0-7.503,3.359-7.503,7.503c0,4.144,3.359,7.503,7.503,7.503c24.773,0,44.927-20.155,44.927-44.928    C162.377,381.72,142.223,361.566,117.449,361.566z" data-original="#000000" class="active-path" data-old_color="#000000" fill="#044630"/>
	</g>
</g><g>
	<g>
		<path d="M390.186,261.106c-10.029-10.028-26.348-10.03-36.379,0.001l-64.689,64.689l-23.251-23.252    c-10.028-10.028-26.348-10.029-36.378,0.001c-10.028,10.03-10.028,26.348,0,36.378l41.439,41.44    c4.859,4.857,11.318,7.533,18.188,7.533c6.871,0,13.331-2.676,18.19-7.534l82.879-82.878    C400.214,287.455,400.214,271.135,390.186,261.106z M379.573,286.874l-82.879,82.879c-2.023,2.024-4.715,3.138-7.577,3.138    c-2.82,0-5.583-1.145-7.576-3.138l-41.44-41.44c-4.179-4.179-4.179-10.978-0.001-15.156c2.09-2.089,4.833-3.133,7.578-3.133    c2.743,0,5.487,1.044,7.576,3.133l28.556,28.557c1.408,1.408,3.315,2.198,5.306,2.198c1.99,0,3.899-0.79,5.306-2.198    l69.996-69.995c4.178-4.179,10.977-4.179,15.154-0.001C383.752,275.897,383.752,282.696,379.573,286.874z" data-original="#000000" class="active-path" data-old_color="#000000" fill="#044630"/>
	</g>
</g></g> </svg>
