<?xml version="1.0"?>
<svg xmlns="http://www.w3.org/2000/svg" xmlns:xlink="http://www.w3.org/1999/xlink" version="1.1" id="Capa_1" x="0px" y="0px" viewBox="0 0 511.998 511.998" style="enable-background:new 0 0 511.998 511.998;" xml:space="preserve" width="512px" height="512px" class=""><g><g>
	<g>
		<path d="M330.886,90.218c-9.605-9.604-25.235-9.603-34.841,0.001l-60.612,60.612l-21.596-21.596    c-9.604-9.603-25.234-9.605-34.841,0c-4.653,4.654-7.216,10.84-7.216,17.421s2.563,12.768,7.216,17.421l39.016,39.015    c4.653,4.654,10.839,7.216,17.421,7.216c6.581,0,12.768-2.563,17.42-7.216l78.033-78.032    C340.492,115.455,340.492,99.824,330.886,90.218z M320.302,114.478l-78.034,78.033c-1.827,1.827-4.255,2.833-6.838,2.833    c-2.584,0-5.012-1.006-6.839-2.833l-39.017-39.016c-3.77-3.772-3.77-9.907,0.001-13.678c1.885-1.886,4.362-2.828,6.839-2.828    c2.476,0,4.954,0.942,6.839,2.828l26.887,26.887c2.922,2.921,7.66,2.921,10.581,0l65.903-65.903    c3.772-3.77,9.907-3.771,13.678-0.001C324.073,104.571,324.073,110.707,320.302,114.478z" data-original="#000000" class="active-path" data-old_color="#000000" fill="#044630"/>
	</g>
</g><g>
	<g>
		<path d="M254.939,0.651c-35.561,0-69.711,13.068-96.157,36.794c-3.076,2.76-3.332,7.49-0.573,10.567    c2.76,3.075,7.49,3.331,10.566,0.573c23.697-21.261,54.298-32.969,86.165-32.969c71.175,0,129.08,57.905,129.08,129.08    s-57.905,129.08-129.08,129.08c-71.174,0-129.079-57.905-129.079-129.08c0-27.111,8.309-53.054,24.029-75.023    c2.404-3.36,1.629-8.035-1.731-10.439c-3.36-2.404-8.034-1.628-10.439,1.731c-17.547,24.524-26.823,53.478-26.823,83.731    c0,79.425,64.618,144.044,144.043,144.044c79.425,0,144.043-64.618,144.043-144.044C398.983,65.27,334.366,0.651,254.939,0.651z" data-original="#000000" class="active-path" data-old_color="#000000" fill="#044630"/>
	</g>
</g><g>
	<g>
		<path d="M508.534,196.261c-3.503-5.576-9.246-9.338-15.756-10.323c-9.393-1.417-18.377,3.108-22.936,11.046    c-2.396-1.643-5.138-2.782-8.058-3.301c-10.107-1.8-20.109,4.211-23.266,13.978l-3.507,10.842    c-1.891-1.259-3.982-2.226-6.213-2.801c-10.605-2.736-21.449,3.315-24.695,13.772l-2.297,7.396    c-2.497-1.691-5.356-2.847-8.403-3.347c-10.341-1.694-20.202,4.307-23.445,14.27l-23.753,72.947    c-5.66,2.533-17.435,8.518-29.548,19.044c-3.119,2.712-3.45,7.436-0.739,10.556c2.711,3.118,7.435,3.448,10.556,0.739    c14.294-12.422,28.241-17.694,28.364-17.741c0.03-0.011,0.058-0.026,0.088-0.038c0.156-0.059,0.307-0.127,0.459-0.196    c0.078-0.036,0.157-0.068,0.232-0.107c0.163-0.082,0.32-0.174,0.477-0.267c0.062-0.037,0.125-0.069,0.185-0.108    c0.17-0.108,0.333-0.227,0.495-0.35c0.043-0.033,0.089-0.061,0.131-0.095c0.201-0.16,0.396-0.329,0.583-0.511l18.648-18.215    l32.577-31.821c1.357-1.327,3.147-2.033,5.048-2.022c0.237,0.003,0.473,0.017,0.705,0.043c1.629,0.18,3.133,0.91,4.295,2.099    c2.495,2.553,2.701,6.588,0.48,9.385l-56.907,71.627c-2.35,2.958-2.127,7.204,0.522,9.898c0.174,0.177,0.356,0.342,0.543,0.499    c0.064,0.054,0.132,0.1,0.197,0.152c0.126,0.098,0.251,0.197,0.382,0.285c0.081,0.055,0.164,0.104,0.246,0.155    c0.121,0.076,0.24,0.151,0.364,0.219c0.09,0.05,0.182,0.094,0.273,0.14c0.121,0.06,0.241,0.119,0.364,0.172    c0.096,0.042,0.194,0.08,0.291,0.117c0.122,0.047,0.244,0.091,0.369,0.131c0.101,0.033,0.201,0.063,0.302,0.091    c0.125,0.035,0.25,0.066,0.377,0.094c0.102,0.023,0.203,0.045,0.306,0.063c0.129,0.023,0.257,0.04,0.387,0.057    c0.102,0.013,0.204,0.027,0.306,0.035c0.134,0.011,0.266,0.015,0.4,0.019c0.077,0.003,0.153,0.011,0.228,0.011    c0.016,0,0.033-0.004,0.049-0.004c0.348-0.002,0.695-0.033,1.041-0.084c0.062-0.009,0.124-0.018,0.186-0.029    c0.34-0.059,0.677-0.142,1.01-0.247c0.06-0.019,0.118-0.04,0.178-0.061c0.336-0.117,0.666-0.255,0.988-0.422    c0.042-0.022,0.081-0.047,0.122-0.069c0.336-0.184,0.665-0.388,0.978-0.628l30.814-23.617    c19.822-15.192,35.992-33.983,47.848-55.411c1.694-3.061,3.299-6.176,4.815-9.342c1.011-2.111,1.981-4.244,2.911-6.399    c2.789-6.466,5.215-13.128,7.258-19.963l15.771-52.751c1.177-3.536,4.69-5.703,8.384-5.136c2.232,0.337,4.121,1.575,5.322,3.487    c1.201,1.911,1.495,4.152,0.831,6.309l-23.641,76.717c-1.217,3.952-2.428,7.984-3.653,12.066    c-10.271,34.217-21.915,73-48.117,94.396l-57.826,47.221c-1.741,1.422-2.749,3.549-2.749,5.796v49.656h-71.233v-69.88    c0.371-3.233,3.832-30.183,18.072-53.274c2.169-3.517,1.076-8.127-2.441-10.295c-3.518-2.17-8.127-1.075-10.295,2.441    c-16.975,27.526-20.138,58.695-20.265,60.008c-0.023,0.237-0.035,0.477-0.035,0.716v77.768c0,4.133,3.35,7.482,7.482,7.482h86.197    c4.132,0,7.482-3.349,7.482-7.482v-53.589l55.076-44.976c29.753-24.296,42.095-65.41,52.984-101.684    c1.215-4.048,2.415-8.045,3.622-11.961l23.641-76.717C512.933,208.644,512.036,201.838,508.534,196.261z M395.824,256.126    l-7.652,24.642l-19.383,18.933l15.395-47.276c0.834-2.561,3.176-4.219,5.785-4.219c0.333,0,0.67,0.027,1.01,0.083    c2.388,0.392,3.66,1.932,4.207,2.816C395.732,251.988,396.541,253.815,395.824,256.126z M428.945,237.255l-9.136,28.246    c-0.495-0.143-0.996-0.265-1.501-0.372c-0.065-0.014-0.131-0.022-0.196-0.035c-0.568-0.116-1.143-0.205-1.723-0.275    c-0.169-0.021-0.338-0.04-0.508-0.057c-0.644-0.064-1.292-0.11-1.946-0.118c-0.001,0-0.001,0-0.001,0    c-0.045-0.001-0.09,0-0.134-0.001c-0.044,0-0.089,0-0.133,0c0,0,0,0-0.001,0c-0.657,0-1.31,0.038-1.957,0.094    c-0.106,0.009-0.212,0.016-0.317,0.027c-0.622,0.063-1.237,0.155-1.847,0.268c-0.11,0.021-0.217,0.043-0.327,0.066    c-0.181,0.037-0.363,0.068-0.543,0.109l1.442-4.641c0.001-0.002,0.001-0.005,0.002-0.007l8.274-26.648    c0.876-2.823,3.806-4.458,6.667-3.718c1.493,0.385,2.726,1.342,3.469,2.693C429.272,234.235,429.42,235.787,428.945,237.255z     M463.617,215.642l-11.567,38.691c-1.031,3.446-2.166,6.842-3.404,10.186c-3.714,10.032-8.355,19.598-13.859,28.609    c0.007-0.022,0.011-0.045,0.018-0.067c0.121-0.405,0.227-0.812,0.325-1.221c0.034-0.145,0.063-0.29,0.095-0.435    c0.064-0.296,0.123-0.593,0.175-0.891c0.028-0.16,0.053-0.319,0.078-0.479c0.045-0.3,0.083-0.601,0.116-0.902    c0.016-0.145,0.034-0.289,0.047-0.434c0.037-0.42,0.065-0.84,0.079-1.26c0.001-0.027,0.003-0.055,0.004-0.083    c0.012-0.435,0.009-0.87-0.004-1.305c-0.004-0.144-0.014-0.286-0.021-0.43c-0.015-0.303-0.035-0.607-0.063-0.91    c-0.014-0.16-0.031-0.319-0.049-0.479c-0.034-0.3-0.075-0.6-0.121-0.899c-0.022-0.145-0.042-0.289-0.067-0.433    c-0.071-0.409-0.153-0.817-0.247-1.223c-0.006-0.027-0.011-0.055-0.017-0.082c-0.102-0.429-0.219-0.855-0.347-1.279    c-0.041-0.138-0.088-0.272-0.132-0.409c-0.095-0.293-0.194-0.585-0.3-0.874c-0.055-0.15-0.113-0.299-0.172-0.448    c-0.113-0.287-0.233-0.571-0.359-0.854c-0.059-0.133-0.116-0.266-0.178-0.398c-0.182-0.389-0.373-0.774-0.579-1.153    c-0.01-0.018-0.018-0.036-0.027-0.053c-0.192-0.351-0.392-0.697-0.604-1.039l10.747-33.23c0,0,0,0,0-0.001l9.572-29.595    c0.87-2.689,3.627-4.343,6.408-3.849c2.183,0.389,3.346,1.807,3.846,2.617C463.51,211.841,464.252,213.517,463.617,215.642z" data-original="#000000" class="active-path" data-old_color="#000000" fill="#044630"/>
	</g>
</g><g>
	<g>
		<path d="M237.451,425.38c-0.142-1.492-3.748-36.903-23.925-65.567c-16.547-23.509-39.148-35.249-47.734-39.081l-23.752-72.941    c-3.244-9.963-13.109-15.969-23.445-14.27c-3.047,0.5-5.905,1.657-8.402,3.347l-2.297-7.396    c-3.246-10.455-14.092-16.5-24.695-13.772c-2.232,0.576-4.322,1.541-6.213,2.8l-3.507-10.842    c-3.158-9.767-13.162-15.785-23.265-13.978c-2.921,0.519-5.661,1.658-8.059,3.301c-4.56-7.939-13.549-12.465-22.936-11.046    c-6.51,0.985-12.254,4.748-15.757,10.323c-3.503,5.577-4.399,12.383-2.46,18.677l23.641,76.717    c1.207,3.918,2.407,7.915,3.622,11.962c9.279,30.908,19.796,65.94,41.415,90.492c2.73,3.102,7.459,3.403,10.56,0.671    c3.101-2.73,3.402-7.459,0.67-10.56c-19.458-22.098-29.476-55.466-38.314-84.905c-1.226-4.083-2.436-8.117-3.654-12.068    l-23.641-76.717c-0.665-2.157-0.37-4.397,0.831-6.309c1.201-1.911,3.092-3.149,5.322-3.487c3.688-0.562,7.207,1.598,8.384,5.136    l4.201,14.052c0.001,0.003,0.001,0.005,0.002,0.008L45.61,258.62c10.559,35.32,31.279,65.991,60.024,88.92    c0.927,0.739,1.863,1.471,2.806,2.195l30.814,23.617c0.315,0.241,0.646,0.448,0.986,0.633c0.037,0.02,0.073,0.043,0.111,0.063    c0.324,0.17,0.658,0.309,0.999,0.427c0.055,0.019,0.109,0.039,0.164,0.056c0.336,0.109,0.678,0.193,1.024,0.251    c0.056,0.01,0.113,0.017,0.169,0.026c0.351,0.052,0.703,0.083,1.057,0.085c0.014,0,0.028,0.003,0.042,0.003    c0.066,0,0.132-0.008,0.198-0.01c0.148-0.004,0.295-0.009,0.442-0.022c0.092-0.008,0.184-0.02,0.275-0.031    c0.141-0.017,0.28-0.037,0.419-0.062c0.094-0.017,0.188-0.037,0.28-0.058c0.136-0.03,0.27-0.063,0.404-0.1    c0.094-0.026,0.187-0.054,0.279-0.084c0.132-0.042,0.262-0.09,0.392-0.139c0.091-0.035,0.182-0.07,0.271-0.109    c0.13-0.056,0.256-0.117,0.383-0.181c0.087-0.043,0.173-0.085,0.257-0.132c0.129-0.071,0.254-0.149,0.379-0.227    c0.078-0.049,0.157-0.095,0.233-0.147c0.134-0.092,0.263-0.192,0.392-0.292c0.063-0.049,0.128-0.094,0.19-0.146    c0.188-0.157,0.369-0.322,0.544-0.499c2.648-2.695,2.871-6.94,0.521-9.898l-56.906-71.627c-0.277-0.349-0.518-0.718-0.719-1.101    c-0.122-0.229-0.224-0.466-0.318-0.704c-0.207-0.522-0.348-1.063-0.425-1.61c-0.3-2.123,0.357-4.346,1.944-5.97    c0.116-0.118,0.238-0.226,0.36-0.335c0.054-0.048,0.106-0.102,0.161-0.149c0.07-0.058,0.144-0.109,0.214-0.164    c0.119-0.092,0.235-0.187,0.358-0.269c0.033-0.022,0.068-0.04,0.101-0.062c1.485-0.972,3.257-1.328,4.957-1.071    c0.073,0.011,0.146,0.017,0.217,0.03c0.086,0.016,0.171,0.04,0.256,0.059c0.143,0.032,0.285,0.061,0.426,0.102    c0.043,0.012,0.084,0.03,0.127,0.043c0.18,0.056,0.359,0.114,0.534,0.183c0.017,0.007,0.034,0.016,0.051,0.023    c0.198,0.08,0.392,0.168,0.582,0.265c0.016,0.008,0.031,0.019,0.047,0.027c0.189,0.099,0.373,0.204,0.553,0.321    c0.05,0.033,0.098,0.072,0.148,0.106c0.143,0.098,0.284,0.195,0.42,0.302c0.185,0.147,0.363,0.304,0.535,0.472l51.225,50.036    c0.186,0.182,0.38,0.35,0.58,0.509c0.051,0.04,0.106,0.075,0.157,0.114c0.154,0.116,0.308,0.229,0.469,0.331    c0.065,0.042,0.134,0.077,0.2,0.116c0.153,0.091,0.305,0.18,0.462,0.258c0.08,0.04,0.163,0.075,0.244,0.112    c0.148,0.068,0.295,0.134,0.446,0.191c0.031,0.012,0.06,0.027,0.091,0.039c0.262,0.097,26.411,9.918,44.13,35.091    c16.905,24.016,20.84,54.648,21.233,58.073v69.883h-71.233v-49.656c0-2.247-1.01-4.375-2.749-5.796l-45.193-36.905    c-3.2-2.612-7.914-2.138-10.528,1.062c-2.614,3.201-2.138,7.915,1.063,10.529l42.444,34.659v53.589    c0,4.133,3.35,7.482,7.482,7.482h86.197c4.132,0,7.482-3.349,7.482-7.482v-77.768C237.486,425.856,237.474,425.618,237.451,425.38    z M78.959,276.128c-0.011,0.02-0.02,0.041-0.031,0.061c-0.204,0.378-0.395,0.761-0.577,1.148c-0.061,0.13-0.117,0.262-0.175,0.393    c-0.127,0.284-0.247,0.571-0.361,0.859c-0.058,0.148-0.115,0.294-0.17,0.443c-0.109,0.293-0.208,0.589-0.304,0.885    c-0.043,0.132-0.088,0.263-0.128,0.396c-0.129,0.426-0.247,0.855-0.349,1.287c-0.004,0.016-0.006,0.032-0.01,0.048    c-0.098,0.417-0.181,0.837-0.254,1.258c-0.024,0.139-0.043,0.277-0.065,0.417c-0.047,0.305-0.089,0.612-0.124,0.918    c-0.017,0.155-0.033,0.309-0.047,0.464c-0.028,0.308-0.049,0.617-0.064,0.927c-0.007,0.139-0.016,0.277-0.021,0.416    c-0.013,0.443-0.017,0.886-0.004,1.328c0,0.009,0.001,0.017,0.001,0.026c0.013,0.434,0.042,0.868,0.081,1.301    c0.013,0.141,0.031,0.281,0.046,0.422c0.033,0.306,0.072,0.612,0.118,0.917c0.024,0.156,0.049,0.311,0.076,0.467    c0.053,0.303,0.113,0.606,0.179,0.907c0.03,0.141,0.058,0.281,0.091,0.421c0.1,0.421,0.209,0.84,0.334,1.256    c0.004,0.012,0.006,0.024,0.009,0.036c-4.587-7.509-8.575-15.404-11.925-23.633c-0.976-2.397-1.88-4.832-2.746-7.285    c-0.919-2.599-1.796-5.219-2.59-7.876l-11.567-38.691c-0.635-2.125,0.108-3.802,0.608-4.612c0.499-0.811,1.663-2.228,3.847-2.617    c0.331-0.059,0.66-0.087,0.988-0.087c2.423,0,4.653,1.566,5.419,3.936l20.319,62.826C79.35,275.431,79.149,275.777,78.959,276.128    z M102.468,265.036c-0.032-0.006-0.063-0.013-0.094-0.019c-0.665-0.123-1.337-0.214-2.017-0.275    c-0.084-0.008-0.169-0.013-0.253-0.02c-0.673-0.053-1.352-0.086-2.04-0.08c-0.655,0.008-1.304,0.054-1.948,0.118    c-0.17,0.017-0.338,0.036-0.507,0.057c-0.579,0.071-1.153,0.16-1.72,0.274c-0.066,0.013-0.133,0.022-0.199,0.036    c-0.506,0.108-1.007,0.23-1.5,0.372l-9.136-28.247c-0.476-1.465-0.327-3.017,0.415-4.368c0.743-1.352,1.974-2.308,3.469-2.693    c0.464-0.12,0.93-0.178,1.389-0.178c2.369,0,4.545,1.53,5.279,3.895l9.718,31.297C103.039,265.14,102.753,265.089,102.468,265.036    z M137.222,293.856l-13.398-13.088l-7.652-24.643c-0.717-2.31,0.092-4.137,0.637-5.02c0.546-0.885,1.819-2.425,4.206-2.816    c2.997-0.489,5.855,1.248,6.796,4.136l15.395,47.277L137.222,293.856z" data-original="#000000" class="active-path" data-old_color="#000000" fill="#044630"/>
	</g>
</g></g> </svg>
