<?xml version="1.0"?>
<svg xmlns="http://www.w3.org/2000/svg" xmlns:xlink="http://www.w3.org/1999/xlink" version="1.1" id="Capa_1" x="0px" y="0px" viewBox="0 0 511.999 511.999" style="enable-background:new 0 0 511.999 511.999;" xml:space="preserve" width="512px" height="512px" class=""><g><g>
	<g>
		<path d="M459.041,32.666c-1.321-4.067-4.771-6.975-9.003-7.59l-17.406-2.529L424.85,6.773c-1.893-3.835-5.725-6.217-10.002-6.217    s-8.108,2.383-10.001,6.218V6.773l-7.784,15.772l-17.405,2.529c-4.232,0.615-7.682,3.523-9.004,7.591    c-1.322,4.067-0.241,8.448,2.823,11.434l12.594,12.277l-2.974,17.334c-0.723,4.215,0.977,8.395,4.436,10.909    c3.46,2.514,7.961,2.839,11.746,0.849l15.567-8.184l15.567,8.184c1.646,0.866,3.428,1.293,5.201,1.293    c2.302,0,4.589-0.721,6.545-2.142c3.46-2.514,5.161-6.693,4.437-10.908l-2.974-17.335l12.595-12.276    C459.282,41.114,460.363,36.732,459.041,32.666z M431.723,47.048c-2.629,2.562-3.829,6.253-3.208,9.872l2,11.663l-10.473-5.506    c-3.249-1.709-7.131-1.71-10.381,0l-10.474,5.507l2-11.664c0.62-3.619-0.579-7.31-3.208-9.871l-8.474-8.26l11.711-1.702    c3.632-0.528,6.771-2.809,8.397-6.101l5.238-10.612l5.238,10.612c1.625,3.292,4.764,5.572,8.397,6.1l11.711,1.702L431.723,47.048z    " data-original="#000000" class="active-path" data-old_color="#000000" fill="#044630"/>
	</g>
</g><g>
	<g>
		<path d="M272.095,276.211c-1.453-4.472-5.246-7.67-9.897-8.345l-23.843-3.465l-10.663-21.605    c-2.08-4.216-6.293-6.833-10.994-6.833c-4.7,0-8.912,2.619-10.992,6.833l-10.663,21.605l-23.843,3.465    c-4.651,0.675-8.443,3.873-9.896,8.343c-1.453,4.47-0.264,9.285,3.101,12.568l17.254,16.818l-4.073,23.746    c-0.794,4.632,1.074,9.227,4.876,11.99c3.803,2.763,8.75,3.119,12.911,0.934l21.326-11.212l21.325,11.212    c1.81,0.952,3.768,1.422,5.716,1.422c2.531,0,5.045-0.793,7.194-2.354c3.803-2.763,5.672-7.357,4.878-11.99l-4.073-23.746    l17.253-16.818C272.359,285.498,273.548,280.683,272.095,276.211z M240.252,295.861c-2.893,2.817-4.211,6.874-3.528,10.853    l3.381,19.712l-17.701-9.306c-1.787-0.939-3.746-1.409-5.705-1.409s-3.919,0.47-5.704,1.409l-17.702,9.306l3.381-19.713    c0.682-3.978-0.636-8.034-3.525-10.849l-14.321-13.961l19.792-2.876c3.993-0.581,7.444-3.087,9.23-6.706l8.851-17.934    l8.851,17.933c1.786,3.62,5.237,6.127,9.23,6.708l19.792,2.876L240.252,295.861z" data-original="#000000" class="active-path" data-old_color="#000000" fill="#044630"/>
	</g>
</g><g>
	<g>
		<path d="M441.197,372.777c-1.604-4.929-5.783-8.452-10.911-9.196l-31.148-4.526l-13.93-28.226    c-2.293-4.646-6.937-7.534-12.119-7.534c-5.182,0-9.825,2.887-12.118,7.534l-13.93,28.226l-31.147,4.526    c-5.128,0.745-9.307,4.268-10.909,9.196c-1.602,4.928-0.292,10.237,3.419,13.854l22.539,21.97l-5.321,31.022    c-0.875,5.107,1.184,10.172,5.376,13.217c2.369,1.722,5.141,2.596,7.932,2.596c2.147,0,4.307-0.518,6.302-1.567l27.859-14.647    l27.86,14.647c4.587,2.412,10.041,2.017,14.231-1.028c4.192-3.045,6.252-8.11,5.377-13.217l-5.322-31.023l22.54-21.971    C441.488,383.013,442.797,377.705,441.197,372.777z M404.219,398.409c-3.185,3.104-4.638,7.576-3.887,11.961l4.947,28.842    l-25.902-13.617c-1.969-1.035-4.129-1.553-6.289-1.553c-2.159,0-4.319,0.518-6.289,1.553l-25.902,13.618l4.947-28.842    c0.752-4.384-0.7-8.857-3.887-11.962l-20.956-20.426l28.96-4.208c4.402-0.64,8.206-3.403,10.175-7.392l12.951-26.242    l12.951,26.243c1.969,3.989,5.773,6.752,10.175,7.392l28.96,4.209L404.219,398.409z" data-original="#000000" class="active-path" data-old_color="#000000" fill="#044630"/>
	</g>
</g><g>
	<g>
		<path d="M509.866,274.454l-27.982-28.652c-2.893-2.962-7.637-3.018-10.597-0.126c-2.961,2.892-3.018,7.637-0.126,10.597    l15.551,15.923H350.236l28.862-65.073c0.031-0.07,0.051-0.144,0.08-0.215c0.062-0.153,0.119-0.307,0.171-0.463    c0.046-0.138,0.088-0.276,0.125-0.416c0.042-0.156,0.078-0.312,0.11-0.469c0.029-0.143,0.055-0.286,0.075-0.43    c0.022-0.158,0.038-0.316,0.05-0.475c0.011-0.145,0.02-0.29,0.023-0.435c0.003-0.159-0.001-0.318-0.009-0.477    c-0.007-0.145-0.015-0.291-0.03-0.436c-0.016-0.157-0.04-0.314-0.067-0.471c-0.025-0.146-0.05-0.29-0.083-0.434    c-0.035-0.154-0.078-0.305-0.124-0.457c-0.043-0.144-0.087-0.288-0.139-0.43c-0.021-0.058-0.034-0.117-0.057-0.175l-30.609-77.96    h112.15l-42.654,70.527c-1.768,2.923-1.335,6.671,1.051,9.115l30.858,31.597c2.892,2.962,7.637,3.016,10.597,0.126    c2.961-2.892,3.018-7.637,0.125-10.597l-26.805-27.446l46.53-76.936c1.4-2.314,1.444-5.203,0.116-7.559    c-1.329-2.356-3.824-3.813-6.528-3.813H342.73l-9.042-23.03c-1.513-3.852-5.863-5.748-9.714-4.237    c-3.853,1.513-5.749,5.862-4.237,9.714l41.518,105.746H95.394L53.92,47.778h248.907l5.739,14.616    c1.512,3.852,5.861,5.748,9.714,4.237c3.852-1.513,5.749-5.861,4.237-9.714l-7.606-19.371c-1.126-2.869-3.894-4.755-6.975-4.755    H49.744l-4.402-15.798C42.56,7.016,33.416,0.047,23.106,0.047c-7.261,0-13.952,3.326-18.356,9.126    c-4.437,5.844-5.851,13.255-3.879,20.333l63.684,228.504c1.111,3.986,5.243,6.318,9.23,5.207c3.987-1.111,6.318-5.244,5.207-9.23    L15.308,25.484c-0.703-2.525-0.202-5.166,1.378-7.245c1.546-2.035,3.886-3.203,6.42-3.203c3.609,0,6.816,2.46,7.798,5.981    c0,0.001,0,0,0,0.001l132.645,475.946h-16.84l-59.404-213.15c-1.111-3.986-5.243-6.32-9.23-5.207    c-3.987,1.111-6.318,5.244-5.207,9.23l60.932,218.633c0.903,3.24,3.855,5.482,7.219,5.482h32.399c2.343,0,4.551-1.096,5.968-2.962    c1.417-1.866,1.879-4.287,1.25-6.545L99.572,211.578h206.95l25.133,70.625c0.131,0.368,0.289,0.718,0.471,1.054    c0.064,0.118,0.146,0.224,0.216,0.338c0.128,0.209,0.253,0.422,0.399,0.615c0.094,0.125,0.205,0.234,0.307,0.352    c0.143,0.167,0.281,0.338,0.438,0.491c0.116,0.113,0.246,0.21,0.37,0.315c0.16,0.137,0.316,0.279,0.488,0.403    c0.135,0.097,0.28,0.176,0.421,0.264c0.176,0.11,0.348,0.224,0.533,0.319c0.151,0.078,0.31,0.137,0.467,0.204    c0.188,0.081,0.372,0.166,0.567,0.231c0.165,0.056,0.337,0.093,0.507,0.137c0.197,0.051,0.391,0.106,0.593,0.141    c0.176,0.031,0.356,0.043,0.535,0.061c0.158,0.016,0.312,0.048,0.472,0.054c0.095,0.003,0.189,0.005,0.283,0.005h165.789    c3.016,0,5.736-1.807,6.906-4.585C512.581,279.819,511.974,276.61,509.866,274.454z M322.43,211.577h38.296l-21.248,47.907    L322.43,211.577z" data-original="#000000" class="active-path" data-old_color="#000000" fill="#044630"/>
	</g>
</g></g> </svg>
