<?xml version="1.0" standalone="no"?>
<!DOCTYPE svg PUBLIC "-//W3C//DTD SVG 1.1//EN" "http://www.w3.org/Graphics/SVG/1.1/DTD/svg11.dtd" >
<svg xmlns="http://www.w3.org/2000/svg" xmlns:xlink="http://www.w3.org/1999/xlink" version="1.1">
<metadata>
Created by FontForge 20160405 at Mon Nov 13 08:43:01 2017
 By www-data
Copyright (c) ParaType, Inc., 2002. All rights reserved.
</metadata>
<defs>
<font id="MagistralTT-Bold" horiz-adv-x="659" >
  <font-face 
    font-family="MagistralTT"
    font-weight="700"
    font-stretch="normal"
    units-per-em="1000"
    panose-1="2 0 8 3 5 0 0 2 0 4"
    ascent="800"
    descent="-200"
    x-height="530"
    cap-height="700"
    bbox="-459 -298 1209 999"
    underline-thickness="50"
    underline-position="-175"
    unicode-range="U+0002-F6E2"
  />
<missing-glyph horiz-adv-x="500" 
d="M50 0h400v512h-400v-512zM58 8v496h384v-496h-384z" />
    <glyph glyph-name=".notdef" horiz-adv-x="500" 
d="M50 0h400v512h-400v-512zM58 8v496h384v-496h-384z" />
    <glyph glyph-name=".null" horiz-adv-x="0" 
 />
    <glyph glyph-name="nonmarkingreturn" horiz-adv-x="233" 
 />
    <glyph glyph-name="space" unicode=" " horiz-adv-x="233" 
 />
    <glyph glyph-name="exclam" unicode="!" horiz-adv-x="258" 
d="M68 0h122v124h-122v-124zM189 195l9 505h-138l9 -505h120z" />
    <glyph glyph-name="quotedbl" unicode="&#x22;" horiz-adv-x="389" 
d="M66 451h98l5 249h-109zM226 451h98l5 249h-109z" />
    <glyph glyph-name="numbersign" unicode="#" horiz-adv-x="874" 
d="M101 0h99l73 179h187l-72 -179h100l72 179h133l35 87h-133l71 176h133l35 86h-133l69 172h-100l-69 -172h-188l69 172h-100l-69 -172h-133l-35 -86h133l-71 -176h-133l-34 -86h132zM495 266h-188l71 176h188z" />
    <glyph glyph-name="dollar" unicode="$" horiz-adv-x="670" 
d="M66 0h228v-68h78v68h66q17 0 36 0.5t38 3.5t37 9.5t33 18.5q17 13 26.5 29.5t14.5 34.5t6 37t1 38q0 34 -4.5 62.5t-26.5 57.5q-25 33 -53.5 45t-55.5 21l-118 38v200h214v105h-214v68h-78v-68h-81q-17 0 -35.5 -1.5t-37 -6t-36 -14t-31.5 -25.5q-22 -25 -27.5 -56.5
t-5.5 -62.5q0 -24 4 -52.5t20 -55.5q20 -33 44 -45.5t52 -21.5l134 -43v-211h-228v-105zM372 105v186l50 -16q44 -14 58 -39.5t14 -54.5q0 -21 -6 -35.5t-15 -22.5q-13 -11 -37 -14.5t-40 -3.5h-24zM294 420l-66 21q-7 2 -16 6t-17 12t-13.5 20.5t-5.5 31.5q0 15 3.5 33.5
t14.5 29.5q9 9 27 15t46 6h27v-175z" />
    <glyph glyph-name="percent" unicode="%" horiz-adv-x="817" 
d="M188 0h88l357 700h-88zM215 706q-28 0 -60 -5.5t-56 -28.5q-14 -13 -21.5 -30t-11.5 -35t-5 -36t-1 -33q0 -17 1 -35t5 -35.5t11.5 -34t21.5 -29.5q24 -23 56 -28.5t60 -5.5q27 0 59 5.5t56 28.5q13 13 21 29.5t12 34.5t5.5 36t1.5 34q0 15 -1.5 33.5t-5.5 36.5t-12 34.5
t-21 29.5q-24 23 -56 28.5t-59 5.5zM142 538q0 33 4.5 51.5t12.5 28.5q11 14 26.5 17.5t29.5 3.5q13 0 28 -3.5t27 -17.5q14 -16 16 -39.5t2 -40.5t-2 -40.5t-16 -39.5q-12 -14 -27 -17.5t-28 -3.5q-14 0 -29.5 3.5t-26.5 17.5q-8 10 -12.5 28.5t-4.5 51.5zM602 330
q-28 0 -60 -5.5t-56 -28.5q-14 -13 -21.5 -30t-11.5 -35t-5 -36t-1 -33q0 -17 1 -35t5 -35.5t11.5 -34t21.5 -29.5q24 -23 56 -28.5t60 -5.5q27 0 59 5.5t56 28.5q13 13 21 29.5t12 34.5t5.5 36t1.5 34q0 15 -1.5 33.5t-5.5 36.5t-12 34.5t-21 29.5q-24 23 -56 28.5t-59 5.5
zM529 162q0 33 4.5 51.5t12.5 28.5q11 14 26.5 17.5t29.5 3.5q13 0 28 -3.5t27 -17.5q14 -16 16 -39.5t2 -40.5t-2 -40.5t-16 -39.5q-12 -14 -27 -17.5t-28 -3.5q-14 0 -29.5 3.5t-26.5 17.5q-8 10 -12.5 28.5t-4.5 51.5z" />
    <glyph glyph-name="ampersand" unicode="&#x26;" horiz-adv-x="745" 
d="M620 303h105v94h-419q-7 0 -18 0.5t-23 2.5t-23.5 6.5t-20.5 12.5t-14 19.5t-8 23.5t-3.5 22.5t-0.5 16.5q0 34 7 52.5t18 26.5q12 9 34.5 12.5t42.5 3.5h315v104h-366q-38 0 -74.5 -6.5t-65.5 -35.5q-16 -16 -25 -35t-13.5 -38t-5.5 -37.5t-1 -32.5q0 -32 6.5 -63.5
t27.5 -58.5q15 -20 33 -29.5t38 -11.5v-2q-32 -5 -51.5 -19.5t-28.5 -26.5q-19 -26 -22.5 -55.5t-3.5 -52.5q0 -35 6 -73t34 -71q16 -20 35 -30.5t38.5 -15.5t38 -5.5t35.5 -0.5h233q10 0 24.5 0.5t30 3t30.5 8t26 16.5q20 20 24.5 50t4.5 55v170zM444 104h-157q-17 0 -40 4
t-37 22q-2 3 -9 18.5t-7 52.5v12q0 9 1 19.5t3.5 21t6.5 17.5q5 8 20 19.5t48 11.5h218v-161q0 -8 -1 -16t-6 -13t-15.5 -6.5t-24.5 -1.5z" />
    <glyph glyph-name="quotesingle" unicode="'" horiz-adv-x="230" 
d="M66 451h98l6 249h-110z" />
    <glyph glyph-name="parenleft" unicode="(" horiz-adv-x="372" 
d="M151 409q0 31 3 66t23 67t59.5 55.5t95.5 24.5v84q-35 0 -65.5 -6.5t-55 -17t-44 -23.5t-33.5 -26q-27 -25 -41.5 -52.5t-22.5 -59.5q-8 -35 -9 -67.5t-1 -64.5v-230q0 -33 1 -63.5t8 -62.5q8 -36 22 -63t43 -54q25 -24 51.5 -39t52 -23t49.5 -10.5t45 -2.5v84
q-56 2 -96 26t-59 55q-20 32 -23 67.5t-3 64.5v271z" />
    <glyph glyph-name="parenright" unicode=")" horiz-adv-x="372" 
d="M222 409v-271q0 -51 -7.5 -82t-18.5 -50q-19 -32 -60 -55.5t-96 -25.5v-84q42 -1 94.5 13t104.5 62q29 27 42.5 54t21.5 63q7 34 8 63.5t1 62.5v230q0 34 -1 65t-9 67q-9 38 -24 64t-39 48q-35 32 -87 52t-112 21v-84q55 -1 96 -24.5t60 -55.5q26 -43 26 -133z" />
    <glyph glyph-name="asterisk" unicode="*" horiz-adv-x="511" 
d="M40 450l38 -66l142 82v-164h72v164l142 -82l36 63l-141 82l142 82l-38 66l-142 -82v163h-72v-164l-143 82l-36 -62l142 -82z" />
    <glyph glyph-name="plus" unicode="+" horiz-adv-x="579" 
d="M335 84v184h184v85h-184v184h-91v-184h-184v-85h184v-184h91z" />
    <glyph glyph-name="comma" unicode="," horiz-adv-x="278" 
d="M89 -116l129 199l-96 57l-122 -203z" />
    <glyph glyph-name="hyphen" unicode="-" horiz-adv-x="437" 
d="M40 218h357v103h-357v-103z" />
    <glyph glyph-name="period" unicode="." horiz-adv-x="242" 
d="M182 0v129h-122v-129h122z" />
    <glyph glyph-name="slash" unicode="/" horiz-adv-x="507" 
d="M69 -166l438 906h-69l-438 -906h69z" />
    <glyph glyph-name="zero" unicode="0" horiz-adv-x="644" 
d="M40 253q0 -22 2.5 -52.5t11 -62t25 -60.5t45.5 -49q21 -15 47.5 -22t53.5 -9.5t52 -2.5h45h44q26 0 53 2.5t53.5 9.5t47.5 22q15 10 30 27.5t27 44.5t19.5 64.5t7.5 87.5v201q0 43 -7 75.5t-17.5 57t-23.5 41t-25 27.5q-21 18 -45.5 28.5t-51.5 16t-55.5 6.5t-56.5 1
q-29 0 -57 -1t-55 -6.5t-51.5 -16t-45.5 -28.5q-12 -11 -25 -27.5t-23.5 -41t-17.5 -57t-7 -75.5v-201zM172 448q0 12 1 28.5t5.5 33.5t13.5 33.5t25 29.5q20 17 51 23t54 6t54 -6t51 -23q16 -13 25 -29.5t13.5 -33.5t5.5 -33.5t1 -28.5v-180q0 -31 -4.5 -69t-25.5 -63
q-12 -14 -27 -21t-31 -10.5t-32 -4t-30 -0.5t-30 0.5t-32.5 4t-31.5 10.5t-27 21q-16 19 -22.5 51t-6.5 81v180z" />
    <glyph glyph-name="one" unicode="1" horiz-adv-x="302" 
d="M110 0h132v612q0 16 -4 35t-22 34q-24 19 -65 19h-151v-105h77q8 0 14.5 -1.5t11.5 -9.5q5 -7 6 -17.5t1 -19.5v-547z" />
    <glyph glyph-name="two" unicode="2" horiz-adv-x="626" 
d="M114 0h443v105h-348q-5 0 -6.5 2t-1.5 4q0 4 4.5 7t6.5 5l282 196q16 11 32 23.5t29 32.5q11 16 17 35t9 37.5t4 35.5t1 31q0 38 -7 77.5t-34 67.5q-14 14 -29.5 22t-31.5 12.5t-30.5 5.5t-26.5 1h-340v-105h279q30 0 46.5 -7.5t24.5 -16.5q11 -14 13 -34.5t2 -37.5
q0 -30 -6 -54.5t-39 -46.5l-324 -222q-16 -11 -29.5 -30.5t-13.5 -61.5q0 -31 9.5 -48t22.5 -25t25 -9.5t17 -1.5z" />
    <glyph glyph-name="three" unicode="3" horiz-adv-x="619" 
d="M40 0h374q31 0 61.5 7t57.5 34q31 31 38.5 69.5t7.5 82.5q0 14 -1 31t-4.5 34.5t-11.5 34t-22 30.5q-13 12 -32.5 21t-43.5 10v3q26 2 44 13.5t28 22.5q23 26 28 59t5 64q0 28 -5 65t-28 67q-15 19 -32 29.5t-35 15.5t-35 6t-31 1h-351v-105h299q15 0 32 -3.5t31 -17.5
q13 -14 16 -33.5t3 -38.5q0 -18 -3 -38.5t-16 -34.5q-15 -17 -36.5 -20t-37.5 -3h-282v-105h290q10 0 30 -2.5t36 -14.5q21 -16 25 -38t4 -46q0 -23 -4.5 -46t-26.5 -37q-14 -9 -36 -10.5t-55 -1.5h-281v-105z" />
    <glyph glyph-name="four" unicode="4" horiz-adv-x="693" 
d="M442 0h132v118h89v105h-89v409q0 13 -1.5 26.5t-15.5 27.5t-31 18t-32 4q-17 0 -44.5 -6.5t-52.5 -33.5l-338 -362q-26 -28 -32.5 -49.5t-6.5 -41.5q0 -30 7.5 -48t16.5 -28q16 -16 32 -18.5t30 -2.5h336v-118zM442 223h-278q-12 0 -15 4.5t-3 7.5q0 4 4 8.5t8 8.5
l268 297q6 7 8 8.5t4 1.5q4 0 4 -4v-332z" />
    <glyph glyph-name="five" unicode="5" horiz-adv-x="618" 
d="M44 0h353q14 0 30.5 0.5t34.5 4.5t35.5 12t32.5 23q16 16 26 37t14.5 44t6 47.5t1.5 48.5q0 36 -5 73t-31 70t-56.5 43t-62.5 10h-193q-11 0 -25 2.5t-22 10.5q-8 9 -9.5 22t-1.5 24v87q0 6 0.5 14t5.5 13q4 5 11.5 7t15.5 2h350v105h-422q-5 0 -13.5 -0.5t-18.5 -3
t-20 -7.5t-19 -14q-8 -8 -15 -23.5t-7 -41.5v-177q0 -9 1 -22.5t4.5 -28.5t11.5 -29.5t23 -24.5q10 -8 23.5 -12t27 -5.5t26.5 -2t23 -0.5h186q28 0 42 -9t19 -17q10 -14 12.5 -35t2.5 -35q0 -20 -3.5 -42.5t-11.5 -34.5q-14 -21 -35 -25.5t-36 -4.5h-312v-105z" />
    <glyph glyph-name="six" unicode="6" horiz-adv-x="639" 
d="M192 429v75q0 10 3 30.5t20 37.5t39 20t36 3h274v105h-321q-24 0 -58.5 -6t-63.5 -29q-9 -8 -20 -20t-20 -30t-15 -42t-6 -55v-325q0 -48 12 -89.5t50 -69.5q20 -15 49.5 -24.5t65.5 -9.5h175q21 0 43 3t43 10.5t39.5 21.5t31.5 37q10 18 16 39.5t9 43.5t4 41t1 31
q0 17 -1.5 38.5t-6.5 43.5t-16.5 43.5t-30.5 38.5q-30 27 -63.5 32.5t-63.5 5.5h-225zM192 324h165q20 0 42.5 -4t39.5 -22q17 -17 20.5 -38.5t3.5 -40.5q0 -18 -3 -43t-20 -44t-37.5 -23t-34.5 -4h-85q-32 0 -48 7t-24 15q-7 7 -10.5 17.5t-5.5 20.5t-2.5 19t-0.5 15v125z
" />
    <glyph glyph-name="seven" unicode="7" horiz-adv-x="538" 
d="M32 0h147l345 546q12 19 18 37.5t6 43.5q0 13 -2.5 26.5t-11 23.5t-23.5 16.5t-40 6.5h-481v-105h393q6 0 13.5 -1.5t7.5 -11.5q0 -5 -2 -10t-9 -16z" />
    <glyph glyph-name="eight" unicode="8" horiz-adv-x="633" 
d="M264 700q-14 0 -35 -1t-43.5 -4.5t-44.5 -11.5t-38 -23q-17 -15 -26.5 -36t-14 -42.5t-5.5 -41.5t-1 -33q0 -28 5 -59t33 -60q25 -27 58 -31v-2q-17 -2 -36.5 -9.5t-33.5 -20.5q-15 -14 -23.5 -31.5t-12.5 -36.5t-5 -37.5t-1 -34.5q0 -33 5 -64t26 -60q17 -23 37.5 -35
t42.5 -18t45 -7t45 -1h151q22 0 45 1t45 7t42.5 18t37.5 35q23 29 27 59t4 65q0 16 -1 34.5t-5 37.5t-12.5 36.5t-23.5 31.5q-12 11 -31 19t-39 11v2q33 4 58 31q28 29 33 60t5 59q0 14 -1 34t-5.5 41t-14 41.5t-27.5 36.5q-15 14 -34.5 22t-41 12t-43.5 5t-42 1h-104z
M274 407q-14 0 -34.5 3t-34.5 23q-13 19 -13 67q0 16 3 39t22 39q15 13 32.5 15t34.5 2h64q17 0 35.5 -2t32.5 -15q17 -15 21 -39t4 -39q0 -47 -14 -67t-33 -23t-35 -3h-85zM264 105q-29 0 -45.5 8.5t-24.5 17.5q-12 14 -15 37.5t-3 37.5t4.5 38t24.5 41q15 12 34 14.5
t29 2.5h97q10 0 29 -2.5t34 -14.5q20 -17 24.5 -41t4.5 -38t-3 -37.5t-15 -37.5q-8 -9 -24.5 -17.5t-45.5 -8.5h-105z" />
    <glyph glyph-name="nine" unicode="9" horiz-adv-x="617" 
d="M72 0h315q16 0 38 1.5t45 9.5t45 25.5t38 49.5t20 69t4 75v282q0 26 -5.5 58.5t-25.5 61.5q-16 24 -37 37.5t-44 20t-46.5 8.5t-43.5 2h-141q-33 0 -71.5 -7t-69.5 -35q-19 -18 -29.5 -40t-16 -45.5t-6.5 -46t-1 -40.5q0 -44 6 -86t35 -76q15 -18 32.5 -28.5t34.5 -15.5
t31.5 -6.5t23.5 -1.5h242v-59q0 -17 -3.5 -42.5t-20.5 -42.5t-39 -20t-39 -3h-271v-105zM445 377h-162q-7 0 -17.5 0.5t-22 3t-22.5 6.5t-19 11q-14 14 -20 38t-6 47q0 37 8.5 57.5t19.5 30.5q10 10 26.5 17t43.5 7h81q26 0 42.5 -7.5t25.5 -16.5q16 -16 19 -36.5t3 -32.5
v-125z" />
    <glyph glyph-name="colon" unicode=":" horiz-adv-x="242" 
d="M182 404v126h-122v-126h122zM182 0v126h-122v-126h122z" />
    <glyph glyph-name="semicolon" unicode=";" horiz-adv-x="283" 
d="M223 404v126h-122v-126h122zM89 -116l129 199l-96 57l-122 -203z" />
    <glyph glyph-name="semicolon" unicode="&#x37e;" horiz-adv-x="283" 
d="M223 404v126h-122v-126h122zM89 -116l129 199l-96 57l-122 -203z" />
    <glyph glyph-name="less" unicode="&#x3c;" horiz-adv-x="581" 
d="M60 404l461 -232v92l-297 140l297 140v92z" />
    <glyph glyph-name="equal" unicode="=" horiz-adv-x="580" 
d="M520 197v85h-460v-85h460zM520 348v85h-460v-85h460z" />
    <glyph glyph-name="greater" unicode="&#x3e;" horiz-adv-x="581" 
d="M521 404l-461 232v-92l297 -140l-297 -140v-92z" />
    <glyph glyph-name="question" unicode="?" horiz-adv-x="484" 
d="M115 0h122v124h-122v-124zM237 195v55q0 9 1.5 18.5t8.5 18.5q5 6 15 15t19 14l77 47q30 18 47 37.5t25.5 40.5t11 42.5t2.5 44.5q0 29 -6 65t-29 63q-14 16 -31.5 25t-34.5 13t-33 5t-27 1h-263v-105h203q17 0 34 -1.5t34 -17.5q15 -15 18 -33t3 -36q0 -23 -4 -38
t-11.5 -25.5t-17.5 -18t-23 -14.5l-65 -39q-15 -9 -30 -21.5t-26 -26.5q-12 -17 -16 -34t-4 -37v-58h122z" />
    <glyph glyph-name="at" unicode="@" horiz-adv-x="1016" 
d="M706 -194v84h-303q-58 0 -98 12t-66 31.5t-41 44.5t-24 51q-8 25 -13 57.5t-7.5 65.5t-3 61.5t-0.5 46.5q0 59 2 99.5t5.5 67.5t7.5 43t9 27q17 41 45.5 65t62.5 36.5t70 16t68 3.5h201q23 0 51 -2t56.5 -10t54.5 -25.5t45 -48.5q6 -10 13 -26.5t12 -42t8.5 -62
t3.5 -86.5q0 -46 -1 -77t-3 -52t-5 -34t-7 -23q-19 -48 -61 -48q-10 0 -23.5 3.5t-25.5 14t-20.5 30.5t-8.5 54v249q0 16 -1.5 33t-17.5 34q-16 16 -34.5 19t-36.5 3h-145q-69 0 -114 -28.5t-67 -70.5q-11 -22 -20 -60t-9 -107q0 -64 8.5 -105t23.5 -67q17 -29 40 -46
t47.5 -26t47.5 -11.5t41 -2.5q19 0 43 2.5t49 12.5t48.5 28t40.5 50q6 -24 19.5 -42t32.5 -29t40.5 -16.5t43.5 -5.5q52 0 84 22t51 61q21 43 26 99t5 126q0 35 -1 69.5t-5.5 68t-14.5 65.5t-28 62q-29 48 -68 74.5t-79.5 39.5t-78.5 15.5t-64 2.5h-194q-38 0 -77.5 -3
t-78 -14t-74 -33t-65.5 -60q-24 -31 -37.5 -65t-20.5 -72t-8.5 -81.5t-1.5 -93.5q0 -60 2.5 -112.5t10 -98t20.5 -83t35 -67.5q29 -40 65.5 -62.5t72.5 -34t68 -14t53 -2.5h319zM613 393v-143q0 -24 -6 -56t-29 -59q-15 -17 -40 -31t-63 -14q-29 0 -52.5 10t-39.5 40
q-13 24 -15.5 54.5t-2.5 62.5q0 36 6 73t32 64q12 12 25 19t25.5 10.5t23.5 4.5t19 1h75q8 0 17.5 -2.5t15.5 -8.5q9 -9 9 -25z" />
    <glyph glyph-name="A" unicode="A" horiz-adv-x="698" 
d="M-30 0h139l71 177h337l72 -177h139l-264 629q-19 44 -44.5 61.5t-70.5 17.5q-47 0 -71.5 -17.5t-43.5 -61.5zM329 556q3 8 8 18.5t12 10.5t12 -10.5t8 -18.5l114 -285h-269z" />
    <glyph glyph-name="B" unicode="B" horiz-adv-x="722" 
d="M192 301h268q32 0 48.5 -10.5t22.5 -18.5q10 -14 12.5 -35t2.5 -36q0 -17 -3.5 -37t-14.5 -34q-15 -18 -38 -21.5t-39 -3.5h-208q-8 0 -21.5 1t-21.5 10q-4 5 -6 14.5t-2 26.5v144zM192 556q0 6 1.5 15t7.5 16t14 7.5t16 0.5h216q17 0 34 -2t31 -16q17 -16 20 -38.5
t3 -36.5q0 -36 -5.5 -51t-9.5 -20q-14 -19 -33 -22t-39 -3h-256v150zM572 354v4q20 2 35.5 10t30.5 26q23 28 28 56.5t5 57.5q0 17 -1.5 37t-6 40t-13 39t-23.5 34q-14 14 -30 22.5t-33 13t-33.5 5.5t-30.5 1h-344q-17 0 -37.5 -5t-36.5 -24q-11 -14 -16.5 -33t-5.5 -39
v-500q0 -30 9.5 -47.5t14.5 -23.5q21 -24 45 -26t50 -2h335q16 0 32.5 0.5t32.5 5t32 13.5t31 26q30 34 35 73t5 74q0 15 -0.5 31t-3.5 32.5t-10 32t-19 29.5q-13 14 -32.5 24.5t-44.5 12.5z" />
    <glyph glyph-name="C" unicode="C" 
d="M629 0v105h-237q-62 0 -109 13t-74 54q-5 8 -11 21t-11 33t-8 48.5t-3 67.5q0 78 11.5 121.5t27.5 66.5q15 22 34.5 35t43 20t50.5 8.5t56 1.5h219v105h-281q-19 0 -47 -2t-60 -11t-64 -26.5t-58 -48.5q-22 -26 -35.5 -57.5t-20.5 -67t-9.5 -73t-2.5 -74.5q0 -29 2 -62.5
t9 -67.5t21 -67t39 -61q24 -27 52.5 -43.5t58 -25t58.5 -11t54 -2.5h295z" />
    <glyph glyph-name="D" unicode="D" horiz-adv-x="749" 
d="M451 0q41 0 73 8t56 21t40 28t27 29q21 28 33.5 63.5t19 72.5t8 72t1.5 64q0 31 -1.5 65t-8.5 68t-21.5 66t-39.5 60q-32 35 -82 59t-123 24h-274q-32 0 -49.5 -11t-25.5 -19q-17 -20 -20.5 -41t-3.5 -41v-499q0 -29 9.5 -45.5t19.5 -24.5q4 -3 21.5 -11t56.5 -8h284z
M192 553q0 11 4 20.5t10 14.5q7 5 16 6t15 1h137q18 0 38 -2t40 -7.5t38.5 -15.5t33.5 -26q16 -17 26 -38.5t15 -44.5t6.5 -47t1.5 -46q0 -89 -11 -133.5t-24 -64.5q-23 -37 -59.5 -51t-91.5 -14h-152q-9 0 -18 1t-16 9q-8 8 -8.5 17.5t-0.5 20.5v400z" />
    <glyph glyph-name="E" unicode="E" horiz-adv-x="651" 
d="M621 0v105h-374q-16 0 -27.5 1.5t-17.5 7.5q-10 8 -10 27v164h415v105h-415v141q0 8 1.5 17t9.5 17q8 7 17.5 8.5t18.5 1.5h378v105h-449q-20 0 -43.5 -4t-40.5 -23q-11 -13 -17.5 -32.5t-6.5 -40.5v-496q0 -20 4 -42.5t22 -39.5q17 -17 37 -19.5t43 -2.5h455z" />
    <glyph glyph-name="F" unicode="F" horiz-adv-x="621" 
d="M192 0v302h310v105h-310v152q0 7 1 14.5t7 13.5q6 7 12 7.5t13 0.5h392v105h-456q-18 0 -37.5 -4t-37.5 -21q-16 -15 -21 -32.5t-5 -34.5v-608h132z" />
    <glyph glyph-name="G" unicode="G" horiz-adv-x="727" 
d="M687 343h-132v-191q0 -8 -1.5 -18t-9.5 -18t-17 -9.5t-18 -1.5h-171q-42 0 -77 14.5t-57 58.5q-4 8 -9 21.5t-9 34.5t-7 49.5t-3 66.5t3 66t7 48t9 33.5t10 21.5q20 37 59 56.5t96 19.5h311v105h-348q-103 0 -169 -43q-39 -25 -61.5 -60.5t-34 -77t-15 -86t-3.5 -87.5
q0 -37 2.5 -77t11.5 -78.5t27.5 -73.5t50.5 -62q24 -20 64 -37.5t99 -17.5h298q15 0 34.5 5t33.5 16q10 8 18 25t8 44v253z" />
    <glyph glyph-name="H" unicode="H" horiz-adv-x="748" 
d="M688 700h-132v-287h-364v287h-132v-700h132v308h364v-308h132v700z" />
    <glyph glyph-name="I" unicode="I" horiz-adv-x="252" 
d="M192 0v700h-132v-700h132z" />
    <glyph glyph-name="J" unicode="J" horiz-adv-x="445" 
d="M-20 0h179q32 0 58 6t46.5 15.5t36 21.5t26.5 23q8 8 18.5 22t19.5 35.5t15 51.5t6 70v455h-132v-420q0 -45 -8 -80t-37 -60q-26 -23 -58.5 -29t-54.5 -6h-115v-105z" />
    <glyph glyph-name="K" unicode="K" horiz-adv-x="700" 
d="M730 0l-331 295q-14 13 -27.5 28t-13.5 38q0 18 10.5 29.5t22.5 22.5l302 287h-163l-265 -262q-14 -14 -24 -36t-10 -42q0 -18 9 -42.5t35 -48.5l288 -269h167zM60 0h132v700h-132v-700z" />
    <glyph glyph-name="L" unicode="L" horiz-adv-x="598" 
d="M618 0v105h-384q-16 0 -23 3t-10 5q-8 7 -8.5 15.5t-0.5 14.5v557h-132v-624q0 -23 8.5 -37t16.5 -21q12 -10 30 -14t35 -4h468z" />
    <glyph glyph-name="M" unicode="M" horiz-adv-x="992" 
d="M775 543q2 6 7 14.5t10 8.5q3 0 7.5 -3.5t4.5 -17.5l-4 -545h132v616q0 48 -32 70t-81 22q-19 0 -36 -3t-33 -12.5t-29.5 -27t-24.5 -47.5l-181 -467q-5 -11 -9.5 -18.5t-9.5 -7.5t-9.5 7.5t-9.5 18.5l-181 467q-7 18 -16 34.5t-22.5 29t-34 19.5t-50.5 7
q-8 0 -26.5 -1.5t-37.5 -10.5t-34 -27.5t-15 -52.5v-616h132l-3 545q0 2 1.5 11.5t9.5 9.5q5 0 10 -8.5t7 -14.5l179 -467q6 -17 13 -32t18 -26.5t27.5 -18.5t41.5 -7q23 0 39 5.5t27 16.5t18.5 26.5t15.5 35.5z" />
    <glyph glyph-name="N" unicode="N" horiz-adv-x="790" 
d="M730 700h-128v-516q0 -4 -1.5 -10.5t-9.5 -6.5q-7 0 -9.5 6t-6.5 11l-297 469q-14 23 -39 39t-72 16q-50 0 -78.5 -25t-28.5 -70v-613h128v514q0 11 5 15.5t9 4.5q2 0 5 -3t11 -14l295 -466q23 -37 52 -48t61 -11q43 0 73.5 23t30.5 76v609z" />
    <glyph glyph-name="O" unicode="O" horiz-adv-x="799" 
d="M400 708q-32 0 -68.5 -1t-73.5 -8t-72.5 -22t-64.5 -43q-29 -27 -45 -61.5t-24 -72t-10 -76t-2 -74.5q0 -30 1.5 -67t9 -75.5t24 -75.5t46.5 -66q29 -28 64.5 -43t73 -22t74 -8t67.5 -1q30 0 67 1t74.5 8t73 22t64.5 43q27 26 43 61t24 73t10.5 76.5t2.5 73.5q0 34 -2 73
t-10.5 77t-24.5 73t-43 61q-29 28 -64.5 43t-73 22t-74 8t-67.5 1zM176 350q0 81 11.5 125.5t31.5 70.5q31 38 78 47.5t102 9.5q54 0 102 -9.5t79 -47.5q8 -10 16 -25t14 -38t9.5 -55.5t3.5 -77.5q0 -42 -3.5 -74t-9.5 -55t-13.5 -39t-16.5 -27q-16 -20 -36 -31.5
t-43.5 -17.5t-49 -7.5t-52.5 -1.5t-53 1.5t-49 7.5t-43 17.5t-35 31.5q-9 11 -16.5 26.5t-13.5 39t-9.5 55t-3.5 74.5z" />
    <glyph glyph-name="P" unicode="P" horiz-adv-x="728" 
d="M192 0v248h328q31 0 59 9t48 25q21 17 33 41t18 50.5t8 53t2 47.5q0 22 -1.5 47t-7 50t-16 47.5t-28.5 39.5q-16 16 -34.5 24.5t-37 12.5t-36 4.5t-31.5 0.5h-333q-18 0 -40 -5t-39 -22q-18 -18 -21 -38t-3 -40v-595h132zM192 353v200q0 9 1 17.5t8 15.5q8 8 16 8.5
t15 0.5h213q17 0 41 -3.5t41 -20.5t21 -45t4 -51q0 -10 -0.5 -23t-3 -26t-7 -25.5t-12.5 -21.5q-17 -20 -40.5 -23t-45.5 -3h-251z" />
    <glyph glyph-name="Q" unicode="Q" horiz-adv-x="806" 
d="M400 708q-102 0 -168.5 -15.5t-110.5 -58.5q-29 -28 -45 -62t-24 -71t-10 -76t-2 -77q0 -29 1 -65t9 -74t24.5 -75t48.5 -68q22 -21 48 -34t59.5 -20t75 -9.5t94.5 -2.5h382v109l-100 -4v4q18 17 29.5 33.5t18.5 30.5q21 44 25 94t4 90q0 57 -5 100t-15 76t-25 57t-35 44
q-23 22 -50 36t-60.5 22.5t-75.5 12t-93 3.5zM176 351q0 45 4 77t10 54.5t13.5 37.5t15.5 25q16 20 35.5 31.5t42.5 17.5t49 7.5t53 1.5q28 0 54 -1.5t49 -7.5t42.5 -17.5t35.5 -31.5q20 -26 31.5 -70t11.5 -124q0 -46 -4.5 -79t-11 -55.5t-14 -36t-13.5 -21.5
q-15 -19 -35 -30t-43 -16t-49 -6.5t-54 -1.5q-27 0 -53 1.5t-49 6.5t-42.5 16t-35.5 30q-8 9 -15.5 23.5t-13.5 37t-10 54.5t-4 77z" />
    <glyph glyph-name="R" unicode="R" horiz-adv-x="734" 
d="M60 0h132v545q0 11 1.5 20.5t12.5 18.5q8 8 16 9.5t19 1.5h214q16 0 37 -2.5t37 -18.5q11 -11 18 -33t7 -64q0 -9 -0.5 -22t-2 -26.5t-5 -26.5t-8.5 -21q-14 -21 -34.5 -26t-37.5 -5h-132q-29 0 -44 -13.5t-15 -34.5v-16q0 -15 11 -31.5t22 -27.5l230 -227h166l-266 247
v5h90q30 0 52 6.5t37.5 17t25.5 23t17 25.5q21 39 25.5 79.5t4.5 78.5t-5 78t-30 76q-15 23 -33.5 36t-38.5 19t-40 7.5t-38 1.5h-332q-20 0 -42.5 -5t-41.5 -23q-21 -20 -25 -44.5t-4 -46.5v-581z" />
    <glyph glyph-name="S" unicode="S" 
d="M39 0h430q35 0 67 8t58 42q22 28 28.5 62.5t6.5 67.5q0 12 -1.5 29t-6 35.5t-13.5 37t-25 33.5t-40.5 27t-59.5 23l-256 81q-42 14 -53.5 35t-11.5 44q0 10 2.5 26t15.5 28q12 11 26.5 13.5t28.5 2.5h358v105h-403q-26 0 -57 -6.5t-58 -32.5q-30 -28 -37.5 -63t-7.5 -67
q0 -15 1 -32t5 -34.5t11 -34.5t19 -31q10 -13 23 -22t25 -15.5t21.5 -10t13.5 -4.5l276 -87q23 -7 36.5 -16.5t20.5 -20t9 -21.5t2 -21q0 -9 -1.5 -22t-8 -25t-19.5 -20.5t-37 -8.5h-388v-105z" />
    <glyph glyph-name="T" unicode="T" 
d="M395 0v595h274v105h-679v-105h273v-595h132z" />
    <glyph glyph-name="U" unicode="U" horiz-adv-x="728" 
d="M364 97q-15 0 -33.5 1.5t-37 6t-36 13.5t-31.5 24q-25 27 -29.5 60t-4.5 62v436h-132v-454q0 -45 10.5 -91.5t50.5 -87.5q26 -27 58.5 -42t65.5 -22.5t64 -9t55 -1.5t55 1.5t64 9t65.5 22.5t58.5 42q40 41 50.5 87.5t10.5 91.5v454h-132v-436q0 -13 -0.5 -29t-4 -32
t-10 -32t-18.5 -29q-14 -15 -32 -24t-37 -13.5t-37.5 -6t-32.5 -1.5z" />
    <glyph glyph-name="V" unicode="V" horiz-adv-x="674" 
d="M113 700h-143l254 -632q10 -26 24.5 -41t30.5 -23t31 -10t27 -2q27 0 46 7t32.5 18.5t21.5 25t13 25.5l254 632h-143l-209 -565q-2 -4 -5 -9.5t-10 -5.5t-10 5.5t-5 9.5z" />
    <glyph glyph-name="W" unicode="W" horiz-adv-x="1001" 
d="M273 157q-2 -5 -6 -11t-9 -6q-8 0 -10.5 8t-4.5 13l-139 539h-134l168 -610q16 -58 44 -78t70 -20q31 0 50.5 8.5t31.5 22t18.5 29t10.5 30.5l124 453q2 5 4.5 12t8.5 7q9 0 14 -19l123 -453q5 -18 12.5 -34t20 -28.5t31.5 -20t48 -7.5q31 0 50.5 9t32 23t19 31.5
t11.5 34.5l169 610h-134l-139 -539q-3 -13 -8 -17t-8 -4q-5 0 -9 6t-6 11l-130 479q-3 12 -9 24.5t-17 23t-28 17.5t-43 7q-28 0 -45.5 -7.5t-28 -18.5t-15.5 -23.5t-8 -22.5z" />
    <glyph glyph-name="X" unicode="X" horiz-adv-x="628" 
d="M658 0l-269 355l261 345h-157l-179 -252l-179 252h-157l261 -345l-269 -355h157l187 262l187 -262h157z" />
    <glyph glyph-name="Y" unicode="Y" horiz-adv-x="664" 
d="M332 333l-220 367h-142l296 -486v-214h132v214l296 486h-142z" />
    <glyph glyph-name="Z" unicode="Z" horiz-adv-x="613" 
d="M600 0v105h-414q-5 0 -8.5 2t-3.5 9q0 6 3 10t7 8l387 408q15 16 27.5 34t12.5 52q0 21 -7 35t-18 22.5t-25 11.5t-29 3h-503v-105h391q12 0 15.5 -5t3.5 -8q0 -5 -3.5 -10.5t-8.5 -10.5l-382 -395q-15 -16 -29 -39t-14 -55q0 -26 10.5 -40.5t25.5 -21.5t31.5 -8.5
t28.5 -1.5h502z" />
    <glyph glyph-name="bracketleft" unicode="[" horiz-adv-x="372" 
d="M151 622h181v84h-272v-865h272v84h-181v697z" />
    <glyph glyph-name="backslash" unicode="\" horiz-adv-x="507" 
d="M438 -166h69l-438 906h-69z" />
    <glyph glyph-name="bracketright" unicode="]" horiz-adv-x="372" 
d="M222 -75h-182v-84h272v865h-272v-84h182v-697z" />
    <glyph glyph-name="asciicircum" unicode="^" horiz-adv-x="590" 
d="M472 521l58 68l-181 169q-11 11 -24 17t-30 6t-30 -6t-24 -17l-181 -169l59 -68l149 145q5 5 12 9.5t16 4.5t16 -4.5t12 -9.5z" />
    <glyph glyph-name="underscore" unicode="_" horiz-adv-x="572" 
d="M40 0h492v103h-492v-103z" />
    <glyph glyph-name="grave" unicode="`" horiz-adv-x="301" 
d="M100 767l-60 -75l162 -132l59 74z" />
    <glyph glyph-name="a" unicode="a" horiz-adv-x="555" 
d="M65 530v-90h261q14 0 29.5 -4t27.5 -19q10 -12 12.5 -25t2.5 -25v-37h-230q-21 0 -46.5 -4.5t-50.5 -26.5q-30 -26 -37.5 -60t-7.5 -69q0 -15 1 -34t5.5 -39t14 -38.5t25.5 -32.5q23 -20 48.5 -23t47.5 -3h253q19 0 39 3.5t34 17.5t17.5 34t3.5 34v275q0 45 -11 76.5
t-28 48.5q-18 19 -47 30t-63 11h-301zM398 240v-122q0 -6 -1 -11.5t-7 -10.5t-13.5 -5.5t-12.5 -0.5h-163q-11 0 -21.5 5t-16.5 11q-11 11 -13.5 29t-2.5 30q0 29 5 41t8 16q10 13 23.5 15.5t19.5 2.5h195z" />
    <glyph glyph-name="b" unicode="b" horiz-adv-x="558" 
d="M315 0q23 0 48.5 3t50 12.5t46.5 26.5t38 45q16 27 25 68.5t9 106.5q0 51 -6.5 97.5t-28.5 83.5q-17 29 -39 46t-46.5 26t-50 12t-49.5 3h-155v170h-117v-611q0 -16 4 -33.5t20 -32.5q18 -17 39.5 -20t44.5 -3h167zM157 440h129q13 0 28.5 -2t30 -8.5t27 -18t21.5 -29.5
q3 -6 10.5 -34t7.5 -91q0 -53 -6.5 -77.5t-11.5 -35.5q-10 -20 -24.5 -30.5t-29.5 -16t-30 -6.5t-27 -1h-85q-9 0 -17.5 1.5t-14.5 7.5q-7 8 -7.5 17.5t-0.5 17.5v306z" />
    <glyph glyph-name="c" unicode="c" horiz-adv-x="513" 
d="M487 0v90h-190q-18 0 -37.5 1.5t-37.5 7.5t-33 17t-25 30q-5 10 -8.5 24.5t-5.5 29.5t-2.5 29.5t-0.5 26.5q0 6 0.5 18.5t1 27t2.5 29t5 25.5q10 34 40.5 59t89.5 25h189v90h-227q-36 0 -62.5 -6t-46 -14.5t-32.5 -18.5t-21 -18q-22 -23 -34 -50.5t-18 -56t-7 -56.5
t-1 -52q0 -57 7.5 -105.5t40.5 -87.5q18 -21 39.5 -34t42.5 -20t41 -9t35 -2h255z" />
    <glyph glyph-name="d" unicode="d" horiz-adv-x="559" 
d="M519 93v607h-117v-170h-157q-16 0 -38.5 -2t-47 -9.5t-49 -23.5t-43.5 -44q-27 -39 -34 -87.5t-7 -90.5q0 -66 8 -105.5t18 -62.5q15 -35 35.5 -55.5t43.5 -31.5t46.5 -14.5t43.5 -3.5h209q18 0 38.5 4t34.5 23q8 11 12 30t4 36zM402 440v-305q0 -6 -1 -18.5t-8 -18.5
q-6 -6 -16.5 -7t-14.5 -1h-94q-13 0 -28 2t-29.5 8t-27.5 18t-22 32q-3 7 -8.5 32t-5.5 87q0 54 7 82t16 42q19 31 47 39t51 8h134z" />
    <glyph glyph-name="e" unicode="e" horiz-adv-x="563" 
d="M520 0v90h-259q-16 0 -32.5 2t-31.5 8.5t-26 19t-17 33.5q-3 12 -5 34t-2 39h308q16 0 30.5 4t26.5 16q17 17 21 38.5t4 41.5q0 25 -3 49.5t-11.5 47t-23 41.5t-37.5 34q-37 23 -82.5 28.5t-92.5 5.5q-19 0 -44 -1t-52 -5.5t-53.5 -14.5t-48.5 -29t-34.5 -42t-19 -50.5
t-8 -60t-1.5 -69.5q0 -53 6 -104t32 -89q16 -23 36 -36.5t41 -20.5t43 -8.5t42 -1.5h294zM147 316q1 26 3.5 48.5t20.5 42.5q12 13 26.5 20.5t29.5 10.5t29 3.5t26 0.5q25 0 51.5 -3.5t48.5 -20.5q13 -10 23.5 -28t10.5 -43q0 -11 -4.5 -21t-21.5 -10h-243z" />
    <glyph glyph-name="f" unicode="f" horiz-adv-x="352" 
d="M199 0v440h145v90h-145q-1 32 9 49.5t21 25.5q16 11 43 13.5t72 2.5v86q-23 1 -51 0t-56.5 -5.5t-54.5 -14t-45 -24.5q-17 -14 -27.5 -31.5t-16.5 -36t-8.5 -36t-2.5 -30.5h-74v-89h74v-440h117z" />
    <glyph glyph-name="g" unicode="g" horiz-adv-x="573" 
d="M415 0q-5 -38 -31 -61q-21 -17 -50 -20.5t-48 -3.5h-223v-90h250q14 0 36.5 2t47.5 8.5t50 19t43 34.5q26 32 34.5 76t8.5 95v372q0 17 -5.5 38.5t-25.5 38.5q-19 15 -41 18t-45 3h-171q-20 0 -41 -1.5t-42 -7t-41 -17t-39 -32.5q-35 -38 -45.5 -87t-10.5 -112
q0 -141 41 -205q15 -24 34.5 -37.5t40.5 -20t42.5 -8.5t42.5 -2h188zM416 90h-139q-26 0 -53 4t-47 27q-5 5 -10 15t-9.5 26.5t-7.5 41t-3 60.5q0 9 0.5 27.5t3.5 39.5t9.5 41.5t18.5 34.5q14 16 38 24.5t53 8.5h100q8 0 15.5 -1.5t15.5 -6.5q10 -7 12.5 -15t2.5 -19v-308z
" />
    <glyph glyph-name="h" unicode="h" horiz-adv-x="562" 
d="M40 0h117v440h137q17 0 41 -4.5t44 -26.5q9 -10 14 -22.5t8 -25t3.5 -24t0.5 -19.5v-318h117v349q0 55 -17.5 90t-39.5 53q-29 23 -66.5 30.5t-82.5 7.5h-159v170h-117v-700z" />
    <glyph glyph-name="i" unicode="i" horiz-adv-x="197" 
d="M40 0h117v530h-117v-530zM157 607v93h-117v-93h117z" />
    <glyph glyph-name="j" unicode="j" horiz-adv-x="275" 
d="M-40 -178q75 -3 125 6.5t82 32.5q9 7 20.5 18.5t22 29.5t18 43.5t7.5 60.5v517h-117v-493q0 -43 -10.5 -65.5t-30.5 -36.5q-20 -15 -44.5 -19.5t-72.5 -3.5v-90zM235 607v93h-117v-93h117z" />
    <glyph glyph-name="k" unicode="k" horiz-adv-x="537" 
d="M551 0l-217 229q-10 11 -17.5 23.5t-7.5 25.5t5 21.5t12 16.5l199 214h-136l-160 -176q-11 -13 -24 -31.5t-13 -48.5q0 -28 12.5 -48t23.5 -32l183 -194h140zM157 0v700h-117v-700h117z" />
    <glyph glyph-name="l" unicode="l" horiz-adv-x="197" 
d="M40 0h117v700h-117v-700z" />
    <glyph glyph-name="m" unicode="m" horiz-adv-x="835" 
d="M40 0h117v404q0 15 1.5 20.5t3.5 7.5t7.5 5t18.5 3h171v-440h117v440h109q16 0 36 -4t35 -21q14 -16 18 -37t4 -38v-340h117v358q0 40 -12.5 74t-35.5 56q-29 26 -67.5 34t-67.5 8h-477q-18 0 -41.5 -5.5t-38.5 -26.5q-10 -14 -12.5 -31.5t-2.5 -28.5v-438z" />
    <glyph glyph-name="n" unicode="n" horiz-adv-x="565" 
d="M40 0h117v412q0 5 0.5 11t5.5 11t10 5.5t10 0.5h119q32 0 51.5 -7.5t32.5 -24.5q14 -19 18 -43.5t4 -50.5v-314h117v349q0 55 -15.5 87t-36.5 51q-32 29 -69 36t-79 7h-187q-17 0 -40.5 -2.5t-40.5 -21.5q-12 -13 -14.5 -29t-2.5 -28v-449z" />
    <glyph glyph-name="o" unicode="o" horiz-adv-x="616" 
d="M308 536q-24 0 -52 -1t-57 -6.5t-56 -17t-49 -31.5q-23 -21 -36.5 -49.5t-20.5 -58t-9 -58.5t-2 -51q0 -20 2 -47.5t8.5 -57t20 -57.5t37.5 -50q22 -20 49 -31.5t56 -17t57 -7t52 -1.5q23 0 51 1.5t57.5 7t57 17t48.5 31.5q29 28 48.5 79.5t19.5 136.5q0 21 -2 49t-9 57
t-20.5 57.5t-36.5 49.5q-22 20 -49 31.5t-56 17t-57 6.5t-52 1zM147 264q0 13 0.5 31t3.5 37.5t10 38.5t19 33t28.5 22.5t33.5 13t34.5 5.5t31.5 1q16 0 33 -1t33.5 -5.5t32 -13t28.5 -22.5q14 -15 21 -33.5t10 -37.5t3 -37v-32q0 -35 -4.5 -71t-30.5 -65t-59.5 -36.5
t-66.5 -7.5q-32 0 -66.5 7.5t-60.5 36.5q-25 29 -29.5 66t-4.5 70z" />
    <glyph glyph-name="p" unicode="p" horiz-adv-x="559" 
d="M157 0h148q20 0 44.5 1.5t50 9t49 23t42.5 42.5q14 20 22.5 44t13 50t5.5 53t1 53q0 22 -1 47.5t-6.5 51.5t-17 51t-31.5 46q-19 20 -41 31.5t-43.5 17.5t-40 7.5t-31.5 1.5h-185q-15 0 -33 -3t-33 -14q-10 -8 -20 -23.5t-10 -41.5v-618h117v170zM157 90v325q0 10 8 18
q3 2 7.5 4.5t8.5 2.5h115q39 0 65 -17t37 -43q5 -11 9.5 -35.5t4.5 -78.5q0 -59 -7 -87t-15 -40q-10 -16 -33 -32.5t-67 -16.5h-133z" />
    <glyph glyph-name="q" unicode="q" horiz-adv-x="559" 
d="M519 -170v601q0 15 -2 34.5t-13 33.5t-30.5 22.5t-42.5 8.5h-214q-15 0 -33.5 -2.5t-37 -9t-36.5 -18.5t-33 -31q-18 -24 -28.5 -52t-15.5 -56.5t-6 -56t-1 -49.5q0 -54 6.5 -100.5t35.5 -85.5q16 -23 35.5 -36.5t39 -21t38 -9.5t32.5 -2h189v-170h117zM402 90h-143
q-11 0 -25.5 1.5t-28.5 8.5t-27 20.5t-21 36.5q-7 20 -8.5 46.5t-1.5 58.5q0 42 2.5 69.5t10.5 47.5q16 38 45.5 49.5t67.5 11.5h86q8 0 16.5 -1t15.5 -7q8 -7 9.5 -15t1.5 -13v-314z" />
    <glyph glyph-name="r" unicode="r" horiz-adv-x="333" 
d="M40 0h117v299q0 30 5 57t22 47q21 25 49 31t51 6h49v90h-79q-15 0 -35 -1t-41.5 -5.5t-43 -14t-39.5 -25.5q-34 -29 -44.5 -69.5t-10.5 -84.5v-330z" />
    <glyph glyph-name="s" unicode="s" horiz-adv-x="528" 
d="M33 0h339q20 0 42.5 3.5t42.5 18.5q16 12 25 27t13.5 31t5.5 30.5t1 24.5q0 22 -5.5 48t-27.5 49q-20 21 -52 33.5t-80 26.5l-114 32q-5 1 -14 4t-18.5 6.5t-18.5 7.5t-15 9q-12 10 -14.5 20t-2.5 21t2 20.5t13 17.5q10 8 20.5 9t20.5 1h281v90h-299q-17 0 -34.5 -1
t-34 -5.5t-31.5 -14t-27 -25.5q-16 -22 -20.5 -46t-4.5 -44t4.5 -44t20.5 -46t45 -37.5t71 -26.5l102 -28q28 -8 45 -13t27.5 -9t15.5 -6.5t8 -5.5q10 -9 12.5 -19t2.5 -21q0 -6 -1 -15.5t-9 -17.5q-8 -10 -19 -12.5t-20 -2.5h-298v-90z" />
    <glyph glyph-name="t" unicode="t" horiz-adv-x="341" 
d="M341 0v90h-29q-16 0 -43.5 3t-47.5 20q-13 10 -19.5 24.5t-9 29.5t-2.5 30v30v213h148v90h-148v170h-117v-170h-73v-90h73v-267q0 -51 13.5 -82t39.5 -52q25 -20 56.5 -29.5t85.5 -9.5h73z" />
    <glyph glyph-name="u" unicode="u" horiz-adv-x="570" 
d="M530 95v435h-117v-397q0 -8 -1 -16t-9 -16q-11 -11 -34 -11h-97q-32 0 -55.5 6t-39.5 28q-11 15 -15.5 36.5t-4.5 56.5v313h-117v-334q0 -49 10.5 -88t43.5 -68q27 -23 59.5 -31.5t78.5 -8.5h187q21 0 43.5 3t39.5 17q20 16 24 38.5t4 36.5z" />
    <glyph glyph-name="v" unicode="v" horiz-adv-x="519" 
d="M97 530h-121l202 -489q7 -18 18 -27.5t22.5 -14t22.5 -5t19 -0.5q11 0 22.5 1t22 5.5t20 14t16.5 26.5l202 489h-121l-148 -393q-2 -6 -6 -13.5t-8 -7.5t-8 7.5t-6 13.5z" />
    <glyph glyph-name="w" unicode="w" horiz-adv-x="768" 
d="M88 529h-112l126 -463q3 -11 7.5 -23.5t14 -23t26 -18t43.5 -7.5q23 0 39 5.5t26.5 14t16.5 19t9 20.5l92 332q1 3 2.5 10t5.5 7t5.5 -7t2.5 -10l92 -332q6 -20 17 -32t24 -18t26 -7.5t24 -1.5q15 0 28.5 2.5t25.5 10t21.5 22t15.5 37.5l126 463h-112l-101 -391
q-2 -5 -4.5 -10.5t-6.5 -5.5t-6 6l-3 9l-98 350q-5 16 -14 26t-20 15t-22.5 6.5t-20.5 1.5q-8 0 -19 -1t-22 -6t-21 -14.5t-15 -27.5l-97 -350q-1 -2 -3 -8.5t-7 -6.5q-4 0 -6.5 6t-3.5 10z" />
    <glyph glyph-name="x" unicode="x" horiz-adv-x="493" 
d="M517 0l-203 272l189 258h-133l-124 -182l-124 182h-133l190 -258l-203 -272h137l133 196l134 -196h137z" />
    <glyph glyph-name="y" unicode="y" horiz-adv-x="542" 
d="M566 528h-119l-180 -405l-170 407h-121l236 -528l-81 -173h119z" />
    <glyph glyph-name="z" unicode="z" horiz-adv-x="465" 
d="M77 0h383v90h-302h-6t-3 5t8 13l275 283q11 11 21 26.5t10 45.5q0 32 -19 49.5t-50 17.5h-375v-90h289q6 0 8 -3t2 -5t-1.5 -4.5t-6.5 -7.5l-272 -273q-14 -14 -25 -30t-11 -46q0 -26 9 -40t21.5 -21t25 -8.5t19.5 -1.5z" />
    <glyph glyph-name="braceleft" unicode="{" horiz-adv-x="317" 
d="M116 288q16 6 25.5 17t14.5 23.5t6 26.5t1 27v126q0 20 7 47t30 44q14 10 33.5 16.5t43.5 4.5v84q-27 2 -58.5 -3.5t-57.5 -17.5t-42 -28.5t-25.5 -34.5t-13.5 -36.5t-5 -34.5q0 -4 -0.5 -13t-1 -19t-1 -19.5t-0.5 -15.5v-111q0 -22 -13 -38t-39 -18v-62q26 -2 39 -18
t13 -38v-111q0 -6 0.5 -15.5t1 -19.5t1 -19t0.5 -13q1 -16 5 -34.5t13.5 -36.5t25.5 -34.5t42 -28.5t57.5 -17.5t58.5 -3.5v84q-24 -2 -43.5 4.5t-33.5 16.5q-23 17 -30 44t-7 47v126q0 13 -1 27t-6 26.5t-14.5 23.5t-25.5 17v8z" />
    <glyph glyph-name="bar" unicode="|" horiz-adv-x="190" 
d="M60 -166h70v906h-70v-906z" />
    <glyph glyph-name="braceright" unicode="}" horiz-adv-x="317" 
d="M181 288v-8q-17 -6 -26 -17t-14 -23.5t-6 -26.5t-1 -27v-126q0 -20 -7 -47t-30 -44q-14 -10 -33.5 -16.5t-43.5 -4.5v-84q27 -2 58.5 3.5t57.5 17.5t42 28.5t25.5 34.5t13 36.5t5.5 34.5q0 4 0.5 13t1 19t1 19.5t0.5 15.5v111q0 22 13 38t39 18v62q-26 2 -39 18t-13 38
v111q0 6 -0.5 15.5t-1 19.5t-1 19t-0.5 13q-2 16 -5.5 34.5t-13 36.5t-25.5 34.5t-42 28.5t-57.5 17.5t-58.5 3.5v-84q24 2 43.5 -4.5t33.5 -16.5q23 -17 30 -44t7 -47v-126q0 -13 1 -27t6 -26.5t14 -23.5t26 -17z" />
    <glyph glyph-name="asciitilde" unicode="~" horiz-adv-x="633" 
d="M119 299q8 11 21 26.5t25 23.5q11 7 24.5 11.5t28.5 4.5q13 0 30.5 -3.5t38.5 -15.5l46 -27q13 -8 33 -15t46 -7q27 0 48 8.5t39 22.5t38 35t36 44l-60 52q-8 -13 -18 -26.5t-21 -23.5q-27 -24 -62 -24q-23 0 -40.5 6.5t-26.5 11.5l-54 31q-17 10 -36.5 15t-37.5 5
q-20 0 -41 -7t-40 -19q-22 -14 -42 -35t-34 -41z" />
    <glyph glyph-name="nonbreakingspace" unicode="&#xa0;" horiz-adv-x="233" 
 />
    <glyph glyph-name="exclamdown" unicode="&#xa1;" horiz-adv-x="258" 
d="M68 700v-124h122v124h-122zM189 505h-120l-9 -505h138z" />
    <glyph glyph-name="cent" unicode="&#xa2;" horiz-adv-x="554" 
d="M375 -68v68h139v105h-139v320h122v105h-122v68h-84v-68h-36q-23 0 -48.5 -2.5t-50.5 -12.5t-47.5 -28.5t-38.5 -51.5q-17 -34 -23.5 -78t-6.5 -90q0 -24 2 -50t6 -50.5t11 -47t16 -38.5q16 -27 38.5 -43t47 -24.5t48.5 -11t44 -2.5h38v-68h84zM291 105h-42q-16 0 -30 9.5
t-22 23.5q-10 15 -15.5 44.5t-5.5 87.5q0 53 4 79t12 42q12 22 27 28t27 6h45v-320z" />
    <glyph glyph-name="sterling" unicode="&#xa3;" horiz-adv-x="637" 
d="M667 0v105h-401q-6 0 -14 2t-12 5q-6 5 -6.5 13t-0.5 16v240h226v88h-226q-1 47 5.5 67.5t11.5 26.5q16 23 42 27.5t50 4.5h115v105h-169q-59 0 -95.5 -19.5t-56.5 -48.5q-25 -35 -30 -76t-5 -87h-61v-88h61v-285q0 -19 3.5 -40.5t19.5 -35.5q14 -14 35.5 -17t38.5 -3
h469z" />
    <glyph glyph-name="currency" unicode="&#xa4;" horiz-adv-x="602" 
d="M60 163l71 -72l64 65q29 -17 56.5 -23t48.5 -6q26 0 52 6.5t52 23.5l64 -63l71 70l-64 64q17 28 23.5 55t6.5 49q0 38 -11.5 65.5t-17.5 38.5l66 65l-73 71l-65 -65q-17 12 -41.5 21t-62.5 9q-35 0 -60 -8t-46 -22l-62 63l-71 -71l63 -62q-11 -17 -20.5 -42.5t-9.5 -62.5
q0 -39 10.5 -65t19.5 -40zM194 332q0 45 30.5 75.5t75.5 30.5t75.5 -30.5t30.5 -75.5t-30.5 -75.5t-75.5 -30.5t-75.5 30.5t-30.5 75.5z" />
    <glyph glyph-name="yen" unicode="&#xa5;" horiz-adv-x="604" 
d="M568 268v89h-134l200 343h-142l-190 -337l-190 337h-142l200 -343h-134v-89h186l14 -24v-51h-200v-89h200v-104h132v104h200v89h-200v51l14 24h186z" />
    <glyph glyph-name="brokenbar" unicode="&#xa6;" horiz-adv-x="150" 
d="M40 -63h70v300h-70v-300zM40 440h70v300h-70v-300z" />
    <glyph glyph-name="section" unicode="&#xa7;" horiz-adv-x="525" 
d="M111 -173h185q26 0 52 4t50 20q17 11 33 33.5t16 60.5q0 21 -6 38.5t-14.5 31.5t-19 25t-19.5 19l-63 54q18 0 41 4t41 15q21 12 39.5 38t18.5 70q0 50 -20 79.5t-42 48.5l-185 157q-11 9 -20.5 21t-9.5 23t4.5 17t11.5 8.5t15 3t15 0.5h180v102h-198q-29 0 -55.5 -6
t-50.5 -29q-15 -15 -24 -35t-9 -46q0 -40 14.5 -63t31.5 -37l70 -60q-20 -2 -42 -8.5t-39 -19.5q-23 -17 -37.5 -45.5t-14.5 -64.5q0 -26 11 -57t45 -60l184 -157q15 -13 25.5 -25t10.5 -24q0 -14 -7.5 -21t-18 -10t-21.5 -3h-18h-160v-102zM237 189l-42 35q-14 12 -19 27.5
t-5 26.5q0 19 11 36t31 25q14 5 34.5 6.5t34.5 0.5l51 -40q13 -10 17 -23.5t4 -25.5q0 -29 -15 -42t-36 -19q-4 -1 -22 -5t-44 -2z" />
    <glyph glyph-name="dieresis" unicode="&#xa8;" horiz-adv-x="444" 
d="M276 600h108v108h-108v-108zM168 600v108h-108v-108h108z" />
    <glyph glyph-name="copyright" unicode="&#xa9;" horiz-adv-x="863" 
d="M432 708q-28 0 -59.5 -1t-64 -6t-64 -15t-59.5 -28q-42 -27 -66.5 -63t-37.5 -77t-17 -84t-4 -83q0 -41 4 -84.5t17 -84t38 -76.5t66 -63q28 -18 59.5 -28.5t64 -15.5t63.5 -6t60 -1q28 0 59.5 1t63 6t63 15.5t60.5 28.5q37 24 61 55.5t38.5 70t20 84.5t5.5 98
q0 51 -5.5 96.5t-19.5 84.5t-38.5 70.5t-61.5 55.5q-28 18 -59.5 28t-64 15t-63.5 6t-59 1zM154 351q0 32 2.5 65t11.5 63.5t26 57t46 45.5q9 6 24.5 13.5t38.5 14t55 11t74 4.5t73 -4.5t54 -11t38.5 -14t25.5 -13.5q29 -19 46 -45.5t26 -57t11.5 -63.5t2.5 -65
q0 -33 -3 -67.5t-12 -67t-26 -60t-45 -47.5q-10 -7 -25 -14.5t-38 -14t-54.5 -11t-73.5 -4.5t-74 4.5t-55 11t-38 14t-25 14.5q-29 20 -46 47.5t-26 60t-11.5 67t-2.5 67.5zM577 162v80h-149q-20 0 -39.5 3.5t-33.5 24.5q-5 7 -9.5 23t-4.5 51q0 47 6.5 66.5t8.5 22.5
q8 13 17.5 19.5t20 9t20.5 2.5h20h130v80h-165q-29 0 -63.5 -9t-61.5 -43q-25 -32 -30 -70.5t-5 -70.5q0 -38 6 -73t28 -64q26 -36 56.5 -44t62.5 -8h185z" />
    <glyph glyph-name="ordfeminine" unicode="&#xaa;" horiz-adv-x="397" 
d="M83 708v-56h145q8 0 17 -1t16 -9q6 -7 7 -14t1 -14v-18h-129q-12 0 -26 -3t-28 -17q-17 -17 -21.5 -38.5t-4.5 -38.5q0 -22 5.5 -41.5t22.5 -34.5q14 -11 27.5 -14.5t24.5 -3.5h142q11 0 21.5 2.5t19.5 12.5q8 9 10 19.5t2 18.5v154q0 13 -3.5 33.5t-19.5 37.5
q-8 9 -23 17t-38 8h-168zM269 540v-62q0 -10 -5 -13q-2 -2 -7 -2.5t-7 -0.5h-91q-8 0 -13.5 3t-8.5 6q-6 7 -7.5 16t-1.5 14q0 6 1 15t7 16q5 5 11.5 6.5t12.5 1.5h109zM65 283h272v62h-272v-62z" />
    <glyph glyph-name="guillemotleft" unicode="&#xab;" horiz-adv-x="537" 
d="M298 473l-80 60l-137 -191q-7 -10 -14 -24.5t-7 -36.5t7 -36.5t14 -24.5l137 -190l80 59l-113 162q-5 6 -8.5 14t-3.5 16q0 10 4.5 17.5l7.5 12.5zM477 413l-80 60l-110 -141q-8 -11 -14.5 -24.5t-6.5 -26.5q0 -15 7.5 -29t13.5 -22l110 -152l80 59l-83 120q-3 5 -7.5 11
t-4.5 13q0 9 12 24z" />
    <glyph glyph-name="logicalnot" unicode="&#xac;" horiz-adv-x="534" 
d="M474 359h-414v-85h324v-142h90v227z" />
    <glyph glyph-name="uni00AD" unicode="&#xad;" horiz-adv-x="437" 
d="M40 218h357v103h-357v-103z" />
    <glyph glyph-name="uni00AD" unicode="&#x2010;" horiz-adv-x="437" 
d="M40 218h357v103h-357v-103z" />
    <glyph glyph-name="registered" unicode="&#xae;" horiz-adv-x="569" 
d="M279 265q21 0 44.5 1t47.5 5.5t46 14.5t40 27q17 17 27.5 39.5t16 47t7 49t1.5 46.5t-1.5 46t-7.5 48t-17.5 46t-30.5 39q-34 30 -78 36t-88 6q-17 0 -40.5 -0.5t-48.5 -5.5t-49.5 -16t-42.5 -31q-17 -18 -26 -42t-13.5 -48.5t-5 -47.5t-0.5 -39q0 -40 6.5 -82.5
t33.5 -76.5q18 -23 40.5 -35.5t46.5 -18.5t47.5 -7t44.5 -1zM278 319q-58 0 -90 17t-46 37q-12 18 -17 47t-5 75q0 13 0.5 30.5t4 35.5t11 35t20.5 30t30 20.5t35 11t35 4t32 0.5t33 -1t36 -5t34.5 -12.5t28.5 -24.5q4 -5 9 -13.5t9.5 -23.5t7.5 -38t3 -56q0 -17 -1.5 -36
t-6 -38t-14 -36t-24.5 -29q-3 -2 -11 -7t-23 -10t-37.5 -9t-53.5 -4zM232 380v165q0 15 4 18q2 2 7.5 2.5t8.5 0.5h51q6 0 12.5 -1t11.5 -6q7 -7 7 -17v-23q0 -4 -1.5 -8.5t-4.5 -6.5q-4 -4 -25 -4h-22q-17 0 -19.5 -9.5t-2.5 -16.5q0 -5 1 -12t6 -13l60 -69h75l-75 81h21
q9 0 18 2.5t16 10t11.5 22t4.5 37.5q0 20 -3 37.5t-18 31.5q-14 12 -27 13t-25 1h-104q-10 0 -22 -1.5t-20 -10.5q-5 -5 -6 -12t-1 -13v-199h61z" />
    <glyph glyph-name="macron" unicode="&#xaf;" horiz-adv-x="420" 
d="M380 600v84h-340v-84h340z" />
    <glyph glyph-name="macron" unicode="&#x2c9;" horiz-adv-x="420" 
d="M380 600v84h-340v-84h340z" />
    <glyph glyph-name="degree" unicode="&#xb0;" horiz-adv-x="340" 
d="M60 663q0 -23 8.5 -43t23.5 -35t35 -23.5t43 -8.5q22 0 42 8.5t35 23.5t24 35t9 43q0 22 -9 42t-24 35t-35 24t-42 9q-23 0 -43 -9t-35 -24t-23.5 -35t-8.5 -42zM110 663q0 25 17.5 42.5t42.5 17.5t42.5 -17.5t17.5 -42.5t-17.5 -42.5t-42.5 -17.5t-42.5 17.5t-17.5 42.5
z" />
    <glyph glyph-name="plusminus" unicode="&#xb1;" horiz-adv-x="580" 
d="M336 198v184h184v85h-184v184h-91v-184h-185v-85h185v-184h91zM520 67v85h-460v-85h460z" />
    <glyph glyph-name="twosuperior" unicode="&#xb2;" horiz-adv-x="412" 
d="M83 298h274v80h-176q-4 0 -4 4q0 1 2 3.5t3 3.5l140 92q8 5 17.5 14t15.5 19q14 20 15.5 40.5t1.5 38.5q0 23 -3.5 45t-20.5 39q-17 16 -39 20t-39 4h-204v-81h162q12 0 20.5 -1t19.5 -12q9 -9 9 -15v-14q0 -14 -2 -23.5t-24 -23.5l-184 -122q-20 -14 -23.5 -30.5
t-3.5 -27.5q0 -7 1 -16t5 -17.5t13 -14t24 -5.5z" />
    <glyph glyph-name="threesuperior" unicode="&#xb3;" horiz-adv-x="394" 
d="M40 298h214q24 0 43 6.5t31 17.5q20 18 23 40t3 48q0 18 -2.5 37.5t-18.5 35.5q-21 19 -50 19v1q30 3 47 22q14 15 17 34t3 36q0 14 -3 36.5t-17 39.5q-9 10 -20 16t-22 9t-22 4t-19 1h-201v-80h162q9 0 18.5 -2t17.5 -11q4 -5 7 -14t3 -16q0 -14 -10 -24t-22 -11t-21 -1
h-152v-79h157q9 0 19.5 -2t18.5 -8q17 -12 17 -38q0 -11 -5 -18t-13 -11t-19 -5.5t-34 -1.5h-150v-81z" />
    <glyph glyph-name="acute" unicode="&#xb4;" horiz-adv-x="301" 
d="M201 767l-161 -133l59 -74l162 132z" />
    <glyph glyph-name="mu1" unicode="&#xb5;" horiz-adv-x="608" 
d="M60 -178h112v243q14 -24 31.5 -38t35.5 -21.5t34 -9.5t28 -2q44 0 78 19.5t56 58.5v-72h113v530h-117v-330q0 -17 -5.5 -31t-12.5 -25t-13.5 -18t-8.5 -9q-19 -18 -40 -26t-49 -8q-38 0 -60 12.5t-33 23.5q-13 14 -22.5 36t-9.5 48v327h-117v-708z" />
    <glyph glyph-name="mu1" unicode="&#x3bc;" horiz-adv-x="608" 
d="M60 -178h112v243q14 -24 31.5 -38t35.5 -21.5t34 -9.5t28 -2q44 0 78 19.5t56 58.5v-72h113v530h-117v-330q0 -17 -5.5 -31t-12.5 -25t-13.5 -18t-8.5 -9q-19 -18 -40 -26t-49 -8q-38 0 -60 12.5t-33 23.5q-13 14 -22.5 36t-9.5 48v327h-117v-708z" />
    <glyph glyph-name="paragraph" unicode="&#xb6;" horiz-adv-x="727" 
d="M617 -170v767h70v103h-428q-31 0 -66.5 -5t-67.5 -31q-21 -17 -33.5 -38t-19.5 -44.5t-9.5 -47.5t-2.5 -45q0 -13 1 -30t5 -35.5t11.5 -37.5t19.5 -36q15 -20 32.5 -32t36 -18.5t37.5 -8.5t37 -2h95v-459h108v767h67v-767h107zM335 392h-74q-21 0 -42 5.5t-35 30.5
q-5 8 -9 23t-4 44q0 17 3 38t17 38q16 20 34 23t36 3h74v-205z" />
    <glyph glyph-name="periodcentered" unicode="&#xb7;" horiz-adv-x="242" 
d="M182 250v129h-122v-129h122z" />
    <glyph glyph-name="periodcentered" unicode="&#x22c5;" horiz-adv-x="242" 
d="M182 250v129h-122v-129h122z" />
    <glyph glyph-name="periodcentered" unicode="&#x2219;" horiz-adv-x="242" 
d="M182 250v129h-122v-129h122z" />
    <glyph glyph-name="cedilla" unicode="&#xb8;" horiz-adv-x="258" 
d="M40 -190h86q16 0 33.5 2t31.5 12q10 7 18.5 21t8.5 40q0 14 -4.5 29t-18.5 26q-12 10 -25.5 12.5t-24.5 2.5h-13q-2 0 -5 0.5t-3 4.5q0 1 1 3.5t2 4.5l16 32h-60l-26 -53q-2 -5 -4.5 -11t-2.5 -13q0 -13 9 -19q5 -3 12 -4t12 -1h37q8 0 17 -2t9 -14t-9.5 -14.5
t-18.5 -2.5h-78v-56z" />
    <glyph glyph-name="onesuperior" unicode="&#xb9;" horiz-adv-x="226" 
d="M76 297h90v351q0 10 -2.5 21.5t-13.5 20.5q-9 8 -20 9.5t-19 1.5h-101v-81h47q10 0 15 -7q3 -5 3.5 -10.5t0.5 -11.5v-294z" />
    <glyph glyph-name="ordmasculine" unicode="&#xba;" horiz-adv-x="440" 
d="M220 715q-30 0 -63.5 -6t-59.5 -33q-25 -25 -31 -56.5t-6 -64.5q0 -30 6 -62.5t31 -57.5q12 -13 27.5 -20.5t32 -11.5t33 -5.5t30.5 -1.5t30.5 1.5t33 5.5t32 11.5t27.5 20.5q25 25 31 57.5t6 62.5q0 33 -6 64.5t-31 56.5q-26 27 -59.5 33t-63.5 6zM125 555q0 20 4 41.5
t16 34.5q16 17 39 20.5t36 3.5q14 0 36.5 -3.5t38.5 -20.5q15 -17 17.5 -38t2.5 -38q0 -20 -3 -40t-17 -35q-16 -17 -38.5 -20.5t-36.5 -3.5q-6 0 -15.5 0.5t-20 3t-21 7t-18.5 13.5q-12 14 -16 35t-4 40zM64 283h312v62h-312v-62z" />
    <glyph glyph-name="guillemotright" unicode="&#xbb;" horiz-adv-x="537" 
d="M239 473l113 -162l7.5 -12.5t4.5 -17.5q0 -8 -3.5 -16t-8.5 -14l-113 -162l80 -59l137 190q7 10 14 24.5t7 36.5t-7 36.5t-14 24.5l-137 191zM60 413l83 -108q12 -15 12 -24q0 -7 -4.5 -13t-7.5 -11l-83 -120l80 -59l110 152q6 8 13.5 22t7.5 29q0 13 -6.5 26.5
t-14.5 24.5l-110 141z" />
    <glyph glyph-name="onequarter" unicode="&#xbc;" horiz-adv-x="793" 
d="M121 0h88l357 700h-88zM126 296h90v351q0 10 -2.5 21.5t-13.5 20.5q-9 8 -20 9.5t-19 1.5h-101v-81h47q10 0 15 -7q3 -5 3.5 -10.5t0.5 -11.5v-294zM596 0h85v62h52v69h-52v234q0 7 -1 15t-9 16q-8 7 -20.5 10t-24.5 3q-32 0 -45.5 -9.5t-18.5 -14.5l-196 -210
q-7 -8 -14 -19t-7 -33q0 -10 3 -21.5t13 -22.5t19 -14t21 -3h195v-62zM596 131h-155q-11 0 -11 7q0 1 1 3t6 7l150 162l6 6q3 0 3 -2v-183z" />
    <glyph glyph-name="onehalf" unicode="&#xbd;" horiz-adv-x="833" 
d="M121 0h88l357 700h-88zM126 296h90v351q0 10 -2.5 21.5t-13.5 20.5q-9 8 -20 9.5t-19 1.5h-101v-81h47q10 0 15 -7q3 -5 3.5 -10.5t0.5 -11.5v-294zM484 0h274v80h-176q-4 0 -4 4q0 1 2 3.5t3 3.5l140 92q8 5 17.5 14t15.5 19q14 20 15.5 40.5t1.5 38.5q0 23 -3.5 45
t-20.5 39q-17 16 -39 20t-39 4h-204v-81h162q12 0 20.5 -1t19.5 -12q9 -9 9 -15v-14q0 -14 -2 -23.5t-24 -23.5l-184 -122q-20 -14 -23.5 -30.5t-3.5 -27.5q0 -7 1 -16t5 -17.5t13 -14t24 -5.5z" />
    <glyph glyph-name="threequarters" unicode="&#xbe;" horiz-adv-x="933" 
d="M261 0h88l357 700h-88zM736 0h85v62h52v69h-52v234q0 7 -1 15t-9 16q-8 7 -20.5 10t-24.5 3q-32 0 -45.5 -9.5t-18.5 -14.5l-196 -210q-7 -8 -14 -19t-7 -33q0 -10 3 -21.5t13 -22.5t19 -14t21 -3h195v-62zM736 131h-155q-11 0 -11 7q0 1 1 3t6 7l150 162l6 6q3 0 3 -2
v-183zM60 297h214q24 0 43 6.5t31 17.5q20 18 23 40t3 48q0 18 -2.5 37.5t-18.5 35.5q-21 19 -50 19v1q30 3 47 22q14 15 17 34t3 36q0 14 -3 36.5t-17 39.5q-9 10 -20 16t-22 9t-22 4t-19 1h-201v-80h162q9 0 18.5 -2t17.5 -11q4 -5 7 -14t3 -16q0 -14 -10 -24t-22 -11
t-21 -1h-152v-79h157q9 0 19.5 -2t18.5 -8q17 -12 17 -38q0 -11 -5 -18t-13 -11t-19 -5.5t-34 -1.5h-150v-81z" />
    <glyph glyph-name="questiondown" unicode="&#xbf;" horiz-adv-x="484" 
d="M369 700h-122v-124h122v124zM247 505v-55q0 -9 -1.5 -18.5t-8.5 -18.5q-5 -6 -15 -15t-19 -14l-77 -47q-30 -18 -47 -37.5t-25.5 -40.5t-11 -43t-2.5 -44q0 -29 6 -65t29 -63q14 -16 31.5 -25t34.5 -13t33 -5t27 -1h263v105h-203q-17 0 -34 1.5t-34 17.5q-15 15 -18 33
t-3 36q0 22 4 37t11.5 25.5t17.5 18t23 15.5l65 39q15 9 30 21.5t26 26.5q12 17 16 34t4 37v58h-122z" />
    <glyph glyph-name="Agrave" unicode="&#xc0;" horiz-adv-x="698" 
d="M-30 0h139l71 177h337l72 -177h139l-264 629q-19 44 -44.5 61.5t-70.5 17.5q-47 0 -71.5 -17.5t-43.5 -61.5zM329 556q3 8 8 18.5t12 10.5t12 -10.5t8 -18.5l114 -285h-269zM285 949l-60 -75l162 -132l59 74z" />
    <glyph glyph-name="Aacute" unicode="&#xc1;" horiz-adv-x="698" 
d="M-30 0h139l71 177h337l72 -177h139l-264 629q-19 44 -44.5 61.5t-70.5 17.5q-47 0 -71.5 -17.5t-43.5 -61.5zM329 556q3 8 8 18.5t12 10.5t12 -10.5t8 -18.5l114 -285h-269zM405 953l-161 -133l59 -74l162 132z" />
    <glyph glyph-name="Acircumflex" unicode="&#xc2;" horiz-adv-x="698" 
d="M-30 0h139l71 177h337l72 -177h139l-264 629q-19 44 -44.5 61.5t-70.5 17.5q-47 0 -71.5 -17.5t-43.5 -61.5zM329 556q3 8 8 18.5t12 10.5t12 -10.5t8 -18.5l114 -285h-269zM491 734l46 62l-141 113q-11 8 -22.5 13t-25.5 5t-25.5 -5t-22.5 -13l-140 -113l46 -62l117 97
q7 5 12.5 7.5t13.5 2.5q10 0 15 -2.5t10 -7.5z" />
    <glyph glyph-name="Atilde" unicode="&#xc3;" horiz-adv-x="698" 
d="M-30 0h139l71 177h337l72 -177h139l-264 629q-19 44 -44.5 61.5t-70.5 17.5q-47 0 -71.5 -17.5t-43.5 -61.5zM329 556q3 8 8 18.5t12 10.5t12 -10.5t8 -18.5l114 -285h-269zM203 755q5 10 13 20.5t16 15.5q6 5 15 8.5t21 3.5q20 0 32 -6.5t23 -12.5l34 -20
q14 -8 32 -11.5t33 -3.5q39 0 65 19q17 11 32.5 31t25.5 39l-51 33q-3 -6 -10 -18t-12 -18q-6 -7 -16.5 -12.5t-26.5 -5.5q-18 0 -32 7l-24 12l-40 22q-17 10 -33 13t-27 3q-20 0 -35.5 -5.5t-26.5 -13.5q-16 -11 -32.5 -30t-26.5 -34z" />
    <glyph glyph-name="Adieresis" unicode="&#xc4;" horiz-adv-x="698" 
d="M-30 0h139l71 177h337l72 -177h139l-264 629q-19 44 -44.5 61.5t-70.5 17.5q-47 0 -71.5 -17.5t-43.5 -61.5zM329 556q3 8 8 18.5t12 10.5t12 -10.5t8 -18.5l114 -285h-269zM520 760v110h-120v-110h120zM298 760v110h-120v-110h120z" />
    <glyph glyph-name="Aring" unicode="&#xc5;" horiz-adv-x="698" 
d="M-30 0h139l71 177h337l72 -177h139l-264 629q-19 44 -44.5 61.5t-70.5 17.5q-47 0 -71.5 -17.5t-43.5 -61.5zM329 556q3 8 8 18.5t12 10.5t12 -10.5t8 -18.5l114 -285h-269zM349 976q-20 0 -42 -3.5t-40 -18.5q-12 -11 -23 -32t-11 -60q0 -38 11 -59t23 -32
q17 -15 40 -19t42 -4q32 0 51.5 7t30.5 16q22 18 27.5 43.5t5.5 47.5q0 23 -5.5 48.5t-27.5 43.5q-19 16 -41.5 19t-40.5 3zM293 862q0 9 2.5 21t10.5 22q10 11 21 13.5t22 2.5t22 -2.5t20 -13.5q8 -10 10.5 -22t2.5 -21q0 -10 -2.5 -21t-10.5 -21q-5 -6 -15 -11.5t-27 -5.5
t-27.5 5.5t-15.5 11.5q-8 10 -10.5 21t-2.5 21z" />
    <glyph glyph-name="AE" unicode="&#xc6;" horiz-adv-x="1092" 
d="M-20 0h148l101 176h254v-75q0 -16 3.5 -36.5t20.5 -38.5q19 -19 42.5 -22.5t44.5 -3.5h458v105h-383q-12 0 -24 0.5t-20 7.5q-5 5 -7.5 13.5t-2.5 14.5v167h424v96h-424v147q0 8 1.5 17.5t9.5 17.5t17 8.5t18 0.5h387v105h-567q-31 0 -59.5 -9t-50.5 -45zM455 566
q8 14 13 20.5t15 8.5v-320h-197z" />
    <glyph glyph-name="Ccedilla" unicode="&#xc7;" 
d="M629 105h-237q-62 0 -109 13t-74 54q-5 8 -11 21t-11 33t-8 48.5t-3 67.5q0 78 11.5 121.5t27.5 66.5q15 22 34.5 35t43 20t50.5 8.5t56 1.5h219v105h-281q-19 0 -47 -2t-60 -11t-64 -26.5t-58 -48.5q-22 -26 -35.5 -57.5t-20.5 -67t-9.5 -73t-2.5 -74.5q0 -29 2 -62.5
t9 -67.5t21 -67t39 -61q24 -27 52.5 -43.5t58 -25t58.5 -11t54 -2.5h61l-26 -53q-2 -5 -4.5 -11t-2.5 -13q0 -13 9 -19q5 -3 12 -4t12 -1h37q8 0 17 -2t9 -14t-9.5 -14.5t-18.5 -2.5h-78v-56h86q16 0 33.5 2t31.5 12q10 7 18.5 21t8.5 40q0 14 -4.5 29t-18.5 26
q-12 10 -25.5 12.5t-24.5 2.5h-13q-2 0 -5 0.5t-3 4.5q0 1 1 3.5t2 4.5l16 32h174v105z" />
    <glyph glyph-name="Egrave" unicode="&#xc8;" horiz-adv-x="651" 
d="M621 0v105h-374q-16 0 -27.5 1.5t-17.5 7.5q-10 8 -10 27v164h415v105h-415v141q0 8 1.5 17t9.5 17q8 7 17.5 8.5t18.5 1.5h378v105h-449q-20 0 -43.5 -4t-40.5 -23q-11 -13 -17.5 -32.5t-6.5 -40.5v-496q0 -20 4 -42.5t22 -39.5q17 -17 37 -19.5t43 -2.5h455zM275 947
l-60 -75l162 -132l59 74z" />
    <glyph glyph-name="Eacute" unicode="&#xc9;" horiz-adv-x="651" 
d="M621 0v105h-374q-16 0 -27.5 1.5t-17.5 7.5q-10 8 -10 27v164h415v105h-415v141q0 8 1.5 17t9.5 17q8 7 17.5 8.5t18.5 1.5h378v105h-449q-20 0 -43.5 -4t-40.5 -23q-11 -13 -17.5 -32.5t-6.5 -40.5v-496q0 -20 4 -42.5t22 -39.5q17 -17 37 -19.5t43 -2.5h455zM376 947
l-161 -133l59 -74l162 132z" />
    <glyph glyph-name="Ecircumflex" unicode="&#xca;" horiz-adv-x="651" 
d="M621 0v105h-374q-16 0 -27.5 1.5t-17.5 7.5q-10 8 -10 27v164h415v105h-415v141q0 8 1.5 17t9.5 17q8 7 17.5 8.5t18.5 1.5h378v105h-449q-20 0 -43.5 -4t-40.5 -23q-11 -13 -17.5 -32.5t-6.5 -40.5v-496q0 -20 4 -42.5t22 -39.5q17 -17 37 -19.5t43 -2.5h455zM484 744
l46 62l-141 113q-11 8 -22.5 13t-25.5 5t-25.5 -5t-22.5 -13l-140 -113l46 -62l117 97q7 5 12.5 7.5t13.5 2.5q10 0 15 -2.5t10 -7.5z" />
    <glyph glyph-name="Edieresis" unicode="&#xcb;" horiz-adv-x="651" 
d="M621 0v105h-374q-16 0 -27.5 1.5t-17.5 7.5q-10 8 -10 27v164h415v105h-415v141q0 8 1.5 17t9.5 17q8 7 17.5 8.5t18.5 1.5h378v105h-449q-20 0 -43.5 -4t-40.5 -23q-11 -13 -17.5 -32.5t-6.5 -40.5v-496q0 -20 4 -42.5t22 -39.5q17 -17 37 -19.5t43 -2.5h455zM519 766
v110h-120v-110h120zM297 766v110h-120v-110h120z" />
    <glyph glyph-name="Igrave" unicode="&#xcc;" horiz-adv-x="252" 
d="M192 0v700h-132v-700h132zM77 947l-60 -75l162 -132l59 74z" />
    <glyph glyph-name="Iacute" unicode="&#xcd;" horiz-adv-x="252" 
d="M192 0v700h-132v-700h132zM178 947l-161 -133l59 -74l162 132z" />
    <glyph glyph-name="Icircumflex" unicode="&#xce;" horiz-adv-x="283" 
d="M208 0v700h-132v-700h132zM225 735l58 41l-87 118q-10 14 -25.5 19t-29.5 5q-11 0 -27 -4t-27 -20l-87 -118l58 -41l66 97q4 6 8.5 8t9.5 2q7 0 10.5 -3t6.5 -7z" />
    <glyph glyph-name="Idieresis" unicode="&#xcf;" horiz-adv-x="444" 
d="M288 0v700h-132v-700h132zM384 760v110h-116v-110h116zM176 760v110h-116v-110h116z" />
    <glyph glyph-name="Eth" unicode="&#xd0;" horiz-adv-x="789" 
d="M470 0q42 0 74 8t56 21t40 28t27 29q29 38 45.5 103t16.5 169q0 30 -2 64t-9 68t-21.5 67t-38.5 60q-12 13 -30 27.5t-43.5 27t-58 20.5t-73.5 8h-274q-22 0 -40 -6.5t-34 -23.5q-19 -20 -22 -39.5t-3 -42.5v-194h-80v-93h80v-212q0 -20 4.5 -36.5t24.5 -31.5
q18 -14 38.5 -17.5t39.5 -3.5h283zM212 556q0 11 4 20.5t10 14.5q7 5 16 6t15 1h137q55 0 90.5 -15.5t57.5 -39.5q19 -21 29 -44t15 -47t6 -47t1 -43q0 -75 -9 -118.5t-26 -69.5q-14 -23 -33 -36.5t-39 -20.5t-40.5 -9.5t-38.5 -2.5h-152q-8 0 -17 1t-17 9t-8.5 17.5
t-0.5 20.5v148h146v93h-146v162z" />
    <glyph glyph-name="Ntilde" unicode="&#xd1;" horiz-adv-x="790" 
d="M730 700h-128v-516q0 -4 -1.5 -10.5t-9.5 -6.5q-7 0 -9.5 6t-6.5 11l-297 469q-14 23 -39 39t-72 16q-50 0 -78.5 -25t-28.5 -70v-613h128v514q0 11 5 15.5t9 4.5q2 0 5 -3t11 -14l295 -466q23 -37 52 -48t61 -11q43 0 73.5 23t30.5 76v609zM267 755q5 10 13 20.5
t16 15.5q6 5 15 8.5t21 3.5q20 0 32 -6.5t23 -12.5l34 -20q14 -8 32 -11.5t33 -3.5q39 0 65 19q17 11 32.5 31t25.5 39l-51 33q-3 -6 -10 -18t-12 -18q-6 -7 -16.5 -12.5t-26.5 -5.5q-18 0 -32 7l-24 12l-40 22q-17 10 -33 13t-27 3q-20 0 -35.5 -5.5t-26.5 -13.5
q-16 -11 -32.5 -30t-26.5 -34z" />
    <glyph glyph-name="Ograve" unicode="&#xd2;" horiz-adv-x="799" 
d="M400 708q-32 0 -68.5 -1t-73.5 -8t-72.5 -22t-64.5 -43q-29 -27 -45 -61.5t-24 -72t-10 -76t-2 -74.5q0 -30 1.5 -67t9 -75.5t24 -75.5t46.5 -66q29 -28 64.5 -43t73 -22t74 -8t67.5 -1q30 0 67 1t74.5 8t73 22t64.5 43q27 26 43 61t24 73t10.5 76.5t2.5 73.5q0 34 -2 73
t-10.5 77t-24.5 73t-43 61q-29 28 -64.5 43t-73 22t-74 8t-67.5 1zM176 350q0 81 11.5 125.5t31.5 70.5q31 38 78 47.5t102 9.5q54 0 102 -9.5t79 -47.5q8 -10 16 -25t14 -38t9.5 -55.5t3.5 -77.5q0 -42 -3.5 -74t-9.5 -55t-13.5 -39t-16.5 -27q-16 -20 -36 -31.5
t-43.5 -17.5t-49 -7.5t-52.5 -1.5t-53 1.5t-49 7.5t-43 17.5t-35 31.5q-9 11 -16.5 26.5t-13.5 39t-9.5 55t-3.5 74.5zM329 953l-60 -75l162 -132l59 74z" />
    <glyph glyph-name="Oacute" unicode="&#xd3;" horiz-adv-x="799" 
d="M400 708q-32 0 -68.5 -1t-73.5 -8t-72.5 -22t-64.5 -43q-29 -27 -45 -61.5t-24 -72t-10 -76t-2 -74.5q0 -30 1.5 -67t9 -75.5t24 -75.5t46.5 -66q29 -28 64.5 -43t73 -22t74 -8t67.5 -1q30 0 67 1t74.5 8t73 22t64.5 43q27 26 43 61t24 73t10.5 76.5t2.5 73.5q0 34 -2 73
t-10.5 77t-24.5 73t-43 61q-29 28 -64.5 43t-73 22t-74 8t-67.5 1zM176 350q0 81 11.5 125.5t31.5 70.5q31 38 78 47.5t102 9.5q54 0 102 -9.5t79 -47.5q8 -10 16 -25t14 -38t9.5 -55.5t3.5 -77.5q0 -42 -3.5 -74t-9.5 -55t-13.5 -39t-16.5 -27q-16 -20 -36 -31.5
t-43.5 -17.5t-49 -7.5t-52.5 -1.5t-53 1.5t-49 7.5t-43 17.5t-35 31.5q-9 11 -16.5 26.5t-13.5 39t-9.5 55t-3.5 74.5zM434 954l-161 -133l59 -74l162 132z" />
    <glyph glyph-name="Ocircumflex" unicode="&#xd4;" horiz-adv-x="799" 
d="M400 708q-32 0 -68.5 -1t-73.5 -8t-72.5 -22t-64.5 -43q-29 -27 -45 -61.5t-24 -72t-10 -76t-2 -74.5q0 -30 1.5 -67t9 -75.5t24 -75.5t46.5 -66q29 -28 64.5 -43t73 -22t74 -8t67.5 -1q30 0 67 1t74.5 8t73 22t64.5 43q27 26 43 61t24 73t10.5 76.5t2.5 73.5q0 34 -2 73
t-10.5 77t-24.5 73t-43 61q-29 28 -64.5 43t-73 22t-74 8t-67.5 1zM176 350q0 81 11.5 125.5t31.5 70.5q31 38 78 47.5t102 9.5q54 0 102 -9.5t79 -47.5q8 -10 16 -25t14 -38t9.5 -55.5t3.5 -77.5q0 -42 -3.5 -74t-9.5 -55t-13.5 -39t-16.5 -27q-16 -20 -36 -31.5
t-43.5 -17.5t-49 -7.5t-52.5 -1.5t-53 1.5t-49 7.5t-43 17.5t-35 31.5q-9 11 -16.5 26.5t-13.5 39t-9.5 55t-3.5 74.5zM542 740l46 62l-141 113q-11 8 -22.5 13t-25.5 5t-25.5 -5t-22.5 -13l-140 -113l46 -62l117 97q7 5 12.5 7.5t13.5 2.5q10 0 15 -2.5t10 -7.5z" />
    <glyph glyph-name="Otilde" unicode="&#xd5;" horiz-adv-x="799" 
d="M400 708q-32 0 -68.5 -1t-73.5 -8t-72.5 -22t-64.5 -43q-29 -27 -45 -61.5t-24 -72t-10 -76t-2 -74.5q0 -30 1.5 -67t9 -75.5t24 -75.5t46.5 -66q29 -28 64.5 -43t73 -22t74 -8t67.5 -1q30 0 67 1t74.5 8t73 22t64.5 43q27 26 43 61t24 73t10.5 76.5t2.5 73.5q0 34 -2 73
t-10.5 77t-24.5 73t-43 61q-29 28 -64.5 43t-73 22t-74 8t-67.5 1zM176 350q0 81 11.5 125.5t31.5 70.5q31 38 78 47.5t102 9.5q54 0 102 -9.5t79 -47.5q8 -10 16 -25t14 -38t9.5 -55.5t3.5 -77.5q0 -42 -3.5 -74t-9.5 -55t-13.5 -39t-16.5 -27q-16 -20 -36 -31.5
t-43.5 -17.5t-49 -7.5t-52.5 -1.5t-53 1.5t-49 7.5t-43 17.5t-35 31.5q-9 11 -16.5 26.5t-13.5 39t-9.5 55t-3.5 74.5zM246 755q5 10 13 20.5t16 15.5q6 5 15 8.5t21 3.5q20 0 32 -6.5t23 -12.5l34 -20q14 -8 32 -11.5t33 -3.5q39 0 65 19q17 11 32.5 31t25.5 39l-51 33
q-3 -6 -10 -18t-12 -18q-6 -7 -16.5 -12.5t-26.5 -5.5q-18 0 -32 7l-24 12l-40 22q-17 10 -33 13t-27 3q-20 0 -35.5 -5.5t-26.5 -13.5q-16 -11 -32.5 -30t-26.5 -34z" />
    <glyph glyph-name="Odieresis" unicode="&#xd6;" horiz-adv-x="799" 
d="M400 708q-32 0 -68.5 -1t-73.5 -8t-72.5 -22t-64.5 -43q-29 -27 -45 -61.5t-24 -72t-10 -76t-2 -74.5q0 -30 1.5 -67t9 -75.5t24 -75.5t46.5 -66q29 -28 64.5 -43t73 -22t74 -8t67.5 -1q30 0 67 1t74.5 8t73 22t64.5 43q27 26 43 61t24 73t10.5 76.5t2.5 73.5q0 34 -2 73
t-10.5 77t-24.5 73t-43 61q-29 28 -64.5 43t-73 22t-74 8t-67.5 1zM176 350q0 81 11.5 125.5t31.5 70.5q31 38 78 47.5t102 9.5q54 0 102 -9.5t79 -47.5q8 -10 16 -25t14 -38t9.5 -55.5t3.5 -77.5q0 -42 -3.5 -74t-9.5 -55t-13.5 -39t-16.5 -27q-16 -20 -36 -31.5
t-43.5 -17.5t-49 -7.5t-52.5 -1.5t-53 1.5t-49 7.5t-43 17.5t-35 31.5q-9 11 -16.5 26.5t-13.5 39t-9.5 55t-3.5 74.5zM570 760v110h-120v-110h120zM348 760v110h-120v-110h120z" />
    <glyph glyph-name="multiply" unicode="&#xd7;" horiz-adv-x="578" 
d="M492 193l-139 139l141 139l-65 65l-140 -140l-139 138l-64 -64l139 -138l-140 -140l64 -65l140 140l139 -138z" />
    <glyph glyph-name="Oslash" unicode="&#xd8;" horiz-adv-x="770" 
d="M20 26l39 -40l66 66q32 -23 64 -35t64.5 -17.5t65.5 -6.5t67 -1t71 1t73 8t70.5 22.5t63.5 43.5q30 28 46 63.5t24 73.5t9.5 76t1.5 70q0 49 -3.5 87t-10.5 69t-19 56.5t-28 48.5l66 66l-39 39l-67 -66q-30 21 -60.5 32.5t-63 17.5t-66 7t-69.5 1q-42 0 -80 -1.5
t-72.5 -9t-66 -22.5t-59.5 -42q-27 -25 -43 -54.5t-25 -64t-11.5 -75.5t-2.5 -89q0 -37 1 -72t7 -67t18.5 -62t34.5 -58zM581 514q14 -31 21 -68t7 -96q0 -65 -8.5 -110.5t-38.5 -82.5q-17 -21 -36 -33t-41 -18t-46.5 -7.5t-53.5 -1.5q-41 0 -82.5 5.5t-82.5 38.5zM190 189
q-10 18 -19.5 53.5t-9.5 107.5q0 75 13 121.5t33 72.5q17 21 38.5 33t45 18t47.5 7t47 1q46 0 86.5 -6t79.5 -35z" />
    <glyph glyph-name="Ugrave" unicode="&#xd9;" horiz-adv-x="728" 
d="M364 97q-15 0 -33.5 1.5t-37 6t-36 13.5t-31.5 24q-25 27 -29.5 60t-4.5 62v436h-132v-454q0 -45 10.5 -91.5t50.5 -87.5q26 -27 58.5 -42t65.5 -22.5t64 -9t55 -1.5t55 1.5t64 9t65.5 22.5t58.5 42q40 41 50.5 87.5t10.5 91.5v454h-132v-436q0 -13 -0.5 -29t-4 -32
t-10 -32t-18.5 -29q-14 -15 -32 -24t-37 -13.5t-37.5 -6t-32.5 -1.5zM304 947l-60 -75l162 -132l59 74z" />
    <glyph glyph-name="Uacute" unicode="&#xda;" horiz-adv-x="728" 
d="M364 97q-15 0 -33.5 1.5t-37 6t-36 13.5t-31.5 24q-25 27 -29.5 60t-4.5 62v436h-132v-454q0 -45 10.5 -91.5t50.5 -87.5q26 -27 58.5 -42t65.5 -22.5t64 -9t55 -1.5t55 1.5t64 9t65.5 22.5t58.5 42q40 41 50.5 87.5t10.5 91.5v454h-132v-436q0 -13 -0.5 -29t-4 -32
t-10 -32t-18.5 -29q-14 -15 -32 -24t-37 -13.5t-37.5 -6t-32.5 -1.5zM434 947l-161 -133l59 -74l162 132z" />
    <glyph glyph-name="Ucircumflex" unicode="&#xdb;" horiz-adv-x="728" 
d="M364 97q-15 0 -33.5 1.5t-37 6t-36 13.5t-31.5 24q-25 27 -29.5 60t-4.5 62v436h-132v-454q0 -45 10.5 -91.5t50.5 -87.5q26 -27 58.5 -42t65.5 -22.5t64 -9t55 -1.5t55 1.5t64 9t65.5 22.5t58.5 42q40 41 50.5 87.5t10.5 91.5v454h-132v-436q0 -13 -0.5 -29t-4 -32
t-10 -32t-18.5 -29q-14 -15 -32 -24t-37 -13.5t-37.5 -6t-32.5 -1.5zM506 740l46 62l-141 113q-11 8 -22.5 13t-25.5 5t-25.5 -5t-22.5 -13l-140 -113l46 -62l117 97q7 5 12.5 7.5t13.5 2.5q10 0 15 -2.5t10 -7.5z" />
    <glyph glyph-name="Udieresis" unicode="&#xdc;" horiz-adv-x="728" 
d="M364 97q-15 0 -33.5 1.5t-37 6t-36 13.5t-31.5 24q-25 27 -29.5 60t-4.5 62v436h-132v-454q0 -45 10.5 -91.5t50.5 -87.5q26 -27 58.5 -42t65.5 -22.5t64 -9t55 -1.5t55 1.5t64 9t65.5 22.5t58.5 42q40 41 50.5 87.5t10.5 91.5v454h-132v-436q0 -13 -0.5 -29t-4 -32
t-10 -32t-18.5 -29q-14 -15 -32 -24t-37 -13.5t-37.5 -6t-32.5 -1.5zM535 760v110h-120v-110h120zM313 760v110h-120v-110h120z" />
    <glyph glyph-name="Yacute" unicode="&#xdd;" horiz-adv-x="664" 
d="M332 333l-220 367h-142l296 -486v-214h132v214l296 486h-142zM406 947l-161 -133l59 -74l162 132z" />
    <glyph glyph-name="Thorn" unicode="&#xde;" horiz-adv-x="728" 
d="M60 0h132v154h328q57 0 88.5 16.5t46.5 35.5q16 20 24.5 56t8.5 100q0 39 -3.5 68t-8.5 49t-11.5 33.5t-13.5 21.5q-14 17 -32.5 27t-37.5 15.5t-37.5 7t-32.5 1.5h-319v115h-132v-700zM192 259v221h238h22t26 -1t25.5 -5t21.5 -11q10 -8 15.5 -20t8 -25.5t3 -27
t0.5 -24.5v-21q0 -11 -2 -23t-7 -23.5t-15 -19.5q-17 -15 -45.5 -17.5t-53.5 -2.5h-237z" />
    <glyph glyph-name="germandbls" unicode="&#xdf;" horiz-adv-x="603" 
d="M60 0h117v461q0 41 9.5 76.5t38.5 57.5q22 17 46.5 21t45.5 4q13 0 35 -3.5t38 -20.5q14 -16 16.5 -38t2.5 -35q0 -20 -4 -41t-24 -38q-9 -8 -23.5 -13.5t-28.5 -5.5h-45v-86h53q32 0 53.5 -11t31.5 -24q14 -17 17 -42.5t3 -46.5q0 -40 -6 -63.5t-17 -35.5
q-17 -19 -42.5 -23t-42.5 -4h-53v-89h92q19 0 43 1.5t47.5 9.5t44.5 25t35 47q14 29 17 60t3 60q0 17 -1 36.5t-4.5 38.5t-11.5 37t-22 33q-15 16 -39 26t-50 12v3q20 2 37.5 11t31.5 29q17 24 21 50.5t4 51.5q0 38 -9.5 74.5t-43.5 63.5q-16 12 -35 19.5t-38 11.5t-37.5 5
t-32.5 1q-31 0 -71.5 -5t-80.5 -24q-33 -16 -58 -40t-41 -61q-17 -40 -19.5 -81t-2.5 -76v-419z" />
    <glyph glyph-name="agrave" unicode="&#xe0;" horiz-adv-x="555" 
d="M65 530v-90h261q14 0 29.5 -4t27.5 -19q10 -12 12.5 -25t2.5 -25v-37h-230q-21 0 -46.5 -4.5t-50.5 -26.5q-30 -26 -37.5 -60t-7.5 -69q0 -15 1 -34t5.5 -39t14 -38.5t25.5 -32.5q23 -20 48.5 -23t47.5 -3h253q19 0 39 3.5t34 17.5t17.5 34t3.5 34v275q0 45 -11 76.5
t-28 48.5q-18 19 -47 30t-63 11h-301zM398 240v-122q0 -6 -1 -11.5t-7 -10.5t-13.5 -5.5t-12.5 -0.5h-163q-11 0 -21.5 5t-16.5 11q-11 11 -13.5 29t-2.5 30q0 29 5 41t8 16q10 13 23.5 15.5t19.5 2.5h195zM227 767l-60 -75l162 -132l59 74z" />
    <glyph glyph-name="aacute" unicode="&#xe1;" horiz-adv-x="555" 
d="M65 530v-90h261q14 0 29.5 -4t27.5 -19q10 -12 12.5 -25t2.5 -25v-37h-230q-21 0 -46.5 -4.5t-50.5 -26.5q-30 -26 -37.5 -60t-7.5 -69q0 -15 1 -34t5.5 -39t14 -38.5t25.5 -32.5q23 -20 48.5 -23t47.5 -3h253q19 0 39 3.5t34 17.5t17.5 34t3.5 34v275q0 45 -11 76.5
t-28 48.5q-18 19 -47 30t-63 11h-301zM398 240v-122q0 -6 -1 -11.5t-7 -10.5t-13.5 -5.5t-12.5 -0.5h-163q-11 0 -21.5 5t-16.5 11q-11 11 -13.5 29t-2.5 30q0 29 5 41t8 16q10 13 23.5 15.5t19.5 2.5h195zM328 767l-161 -133l59 -74l162 132z" />
    <glyph glyph-name="acircumflex" unicode="&#xe2;" horiz-adv-x="555" 
d="M65 530v-90h261q14 0 29.5 -4t27.5 -19q10 -12 12.5 -25t2.5 -25v-37h-230q-21 0 -46.5 -4.5t-50.5 -26.5q-30 -26 -37.5 -60t-7.5 -69q0 -15 1 -34t5.5 -39t14 -38.5t25.5 -32.5q23 -20 48.5 -23t47.5 -3h253q19 0 39 3.5t34 17.5t17.5 34t3.5 34v275q0 45 -11 76.5
t-28 48.5q-18 19 -47 30t-63 11h-301zM398 240v-122q0 -6 -1 -11.5t-7 -10.5t-13.5 -5.5t-12.5 -0.5h-163q-11 0 -21.5 5t-16.5 11q-11 11 -13.5 29t-2.5 30q0 29 5 41t8 16q10 13 23.5 15.5t19.5 2.5h195zM420 567l46 62l-141 113q-11 8 -22.5 13t-25.5 5t-25.5 -5
t-22.5 -13l-140 -113l46 -62l117 97q7 5 12.5 7.5t13.5 2.5q10 0 15 -2.5t10 -7.5z" />
    <glyph glyph-name="atilde" unicode="&#xe3;" horiz-adv-x="555" 
d="M65 530v-90h261q14 0 29.5 -4t27.5 -19q10 -12 12.5 -25t2.5 -25v-37h-230q-21 0 -46.5 -4.5t-50.5 -26.5q-30 -26 -37.5 -60t-7.5 -69q0 -15 1 -34t5.5 -39t14 -38.5t25.5 -32.5q23 -20 48.5 -23t47.5 -3h253q19 0 39 3.5t34 17.5t17.5 34t3.5 34v275q0 45 -11 76.5
t-28 48.5q-18 19 -47 30t-63 11h-301zM398 240v-122q0 -6 -1 -11.5t-7 -10.5t-13.5 -5.5t-12.5 -0.5h-163q-11 0 -21.5 5t-16.5 11q-11 11 -13.5 29t-2.5 30q0 29 5 41t8 16q10 13 23.5 15.5t19.5 2.5h195zM132 582q5 10 13 20.5t16 15.5q6 5 15 8.5t21 3.5q20 0 32 -6.5
t23 -12.5l34 -20q14 -8 32 -11.5t33 -3.5q39 0 65 19q17 11 32.5 31t25.5 39l-51 33q-3 -6 -10 -18t-12 -18q-6 -7 -16.5 -12.5t-26.5 -5.5q-18 0 -32 7l-24 12l-40 22q-17 10 -33 13t-27 3q-20 0 -35.5 -5.5t-26.5 -13.5q-16 -11 -32.5 -30t-26.5 -34z" />
    <glyph glyph-name="adieresis" unicode="&#xe4;" horiz-adv-x="555" 
d="M65 530v-90h261q14 0 29.5 -4t27.5 -19q10 -12 12.5 -25t2.5 -25v-37h-230q-21 0 -46.5 -4.5t-50.5 -26.5q-30 -26 -37.5 -60t-7.5 -69q0 -15 1 -34t5.5 -39t14 -38.5t25.5 -32.5q23 -20 48.5 -23t47.5 -3h253q19 0 39 3.5t34 17.5t17.5 34t3.5 34v275q0 45 -11 76.5
t-28 48.5q-18 19 -47 30t-63 11h-301zM398 240v-122q0 -6 -1 -11.5t-7 -10.5t-13.5 -5.5t-12.5 -0.5h-163q-11 0 -21.5 5t-16.5 11q-11 11 -13.5 29t-2.5 30q0 29 5 41t8 16q10 13 23.5 15.5t19.5 2.5h195zM331 600h108v108h-108v-108zM223 600v108h-108v-108h108z" />
    <glyph glyph-name="aring" unicode="&#xe5;" horiz-adv-x="555" 
d="M65 530v-90h261q14 0 29.5 -4t27.5 -19q10 -12 12.5 -25t2.5 -25v-37h-230q-21 0 -46.5 -4.5t-50.5 -26.5q-30 -26 -37.5 -60t-7.5 -69q0 -15 1 -34t5.5 -39t14 -38.5t25.5 -32.5q23 -20 48.5 -23t47.5 -3h253q19 0 39 3.5t34 17.5t17.5 34t3.5 34v275q0 45 -11 76.5
t-28 48.5q-18 19 -47 30t-63 11h-301zM398 240v-122q0 -6 -1 -11.5t-7 -10.5t-13.5 -5.5t-12.5 -0.5h-163q-11 0 -21.5 5t-16.5 11q-11 11 -13.5 29t-2.5 30q0 29 5 41t8 16q10 13 23.5 15.5t19.5 2.5h195zM279 804q-20 0 -42 -3.5t-40 -18.5q-12 -11 -23 -32t-11 -60
q0 -38 11 -59t23 -32q17 -15 40 -19t42 -4q32 0 51.5 7t30.5 16q22 18 27.5 43.5t5.5 47.5q0 23 -5.5 48.5t-27.5 43.5q-19 16 -41.5 19t-40.5 3zM223 690q0 9 2.5 21t10.5 22q10 11 21 13.5t22 2.5t22 -2.5t20 -13.5q8 -10 10.5 -22t2.5 -21q0 -10 -2.5 -21t-10.5 -21
q-5 -6 -15 -11.5t-27 -5.5t-27.5 5.5t-15.5 11.5q-8 10 -10.5 21t-2.5 21z" />
    <glyph glyph-name="ae" unicode="&#xe6;" horiz-adv-x="988" 
d="M78 530v-85h261q8 0 26.5 -3t31.5 -20q6 -8 11 -23t5 -27v-47h-231q-18 0 -46 -4t-51 -22q-15 -12 -24 -28t-13.5 -33t-6 -34.5t-1.5 -33.5q0 -14 1 -33t5.5 -39.5t13.5 -39.5t25 -32q23 -20 50 -23t47 -3h216q16 0 33.5 2t30.5 12q15 12 20 34q29 -31 61 -39.5t71 -8.5
h298v90h-258q-26 0 -44 5.5t-30 14.5t-19.5 20t-11.5 22q-5 15 -8 36.5t-1 41.5h308q13 0 27 2.5t27 13.5q19 16 22.5 40t3.5 40q0 18 -2 41.5t-9.5 47.5t-22 46t-38.5 38q-20 14 -59 23.5t-114 9.5q-43 0 -74.5 -4t-55 -12t-40.5 -20t-30 -27q-3 6 -9.5 16t-20.5 20
t-36 17.5t-56 7.5h-283zM412 242v-124q0 -5 -1 -11t-7 -11q-5 -5 -13 -5.5t-13 -0.5h-163q-11 0 -23.5 5t-17.5 11q-8 9 -11.5 26.5t-3.5 34.5q0 14 2.5 30.5t10.5 26.5q5 6 16 12t29 6h195zM540 312q1 28 3.5 50.5t19.5 43.5q12 15 26 23t28.5 11.5t29 4t28.5 0.5
q29 0 52 -4t46 -23q17 -14 26.5 -31.5t9.5 -43.5q0 -12 -4.5 -21.5t-21.5 -9.5h-243z" />
    <glyph glyph-name="ccedilla" unicode="&#xe7;" horiz-adv-x="513" 
d="M487 90h-190q-18 0 -37.5 1.5t-37.5 7.5t-33 17t-25 30q-5 10 -8.5 24.5t-5.5 29.5t-2.5 29.5t-0.5 26.5q0 6 0.5 18.5t1 27t2.5 29t5 25.5q10 34 40.5 59t89.5 25h189v90h-227q-36 0 -62.5 -6t-46 -14.5t-32.5 -18.5t-21 -18q-22 -23 -34 -50.5t-18 -56t-7 -56.5t-1 -52
q0 -57 7.5 -105.5t40.5 -87.5q18 -21 39.5 -34t42.5 -20t41 -9t35 -2h48l-26 -53q-2 -5 -4.5 -11t-2.5 -13q0 -13 9 -19q5 -3 12 -4t12 -1h37q8 0 17 -2t9 -14t-9.5 -14.5t-18.5 -2.5h-78v-56h86q16 0 33.5 2t31.5 12q10 7 18.5 21t8.5 40q0 14 -4.5 29t-18.5 26
q-12 10 -25.5 12.5t-24.5 2.5h-13q-2 0 -5 0.5t-3 4.5q0 1 1 3.5t2 4.5l16 32h147v90z" />
    <glyph glyph-name="egrave" unicode="&#xe8;" horiz-adv-x="563" 
d="M520 0v90h-259q-16 0 -32.5 2t-31.5 8.5t-26 19t-17 33.5q-3 12 -5 34t-2 39h308q16 0 30.5 4t26.5 16q17 17 21 38.5t4 41.5q0 25 -3 49.5t-11.5 47t-23 41.5t-37.5 34q-37 23 -82.5 28.5t-92.5 5.5q-19 0 -44 -1t-52 -5.5t-53.5 -14.5t-48.5 -29t-34.5 -42t-19 -50.5
t-8 -60t-1.5 -69.5q0 -53 6 -104t32 -89q16 -23 36 -36.5t41 -20.5t43 -8.5t42 -1.5h294zM147 316q1 26 3.5 48.5t20.5 42.5q12 13 26.5 20.5t29.5 10.5t29 3.5t26 0.5q25 0 51.5 -3.5t48.5 -20.5q13 -10 23.5 -28t10.5 -43q0 -11 -4.5 -21t-21.5 -10h-243zM231 767l-60 -75
l162 -132l59 74z" />
    <glyph glyph-name="eacute" unicode="&#xe9;" horiz-adv-x="563" 
d="M520 0v90h-259q-16 0 -32.5 2t-31.5 8.5t-26 19t-17 33.5q-3 12 -5 34t-2 39h308q16 0 30.5 4t26.5 16q17 17 21 38.5t4 41.5q0 25 -3 49.5t-11.5 47t-23 41.5t-37.5 34q-37 23 -82.5 28.5t-92.5 5.5q-19 0 -44 -1t-52 -5.5t-53.5 -14.5t-48.5 -29t-34.5 -42t-19 -50.5
t-8 -60t-1.5 -69.5q0 -53 6 -104t32 -89q16 -23 36 -36.5t41 -20.5t43 -8.5t42 -1.5h294zM147 316q1 26 3.5 48.5t20.5 42.5q12 13 26.5 20.5t29.5 10.5t29 3.5t26 0.5q25 0 51.5 -3.5t48.5 -20.5q13 -10 23.5 -28t10.5 -43q0 -11 -4.5 -21t-21.5 -10h-243zM332 767
l-161 -133l59 -74l162 132z" />
    <glyph glyph-name="ecircumflex" unicode="&#xea;" horiz-adv-x="563" 
d="M520 0v90h-259q-16 0 -32.5 2t-31.5 8.5t-26 19t-17 33.5q-3 12 -5 34t-2 39h308q16 0 30.5 4t26.5 16q17 17 21 38.5t4 41.5q0 25 -3 49.5t-11.5 47t-23 41.5t-37.5 34q-37 23 -82.5 28.5t-92.5 5.5q-19 0 -44 -1t-52 -5.5t-53.5 -14.5t-48.5 -29t-34.5 -42t-19 -50.5
t-8 -60t-1.5 -69.5q0 -53 6 -104t32 -89q16 -23 36 -36.5t41 -20.5t43 -8.5t42 -1.5h294zM147 316q1 26 3.5 48.5t20.5 42.5q12 13 26.5 20.5t29.5 10.5t29 3.5t26 0.5q25 0 51.5 -3.5t48.5 -20.5q13 -10 23.5 -28t10.5 -43q0 -11 -4.5 -21t-21.5 -10h-243zM424 560l46 62
l-141 113q-11 8 -22.5 13t-25.5 5t-25.5 -5t-22.5 -13l-140 -113l46 -62l117 97q7 5 12.5 7.5t13.5 2.5q10 0 15 -2.5t10 -7.5z" />
    <glyph glyph-name="edieresis" unicode="&#xeb;" horiz-adv-x="563" 
d="M520 0v90h-259q-16 0 -32.5 2t-31.5 8.5t-26 19t-17 33.5q-3 12 -5 34t-2 39h308q16 0 30.5 4t26.5 16q17 17 21 38.5t4 41.5q0 25 -3 49.5t-11.5 47t-23 41.5t-37.5 34q-37 23 -82.5 28.5t-92.5 5.5q-19 0 -44 -1t-52 -5.5t-53.5 -14.5t-48.5 -29t-34.5 -42t-19 -50.5
t-8 -60t-1.5 -69.5q0 -53 6 -104t32 -89q16 -23 36 -36.5t41 -20.5t43 -8.5t42 -1.5h294zM147 316q1 26 3.5 48.5t20.5 42.5q12 13 26.5 20.5t29.5 10.5t29 3.5t26 0.5q25 0 51.5 -3.5t48.5 -20.5q13 -10 23.5 -28t10.5 -43q0 -11 -4.5 -21t-21.5 -10h-243zM335 600h108v108
h-108v-108zM227 600v108h-108v-108h108z" />
    <glyph glyph-name="igrave" unicode="&#xec;" horiz-adv-x="197" 
d="M40 0h117v530h-117v-530zM49 767l-60 -75l162 -132l59 74z" />
    <glyph glyph-name="iacute" unicode="&#xed;" horiz-adv-x="197" 
d="M40 0h117v530h-117v-530zM150 767l-161 -133l59 -74l162 132z" />
    <glyph glyph-name="icircumflex" unicode="&#xee;" horiz-adv-x="236" 
d="M65 0h117v530h-117v-530zM266 558l46 62l-141 113q-11 8 -22.5 13t-25.5 5t-25.5 -5t-22.5 -13l-140 -113l46 -62l117 97q7 5 12.5 7.5t13.5 2.5q10 0 15 -2.5t10 -7.5z" />
    <glyph glyph-name="idieresis" unicode="&#xef;" horiz-adv-x="253" 
d="M70 0h117v530h-117v-530zM184 600h108v108h-108v-108zM76 600v108h-108v-108h108z" />
    <glyph glyph-name="eth" unicode="&#xf0;" horiz-adv-x="562" 
d="M492 730l-74 -38q-17 12 -33.5 20t-33.5 14q-9 3 -27.5 8t-44.5 7l-12 -63q9 -1 31.5 -5.5t44.5 -18.5l-67 -34l30 -53l82 42q8 -9 17 -28.5t10 -50.5h-153q-18 0 -42 -1.5t-49 -9t-49 -23.5t-43 -44q-25 -38 -32 -84.5t-7 -92.5q0 -71 8 -110t15 -56q14 -36 35 -57.5
t45 -33t49 -15t46 -3.5h205q17 0 37 4t34 22q13 16 15.5 36t2.5 30v367q0 20 -3 50.5t-16 63.5q-10 26 -22.5 44.5t-23.5 31.5l57 29zM415 443v-296q0 -20 -1.5 -32t-6.5 -17q-2 -2 -10 -5t-25 -3h-87q-12 0 -28 1.5t-32 8.5t-30 20t-23 37q-3 8 -7.5 32.5t-4.5 81.5
q0 48 5.5 77t16.5 47q16 26 42 37t61 11h130z" />
    <glyph glyph-name="ntilde" unicode="&#xf1;" horiz-adv-x="565" 
d="M40 0h117v412q0 5 0.5 11t5.5 11t10 5.5t10 0.5h119q32 0 51.5 -7.5t32.5 -24.5q14 -19 18 -43.5t4 -50.5v-314h117v349q0 55 -15.5 87t-36.5 51q-32 29 -69 36t-79 7h-187q-17 0 -40.5 -2.5t-40.5 -21.5q-12 -13 -14.5 -29t-2.5 -28v-449zM137 582q5 10 13 20.5t16 15.5
q6 5 15 8.5t21 3.5q20 0 32 -6.5t23 -12.5l34 -20q14 -8 32 -11.5t33 -3.5q39 0 65 19q17 11 32.5 31t25.5 39l-51 33q-3 -6 -10 -18t-12 -18q-6 -7 -16.5 -12.5t-26.5 -5.5q-18 0 -32 7l-24 12l-40 22q-17 10 -33 13t-27 3q-20 0 -35.5 -5.5t-26.5 -13.5q-16 -11 -32.5 -30
t-26.5 -34z" />
    <glyph glyph-name="ograve" unicode="&#xf2;" horiz-adv-x="616" 
d="M308 536q-24 0 -52 -1t-57 -6.5t-56 -17t-49 -31.5q-23 -21 -36.5 -49.5t-20.5 -58t-9 -58.5t-2 -51q0 -20 2 -47.5t8.5 -57t20 -57.5t37.5 -50q22 -20 49 -31.5t56 -17t57 -7t52 -1.5q23 0 51 1.5t57.5 7t57 17t48.5 31.5q29 28 48.5 79.5t19.5 136.5q0 21 -2 49t-9 57
t-20.5 57.5t-36.5 49.5q-22 20 -49 31.5t-56 17t-57 6.5t-52 1zM147 264q0 13 0.5 31t3.5 37.5t10 38.5t19 33t28.5 22.5t33.5 13t34.5 5.5t31.5 1q16 0 33 -1t33.5 -5.5t32 -13t28.5 -22.5q14 -15 21 -33.5t10 -37.5t3 -37v-32q0 -35 -4.5 -71t-30.5 -65t-59.5 -36.5
t-66.5 -7.5q-32 0 -66.5 7.5t-60.5 36.5q-25 29 -29.5 66t-4.5 70zM250 770l-60 -75l162 -132l59 74z" />
    <glyph glyph-name="oacute" unicode="&#xf3;" horiz-adv-x="616" 
d="M308 536q-24 0 -52 -1t-57 -6.5t-56 -17t-49 -31.5q-23 -21 -36.5 -49.5t-20.5 -58t-9 -58.5t-2 -51q0 -20 2 -47.5t8.5 -57t20 -57.5t37.5 -50q22 -20 49 -31.5t56 -17t57 -7t52 -1.5q23 0 51 1.5t57.5 7t57 17t48.5 31.5q29 28 48.5 79.5t19.5 136.5q0 21 -2 49t-9 57
t-20.5 57.5t-36.5 49.5q-22 20 -49 31.5t-56 17t-57 6.5t-52 1zM147 264q0 13 0.5 31t3.5 37.5t10 38.5t19 33t28.5 22.5t33.5 13t34.5 5.5t31.5 1q16 0 33 -1t33.5 -5.5t32 -13t28.5 -22.5q14 -15 21 -33.5t10 -37.5t3 -37v-32q0 -35 -4.5 -71t-30.5 -65t-59.5 -36.5
t-66.5 -7.5q-32 0 -66.5 7.5t-60.5 36.5q-25 29 -29.5 66t-4.5 70zM364 770l-161 -133l59 -74l162 132z" />
    <glyph glyph-name="ocircumflex" unicode="&#xf4;" horiz-adv-x="616" 
d="M308 536q-24 0 -52 -1t-57 -6.5t-56 -17t-49 -31.5q-23 -21 -36.5 -49.5t-20.5 -58t-9 -58.5t-2 -51q0 -20 2 -47.5t8.5 -57t20 -57.5t37.5 -50q22 -20 49 -31.5t56 -17t57 -7t52 -1.5q23 0 51 1.5t57.5 7t57 17t48.5 31.5q29 28 48.5 79.5t19.5 136.5q0 21 -2 49t-9 57
t-20.5 57.5t-36.5 49.5q-22 20 -49 31.5t-56 17t-57 6.5t-52 1zM147 264q0 13 0.5 31t3.5 37.5t10 38.5t19 33t28.5 22.5t33.5 13t34.5 5.5t31.5 1q16 0 33 -1t33.5 -5.5t32 -13t28.5 -22.5q14 -15 21 -33.5t10 -37.5t3 -37v-32q0 -35 -4.5 -71t-30.5 -65t-59.5 -36.5
t-66.5 -7.5q-32 0 -66.5 7.5t-60.5 36.5q-25 29 -29.5 66t-4.5 70zM450 560l46 62l-141 113q-11 8 -22.5 13t-25.5 5t-25.5 -5t-22.5 -13l-140 -113l46 -62l117 97q7 5 12.5 7.5t13.5 2.5q10 0 15 -2.5t10 -7.5z" />
    <glyph glyph-name="otilde" unicode="&#xf5;" horiz-adv-x="616" 
d="M308 536q-24 0 -52 -1t-57 -6.5t-56 -17t-49 -31.5q-23 -21 -36.5 -49.5t-20.5 -58t-9 -58.5t-2 -51q0 -20 2 -47.5t8.5 -57t20 -57.5t37.5 -50q22 -20 49 -31.5t56 -17t57 -7t52 -1.5q23 0 51 1.5t57.5 7t57 17t48.5 31.5q29 28 48.5 79.5t19.5 136.5q0 21 -2 49t-9 57
t-20.5 57.5t-36.5 49.5q-22 20 -49 31.5t-56 17t-57 6.5t-52 1zM147 264q0 13 0.5 31t3.5 37.5t10 38.5t19 33t28.5 22.5t33.5 13t34.5 5.5t31.5 1q16 0 33 -1t33.5 -5.5t32 -13t28.5 -22.5q14 -15 21 -33.5t10 -37.5t3 -37v-32q0 -35 -4.5 -71t-30.5 -65t-59.5 -36.5
t-66.5 -7.5q-32 0 -66.5 7.5t-60.5 36.5q-25 29 -29.5 66t-4.5 70zM156 586q5 10 13 20.5t16 15.5q6 5 15 8.5t21 3.5q20 0 32 -6.5t23 -12.5l34 -20q14 -8 32 -11.5t33 -3.5q39 0 65 19q17 11 32.5 31t25.5 39l-51 33q-3 -6 -10 -18t-12 -18q-6 -7 -16.5 -12.5t-26.5 -5.5
q-18 0 -32 7l-24 12l-40 22q-17 10 -33 13t-27 3q-20 0 -35.5 -5.5t-26.5 -13.5q-16 -11 -32.5 -30t-26.5 -34z" />
    <glyph glyph-name="odieresis" unicode="&#xf6;" horiz-adv-x="616" 
d="M308 536q-24 0 -52 -1t-57 -6.5t-56 -17t-49 -31.5q-23 -21 -36.5 -49.5t-20.5 -58t-9 -58.5t-2 -51q0 -20 2 -47.5t8.5 -57t20 -57.5t37.5 -50q22 -20 49 -31.5t56 -17t57 -7t52 -1.5q23 0 51 1.5t57.5 7t57 17t48.5 31.5q29 28 48.5 79.5t19.5 136.5q0 21 -2 49t-9 57
t-20.5 57.5t-36.5 49.5q-22 20 -49 31.5t-56 17t-57 6.5t-52 1zM147 264q0 13 0.5 31t3.5 37.5t10 38.5t19 33t28.5 22.5t33.5 13t34.5 5.5t31.5 1q16 0 33 -1t33.5 -5.5t32 -13t28.5 -22.5q14 -15 21 -33.5t10 -37.5t3 -37v-32q0 -35 -4.5 -71t-30.5 -65t-59.5 -36.5
t-66.5 -7.5q-32 0 -66.5 7.5t-60.5 36.5q-25 29 -29.5 66t-4.5 70zM362 600h108v108h-108v-108zM254 600v108h-108v-108h108z" />
    <glyph glyph-name="divide" unicode="&#xf7;" horiz-adv-x="580" 
d="M520 274v85h-460v-85h460zM351 449v126h-122v-126h122zM351 58v126h-122v-126h122z" />
    <glyph glyph-name="oslash" unicode="&#xf8;" horiz-adv-x="592" 
d="M10 22l37 -37l51 50q24 -14 45.5 -22t43 -12.5t45.5 -5.5t53 -1q23 0 53 1t61 6.5t60.5 16.5t51.5 32q25 23 38.5 55t20.5 64.5t8.5 60t1.5 41.5q0 34 -3 60.5t-9 49t-15 41.5t-21 37l50 49l-36 38l-51 -50q-24 13 -46 21t-44 12t-46 5.5t-53 1.5q-27 0 -57 -1.5t-60 -7
t-57.5 -17t-49.5 -32.5q-24 -23 -37.5 -52.5t-19.5 -60t-7.5 -59t-1.5 -47.5q0 -30 2 -55t7 -46.5t14 -42t23 -42.5zM156 159q-14 29 -16.5 51.5t-2.5 51.5q0 18 1 38t4.5 39.5t10.5 37t19 30.5t28.5 20.5t34 11.5t34.5 5.5t31 1.5q34 0 59 -5t52 -22zM440 375
q13 -29 16 -52t3 -54q0 -13 -0.5 -30.5t-3.5 -37t-9.5 -38.5t-18.5 -34q-13 -16 -29 -25t-33.5 -13.5t-36 -5.5t-34.5 -1q-32 0 -56.5 5t-52.5 25z" />
    <glyph glyph-name="ugrave" unicode="&#xf9;" horiz-adv-x="570" 
d="M530 95v435h-117v-397q0 -8 -1 -16t-9 -16q-11 -11 -34 -11h-97q-32 0 -55.5 6t-39.5 28q-11 15 -15.5 36.5t-4.5 56.5v313h-117v-334q0 -49 10.5 -88t43.5 -68q27 -23 59.5 -31.5t78.5 -8.5h187q21 0 43.5 3t39.5 17q20 16 24 38.5t4 36.5zM215 768l-60 -75l162 -132
l59 74z" />
    <glyph glyph-name="uacute" unicode="&#xfa;" horiz-adv-x="570" 
d="M530 95v435h-117v-397q0 -8 -1 -16t-9 -16q-11 -11 -34 -11h-97q-32 0 -55.5 6t-39.5 28q-11 15 -15.5 36.5t-4.5 56.5v313h-117v-334q0 -49 10.5 -88t43.5 -68q27 -23 59.5 -31.5t78.5 -8.5h187q21 0 43.5 3t39.5 17q20 16 24 38.5t4 36.5zM370 767l-161 -133l59 -74
l162 132z" />
    <glyph glyph-name="ucircumflex" unicode="&#xfb;" horiz-adv-x="570" 
d="M530 95v435h-117v-397q0 -8 -1 -16t-9 -16q-11 -11 -34 -11h-97q-32 0 -55.5 6t-39.5 28q-11 15 -15.5 36.5t-4.5 56.5v313h-117v-334q0 -49 10.5 -88t43.5 -68q27 -23 59.5 -31.5t78.5 -8.5h187q21 0 43.5 3t39.5 17q20 16 24 38.5t4 36.5zM427 576l46 62l-141 113
q-11 8 -22.5 13t-25.5 5t-25.5 -5t-22.5 -13l-140 -113l46 -62l117 97q7 5 12.5 7.5t13.5 2.5q10 0 15 -2.5t10 -7.5z" />
    <glyph glyph-name="udieresis" unicode="&#xfc;" horiz-adv-x="570" 
d="M530 95v435h-117v-397q0 -8 -1 -16t-9 -16q-11 -11 -34 -11h-97q-32 0 -55.5 6t-39.5 28q-11 15 -15.5 36.5t-4.5 56.5v313h-117v-334q0 -49 10.5 -88t43.5 -68q27 -23 59.5 -31.5t78.5 -8.5h187q21 0 43.5 3t39.5 17q20 16 24 38.5t4 36.5zM339 600h108v108h-108v-108z
M231 600v108h-108v-108h108z" />
    <glyph glyph-name="yacute" unicode="&#xfd;" horiz-adv-x="542" 
d="M566 528h-119l-180 -405l-170 407h-121l236 -528l-81 -173h119zM337 767l-161 -133l59 -74l162 132z" />
    <glyph glyph-name="thorn" unicode="&#xfe;" horiz-adv-x="598" 
d="M60 -170h117v170h176q39 0 77 8.5t71 44.5q20 21 31.5 48t17 56t7 59t1.5 58q0 27 -1.5 55t-6.5 55t-16 51.5t-29 43.5q-18 18 -38 28.5t-41 15.5t-43 6t-43 1h-163v170h-117v-870zM177 90v350h139q23 0 51.5 -7.5t48.5 -39.5q13 -21 17 -56.5t4 -66.5q0 -53 -8.5 -82.5
t-16.5 -43.5q-11 -19 -23.5 -30t-26 -16t-28.5 -6.5t-30 -1.5h-127z" />
    <glyph glyph-name="ydieresis" unicode="&#xff;" horiz-adv-x="542" 
d="M566 528h-119l-180 -405l-170 407h-121l236 -528l-81 -173h119zM325 600h108v108h-108v-108zM217 600v108h-108v-108h108z" />
    <glyph glyph-name="Amacron" unicode="&#x100;" horiz-adv-x="698" 
d="M-30 0h139l71 177h337l72 -177h139l-264 629q-19 44 -44.5 61.5t-70.5 17.5q-47 0 -71.5 -17.5t-43.5 -61.5zM329 556q3 8 8 18.5t12 10.5t12 -10.5t8 -18.5l114 -285h-269zM519 750v84h-340v-84h340z" />
    <glyph glyph-name="amacron" unicode="&#x101;" horiz-adv-x="555" 
d="M65 530v-90h261q14 0 29.5 -4t27.5 -19q10 -12 12.5 -25t2.5 -25v-37h-230q-21 0 -46.5 -4.5t-50.5 -26.5q-30 -26 -37.5 -60t-7.5 -69q0 -15 1 -34t5.5 -39t14 -38.5t25.5 -32.5q23 -20 48.5 -23t47.5 -3h253q19 0 39 3.5t34 17.5t17.5 34t3.5 34v275q0 45 -11 76.5
t-28 48.5q-18 19 -47 30t-63 11h-301zM398 240v-122q0 -6 -1 -11.5t-7 -10.5t-13.5 -5.5t-12.5 -0.5h-163q-11 0 -21.5 5t-16.5 11q-11 11 -13.5 29t-2.5 30q0 29 5 41t8 16q10 13 23.5 15.5t19.5 2.5h195zM447 600v84h-340v-84h340z" />
    <glyph glyph-name="Abreve" unicode="&#x102;" horiz-adv-x="698" 
d="M-30 0h139l71 177h337l72 -177h139l-264 629q-19 44 -44.5 61.5t-70.5 17.5q-47 0 -71.5 -17.5t-43.5 -61.5zM329 556q3 8 8 18.5t12 10.5t12 -10.5t8 -18.5l114 -285h-269zM348 814q-20 0 -36 4.5t-32 19.5q-11 11 -17 22.5t-8 20.5h-91q7 -28 22 -55.5t35 -45.5
q29 -26 63.5 -32.5t63.5 -6.5q28 0 63 6.5t65 32.5q20 17 35 45t22 56h-91q-2 -9 -8 -20.5t-17 -22.5q-15 -15 -32 -19.5t-37 -4.5z" />
    <glyph glyph-name="abreve" unicode="&#x103;" horiz-adv-x="555" 
d="M65 530v-90h261q14 0 29.5 -4t27.5 -19q10 -12 12.5 -25t2.5 -25v-37h-230q-21 0 -46.5 -4.5t-50.5 -26.5q-30 -26 -37.5 -60t-7.5 -69q0 -15 1 -34t5.5 -39t14 -38.5t25.5 -32.5q23 -20 48.5 -23t47.5 -3h253q19 0 39 3.5t34 17.5t17.5 34t3.5 34v275q0 45 -11 76.5
t-28 48.5q-18 19 -47 30t-63 11h-301zM398 240v-122q0 -6 -1 -11.5t-7 -10.5t-13.5 -5.5t-12.5 -0.5h-163q-11 0 -21.5 5t-16.5 11q-11 11 -13.5 29t-2.5 30q0 29 5 41t8 16q10 13 23.5 15.5t19.5 2.5h195zM278 637q-20 0 -36 4.5t-32 19.5q-11 11 -17 22.5t-8 20.5h-91
q7 -28 22 -55.5t35 -45.5q29 -26 63.5 -32.5t63.5 -6.5q28 0 63 6.5t65 32.5q20 17 35 45t22 56h-91q-2 -9 -8 -20.5t-17 -22.5q-15 -15 -32 -19.5t-37 -4.5z" />
    <glyph glyph-name="Aogonek" unicode="&#x104;" horiz-adv-x="707" 
d="M-30 0h139l71 177h337l72 -177h59l-46 -88q-10 -18 -10 -37q0 -12 4 -23.5t13 -19.5t20 -10t21 -2h87v60h-42q-5 0 -14 1.5t-9 11.5q0 2 1.5 5.5t6.5 13.5l48 88l-264 629q-19 44 -44.5 61.5t-70.5 17.5q-47 0 -71.5 -17.5t-43.5 -61.5zM329 556q3 8 8 18.5t12 10.5
t12 -10.5t8 -18.5l114 -285h-269z" />
    <glyph glyph-name="aogonek" unicode="&#x105;" horiz-adv-x="555" 
d="M65 530v-90h261q14 0 29.5 -4t27.5 -19q10 -12 12.5 -25t2.5 -25v-37h-230q-21 0 -46.5 -4.5t-50.5 -26.5q-30 -26 -37.5 -60t-7.5 -69q0 -15 1 -34t5.5 -39t14 -38.5t25.5 -32.5q23 -20 48.5 -23t47.5 -3h157l-46 -88q-10 -18 -10 -37q0 -12 4 -23.5t13 -19.5t20 -10
t21 -2h87v60h-42q-5 0 -14 1.5t-9 11.5q0 2 1.5 5.5t6.5 13.5l48 88h16q19 0 39 3.5t34 17.5t17.5 34t3.5 34v275q0 45 -11 76.5t-28 48.5q-18 19 -47 30t-63 11h-301zM398 240v-122q0 -6 -1 -11.5t-7 -10.5t-13.5 -5.5t-12.5 -0.5h-163q-11 0 -21.5 5t-16.5 11
q-11 11 -13.5 29t-2.5 30q0 29 5 41t8 16q10 13 23.5 15.5t19.5 2.5h195z" />
    <glyph glyph-name="Cacute" unicode="&#x106;" 
d="M629 0v105h-237q-62 0 -109 13t-74 54q-5 8 -11 21t-11 33t-8 48.5t-3 67.5q0 78 11.5 121.5t27.5 66.5q15 22 34.5 35t43 20t50.5 8.5t56 1.5h219v105h-281q-19 0 -47 -2t-60 -11t-64 -26.5t-58 -48.5q-22 -26 -35.5 -57.5t-20.5 -67t-9.5 -73t-2.5 -74.5q0 -29 2 -62.5
t9 -67.5t21 -67t39 -61q24 -27 52.5 -43.5t58 -25t58.5 -11t54 -2.5h295zM417 950l-161 -133l59 -74l162 132z" />
    <glyph glyph-name="cacute" unicode="&#x107;" horiz-adv-x="513" 
d="M487 0v90h-190q-18 0 -37.5 1.5t-37.5 7.5t-33 17t-25 30q-5 10 -8.5 24.5t-5.5 29.5t-2.5 29.5t-0.5 26.5q0 6 0.5 18.5t1 27t2.5 29t5 25.5q10 34 40.5 59t89.5 25h189v90h-227q-36 0 -62.5 -6t-46 -14.5t-32.5 -18.5t-21 -18q-22 -23 -34 -50.5t-18 -56t-7 -56.5
t-1 -52q0 -57 7.5 -105.5t40.5 -87.5q18 -21 39.5 -34t42.5 -20t41 -9t35 -2h255zM328 770l-161 -133l59 -74l162 132z" />
    <glyph glyph-name="Ccircumflex" unicode="&#x108;" 
d="M629 0v105h-237q-62 0 -109 13t-74 54q-5 8 -11 21t-11 33t-8 48.5t-3 67.5q0 78 11.5 121.5t27.5 66.5q15 22 34.5 35t43 20t50.5 8.5t56 1.5h219v105h-281q-19 0 -47 -2t-60 -11t-64 -26.5t-58 -48.5q-22 -26 -35.5 -57.5t-20.5 -67t-9.5 -73t-2.5 -74.5q0 -29 2 -62.5
t9 -67.5t21 -67t39 -61q24 -27 52.5 -43.5t58 -25t58.5 -11t54 -2.5h295zM492 741l46 62l-141 113q-11 8 -22.5 13t-25.5 5t-25.5 -5t-22.5 -13l-140 -113l46 -62l117 97q7 5 12.5 7.5t13.5 2.5q10 0 15 -2.5t10 -7.5z" />
    <glyph glyph-name="ccircumflex" unicode="&#x109;" horiz-adv-x="513" 
d="M487 0v90h-190q-18 0 -37.5 1.5t-37.5 7.5t-33 17t-25 30q-5 10 -8.5 24.5t-5.5 29.5t-2.5 29.5t-0.5 26.5q0 6 0.5 18.5t1 27t2.5 29t5 25.5q10 34 40.5 59t89.5 25h189v90h-227q-36 0 -62.5 -6t-46 -14.5t-32.5 -18.5t-21 -18q-22 -23 -34 -50.5t-18 -56t-7 -56.5
t-1 -52q0 -57 7.5 -105.5t40.5 -87.5q18 -21 39.5 -34t42.5 -20t41 -9t35 -2h255zM409 561l46 62l-141 113q-11 8 -22.5 13t-25.5 5t-25.5 -5t-22.5 -13l-140 -113l46 -62l117 97q7 5 12.5 7.5t13.5 2.5q10 0 15 -2.5t10 -7.5z" />
    <glyph glyph-name="Ccaron" unicode="&#x10c;" 
d="M629 0v105h-237q-62 0 -109 13t-74 54q-5 8 -11 21t-11 33t-8 48.5t-3 67.5q0 78 11.5 121.5t27.5 66.5q15 22 34.5 35t43 20t50.5 8.5t56 1.5h219v105h-281q-19 0 -47 -2t-60 -11t-64 -26.5t-58 -48.5q-22 -26 -35.5 -57.5t-20.5 -67t-9.5 -73t-2.5 -74.5q0 -29 2 -62.5
t9 -67.5t21 -67t39 -61q24 -27 52.5 -43.5t58 -25t58.5 -11t54 -2.5h295zM516 934l-117 -95q-6 -5 -11 -8.5t-14 -3.5t-15 4t-11 8l-117 95l-46 -62l140 -113q11 -8 22.5 -13t25.5 -5t25.5 5t22.5 13l141 113z" />
    <glyph glyph-name="ccaron" unicode="&#x10d;" horiz-adv-x="513" 
d="M487 0v90h-190q-18 0 -37.5 1.5t-37.5 7.5t-33 17t-25 30q-5 10 -8.5 24.5t-5.5 29.5t-2.5 29.5t-0.5 26.5q0 6 0.5 18.5t1 27t2.5 29t5 25.5q10 34 40.5 59t89.5 25h189v90h-227q-36 0 -62.5 -6t-46 -14.5t-32.5 -18.5t-21 -18q-22 -23 -34 -50.5t-18 -56t-7 -56.5
t-1 -52q0 -57 7.5 -105.5t40.5 -87.5q18 -21 39.5 -34t42.5 -20t41 -9t35 -2h255zM402 759l-117 -95q-6 -5 -11 -8.5t-14 -3.5t-15 4t-11 8l-117 95l-46 -62l140 -113q11 -8 22.5 -13t25.5 -5t25.5 5t22.5 13l141 113z" />
    <glyph glyph-name="Dcaron" unicode="&#x10e;" horiz-adv-x="749" 
d="M451 0q41 0 73 8t56 21t40 28t27 29q21 28 33.5 63.5t19 72.5t8 72t1.5 64q0 31 -1.5 65t-8.5 68t-21.5 66t-39.5 60q-32 35 -82 59t-123 24h-274q-32 0 -49.5 -11t-25.5 -19q-17 -20 -20.5 -41t-3.5 -41v-499q0 -29 9.5 -45.5t19.5 -24.5q4 -3 21.5 -11t56.5 -8h284z
M192 553q0 11 4 20.5t10 14.5q7 5 16 6t15 1h137q18 0 38 -2t40 -7.5t38.5 -15.5t33.5 -26q16 -17 26 -38.5t15 -44.5t6.5 -47t1.5 -46q0 -89 -11 -133.5t-24 -64.5q-23 -37 -59.5 -51t-91.5 -14h-152q-9 0 -18 1t-16 9q-8 8 -8.5 17.5t-0.5 20.5v400zM487 940l-117 -95
q-6 -5 -11 -8.5t-14 -3.5t-15 4t-11 8l-117 95l-46 -62l140 -113q11 -8 22.5 -13t25.5 -5t25.5 5t22.5 13l141 113z" />
    <glyph glyph-name="dcaron" unicode="&#x10f;" horiz-adv-x="559" 
d="M519 93v607h-117v-170h-157q-16 0 -38.5 -2t-47 -9.5t-49 -23.5t-43.5 -44q-27 -39 -34 -87.5t-7 -90.5q0 -66 8 -105.5t18 -62.5q15 -35 35.5 -55.5t43.5 -31.5t46.5 -14.5t43.5 -3.5h209q18 0 38.5 4t34.5 23q8 11 12 30t4 36zM402 440v-305q0 -6 -1 -18.5t-8 -18.5
q-6 -6 -16.5 -7t-14.5 -1h-94q-13 0 -28 2t-29.5 8t-27.5 18t-22 32q-3 7 -8.5 32t-5.5 87q0 54 7 82t16 42q19 31 47 39t51 8h134zM646 450l92 218l-103 41l-85 -222z" />
    <glyph glyph-name="Dcroat" unicode="&#x110;" horiz-adv-x="789" 
d="M470 0q42 0 74 8t56 21t40 28t27 29q29 38 45.5 103t16.5 169q0 30 -2 64t-9 68t-21.5 67t-38.5 60q-12 13 -30 27.5t-43.5 27t-58 20.5t-73.5 8h-274q-22 0 -40 -6.5t-34 -23.5q-19 -20 -22 -39.5t-3 -42.5v-194h-80v-93h80v-212q0 -20 4.5 -36.5t24.5 -31.5
q18 -14 38.5 -17.5t39.5 -3.5h283zM212 556q0 11 4 20.5t10 14.5q7 5 16 6t15 1h137q55 0 90.5 -15.5t57.5 -39.5q19 -21 29 -44t15 -47t6 -47t1 -43q0 -75 -9 -118.5t-26 -69.5q-14 -23 -33 -36.5t-39 -20.5t-40.5 -9.5t-38.5 -2.5h-152q-8 0 -17 1t-17 9t-8.5 17.5
t-0.5 20.5v148h146v93h-146v162z" />
    <glyph glyph-name="dcroat" unicode="&#x111;" horiz-adv-x="595" 
d="M532 92v501h73v61h-73v46h-117v-46h-152v-61h152v-63h-153q-18 0 -42 -1.5t-49.5 -9t-49.5 -23.5t-43 -44q-13 -19 -20.5 -40.5t-11.5 -44t-5 -46t-1 -46.5q0 -47 4 -89t18 -77q14 -36 35.5 -57.5t45.5 -33t49 -15t46 -3.5h205q17 0 37 4t34 22q13 16 15.5 36t2.5 30z
M415 443v-296q0 -29 -3.5 -38t-5.5 -11t-10 -5t-25 -3h-87q-12 0 -27.5 1.5t-31.5 8.5t-30 20t-23 37q-3 8 -7.5 32.5t-4.5 81.5q0 47 5.5 76.5t16.5 47.5q16 26 42 37t60 11h131z" />
    <glyph glyph-name="Emacron" unicode="&#x112;" horiz-adv-x="651" 
d="M621 0v105h-374q-16 0 -27.5 1.5t-17.5 7.5q-10 8 -10 27v164h415v105h-415v141q0 8 1.5 17t9.5 17q8 7 17.5 8.5t18.5 1.5h378v105h-449q-20 0 -43.5 -4t-40.5 -23q-11 -13 -17.5 -32.5t-6.5 -40.5v-496q0 -20 4 -42.5t22 -39.5q17 -17 37 -19.5t43 -2.5h455zM505 753
v84h-340v-84h340z" />
    <glyph glyph-name="emacron" unicode="&#x113;" horiz-adv-x="563" 
d="M520 0v90h-259q-16 0 -32.5 2t-31.5 8.5t-26 19t-17 33.5q-3 12 -5 34t-2 39h308q16 0 30.5 4t26.5 16q17 17 21 38.5t4 41.5q0 25 -3 49.5t-11.5 47t-23 41.5t-37.5 34q-37 23 -82.5 28.5t-92.5 5.5q-19 0 -44 -1t-52 -5.5t-53.5 -14.5t-48.5 -29t-34.5 -42t-19 -50.5
t-8 -60t-1.5 -69.5q0 -53 6 -104t32 -89q16 -23 36 -36.5t41 -20.5t43 -8.5t42 -1.5h294zM147 316q1 26 3.5 48.5t20.5 42.5q12 13 26.5 20.5t29.5 10.5t29 3.5t26 0.5q25 0 51.5 -3.5t48.5 -20.5q13 -10 23.5 -28t10.5 -43q0 -11 -4.5 -21t-21.5 -10h-243zM451 600v84h-340
v-84h340z" />
    <glyph glyph-name="Edotaccent" unicode="&#x116;" horiz-adv-x="651" 
d="M621 0v105h-374q-16 0 -27.5 1.5t-17.5 7.5q-10 8 -10 27v164h415v105h-415v141q0 8 1.5 17t9.5 17q8 7 17.5 8.5t18.5 1.5h378v105h-449q-20 0 -43.5 -4t-40.5 -23q-11 -13 -17.5 -32.5t-6.5 -40.5v-496q0 -20 4 -42.5t22 -39.5q17 -17 37 -19.5t43 -2.5h455zM404 760
v116h-132v-116h132z" />
    <glyph glyph-name="edotaccent" unicode="&#x117;" horiz-adv-x="563" 
d="M520 0v90h-259q-16 0 -32.5 2t-31.5 8.5t-26 19t-17 33.5q-3 12 -5 34t-2 39h308q16 0 30.5 4t26.5 16q17 17 21 38.5t4 41.5q0 25 -3 49.5t-11.5 47t-23 41.5t-37.5 34q-37 23 -82.5 28.5t-92.5 5.5q-19 0 -44 -1t-52 -5.5t-53.5 -14.5t-48.5 -29t-34.5 -42t-19 -50.5
t-8 -60t-1.5 -69.5q0 -53 6 -104t32 -89q16 -23 36 -36.5t41 -20.5t43 -8.5t42 -1.5h294zM147 316q1 26 3.5 48.5t20.5 42.5q12 13 26.5 20.5t29.5 10.5t29 3.5t26 0.5q25 0 51.5 -3.5t48.5 -20.5q13 -10 23.5 -28t10.5 -43q0 -11 -4.5 -21t-21.5 -10h-243zM222 600h119v100
h-119v-100z" />
    <glyph glyph-name="Eogonek" unicode="&#x118;" horiz-adv-x="651" 
d="M247 105q-16 0 -27.5 1.5t-17.5 7.5q-10 8 -10 27v164h415v105h-415v141q0 8 1.5 17t9.5 17q8 7 17.5 8.5t18.5 1.5h378v105h-449q-20 0 -43.5 -4t-40.5 -23q-11 -13 -17.5 -32.5t-6.5 -40.5v-496q0 -20 4 -42.5t22 -39.5q17 -17 37 -19.5t43 -2.5h315l-46 -88
q-10 -18 -10 -37q0 -12 4 -23.5t13 -19.5t20 -10t21 -2h87v60h-42q-5 0 -14 1.5t-9 11.5q0 2 1.5 5.5t6.5 13.5l48 88h60v105h-374z" />
    <glyph glyph-name="eogonek" unicode="&#x119;" horiz-adv-x="563" 
d="M520 90h-259q-16 0 -32.5 2t-31.5 8.5t-26 19t-17 33.5q-3 12 -5 34t-2 39h308q16 0 30.5 4t26.5 16q17 17 21 38.5t4 41.5q0 25 -3 49.5t-11.5 47t-23 41.5t-37.5 34q-37 23 -82.5 28.5t-92.5 5.5q-19 0 -44 -1t-52 -5.5t-53.5 -14.5t-48.5 -29t-34.5 -42t-19 -50.5
t-8 -60t-1.5 -69.5q0 -53 6 -104t32 -89q16 -23 36 -36.5t41 -20.5t43 -8.5t42 -1.5h114l-46 -88q-10 -18 -10 -37q0 -12 4 -23.5t13 -19.5t20 -10t21 -2h87v60h-42q-5 0 -14 1.5t-9 11.5q0 2 1.5 5.5t6.5 13.5l48 88h100v90zM147 316q1 26 3.5 48.5t20.5 42.5
q12 13 26.5 20.5t29.5 10.5t29 3.5t26 0.5q25 0 51.5 -3.5t48.5 -20.5q13 -10 23.5 -28t10.5 -43q0 -11 -4.5 -21t-21.5 -10h-243z" />
    <glyph glyph-name="Ecaron" unicode="&#x11a;" horiz-adv-x="651" 
d="M621 0v105h-374q-16 0 -27.5 1.5t-17.5 7.5q-10 8 -10 27v164h415v105h-415v141q0 8 1.5 17t9.5 17q8 7 17.5 8.5t18.5 1.5h378v105h-449q-20 0 -43.5 -4t-40.5 -23q-11 -13 -17.5 -32.5t-6.5 -40.5v-496q0 -20 4 -42.5t22 -39.5q17 -17 37 -19.5t43 -2.5h455zM481 929
l-117 -95q-6 -5 -11 -8.5t-14 -3.5t-15 4t-11 8l-117 95l-46 -62l140 -113q11 -8 22.5 -13t25.5 -5t25.5 5t22.5 13l141 113z" />
    <glyph glyph-name="ecaron" unicode="&#x11b;" horiz-adv-x="563" 
d="M520 0v90h-259q-16 0 -32.5 2t-31.5 8.5t-26 19t-17 33.5q-3 12 -5 34t-2 39h308q16 0 30.5 4t26.5 16q17 17 21 38.5t4 41.5q0 25 -3 49.5t-11.5 47t-23 41.5t-37.5 34q-37 23 -82.5 28.5t-92.5 5.5q-19 0 -44 -1t-52 -5.5t-53.5 -14.5t-48.5 -29t-34.5 -42t-19 -50.5
t-8 -60t-1.5 -69.5q0 -53 6 -104t32 -89q16 -23 36 -36.5t41 -20.5t43 -8.5t42 -1.5h294zM147 316q1 26 3.5 48.5t20.5 42.5q12 13 26.5 20.5t29.5 10.5t29 3.5t26 0.5q25 0 51.5 -3.5t48.5 -20.5q13 -10 23.5 -28t10.5 -43q0 -11 -4.5 -21t-21.5 -10h-243zM424 759
l-117 -95q-6 -5 -11 -8.5t-14 -3.5t-15 4t-11 8l-117 95l-46 -62l140 -113q11 -8 22.5 -13t25.5 -5t25.5 5t22.5 13l141 113z" />
    <glyph glyph-name="Gcircumflex" unicode="&#x11c;" horiz-adv-x="727" 
d="M687 343h-132v-191q0 -8 -1.5 -18t-9.5 -18t-17 -9.5t-18 -1.5h-171q-42 0 -77 14.5t-57 58.5q-4 8 -9 21.5t-9 34.5t-7 49.5t-3 66.5t3 66t7 48t9 33.5t10 21.5q20 37 59 56.5t96 19.5h311v105h-348q-103 0 -169 -43q-39 -25 -61.5 -60.5t-34 -77t-15 -86t-3.5 -87.5
q0 -37 2.5 -77t11.5 -78.5t27.5 -73.5t50.5 -62q24 -20 64 -37.5t99 -17.5h298q15 0 34.5 5t33.5 16q10 8 18 25t8 44v253zM523 745l46 62l-141 113q-11 8 -22.5 13t-25.5 5t-25.5 -5t-22.5 -13l-140 -113l46 -62l117 97q7 5 12.5 7.5t13.5 2.5q10 0 15 -2.5t10 -7.5z" />
    <glyph glyph-name="gcircumflex" unicode="&#x11d;" horiz-adv-x="573" 
d="M415 0q-5 -38 -31 -61q-21 -17 -50 -20.5t-48 -3.5h-223v-90h250q14 0 36.5 2t47.5 8.5t50 19t43 34.5q26 32 34.5 76t8.5 95v372q0 17 -5.5 38.5t-25.5 38.5q-19 15 -41 18t-45 3h-171q-20 0 -41 -1.5t-42 -7t-41 -17t-39 -32.5q-35 -38 -45.5 -87t-10.5 -112
q0 -141 41 -205q15 -24 34.5 -37.5t40.5 -20t42.5 -8.5t42.5 -2h188zM416 90h-139q-26 0 -53 4t-47 27q-5 5 -10 15t-9.5 26.5t-7.5 41t-3 60.5q0 9 0.5 27.5t3.5 39.5t9.5 41.5t18.5 34.5q14 16 38 24.5t53 8.5h100q8 0 15.5 -1.5t15.5 -6.5q10 -7 12.5 -15t2.5 -19v-308z
M440 560l46 62l-141 113q-11 8 -22.5 13t-25.5 5t-25.5 -5t-22.5 -13l-140 -113l46 -62l117 97q7 5 12.5 7.5t13.5 2.5q10 0 15 -2.5t10 -7.5z" />
    <glyph glyph-name="Gbreve" unicode="&#x11e;" horiz-adv-x="727" 
d="M687 343h-132v-191q0 -8 -1.5 -18t-9.5 -18t-17 -9.5t-18 -1.5h-171q-42 0 -77 14.5t-57 58.5q-4 8 -9 21.5t-9 34.5t-7 49.5t-3 66.5t3 66t7 48t9 33.5t10 21.5q20 37 59 56.5t96 19.5h311v105h-348q-103 0 -169 -43q-39 -25 -61.5 -60.5t-34 -77t-15 -86t-3.5 -87.5
q0 -37 2.5 -77t11.5 -78.5t27.5 -73.5t50.5 -62q24 -20 64 -37.5t99 -17.5h298q15 0 34.5 5t33.5 16q10 8 18 25t8 44v253zM380 815q-20 0 -36 4.5t-32 19.5q-11 11 -17 22.5t-8 20.5h-91q7 -28 22 -55.5t35 -45.5q29 -26 63.5 -32.5t63.5 -6.5q28 0 63 6.5t65 32.5
q20 17 35 45t22 56h-91q-2 -9 -8 -20.5t-17 -22.5q-15 -15 -32 -19.5t-37 -4.5z" />
    <glyph glyph-name="gbreve" unicode="&#x11f;" horiz-adv-x="573" 
d="M415 0q-5 -38 -31 -61q-21 -17 -50 -20.5t-48 -3.5h-223v-90h250q14 0 36.5 2t47.5 8.5t50 19t43 34.5q26 32 34.5 76t8.5 95v372q0 17 -5.5 38.5t-25.5 38.5q-19 15 -41 18t-45 3h-171q-20 0 -41 -1.5t-42 -7t-41 -17t-39 -32.5q-35 -38 -45.5 -87t-10.5 -112
q0 -141 41 -205q15 -24 34.5 -37.5t40.5 -20t42.5 -8.5t42.5 -2h188zM416 90h-139q-26 0 -53 4t-47 27q-5 5 -10 15t-9.5 26.5t-7.5 41t-3 60.5q0 9 0.5 27.5t3.5 39.5t9.5 41.5t18.5 34.5q14 16 38 24.5t53 8.5h100q8 0 15.5 -1.5t15.5 -6.5q10 -7 12.5 -15t2.5 -19v-308z
M298 632q-20 0 -36 4.5t-32 19.5q-11 11 -17 22.5t-8 20.5h-91q7 -28 22 -55.5t35 -45.5q29 -26 63.5 -32.5t63.5 -6.5q28 0 63 6.5t65 32.5q20 17 35 45t22 56h-91q-2 -9 -8 -20.5t-17 -22.5q-15 -15 -32 -19.5t-37 -4.5z" />
    <glyph glyph-name="Gcommaaccent" unicode="&#x122;" horiz-adv-x="727" 
d="M687 343h-132v-191q0 -8 -1.5 -18t-9.5 -18t-17 -9.5t-18 -1.5h-171q-42 0 -77 14.5t-57 58.5q-4 8 -9 21.5t-9 34.5t-7 49.5t-3 66.5t3 66t7 48t9 33.5t10 21.5q20 37 59 56.5t96 19.5h311v105h-348q-103 0 -169 -43q-39 -25 -61.5 -60.5t-34 -77t-15 -86t-3.5 -87.5
q0 -37 2.5 -77t11.5 -78.5t27.5 -73.5t50.5 -62q24 -20 64 -37.5t99 -17.5h298q15 0 34.5 5t33.5 16q10 8 18 25t8 44v253zM409 -298l92 218l-103 41l-85 -222z" />
    <glyph glyph-name="gcommaaccent" unicode="&#x123;" horiz-adv-x="573" 
d="M415 0q-5 -38 -31 -61q-21 -17 -50 -20.5t-48 -3.5h-223v-90h250q14 0 36.5 2t47.5 8.5t50 19t43 34.5q26 32 34.5 76t8.5 95v372q0 17 -5.5 38.5t-25.5 38.5q-19 15 -41 18t-45 3h-171q-20 0 -41 -1.5t-42 -7t-41 -17t-39 -32.5q-35 -38 -45.5 -87t-10.5 -112
q0 -141 41 -205q15 -24 34.5 -37.5t40.5 -20t42.5 -8.5t42.5 -2h188zM416 90h-139q-26 0 -53 4t-47 27q-5 5 -10 15t-9.5 26.5t-7.5 41t-3 60.5q0 9 0.5 27.5t3.5 39.5t9.5 41.5t18.5 34.5q14 16 38 24.5t53 8.5h100q8 0 15.5 -1.5t15.5 -6.5q10 -7 12.5 -15t2.5 -19v-308z
M414 629l-134 196l-87 -53l126 -201z" />
    <glyph glyph-name="Hcircumflex" unicode="&#x124;" horiz-adv-x="748" 
d="M688 700h-132v-287h-364v287h-132v-700h132v308h364v-308h132v700zM516 740l46 62l-141 113q-11 8 -22.5 13t-25.5 5t-25.5 -5t-22.5 -13l-140 -113l46 -62l117 97q7 5 12.5 7.5t13.5 2.5q10 0 15 -2.5t10 -7.5z" />
    <glyph glyph-name="hcircumflex" unicode="&#x125;" horiz-adv-x="562" 
d="M40 0h117v440h137q17 0 41 -4.5t44 -26.5q9 -10 14 -22.5t8 -25t3.5 -24t0.5 -19.5v-318h117v349q0 55 -17.5 90t-39.5 53q-29 23 -66.5 30.5t-82.5 7.5h-159v170h-117v-700zM241 699l46 62l-141 113q-11 8 -22.5 13t-25.5 5t-25.5 -5t-22.5 -13l-140 -113l46 -62l117 97
q7 5 12.5 7.5t13.5 2.5q10 0 15 -2.5t10 -7.5z" />
    <glyph glyph-name="Imacron" unicode="&#x12a;" horiz-adv-x="280" 
d="M206 0v700h-132v-700h132zM270 760v84h-260v-84h260z" />
    <glyph glyph-name="imacron" unicode="&#x12b;" horiz-adv-x="221" 
d="M56 0h117v530h-117v-530zM282 600v84h-340v-84h340z" />
    <glyph glyph-name="Iogonek" unicode="&#x12e;" horiz-adv-x="265" 
d="M196 700h-132v-700h52l-46 -88q-10 -18 -10 -37q0 -12 4 -23.5t13 -19.5t20 -10t21 -2h87v60h-42q-5 0 -14 1.5t-9 11.5q0 2 1.5 5.5t6.5 13.5l48 88v700z" />
    <glyph glyph-name="iogonek" unicode="&#x12f;" horiz-adv-x="225" 
d="M176 530h-117v-530h37l-46 -88q-10 -18 -10 -37q0 -12 4 -23.5t13 -19.5t20 -10t21 -2h87v60h-42q-5 0 -14 1.5t-9 11.5q0 2 1.5 5.5t6.5 13.5l48 88v530zM176 607v93h-117v-93h117z" />
    <glyph glyph-name="Idotaccent" unicode="&#x130;" horiz-adv-x="252" 
d="M192 0v700h-132v-700h132zM192 760v116h-132v-116h132z" />
    <glyph glyph-name="dotlessi" unicode="&#x131;" horiz-adv-x="197" 
d="M40 0h117v530h-117v-530z" />
    <glyph glyph-name="Jcircumflex" unicode="&#x134;" horiz-adv-x="445" 
d="M-20 0h179q32 0 58 6t46.5 15.5t36 21.5t26.5 23q8 8 18.5 22t19.5 35.5t15 51.5t6 70v455h-132v-420q0 -45 -8 -80t-37 -60q-26 -23 -58.5 -29t-54.5 -6h-115v-105zM450 740l46 62l-141 113q-11 8 -22.5 13t-25.5 5t-25.5 -5t-22.5 -13l-140 -113l46 -62l117 97
q7 5 12.5 7.5t13.5 2.5q10 0 15 -2.5t10 -7.5z" />
    <glyph glyph-name="Kcommaaccent" unicode="&#x136;" horiz-adv-x="700" 
d="M730 0l-331 295q-14 13 -27.5 28t-13.5 38q0 18 10.5 29.5t22.5 22.5l302 287h-163l-265 -262q-14 -14 -24 -36t-10 -42q0 -18 9 -42.5t35 -48.5l288 -269h167zM60 0h132v700h-132v-700zM327 -289l92 218l-103 41l-85 -222z" />
    <glyph glyph-name="kcommaaccent" unicode="&#x137;" horiz-adv-x="537" 
d="M551 0l-217 229q-10 11 -17.5 23.5t-7.5 25.5t5 21.5t12 16.5l199 214h-136l-160 -176q-11 -13 -24 -31.5t-13 -48.5q0 -28 12.5 -48t23.5 -32l183 -194h140zM157 0v700h-117v-700h117zM245 -279l92 218l-103 41l-85 -222z" />
    <glyph glyph-name="Lacute" unicode="&#x139;" horiz-adv-x="598" 
d="M618 0v105h-384q-16 0 -23 3t-10 5q-8 7 -8.5 15.5t-0.5 14.5v557h-132v-624q0 -23 8.5 -37t16.5 -21q12 -10 30 -14t35 -4h468zM349 947l-161 -133l59 -74l162 132z" />
    <glyph glyph-name="lacute" unicode="&#x13a;" horiz-adv-x="197" 
d="M40 0h117v700h-117v-700zM150 934l-161 -133l59 -74l162 132z" />
    <glyph glyph-name="Lcommaaccent" unicode="&#x13b;" horiz-adv-x="598" 
d="M618 0v105h-384q-16 0 -23 3t-10 5q-8 7 -8.5 15.5t-0.5 14.5v557h-132v-624q0 -23 8.5 -37t16.5 -21q12 -10 30 -14t35 -4h468zM335 -289l92 218l-103 41l-85 -222z" />
    <glyph glyph-name="lcommaaccent" unicode="&#x13c;" horiz-adv-x="197" 
d="M40 0h117v700h-117v-700zM94 -279l92 218l-103 41l-85 -222z" />
    <glyph glyph-name="Lcaron" unicode="&#x13d;" horiz-adv-x="598" 
d="M618 0v105h-384q-16 0 -23 3t-10 5q-8 7 -8.5 15.5t-0.5 14.5v557h-132v-624q0 -23 8.5 -37t16.5 -21q12 -10 30 -14t35 -4h468zM441 445l92 218l-103 41l-85 -222z" />
    <glyph glyph-name="lcaron" unicode="&#x13e;" horiz-adv-x="197" 
d="M40 0h117v700h-117v-700zM262 440l92 218l-103 41l-85 -222z" />
    <glyph glyph-name="Lslash" unicode="&#x141;" horiz-adv-x="693" 
d="M663 0v105h-388q-7 0 -14.5 0.5t-14.5 6.5q-12 10 -12 30v190l231 175l-37 49l-194 -147v291h-131v-386l-103 -78l37 -49l66 49v-145q0 -19 6 -38t18 -31q15 -15 34.5 -18.5t37.5 -3.5h464z" />
    <glyph glyph-name="lslash" unicode="&#x142;" horiz-adv-x="338" 
d="M103 0h117v355l128 99l-40 51l-88 -68v263h-117v-354l-103 -80l39 -51l64 49v-264z" />
    <glyph glyph-name="Nacute" unicode="&#x143;" horiz-adv-x="790" 
d="M730 700h-128v-516q0 -4 -1.5 -10.5t-9.5 -6.5q-7 0 -9.5 6t-6.5 11l-297 469q-14 23 -39 39t-72 16q-50 0 -78.5 -25t-28.5 -70v-613h128v514q0 11 5 15.5t9 4.5q2 0 5 -3t11 -14l295 -466q23 -37 52 -48t61 -11q43 0 73.5 23t30.5 76v609zM464 947l-161 -133l59 -74
l162 132z" />
    <glyph glyph-name="nacute" unicode="&#x144;" horiz-adv-x="565" 
d="M40 0h117v412q0 5 0.5 11t5.5 11t10 5.5t10 0.5h119q32 0 51.5 -7.5t32.5 -24.5q14 -19 18 -43.5t4 -50.5v-314h117v349q0 55 -15.5 87t-36.5 51q-32 29 -69 36t-79 7h-187q-17 0 -40.5 -2.5t-40.5 -21.5q-12 -13 -14.5 -29t-2.5 -28v-449zM333 767l-161 -133l59 -74
l162 132z" />
    <glyph glyph-name="Ncommaaccent" unicode="&#x145;" horiz-adv-x="790" 
d="M730 700h-128v-516q0 -4 -1.5 -10.5t-9.5 -6.5q-7 0 -9.5 6t-6.5 11l-297 469q-14 23 -39 39t-72 16q-50 0 -78.5 -25t-28.5 -70v-613h128v514q0 11 5 15.5t9 4.5q2 0 5 -3t11 -14l295 -466q23 -37 52 -48t61 -11q43 0 73.5 23t30.5 76v609zM372 -289l92 218l-103 41
l-85 -222z" />
    <glyph glyph-name="ncommaaccent" unicode="&#x146;" horiz-adv-x="565" 
d="M40 0h117v412q0 5 0.5 11t5.5 11t10 5.5t10 0.5h119q32 0 51.5 -7.5t32.5 -24.5q14 -19 18 -43.5t4 -50.5v-314h117v349q0 55 -15.5 87t-36.5 51q-32 29 -69 36t-79 7h-187q-17 0 -40.5 -2.5t-40.5 -21.5q-12 -13 -14.5 -29t-2.5 -28v-449zM265 -279l92 218l-103 41
l-85 -222z" />
    <glyph glyph-name="Ncaron" unicode="&#x147;" horiz-adv-x="790" 
d="M730 700h-128v-516q0 -4 -1.5 -10.5t-9.5 -6.5q-7 0 -9.5 6t-6.5 11l-297 469q-14 23 -39 39t-72 16q-50 0 -78.5 -25t-28.5 -70v-613h128v514q0 11 5 15.5t9 4.5q2 0 5 -3t11 -14l295 -466q23 -37 52 -48t61 -11q43 0 73.5 23t30.5 76v609zM549 923l-117 -95
q-6 -5 -11 -8.5t-14 -3.5t-15 4t-11 8l-117 95l-46 -62l140 -113q11 -8 22.5 -13t25.5 -5t25.5 5t22.5 13l141 113z" />
    <glyph glyph-name="ncaron" unicode="&#x148;" horiz-adv-x="565" 
d="M40 0h117v412q0 5 0.5 11t5.5 11t10 5.5t10 0.5h119q32 0 51.5 -7.5t32.5 -24.5q14 -19 18 -43.5t4 -50.5v-314h117v349q0 55 -15.5 87t-36.5 51q-32 29 -69 36t-79 7h-187q-17 0 -40.5 -2.5t-40.5 -21.5q-12 -13 -14.5 -29t-2.5 -28v-449zM412 759l-117 -95
q-6 -5 -11 -8.5t-14 -3.5t-15 4t-11 8l-117 95l-46 -62l140 -113q11 -8 22.5 -13t25.5 -5t25.5 5t22.5 13l141 113z" />
    <glyph glyph-name="Omacron" unicode="&#x14c;" horiz-adv-x="799" 
d="M400 708q-32 0 -68.5 -1t-73.5 -8t-72.5 -22t-64.5 -43q-29 -27 -45 -61.5t-24 -72t-10 -76t-2 -74.5q0 -30 1.5 -67t9 -75.5t24 -75.5t46.5 -66q29 -28 64.5 -43t73 -22t74 -8t67.5 -1q30 0 67 1t74.5 8t73 22t64.5 43q27 26 43 61t24 73t10.5 76.5t2.5 73.5q0 34 -2 73
t-10.5 77t-24.5 73t-43 61q-29 28 -64.5 43t-73 22t-74 8t-67.5 1zM176 350q0 81 11.5 125.5t31.5 70.5q31 38 78 47.5t102 9.5q54 0 102 -9.5t79 -47.5q8 -10 16 -25t14 -38t9.5 -55.5t3.5 -77.5q0 -42 -3.5 -74t-9.5 -55t-13.5 -39t-16.5 -27q-16 -20 -36 -31.5
t-43.5 -17.5t-49 -7.5t-52.5 -1.5t-53 1.5t-49 7.5t-43 17.5t-35 31.5q-9 11 -16.5 26.5t-13.5 39t-9.5 55t-3.5 74.5zM569 759v84h-340v-84h340z" />
    <glyph glyph-name="omacron" unicode="&#x14d;" horiz-adv-x="616" 
d="M308 536q-24 0 -52 -1t-57 -6.5t-56 -17t-49 -31.5q-23 -21 -36.5 -49.5t-20.5 -58t-9 -58.5t-2 -51q0 -20 2 -47.5t8.5 -57t20 -57.5t37.5 -50q22 -20 49 -31.5t56 -17t57 -7t52 -1.5q23 0 51 1.5t57.5 7t57 17t48.5 31.5q29 28 48.5 79.5t19.5 136.5q0 21 -2 49t-9 57
t-20.5 57.5t-36.5 49.5q-22 20 -49 31.5t-56 17t-57 6.5t-52 1zM147 264q0 13 0.5 31t3.5 37.5t10 38.5t19 33t28.5 22.5t33.5 13t34.5 5.5t31.5 1q16 0 33 -1t33.5 -5.5t32 -13t28.5 -22.5q14 -15 21 -33.5t10 -37.5t3 -37v-32q0 -35 -4.5 -71t-30.5 -65t-59.5 -36.5
t-66.5 -7.5q-32 0 -66.5 7.5t-60.5 36.5q-25 29 -29.5 66t-4.5 70zM478 600v84h-340v-84h340z" />
    <glyph glyph-name="Obreve" unicode="&#x14e;" horiz-adv-x="799" 
d="M400 708q-32 0 -68.5 -1t-73.5 -8t-72.5 -22t-64.5 -43q-29 -27 -45 -61.5t-24 -72t-10 -76t-2 -74.5q0 -30 1.5 -67t9 -75.5t24 -75.5t46.5 -66q29 -28 64.5 -43t73 -22t74 -8t67.5 -1q30 0 67 1t74.5 8t73 22t64.5 43q27 26 43 61t24 73t10.5 76.5t2.5 73.5q0 34 -2 73
t-10.5 77t-24.5 73t-43 61q-29 28 -64.5 43t-73 22t-74 8t-67.5 1zM176 350q0 81 11.5 125.5t31.5 70.5q31 38 78 47.5t102 9.5q54 0 102 -9.5t79 -47.5q8 -10 16 -25t14 -38t9.5 -55.5t3.5 -77.5q0 -42 -3.5 -74t-9.5 -55t-13.5 -39t-16.5 -27q-16 -20 -36 -31.5
t-43.5 -17.5t-49 -7.5t-52.5 -1.5t-53 1.5t-49 7.5t-43 17.5t-35 31.5q-9 11 -16.5 26.5t-13.5 39t-9.5 55t-3.5 74.5zM399 816q-20 0 -36 4.5t-32 19.5q-11 11 -17 22.5t-8 20.5h-91q7 -28 22 -55.5t35 -45.5q29 -26 63.5 -32.5t63.5 -6.5q28 0 63 6.5t65 32.5q20 17 35 45
t22 56h-91q-2 -9 -8 -20.5t-17 -22.5q-15 -15 -32 -19.5t-37 -4.5z" />
    <glyph glyph-name="obreve" unicode="&#x14f;" horiz-adv-x="616" 
d="M308 536q-24 0 -52 -1t-57 -6.5t-56 -17t-49 -31.5q-23 -21 -36.5 -49.5t-20.5 -58t-9 -58.5t-2 -51q0 -20 2 -47.5t8.5 -57t20 -57.5t37.5 -50q22 -20 49 -31.5t56 -17t57 -7t52 -1.5q23 0 51 1.5t57.5 7t57 17t48.5 31.5q29 28 48.5 79.5t19.5 136.5q0 21 -2 49t-9 57
t-20.5 57.5t-36.5 49.5q-22 20 -49 31.5t-56 17t-57 6.5t-52 1zM147 264q0 13 0.5 31t3.5 37.5t10 38.5t19 33t28.5 22.5t33.5 13t34.5 5.5t31.5 1q16 0 33 -1t33.5 -5.5t32 -13t28.5 -22.5q14 -15 21 -33.5t10 -37.5t3 -37v-32q0 -35 -4.5 -71t-30.5 -65t-59.5 -36.5
t-66.5 -7.5q-32 0 -66.5 7.5t-60.5 36.5q-25 29 -29.5 66t-4.5 70zM308 640q-20 0 -36 4.5t-32 19.5q-11 11 -17 22.5t-8 20.5h-91q7 -28 22 -55.5t35 -45.5q29 -26 63.5 -32.5t63.5 -6.5q28 0 63 6.5t65 32.5q20 17 35 45t22 56h-91q-2 -9 -8 -20.5t-17 -22.5
q-15 -15 -32 -19.5t-37 -4.5z" />
    <glyph glyph-name="Ohungarumlaut" unicode="&#x150;" horiz-adv-x="799" 
d="M400 708q-32 0 -68.5 -1t-73.5 -8t-72.5 -22t-64.5 -43q-29 -27 -45 -61.5t-24 -72t-10 -76t-2 -74.5q0 -30 1.5 -67t9 -75.5t24 -75.5t46.5 -66q29 -28 64.5 -43t73 -22t74 -8t67.5 -1q30 0 67 1t74.5 8t73 22t64.5 43q27 26 43 61t24 73t10.5 76.5t2.5 73.5q0 34 -2 73
t-10.5 77t-24.5 73t-43 61q-29 28 -64.5 43t-73 22t-74 8t-67.5 1zM176 350q0 81 11.5 125.5t31.5 70.5q31 38 78 47.5t102 9.5q54 0 102 -9.5t79 -47.5q8 -10 16 -25t14 -38t9.5 -55.5t3.5 -77.5q0 -42 -3.5 -74t-9.5 -55t-13.5 -39t-16.5 -27q-16 -20 -36 -31.5
t-43.5 -17.5t-49 -7.5t-52.5 -1.5t-53 1.5t-49 7.5t-43 17.5t-35 31.5q-9 11 -16.5 26.5t-13.5 39t-9.5 55t-3.5 74.5zM334 953l-148 -147l67 -66l148 147zM546 953l-147 -147l66 -66l148 147z" />
    <glyph glyph-name="ohungarumlaut" unicode="&#x151;" horiz-adv-x="616" 
d="M308 536q-24 0 -52 -1t-57 -6.5t-56 -17t-49 -31.5q-23 -21 -36.5 -49.5t-20.5 -58t-9 -58.5t-2 -51q0 -20 2 -47.5t8.5 -57t20 -57.5t37.5 -50q22 -20 49 -31.5t56 -17t57 -7t52 -1.5q23 0 51 1.5t57.5 7t57 17t48.5 31.5q29 28 48.5 79.5t19.5 136.5q0 21 -2 49t-9 57
t-20.5 57.5t-36.5 49.5q-22 20 -49 31.5t-56 17t-57 6.5t-52 1zM147 264q0 13 0.5 31t3.5 37.5t10 38.5t19 33t28.5 22.5t33.5 13t34.5 5.5t31.5 1q16 0 33 -1t33.5 -5.5t32 -13t28.5 -22.5q14 -15 21 -33.5t10 -37.5t3 -37v-32q0 -35 -4.5 -71t-30.5 -65t-59.5 -36.5
t-66.5 -7.5q-32 0 -66.5 7.5t-60.5 36.5q-25 29 -29.5 66t-4.5 70zM254 773l-148 -147l63 -62l148 147zM466 773l-147 -147l62 -62l148 147z" />
    <glyph glyph-name="OE" unicode="&#x152;" horiz-adv-x="1269" 
d="M421 708q-35 0 -72 -1.5t-73.5 -8.5t-70.5 -22t-63 -43q-30 -29 -47 -64.5t-24.5 -73t-9 -75t-1.5 -70.5q0 -36 2 -74.5t10 -75t24.5 -71t45.5 -62.5t63 -43.5t70 -22.5t72 -8t69 -1q70 0 114 5.5t75 18.5q44 18 78 55q1 -14 7 -30.5t18 -26.5q14 -11 33 -12.5t31 -1.5
h437v103h-375q-8 0 -22 0.5t-22 8.5q-10 8 -10 27v171h415v95h-415v148q0 7 1.5 17t9.5 17q6 5 17 7.5t19 2.5h378v103h-435q-14 0 -30 -1.5t-31 -15.5q-9 -8 -16 -21.5t-9 -32.5q-21 23 -43 36.5t-41 21.5q-38 14 -82.5 17.5t-96.5 3.5zM196 350q0 24 1.5 50t6 51.5
t13.5 49t24 43.5q18 22 39 34t44 17.5t47.5 6.5t48.5 1q30 0 55 -1.5t47 -7.5t41 -17.5t36 -32.5q13 -15 21.5 -33t13.5 -41t7.5 -52t2.5 -68q0 -40 -2.5 -70t-8 -52.5t-14 -39.5t-20.5 -31q-16 -20 -33 -31.5t-38 -18t-47.5 -8.5t-60.5 -2q-23 0 -47.5 1t-48 6.5t-45 17.5
t-38.5 35q-17 21 -26 47t-13 52t-5 50.5t-1 43.5z" />
    <glyph glyph-name="oe" unicode="&#x153;" horiz-adv-x="1036" 
d="M980 0v90h-259q-50 0 -74 20.5t-31 41.5q-5 14 -7 37.5t-2 40.5h308q15 0 28 2.5t26 13.5q18 15 22.5 36t4.5 44q0 19 -2.5 42.5t-10 47t-22 45t-38.5 37.5q-35 23 -81 28.5t-93 5.5q-45 0 -78.5 -4.5t-58 -14.5t-42 -25t-31.5 -36q-24 31 -51.5 48t-56 25t-56.5 9.5
t-53 1.5q-23 0 -50.5 -1t-56.5 -6t-57 -16.5t-50 -32.5q-23 -22 -36.5 -50t-20.5 -57.5t-9 -58t-2 -51.5q0 -20 2 -47.5t8.5 -57t20 -57.5t37.5 -50q22 -20 49.5 -31.5t57 -17t58.5 -7t53 -1.5q27 0 55.5 2t56 10t53 24t46.5 44q3 -5 12 -17.5t26.5 -25t44.5 -22t66 -9.5
h294zM161 264q0 37 5.5 76t26.5 64q12 14 28 22.5t33.5 13t35 5.5t32.5 1t32.5 -1t35 -5.5t33.5 -13t28 -22.5q21 -25 26.5 -64t5.5 -76q0 -16 -0.5 -34t-4 -36t-10 -35t-18.5 -31q-25 -29 -60.5 -36.5t-67.5 -7.5q-16 0 -33.5 1.5t-35 6t-33 13.5t-27.5 23
q-11 13 -17.5 30.5t-9.5 35.5t-4 36.5t-1 33.5zM607 312q1 29 3.5 50.5t20.5 43.5q25 30 54.5 34.5t57.5 4.5q27 0 51 -4t47 -23q13 -11 24.5 -29t11.5 -46q0 -12 -5 -21.5t-22 -9.5h-243z" />
    <glyph glyph-name="Racute" unicode="&#x154;" horiz-adv-x="734" 
d="M60 0h132v545q0 11 1.5 20.5t12.5 18.5q8 8 16 9.5t19 1.5h214q16 0 37 -2.5t37 -18.5q11 -11 18 -33t7 -64q0 -9 -0.5 -22t-2 -26.5t-5 -26.5t-8.5 -21q-14 -21 -34.5 -26t-37.5 -5h-132q-29 0 -44 -13.5t-15 -34.5v-16q0 -15 11 -31.5t22 -27.5l230 -227h166l-266 247
v5h90q30 0 52 6.5t37.5 17t25.5 23t17 25.5q21 39 25.5 79.5t4.5 78.5t-5 78t-30 76q-15 23 -33.5 36t-38.5 19t-40 7.5t-38 1.5h-332q-20 0 -42.5 -5t-41.5 -23q-21 -20 -25 -44.5t-4 -46.5v-581zM417 947l-161 -133l59 -74l162 132z" />
    <glyph glyph-name="racute" unicode="&#x155;" horiz-adv-x="333" 
d="M40 0h117v299q0 30 5 57t22 47q21 25 49 31t51 6h49v90h-79q-15 0 -35 -1t-41.5 -5.5t-43 -14t-39.5 -25.5q-34 -29 -44.5 -69.5t-10.5 -84.5v-330zM236 776l-161 -133l59 -74l162 132z" />
    <glyph glyph-name="Rcommaaccent" unicode="&#x156;" horiz-adv-x="734" 
d="M60 0h132v545q0 11 1.5 20.5t12.5 18.5q8 8 16 9.5t19 1.5h214q16 0 37 -2.5t37 -18.5q11 -11 18 -33t7 -64q0 -9 -0.5 -22t-2 -26.5t-5 -26.5t-8.5 -21q-14 -21 -34.5 -26t-37.5 -5h-132q-29 0 -44 -13.5t-15 -34.5v-16q0 -15 11 -31.5t22 -27.5l230 -227h166l-266 247
v5h90q30 0 52 6.5t37.5 17t25.5 23t17 25.5q21 39 25.5 79.5t4.5 78.5t-5 78t-30 76q-15 23 -33.5 36t-38.5 19t-40 7.5t-38 1.5h-332q-20 0 -42.5 -5t-41.5 -23q-21 -20 -25 -44.5t-4 -46.5v-581zM344 -289l92 218l-103 41l-85 -222z" />
    <glyph glyph-name="rcommaaccent" unicode="&#x157;" horiz-adv-x="333" 
d="M40 0h117v299q0 30 5 57t22 47q21 25 49 31t51 6h49v90h-79q-15 0 -35 -1t-41.5 -5.5t-43 -14t-39.5 -25.5q-34 -29 -44.5 -69.5t-10.5 -84.5v-330zM157 -286l92 218l-103 41l-85 -222z" />
    <glyph glyph-name="Rcaron" unicode="&#x158;" horiz-adv-x="734" 
d="M60 0h132v545q0 11 1.5 20.5t12.5 18.5q8 8 16 9.5t19 1.5h214q16 0 37 -2.5t37 -18.5q11 -11 18 -33t7 -64q0 -9 -0.5 -22t-2 -26.5t-5 -26.5t-8.5 -21q-14 -21 -34.5 -26t-37.5 -5h-132q-29 0 -44 -13.5t-15 -34.5v-16q0 -15 11 -31.5t22 -27.5l230 -227h166l-266 247
v5h90q30 0 52 6.5t37.5 17t25.5 23t17 25.5q21 39 25.5 79.5t4.5 78.5t-5 78t-30 76q-15 23 -33.5 36t-38.5 19t-40 7.5t-38 1.5h-332q-20 0 -42.5 -5t-41.5 -23q-21 -20 -25 -44.5t-4 -46.5v-581zM509 937l-117 -95q-6 -5 -11 -8.5t-14 -3.5t-15 4t-11 8l-117 95l-46 -62
l140 -113q11 -8 22.5 -13t25.5 -5t25.5 5t22.5 13l141 113z" />
    <glyph glyph-name="rcaron" unicode="&#x159;" horiz-adv-x="333" 
d="M40 0h117v299q0 30 5 57t22 47q21 25 49 31t51 6h49v90h-79q-15 0 -35 -1t-41.5 -5.5t-43 -14t-39.5 -25.5q-34 -29 -44.5 -69.5t-10.5 -84.5v-330zM327 757l-117 -95q-6 -5 -11 -8.5t-14 -3.5t-15 4t-11 8l-117 95l-46 -62l140 -113q11 -8 22.5 -13t25.5 -5t25.5 5
t22.5 13l141 113z" />
    <glyph glyph-name="Sacute" unicode="&#x15a;" 
d="M39 0h430q35 0 67 8t58 42q22 28 28.5 62.5t6.5 67.5q0 12 -1.5 29t-6 35.5t-13.5 37t-25 33.5t-40.5 27t-59.5 23l-256 81q-42 14 -53.5 35t-11.5 44q0 10 2.5 26t15.5 28q12 11 26.5 13.5t28.5 2.5h358v105h-403q-26 0 -57 -6.5t-58 -32.5q-30 -28 -37.5 -63t-7.5 -67
q0 -15 1 -32t5 -34.5t11 -34.5t19 -31q10 -13 23 -22t25 -15.5t21.5 -10t13.5 -4.5l276 -87q23 -7 36.5 -16.5t20.5 -20t9 -21.5t2 -21q0 -9 -1.5 -22t-8 -25t-19.5 -20.5t-37 -8.5h-388v-105zM394 947l-161 -133l59 -74l162 132z" />
    <glyph glyph-name="sacute" unicode="&#x15b;" horiz-adv-x="528" 
d="M33 0h339q20 0 42.5 3.5t42.5 18.5q16 12 25 27t13.5 31t5.5 30.5t1 24.5q0 22 -5.5 48t-27.5 49q-20 21 -52 33.5t-80 26.5l-114 32q-5 1 -14 4t-18.5 6.5t-18.5 7.5t-15 9q-12 10 -14.5 20t-2.5 21t2 20.5t13 17.5q10 8 20.5 9t20.5 1h281v90h-299q-17 0 -34.5 -1
t-34 -5.5t-31.5 -14t-27 -25.5q-16 -22 -20.5 -46t-4.5 -44t4.5 -44t20.5 -46t45 -37.5t71 -26.5l102 -28q28 -8 45 -13t27.5 -9t15.5 -6.5t8 -5.5q10 -9 12.5 -19t2.5 -21q0 -6 -1 -15.5t-9 -17.5q-8 -10 -19 -12.5t-20 -2.5h-298v-90zM332 775l-161 -133l59 -74l162 132z
" />
    <glyph glyph-name="Scircumflex" unicode="&#x15c;" 
d="M39 0h430q35 0 67 8t58 42q22 28 28.5 62.5t6.5 67.5q0 12 -1.5 29t-6 35.5t-13.5 37t-25 33.5t-40.5 27t-59.5 23l-256 81q-42 14 -53.5 35t-11.5 44q0 10 2.5 26t15.5 28q12 11 26.5 13.5t28.5 2.5h358v105h-403q-26 0 -57 -6.5t-58 -32.5q-30 -28 -37.5 -63t-7.5 -67
q0 -15 1 -32t5 -34.5t11 -34.5t19 -31q10 -13 23 -22t25 -15.5t21.5 -10t13.5 -4.5l276 -87q23 -7 36.5 -16.5t20.5 -20t9 -21.5t2 -21q0 -9 -1.5 -22t-8 -25t-19.5 -20.5t-37 -8.5h-388v-105zM472 740l46 62l-141 113q-11 8 -22.5 13t-25.5 5t-25.5 -5t-22.5 -13l-140 -113
l46 -62l117 97q7 5 12.5 7.5t13.5 2.5q10 0 15 -2.5t10 -7.5z" />
    <glyph glyph-name="scircumflex" unicode="&#x15d;" horiz-adv-x="528" 
d="M33 0h339q20 0 42.5 3.5t42.5 18.5q16 12 25 27t13.5 31t5.5 30.5t1 24.5q0 22 -5.5 48t-27.5 49q-20 21 -52 33.5t-80 26.5l-114 32q-5 1 -14 4t-18.5 6.5t-18.5 7.5t-15 9q-12 10 -14.5 20t-2.5 21t2 20.5t13 17.5q10 8 20.5 9t20.5 1h281v90h-299q-17 0 -34.5 -1
t-34 -5.5t-31.5 -14t-27 -25.5q-16 -22 -20.5 -46t-4.5 -44t4.5 -44t20.5 -46t45 -37.5t71 -26.5l102 -28q28 -8 45 -13t27.5 -9t15.5 -6.5t8 -5.5q10 -9 12.5 -19t2.5 -21q0 -6 -1 -15.5t-9 -17.5q-8 -10 -19 -12.5t-20 -2.5h-298v-90zM407 566l46 62l-141 113
q-11 8 -22.5 13t-25.5 5t-25.5 -5t-22.5 -13l-140 -113l46 -62l117 97q7 5 12.5 7.5t13.5 2.5q10 0 15 -2.5t10 -7.5z" />
    <glyph glyph-name="Scedilla" unicode="&#x15e;" 
d="M227 446q-42 14 -53.5 35t-11.5 44q0 10 2.5 26t15.5 28q12 11 26.5 13.5t28.5 2.5h358v105h-403q-26 0 -57 -6.5t-58 -32.5q-30 -28 -37.5 -63t-7.5 -67q0 -15 1 -32t5 -34.5t11 -34.5t19 -31q10 -13 23 -22t25 -15.5t21.5 -10t13.5 -4.5l276 -87q23 -7 36.5 -16.5
t20.5 -20t9 -21.5t2 -21q0 -9 -1.5 -22t-8 -25t-19.5 -20.5t-37 -8.5h-388v-105h242l-26 -53q-2 -5 -4.5 -11t-2.5 -13q0 -13 9 -19q5 -3 12 -4t12 -1h37q8 0 17 -2t9 -14t-9.5 -14.5t-18.5 -2.5h-78v-56h86q16 0 33.5 2t31.5 12q10 7 18.5 21t8.5 40q0 14 -4.5 29t-18.5 26
q-12 10 -25.5 12.5t-24.5 2.5h-13q-2 0 -5 0.5t-3 4.5q0 1 1 3.5t2 4.5l16 32h128q35 0 67 8t58 42q22 28 28.5 62.5t6.5 67.5q0 12 -1.5 29t-6 35.5t-13.5 37t-25 33.5t-40.5 27t-59.5 23z" />
    <glyph glyph-name="Scedilla" unicode="&#xf6c1;" 
d="M227 446q-42 14 -53.5 35t-11.5 44q0 10 2.5 26t15.5 28q12 11 26.5 13.5t28.5 2.5h358v105h-403q-26 0 -57 -6.5t-58 -32.5q-30 -28 -37.5 -63t-7.5 -67q0 -15 1 -32t5 -34.5t11 -34.5t19 -31q10 -13 23 -22t25 -15.5t21.5 -10t13.5 -4.5l276 -87q23 -7 36.5 -16.5
t20.5 -20t9 -21.5t2 -21q0 -9 -1.5 -22t-8 -25t-19.5 -20.5t-37 -8.5h-388v-105h242l-26 -53q-2 -5 -4.5 -11t-2.5 -13q0 -13 9 -19q5 -3 12 -4t12 -1h37q8 0 17 -2t9 -14t-9.5 -14.5t-18.5 -2.5h-78v-56h86q16 0 33.5 2t31.5 12q10 7 18.5 21t8.5 40q0 14 -4.5 29t-18.5 26
q-12 10 -25.5 12.5t-24.5 2.5h-13q-2 0 -5 0.5t-3 4.5q0 1 1 3.5t2 4.5l16 32h128q35 0 67 8t58 42q22 28 28.5 62.5t6.5 67.5q0 12 -1.5 29t-6 35.5t-13.5 37t-25 33.5t-40.5 27t-59.5 23z" />
    <glyph glyph-name="scedilla" unicode="&#x15f;" horiz-adv-x="528" 
d="M223 324q-5 1 -14 4t-18.5 6.5t-18.5 7.5t-15 9q-12 10 -14.5 20t-2.5 21t2 20.5t13 17.5q10 8 20.5 9t20.5 1h281v90h-299q-17 0 -34.5 -1t-34 -5.5t-31.5 -14t-27 -25.5q-16 -22 -20.5 -46t-4.5 -44t4.5 -44t20.5 -46t45 -37.5t71 -26.5l102 -28q28 -8 45 -13t27.5 -9
t15.5 -6.5t8 -5.5q10 -9 12.5 -19t2.5 -21q0 -6 -1 -15.5t-9 -17.5q-8 -10 -19 -12.5t-20 -2.5h-298v-90h179l-26 -53q-2 -5 -4.5 -11t-2.5 -13q0 -13 9 -19q5 -3 12 -4t12 -1h37q8 0 17 -2t9 -14t-9.5 -14.5t-18.5 -2.5h-78v-56h86q16 0 33.5 2t31.5 12q10 7 18.5 21
t8.5 40q0 14 -4.5 29t-18.5 26q-12 10 -25.5 12.5t-24.5 2.5h-13q-2 0 -5 0.5t-3 4.5q0 1 1 3.5t2 4.5l16 32h100q20 0 42.5 3.5t42.5 18.5q16 12 25 27t13.5 31t5.5 30.5t1 24.5q0 22 -5.5 48t-27.5 49q-20 21 -52 33.5t-80 26.5z" />
    <glyph glyph-name="scedilla" unicode="&#xf6c2;" horiz-adv-x="528" 
d="M223 324q-5 1 -14 4t-18.5 6.5t-18.5 7.5t-15 9q-12 10 -14.5 20t-2.5 21t2 20.5t13 17.5q10 8 20.5 9t20.5 1h281v90h-299q-17 0 -34.5 -1t-34 -5.5t-31.5 -14t-27 -25.5q-16 -22 -20.5 -46t-4.5 -44t4.5 -44t20.5 -46t45 -37.5t71 -26.5l102 -28q28 -8 45 -13t27.5 -9
t15.5 -6.5t8 -5.5q10 -9 12.5 -19t2.5 -21q0 -6 -1 -15.5t-9 -17.5q-8 -10 -19 -12.5t-20 -2.5h-298v-90h179l-26 -53q-2 -5 -4.5 -11t-2.5 -13q0 -13 9 -19q5 -3 12 -4t12 -1h37q8 0 17 -2t9 -14t-9.5 -14.5t-18.5 -2.5h-78v-56h86q16 0 33.5 2t31.5 12q10 7 18.5 21
t8.5 40q0 14 -4.5 29t-18.5 26q-12 10 -25.5 12.5t-24.5 2.5h-13q-2 0 -5 0.5t-3 4.5q0 1 1 3.5t2 4.5l16 32h100q20 0 42.5 3.5t42.5 18.5q16 12 25 27t13.5 31t5.5 30.5t1 24.5q0 22 -5.5 48t-27.5 49q-20 21 -52 33.5t-80 26.5z" />
    <glyph glyph-name="Scaron" unicode="&#x160;" 
d="M39 0h430q35 0 67 8t58 42q22 28 28.5 62.5t6.5 67.5q0 12 -1.5 29t-6 35.5t-13.5 37t-25 33.5t-40.5 27t-59.5 23l-256 81q-42 14 -53.5 35t-11.5 44q0 10 2.5 26t15.5 28q12 11 26.5 13.5t28.5 2.5h358v105h-403q-26 0 -57 -6.5t-58 -32.5q-30 -28 -37.5 -63t-7.5 -67
q0 -15 1 -32t5 -34.5t11 -34.5t19 -31q10 -13 23 -22t25 -15.5t21.5 -10t13.5 -4.5l276 -87q23 -7 36.5 -16.5t20.5 -20t9 -21.5t2 -21q0 -9 -1.5 -22t-8 -25t-19.5 -20.5t-37 -8.5h-388v-105zM472 928l-117 -95q-6 -5 -11 -8.5t-14 -3.5t-15 4t-11 8l-117 95l-46 -62
l140 -113q11 -8 22.5 -13t25.5 -5t25.5 5t22.5 13l141 113z" />
    <glyph glyph-name="scaron" unicode="&#x161;" horiz-adv-x="528" 
d="M33 0h339q20 0 42.5 3.5t42.5 18.5q16 12 25 27t13.5 31t5.5 30.5t1 24.5q0 22 -5.5 48t-27.5 49q-20 21 -52 33.5t-80 26.5l-114 32q-5 1 -14 4t-18.5 6.5t-18.5 7.5t-15 9q-12 10 -14.5 20t-2.5 21t2 20.5t13 17.5q10 8 20.5 9t20.5 1h281v90h-299q-17 0 -34.5 -1
t-34 -5.5t-31.5 -14t-27 -25.5q-16 -22 -20.5 -46t-4.5 -44t4.5 -44t20.5 -46t45 -37.5t71 -26.5l102 -28q28 -8 45 -13t27.5 -9t15.5 -6.5t8 -5.5q10 -9 12.5 -19t2.5 -21q0 -6 -1 -15.5t-9 -17.5q-8 -10 -19 -12.5t-20 -2.5h-298v-90zM406 757l-117 -95q-6 -5 -11 -8.5
t-14 -3.5t-15 4t-11 8l-117 95l-46 -62l140 -113q11 -8 22.5 -13t25.5 -5t25.5 5t22.5 13l141 113z" />
    <glyph glyph-name="Tcedilla" unicode="&#x162;" 
d="M669 595v105h-679v-105h273v-595h39l-26 -53q-2 -5 -4.5 -11t-2.5 -13q0 -13 9 -19q5 -3 12 -4t12 -1h37q8 0 17 -2t9 -14t-9.5 -14.5t-18.5 -2.5h-78v-56h86q16 0 33.5 2t31.5 12q10 7 18.5 21t8.5 40q0 14 -4.5 29t-18.5 26q-12 10 -25.5 12.5t-24.5 2.5h-13
q-2 0 -5 0.5t-3 4.5q0 1 1 3.5t2 4.5l16 32h33v595h274z" />
    <glyph glyph-name="tcedilla" unicode="&#x163;" horiz-adv-x="341" 
d="M341 0v90h-29q-16 0 -43.5 3t-47.5 20q-13 10 -19.5 24.5t-9 29.5t-2.5 30v30v213h148v90h-148v170h-117v-170h-73v-90h73v-267q0 -32 6 -57t17 -43q5 -9 23 -28.5t53 -32.5l-30 -65q-2 -5 -4.5 -11t-2.5 -13q0 -13 9 -19q5 -3 12 -4t12 -1h37q8 0 17 -2t9 -14
t-9.5 -14.5t-18.5 -2.5h-78v-56h86q16 0 33.5 2t31.5 12q10 7 18.5 21t8.5 40q0 14 -4.5 29t-18.5 26q-12 10 -25.5 12.5t-24.5 2.5h-13q-2 0 -5 0.5t-3 4.5q0 1 1 3.5t2 4.5l17 34q20 -2 28 -2h11h73z" />
    <glyph glyph-name="Tcaron" unicode="&#x164;" 
d="M395 0v595h274v105h-679v-105h273v-595h132zM472 923l-117 -95q-6 -5 -11 -8.5t-14 -3.5t-15 4t-11 8l-117 95l-46 -62l140 -113q11 -8 22.5 -13t25.5 -5t25.5 5t22.5 13l141 113z" />
    <glyph glyph-name="tcaron" unicode="&#x165;" horiz-adv-x="341" 
d="M341 0v90h-29q-16 0 -43.5 3t-47.5 20q-13 10 -19.5 24.5t-9 29.5t-2.5 30v30v213h148v90h-148v170h-117v-170h-73v-90h73v-267q0 -51 13.5 -82t39.5 -52q25 -20 56.5 -29.5t85.5 -9.5h73zM147 560l92 218l-103 41l-85 -222z" />
    <glyph glyph-name="Umacron" unicode="&#x16a;" horiz-adv-x="728" 
d="M364 97q-15 0 -33.5 1.5t-37 6t-36 13.5t-31.5 24q-25 27 -29.5 60t-4.5 62v436h-132v-454q0 -45 10.5 -91.5t50.5 -87.5q26 -27 58.5 -42t65.5 -22.5t64 -9t55 -1.5t55 1.5t64 9t65.5 22.5t58.5 42q40 41 50.5 87.5t10.5 91.5v454h-132v-436q0 -13 -0.5 -29t-4 -32
t-10 -32t-18.5 -29q-14 -15 -32 -24t-37 -13.5t-37.5 -6t-32.5 -1.5zM534 752v84h-340v-84h340z" />
    <glyph glyph-name="umacron" unicode="&#x16b;" horiz-adv-x="570" 
d="M530 95v435h-117v-397q0 -8 -1 -16t-9 -16q-11 -11 -34 -11h-97q-32 0 -55.5 6t-39.5 28q-11 15 -15.5 36.5t-4.5 56.5v313h-117v-334q0 -49 10.5 -88t43.5 -68q27 -23 59.5 -31.5t78.5 -8.5h187q21 0 43.5 3t39.5 17q20 16 24 38.5t4 36.5zM455 600v84h-340v-84h340z
" />
    <glyph glyph-name="Ubreve" unicode="&#x16c;" horiz-adv-x="728" 
d="M364 97q-15 0 -33.5 1.5t-37 6t-36 13.5t-31.5 24q-25 27 -29.5 60t-4.5 62v436h-132v-454q0 -45 10.5 -91.5t50.5 -87.5q26 -27 58.5 -42t65.5 -22.5t64 -9t55 -1.5t55 1.5t64 9t65.5 22.5t58.5 42q40 41 50.5 87.5t10.5 91.5v454h-132v-436q0 -13 -0.5 -29t-4 -32
t-10 -32t-18.5 -29q-14 -15 -32 -24t-37 -13.5t-37.5 -6t-32.5 -1.5zM363 802q-20 0 -36 4.5t-32 19.5q-11 11 -17 22.5t-8 20.5h-91q7 -28 22 -55.5t35 -45.5q29 -26 63.5 -32.5t63.5 -6.5q28 0 63 6.5t65 32.5q20 17 35 45t22 56h-91q-2 -9 -8 -20.5t-17 -22.5
q-15 -15 -32 -19.5t-37 -4.5z" />
    <glyph glyph-name="ubreve" unicode="&#x16d;" horiz-adv-x="570" 
d="M530 95v435h-117v-397q0 -8 -1 -16t-9 -16q-11 -11 -34 -11h-97q-32 0 -55.5 6t-39.5 28q-11 15 -15.5 36.5t-4.5 56.5v313h-117v-334q0 -49 10.5 -88t43.5 -68q27 -23 59.5 -31.5t78.5 -8.5h187q21 0 43.5 3t39.5 17q20 16 24 38.5t4 36.5zM284 626q-20 0 -36 4.5
t-32 19.5q-11 11 -17 22.5t-8 20.5h-91q7 -28 22 -55.5t35 -45.5q29 -26 63.5 -32.5t63.5 -6.5q28 0 63 6.5t65 32.5q20 17 35 45t22 56h-91q-2 -9 -8 -20.5t-17 -22.5q-15 -15 -32 -19.5t-37 -4.5z" />
    <glyph glyph-name="Uring" unicode="&#x16e;" horiz-adv-x="728" 
d="M364 97q-15 0 -33.5 1.5t-37 6t-36 13.5t-31.5 24q-25 27 -29.5 60t-4.5 62v436h-132v-454q0 -45 10.5 -91.5t50.5 -87.5q26 -27 58.5 -42t65.5 -22.5t64 -9t55 -1.5t55 1.5t64 9t65.5 22.5t58.5 42q40 41 50.5 87.5t10.5 91.5v454h-132v-436q0 -13 -0.5 -29t-4 -32
t-10 -32t-18.5 -29q-14 -15 -32 -24t-37 -13.5t-37.5 -6t-32.5 -1.5zM364 959q-20 0 -42 -3.5t-40 -18.5q-12 -11 -23 -32t-11 -60q0 -38 11 -59t23 -32q17 -15 40 -19t42 -4q32 0 51.5 7t30.5 16q22 18 27.5 43.5t5.5 47.5q0 23 -5.5 48.5t-27.5 43.5q-19 16 -41.5 19
t-40.5 3zM308 845q0 9 2.5 21t10.5 22q10 11 21 13.5t22 2.5t22 -2.5t20 -13.5q8 -10 10.5 -22t2.5 -21q0 -10 -2.5 -21t-10.5 -21q-5 -6 -15 -11.5t-27 -5.5t-27.5 5.5t-15.5 11.5q-8 10 -10.5 21t-2.5 21z" />
    <glyph glyph-name="uring" unicode="&#x16f;" horiz-adv-x="570" 
d="M530 95v435h-117v-397q0 -8 -1 -16t-9 -16q-11 -11 -34 -11h-97q-32 0 -55.5 6t-39.5 28q-11 15 -15.5 36.5t-4.5 56.5v313h-117v-334q0 -49 10.5 -88t43.5 -68q27 -23 59.5 -31.5t78.5 -8.5h187q21 0 43.5 3t39.5 17q20 16 24 38.5t4 36.5zM285 788q-20 0 -42 -3.5
t-40 -18.5q-12 -11 -23 -32t-11 -60q0 -38 11 -59t23 -32q17 -15 40 -19t42 -4q32 0 51.5 7t30.5 16q22 18 27.5 43.5t5.5 47.5q0 23 -5.5 48.5t-27.5 43.5q-19 16 -41.5 19t-40.5 3zM229 674q0 9 2.5 21t10.5 22q10 11 21 13.5t22 2.5t22 -2.5t20 -13.5q8 -10 10.5 -22
t2.5 -21q0 -10 -2.5 -21t-10.5 -21q-5 -6 -15 -11.5t-27 -5.5t-27.5 5.5t-15.5 11.5q-8 10 -10.5 21t-2.5 21z" />
    <glyph glyph-name="Uhungarumlaut" unicode="&#x170;" horiz-adv-x="728" 
d="M364 97q-15 0 -33.5 1.5t-37 6t-36 13.5t-31.5 24q-25 27 -29.5 60t-4.5 62v436h-132v-454q0 -45 10.5 -91.5t50.5 -87.5q26 -27 58.5 -42t65.5 -22.5t64 -9t55 -1.5t55 1.5t64 9t65.5 22.5t58.5 42q40 41 50.5 87.5t10.5 91.5v454h-132v-436q0 -13 -0.5 -29t-4 -32
t-10 -32t-18.5 -29q-14 -15 -32 -24t-37 -13.5t-37.5 -6t-32.5 -1.5zM312 953l-148 -147l67 -66l148 147zM524 953l-147 -147l66 -66l148 147z" />
    <glyph glyph-name="uhungarumlaut" unicode="&#x171;" horiz-adv-x="570" 
d="M530 95v435h-117v-397q0 -8 -1 -16t-9 -16q-11 -11 -34 -11h-97q-32 0 -55.5 6t-39.5 28q-11 15 -15.5 36.5t-4.5 56.5v313h-117v-334q0 -49 10.5 -88t43.5 -68q27 -23 59.5 -31.5t78.5 -8.5h187q21 0 43.5 3t39.5 17q20 16 24 38.5t4 36.5zM238 785l-148 -147l63 -62
l148 147zM450 785l-147 -147l62 -62l148 147z" />
    <glyph glyph-name="Uogonek" unicode="&#x172;" horiz-adv-x="728" 
d="M192 700h-132v-454q0 -45 10.5 -91t50.5 -88q33 -34 88 -54.5t139 -20.5q11 0 21 0.5t19 1.5l-42 -82q-10 -18 -10 -37q0 -28 17 -43q9 -8 20 -10t21 -2h87v60h-42q-5 0 -14 1.5t-9 11.5q0 2 1.5 5.5t6.5 13.5l50 89q35 3 66.5 17t60.5 43q20 20 33 40t20.5 42.5
t10.5 47.5t3 55v454h-132v-436q0 -13 -0.5 -29t-4 -32t-10 -32t-18.5 -29q-14 -15 -32 -24t-37 -13.5t-37.5 -6t-32.5 -1.5q-15 0 -33.5 1.5t-37 6t-36 13.5t-31.5 24q-25 27 -29.5 60t-4.5 62v436z" />
    <glyph glyph-name="uogonek" unicode="&#x173;" horiz-adv-x="570" 
d="M530 530h-117v-397q0 -8 -1 -16t-9 -16q-11 -11 -34 -11h-97q-31 0 -55 6t-40 28q-15 21 -17.5 46.5t-2.5 46.5v313h-117v-334q0 -49 10.5 -88t43.5 -68q27 -23 59.5 -31.5t78.5 -8.5h99l-46 -88q-10 -18 -10 -37q0 -12 4 -23.5t13 -19.5t20 -10t21 -2h87v60h-42
q-5 0 -14 1.5t-9 11.5q0 2 1.5 5.5t6.5 13.5l48 88h8q21 0 43.5 3t39.5 17q20 16 24 38.5t4 36.5v435z" />
    <glyph glyph-name="Ydieresis" unicode="&#x178;" horiz-adv-x="664" 
d="M332 333l-220 367h-142l296 -486v-214h132v214l296 486h-142zM503 760v110h-120v-110h120zM281 760v110h-120v-110h120z" />
    <glyph glyph-name="Zacute" unicode="&#x179;" horiz-adv-x="613" 
d="M600 0v105h-414q-5 0 -8.5 2t-3.5 9q0 6 3 10t7 8l387 408q15 16 27.5 34t12.5 52q0 21 -7 35t-18 22.5t-25 11.5t-29 3h-503v-105h391q12 0 15.5 -5t3.5 -8q0 -5 -3.5 -10.5t-8.5 -10.5l-382 -395q-15 -16 -29 -39t-14 -55q0 -26 10.5 -40.5t25.5 -21.5t31.5 -8.5
t28.5 -1.5h502zM376 947l-161 -133l59 -74l162 132z" />
    <glyph glyph-name="zacute" unicode="&#x17a;" horiz-adv-x="465" 
d="M77 0h383v90h-302h-6t-3 5t8 13l275 283q11 11 21 26.5t10 45.5q0 32 -19 49.5t-50 17.5h-375v-90h289q6 0 8 -3t2 -5t-1.5 -4.5t-6.5 -7.5l-272 -273q-14 -14 -25 -30t-11 -46q0 -26 9 -40t21.5 -21t25 -8.5t19.5 -1.5zM283 767l-161 -133l59 -74l162 132z" />
    <glyph glyph-name="Zdotaccent" unicode="&#x17b;" horiz-adv-x="613" 
d="M600 0v105h-414q-5 0 -8.5 2t-3.5 9q0 6 3 10t7 8l387 408q15 16 27.5 34t12.5 52q0 21 -7 35t-18 22.5t-25 11.5t-29 3h-503v-105h391q12 0 15.5 -5t3.5 -8q0 -5 -3.5 -10.5t-8.5 -10.5l-382 -395q-15 -16 -29 -39t-14 -55q0 -26 10.5 -40.5t25.5 -21.5t31.5 -8.5
t28.5 -1.5h502zM372 760v116h-132v-116h132z" />
    <glyph glyph-name="zdotaccent" unicode="&#x17c;" horiz-adv-x="465" 
d="M77 0h383v90h-302h-6t-3 5t8 13l275 283q11 11 21 26.5t10 45.5q0 32 -19 49.5t-50 17.5h-375v-90h289q6 0 8 -3t2 -5t-1.5 -4.5t-6.5 -7.5l-272 -273q-14 -14 -25 -30t-11 -46q0 -26 9 -40t21.5 -21t25 -8.5t19.5 -1.5zM173 600h119v100h-119v-100z" />
    <glyph glyph-name="Zcaron" unicode="&#x17d;" horiz-adv-x="613" 
d="M600 0v105h-414q-5 0 -8.5 2t-3.5 9q0 6 3 10t7 8l387 408q15 16 27.5 34t12.5 52q0 21 -7 35t-18 22.5t-25 11.5t-29 3h-503v-105h391q12 0 15.5 -5t3.5 -8q0 -5 -3.5 -10.5t-8.5 -10.5l-382 -395q-15 -16 -29 -39t-14 -55q0 -26 10.5 -40.5t25.5 -21.5t31.5 -8.5
t28.5 -1.5h502zM452 927l-117 -95q-6 -5 -11 -8.5t-14 -3.5t-15 4t-11 8l-117 95l-46 -62l140 -113q11 -8 22.5 -13t25.5 -5t25.5 5t22.5 13l141 113z" />
    <glyph glyph-name="zcaron" unicode="&#x17e;" horiz-adv-x="465" 
d="M77 0h383v90h-302h-6t-3 5t8 13l275 283q11 11 21 26.5t10 45.5q0 32 -19 49.5t-50 17.5h-375v-90h289q6 0 8 -3t2 -5t-1.5 -4.5t-6.5 -7.5l-272 -273q-14 -14 -25 -30t-11 -46q0 -26 9 -40t21.5 -21t25 -8.5t19.5 -1.5zM376 759l-117 -95q-6 -5 -11 -8.5t-14 -3.5t-15 4
t-11 8l-117 95l-46 -62l140 -113q11 -8 22.5 -13t25.5 -5t25.5 5t22.5 13l141 113z" />
    <glyph glyph-name="florin" unicode="&#x192;" horiz-adv-x="352" 
d="M169 -170l108 610h145l15 90h-145q5 29 16.5 47.5t28.5 28.5q17 9 44 12t72 3l16 86q-66 1 -119.5 -5t-95.5 -37q-36 -26 -53.5 -63.5t-25.5 -72.5h-74l-15 -89h74l-108 -610h117z" />
    <glyph glyph-name="Icaron" unicode="&#x1cf;" horiz-adv-x="283" 
d="M208 0v700h-132v-700h132zM225 931l-66 -97q-3 -4 -6.5 -7t-10.5 -3q-5 0 -9.5 2t-8.5 8l-66 97l-58 -41l87 -118q11 -16 27 -20t27 -4q14 0 29.5 5t25.5 19l87 118z" />
    <glyph glyph-name="icaron" unicode="&#x1d0;" horiz-adv-x="243" 
d="M64 0h117v530h-117v-530zM265 753l-117 -95q-6 -5 -11 -8.5t-14 -3.5t-15 4t-11 8l-117 95l-46 -62l140 -113q11 -8 22.5 -13t25.5 -5t25.5 5t22.5 13l141 113z" />
    <glyph glyph-name="Gcaron" unicode="&#x1e6;" horiz-adv-x="727" 
d="M687 343h-132v-191q0 -8 -1.5 -18t-9.5 -18t-17 -9.5t-18 -1.5h-171q-42 0 -77 14.5t-57 58.5q-4 8 -9 21.5t-9 34.5t-7 49.5t-3 66.5t3 66t7 48t9 33.5t10 21.5q20 37 59 56.5t96 19.5h311v105h-348q-103 0 -169 -43q-39 -25 -61.5 -60.5t-34 -77t-15 -86t-3.5 -87.5
q0 -37 2.5 -77t11.5 -78.5t27.5 -73.5t50.5 -62q24 -20 64 -37.5t99 -17.5h298q15 0 34.5 5t33.5 16q10 8 18 25t8 44v253zM526 926l-117 -95q-6 -5 -11 -8.5t-14 -3.5t-15 4t-11 8l-117 95l-46 -62l140 -113q11 -8 22.5 -13t25.5 -5t25.5 5t22.5 13l141 113z" />
    <glyph glyph-name="gcaron" unicode="&#x1e7;" horiz-adv-x="573" 
d="M415 0q-5 -38 -31 -61q-21 -17 -50 -20.5t-48 -3.5h-223v-90h250q14 0 36.5 2t47.5 8.5t50 19t43 34.5q26 32 34.5 76t8.5 95v372q0 17 -5.5 38.5t-25.5 38.5q-19 15 -41 18t-45 3h-171q-20 0 -41 -1.5t-42 -7t-41 -17t-39 -32.5q-35 -38 -45.5 -87t-10.5 -112
q0 -141 41 -205q15 -24 34.5 -37.5t40.5 -20t42.5 -8.5t42.5 -2h188zM416 90h-139q-26 0 -53 4t-47 27q-5 5 -10 15t-9.5 26.5t-7.5 41t-3 60.5q0 9 0.5 27.5t3.5 39.5t9.5 41.5t18.5 34.5q14 16 38 24.5t53 8.5h100q8 0 15.5 -1.5t15.5 -6.5q10 -7 12.5 -15t2.5 -19v-308z
M442 757l-117 -95q-6 -5 -11 -8.5t-14 -3.5t-15 4t-11 8l-117 95l-46 -62l140 -113q11 -8 22.5 -13t25.5 -5t25.5 5t22.5 13l141 113z" />
    <glyph glyph-name="Scommaaccent" unicode="&#x218;" 
d="M39 0h430q35 0 67 8t58 42q22 28 28.5 62.5t6.5 67.5q0 12 -1.5 29t-6 35.5t-13.5 37t-25 33.5t-40.5 27t-59.5 23l-256 81q-42 14 -53.5 35t-11.5 44q0 10 2.5 26t15.5 28q12 11 26.5 13.5t28.5 2.5h358v105h-403q-26 0 -57 -6.5t-58 -32.5q-30 -28 -37.5 -63t-7.5 -67
q0 -15 1 -32t5 -34.5t11 -34.5t19 -31q10 -13 23 -22t25 -15.5t21.5 -10t13.5 -4.5l276 -87q23 -7 36.5 -16.5t20.5 -20t9 -21.5t2 -21q0 -9 -1.5 -22t-8 -25t-19.5 -20.5t-37 -8.5h-388v-105zM306 -289l92 218l-103 41l-85 -222z" />
    <glyph glyph-name="scommaaccent" unicode="&#x219;" horiz-adv-x="528" 
d="M33 0h339q20 0 42.5 3.5t42.5 18.5q16 12 25 27t13.5 31t5.5 30.5t1 24.5q0 22 -5.5 48t-27.5 49q-20 21 -52 33.5t-80 26.5l-114 32q-5 1 -14 4t-18.5 6.5t-18.5 7.5t-15 9q-12 10 -14.5 20t-2.5 21t2 20.5t13 17.5q10 8 20.5 9t20.5 1h281v90h-299q-17 0 -34.5 -1
t-34 -5.5t-31.5 -14t-27 -25.5q-16 -22 -20.5 -46t-4.5 -44t4.5 -44t20.5 -46t45 -37.5t71 -26.5l102 -28q28 -8 45 -13t27.5 -9t15.5 -6.5t8 -5.5q10 -9 12.5 -19t2.5 -21q0 -6 -1 -15.5t-9 -17.5q-8 -10 -19 -12.5t-20 -2.5h-298v-90zM256 -281l92 218l-103 41l-85 -222z
" />
    <glyph glyph-name="Tcommaaccent" unicode="&#x21a;" 
d="M395 0v595h274v105h-679v-105h273v-595h132zM324 -289l92 218l-103 41l-85 -222z" />
    <glyph glyph-name="tcommaaccent" unicode="&#x21b;" horiz-adv-x="341" 
d="M341 0v90h-29q-16 0 -43.5 3t-47.5 20q-13 10 -19.5 24.5t-9 29.5t-2.5 30v30v213h148v90h-148v170h-117v-170h-73v-90h73v-267q0 -51 13.5 -82t39.5 -52q25 -20 56.5 -29.5t85.5 -9.5h73zM205 -279l92 218l-103 41l-85 -222z" />
    <glyph glyph-name="afii57929" unicode="&#x2bc;" horiz-adv-x="218" 
d="M86 560l92 218l-103 41l-85 -222z" />
    <glyph glyph-name="circumflex" unicode="&#x2c6;" horiz-adv-x="457" 
d="M371 560l46 62l-141 113q-11 8 -22.5 13t-25.5 5t-25.5 -5t-22.5 -13l-140 -113l46 -62l117 97q7 5 12.5 7.5t13.5 2.5q10 0 15 -2.5t10 -7.5z" />
    <glyph glyph-name="caron" unicode="&#x2c7;" horiz-adv-x="457" 
d="M371 753l-117 -95q-6 -5 -11 -8.5t-14 -3.5t-15 4t-11 8l-117 95l-46 -62l140 -113q11 -8 22.5 -13t25.5 -5t25.5 5t22.5 13l141 113z" />
    <glyph glyph-name="breve" unicode="&#x2d8;" horiz-adv-x="449" 
d="M224 626q-20 0 -36 4.5t-32 19.5q-11 11 -17 22.5t-8 20.5h-91q7 -28 22 -55.5t35 -45.5q29 -26 63.5 -32.5t63.5 -6.5q28 0 63 6.5t65 32.5q20 17 35 45t22 56h-91q-2 -9 -8 -20.5t-17 -22.5q-15 -15 -32 -19.5t-37 -4.5z" />
    <glyph glyph-name="dotaccent" unicode="&#x2d9;" horiz-adv-x="199" 
d="M40 600h119v100h-119v-100z" />
    <glyph glyph-name="ring" unicode="&#x2da;" horiz-adv-x="311" 
d="M156 788q-20 0 -42 -3.5t-40 -18.5q-12 -11 -23 -32t-11 -60q0 -38 11 -59t23 -32q17 -15 40 -19t42 -4q32 0 51.5 7t30.5 16q22 18 27.5 43.5t5.5 47.5q0 23 -5.5 48.5t-27.5 43.5q-19 16 -41.5 19t-40.5 3zM100 674q0 9 2.5 21t10.5 22q10 11 21 13.5t22 2.5t22 -2.5
t20 -13.5q8 -10 10.5 -22t2.5 -21q0 -10 -2.5 -21t-10.5 -21q-5 -6 -15 -11.5t-27 -5.5t-27.5 5.5t-15.5 11.5q-8 10 -10.5 21t-2.5 21z" />
    <glyph glyph-name="ogonek" unicode="&#x2db;" horiz-adv-x="225" 
d="M185 -180v60h-42q-5 0 -14 1.5t-9 11.5q0 2 1.5 5.5t6.5 13.5l48 88h-80l-46 -88q-10 -18 -10 -37q0 -12 4 -23.5t13 -19.5t20 -10t21 -2h87z" />
    <glyph glyph-name="tilde" unicode="&#x2dc;" horiz-adv-x="473" 
d="M91 582q5 10 13 20.5t16 15.5q6 5 15 8.5t21 3.5q20 0 32 -6.5t23 -12.5l34 -20q14 -8 32 -11.5t33 -3.5q39 0 65 19q17 11 32.5 31t25.5 39l-51 33q-3 -6 -10 -18t-12 -18q-6 -7 -16.5 -12.5t-26.5 -5.5q-18 0 -32 7l-24 12l-40 22q-17 10 -33 13t-27 3
q-20 0 -35.5 -5.5t-26.5 -13.5q-16 -11 -32.5 -30t-26.5 -34z" />
    <glyph glyph-name="hungarumlaut" unicode="&#x2dd;" horiz-adv-x="503" 
d="M188 773l-148 -147l63 -62l148 147zM400 773l-147 -147l62 -62l148 147z" />
    <glyph glyph-name="accent" unicode="&#x301;" horiz-adv-x="2" 
d="M-221 767l-161 -133l59 -74l162 132z" />
    <glyph glyph-name="accent" unicode="&#xf400;" horiz-adv-x="2" 
d="M-221 767l-161 -133l59 -74l162 132z" />
    <glyph glyph-name="Delta" unicode="&#x394;" horiz-adv-x="680" 
d="M14 154l-16 -38t-8 -45q0 -24 7.5 -38t18.5 -21.5t25 -9.5t26 -2h546q13 0 26.5 2t24.5 9.5t18.5 21.5t7.5 37q0 26 -8 45.5t-16 38.5l-214 480q-7 16 -15.5 29.5t-21 23.5t-30.5 15.5t-44 5.5q-27 0 -45.5 -6t-31.5 -16t-21 -23.5t-15 -28.5zM323 559q2 5 6.5 13.5
t10.5 8.5t10 -8.5t6 -13.5l180 -415q3 -8 6.5 -13t3.5 -10q0 -12 -8 -14t-13 -2h-370q-5 0 -13 1.5t-8 12.5q0 4 2.5 9t7.5 16z" />
    <glyph glyph-name="Delta" unicode="&#x2206;" horiz-adv-x="680" 
d="M14 154l-16 -38t-8 -45q0 -24 7.5 -38t18.5 -21.5t25 -9.5t26 -2h546q13 0 26.5 2t24.5 9.5t18.5 21.5t7.5 37q0 26 -8 45.5t-16 38.5l-214 480q-7 16 -15.5 29.5t-21 23.5t-30.5 15.5t-44 5.5q-27 0 -45.5 -6t-31.5 -16t-21 -23.5t-15 -28.5zM323 559q2 5 6.5 13.5
t10.5 8.5t10 -8.5t6 -13.5l180 -415q3 -8 6.5 -13t3.5 -10q0 -12 -8 -14t-13 -2h-370q-5 0 -13 1.5t-8 12.5q0 4 2.5 9t7.5 16z" />
    <glyph glyph-name="Omega" unicode="&#x3a9;" horiz-adv-x="740" 
d="M209 106h-151v-106h166q41 0 65 19q18 15 22 34t4 35v47v26q0 16 -9 29q-5 7 -10.5 11t-12.5 8q-12 6 -29.5 17.5t-34.5 33t-29 55.5t-12 86q0 94 49.5 141t142.5 47t142.5 -47t49.5 -141q0 -52 -12 -86t-29 -55.5t-34.5 -33t-29.5 -17.5q-7 -4 -12.5 -8t-10.5 -11
q-9 -13 -9 -29v-26v-47q0 -16 4 -35t22 -34q24 -19 65 -19h166v106h-151v14q19 6 40 17.5t44 34.5q26 26 42.5 54.5t25.5 58t12 58.5t3 56q0 47 -8 84.5t-20.5 67t-28 51.5t-31.5 37q-28 27 -60.5 43.5t-65 25t-62.5 11t-52 2.5q-23 0 -52.5 -2.5t-62 -11t-65 -25
t-60.5 -43.5q-16 -15 -31.5 -37t-28 -51.5t-20.5 -67t-8 -84.5q0 -27 3 -56t12 -58.5t25.5 -58t42.5 -54.5q23 -23 44 -34.5t40 -17.5v-14z" />
    <glyph glyph-name="Omega" unicode="&#x2126;" horiz-adv-x="740" 
d="M209 106h-151v-106h166q41 0 65 19q18 15 22 34t4 35v47v26q0 16 -9 29q-5 7 -10.5 11t-12.5 8q-12 6 -29.5 17.5t-34.5 33t-29 55.5t-12 86q0 94 49.5 141t142.5 47t142.5 -47t49.5 -141q0 -52 -12 -86t-29 -55.5t-34.5 -33t-29.5 -17.5q-7 -4 -12.5 -8t-10.5 -11
q-9 -13 -9 -29v-26v-47q0 -16 4 -35t22 -34q24 -19 65 -19h166v106h-151v14q19 6 40 17.5t44 34.5q26 26 42.5 54.5t25.5 58t12 58.5t3 56q0 47 -8 84.5t-20.5 67t-28 51.5t-31.5 37q-28 27 -60.5 43.5t-65 25t-62.5 11t-52 2.5q-23 0 -52.5 -2.5t-62 -11t-65 -25
t-60.5 -43.5q-16 -15 -31.5 -37t-28 -51.5t-20.5 -67t-8 -84.5q0 -27 3 -56t12 -58.5t25.5 -58t42.5 -54.5q23 -23 44 -34.5t40 -17.5v-14z" />
    <glyph glyph-name="pi" unicode="&#x3c0;" horiz-adv-x="644" 
d="M86 0h117v440h254v-337q0 -17 2 -38t16 -40q15 -20 35 -25t38 -5q7 0 18 0.5l22 1t21.5 1.5t17.5 2v83q-5 -1 -14 -1t-16 1.5t-12 8t-8 18.5t-3 33v297h64v90h-547q-22 0 -42 -3.5t-43 -16.5v-90q13 8 31.5 14t35.5 6h13v-440z" />
    <glyph glyph-name="afii10023" unicode="&#x401;" horiz-adv-x="661" 
d="M513 769v96h-111v-96h111zM284 769v96h-112v-96h112zM621 0v105h-374q-16 0 -27.5 1.5t-17.5 7.5q-10 8 -10 27v164h415v105h-415v141q0 8 1.5 17t9.5 17q8 7 17.5 8.5t18.5 1.5h378v105h-449q-20 0 -43.5 -4t-40.5 -23q-11 -13 -17.5 -32.5t-6.5 -40.5v-496
q0 -20 4 -42.5t22 -39.5q17 -17 37 -19.5t43 -2.5h455z" />
    <glyph glyph-name="afii10051" unicode="&#x402;" horiz-adv-x="827" 
d="M161 0h132v311h285q12 0 28 -3.5t28 -17.5q14 -17 15.5 -42t1.5 -44q0 -27 -2.5 -47t-11.5 -31q-13 -16 -33.5 -18.5t-37.5 -2.5h-106v-105h178q29 0 60 7.5t54 37.5q13 17 20 42t10.5 50t4 45.5t0.5 28.5q0 61 -10.5 93t-21.5 48q-13 18 -29 28.5t-32.5 16t-32.5 7
t-29 1.5h-339v190h294v105h-597v-105h171v-595z" />
    <glyph glyph-name="afii10052" unicode="&#x403;" horiz-adv-x="611" 
d="M192 0v549q0 10 0.5 20t5.5 16q7 8 21 9t25 1h377v105h-468q-23 0 -40.5 -8t-28.5 -19q-17 -17 -20.5 -35.5t-3.5 -38.5v-599h132zM424 947l-161 -133l59 -74l162 132z" />
    <glyph glyph-name="afii10053" unicode="&#x404;" horiz-adv-x="665" 
d="M625 0v105h-244q-9 0 -25.5 1t-36 4t-40 9.5t-36.5 17.5q-30 20 -50 61t-17 110h426v98h-426q0 39 14 79.5t37 63.5q24 23 61.5 34.5t78.5 11.5h249v105h-291q-17 0 -42 -2t-53.5 -9t-58 -21t-54.5 -39q-27 -27 -42.5 -60t-23 -69t-9.5 -73t-2 -71q0 -53 3.5 -97
t13.5 -80t27 -65t44 -52q10 -8 26 -19t40 -20.5t56.5 -16t74.5 -6.5h300z" />
    <glyph glyph-name="afii10054" unicode="&#x405;" 
d="M39 0h430q35 0 67 8t58 42q22 28 28.5 62.5t6.5 67.5q0 12 -1.5 29t-6 35.5t-13.5 37t-25 33.5t-40.5 27t-59.5 23l-256 81q-42 14 -53.5 35t-11.5 44q0 10 2.5 26t15.5 28q12 11 26.5 13.5t28.5 2.5h358v105h-403q-26 0 -57 -6.5t-58 -32.5q-30 -28 -37.5 -63t-7.5 -67
q0 -15 1 -32t5 -34.5t11 -34.5t19 -31q10 -13 23 -22t25 -15.5t21.5 -10t13.5 -4.5l276 -87q23 -7 36.5 -16.5t20.5 -20t9 -21.5t2 -21q0 -9 -1.5 -22t-8 -25t-19.5 -20.5t-37 -8.5h-388v-105z" />
    <glyph glyph-name="afii10055" unicode="&#x406;" horiz-adv-x="252" 
d="M192 0v700h-132v-700h132z" />
    <glyph glyph-name="afii10056" unicode="&#x407;" horiz-adv-x="444" 
d="M288 0v700h-132v-700h132zM384 760v110h-116v-110h116zM176 760v110h-116v-110h116z" />
    <glyph glyph-name="afii10057" unicode="&#x408;" horiz-adv-x="445" 
d="M-20 0h179q32 0 58 6t46.5 15.5t36 21.5t26.5 23q8 8 18.5 22t19.5 35.5t15 51.5t6 70v455h-132v-420q0 -45 -8 -80t-37 -60q-26 -23 -58.5 -29t-54.5 -6h-115v-105z" />
    <glyph glyph-name="afii10058" unicode="&#x409;" horiz-adv-x="1183" 
d="M-10 0h149l347 586q2 3 7 7t9 4q11 0 12.5 -7t1.5 -11v-473q0 -21 3.5 -40.5t19.5 -37.5q15 -17 31 -22.5t31 -5.5h372q32 0 55.5 7t40.5 16.5t27 20t15 17.5q11 15 17.5 33.5t9.5 38t4 38t1 33.5q0 64 -8.5 96t-17.5 46q-13 21 -31 33t-36.5 18t-36 7.5t-30.5 1.5h-335
v210q0 18 -4.5 34.5t-18 29t-38.5 20.5t-66 8q-31 0 -51 -5t-33.5 -12.5t-22 -17.5t-14.5 -20zM648 309h272q32 0 45 -4.5t15 -6.5q10 -7 15.5 -17.5t8 -23t3 -25.5t0.5 -24v-19t-2 -23t-7 -23t-15 -19q-8 -7 -20 -11t-24 -5.5t-21.5 -2t-12.5 -0.5h-213q-11 0 -21.5 1
t-16.5 10q-3 5 -4.5 14.5t-1.5 17.5v161z" />
    <glyph glyph-name="afii10059" unicode="&#x40a;" horiz-adv-x="1207" 
d="M678 413v287h-132v-287h-354v287h-132v-700h132v308h354v-202q0 -21 3.5 -40.5t19.5 -37.5q15 -17 31 -22.5t30 -5.5h367q32 0 56 7t40.5 16.5t26.5 20t15 17.5q11 15 17.5 33.5t9.5 38t4 38t1 34.5q0 35 -4 71t-22 69q-7 13 -17.5 25.5t-26.5 22t-38 15t-52 5.5h-329z
M678 308h265q19 0 34.5 -1t26.5 -9q10 -7 15.5 -17.5t8 -23t3 -25.5t0.5 -24q0 -17 -2.5 -42.5t-21.5 -41.5q-8 -7 -20.5 -11t-25 -5.5t-22 -2t-11.5 -0.5h-206h-21q-10 0 -17 11q-3 5 -4.5 14.5t-1.5 17.5v160z" />
    <glyph glyph-name="afii10060" unicode="&#x40b;" horiz-adv-x="814" 
d="M161 0h132v311h277q13 0 27.5 -2t25.5 -12q13 -11 16 -24t3 -26v-247h132v266q0 26 -6 56t-38 56q-24 19 -50 23t-51 4h-336v190h294v105h-597v-105h171v-595z" />
    <glyph glyph-name="afii10061" unicode="&#x40c;" horiz-adv-x="700" 
d="M730 0l-331 295q-15 14 -30 30.5t-15 33.5q0 11 10 24t27 30l302 287h-163l-265 -262q-26 -26 -32 -47t-6 -32q0 -14 8.5 -37.5t39.5 -52.5l288 -269h167zM60 0h132v700h-132v-700zM416 947l-161 -133l59 -74l162 132z" />
    <glyph glyph-name="afii10062" unicode="&#x40e;" horiz-adv-x="684" 
d="M337 0l367 700h-144l-213 -424l-221 424h-146l299 -545l-85 -155h143zM355 802q-20 0 -36 4.5t-32 19.5q-11 11 -17 22.5t-8 20.5h-91q7 -28 22 -55.5t35 -45.5q29 -26 63.5 -32.5t63.5 -6.5q28 0 63 6.5t65 32.5q20 17 35 45t22 56h-91q-2 -9 -8 -20.5t-17 -22.5
q-15 -15 -32 -19.5t-37 -4.5z" />
    <glyph glyph-name="afii10145" unicode="&#x40f;" horiz-adv-x="743" 
d="M306 -169h131v169h157q15 0 32.5 2.5t33.5 16.5q17 15 20 31.5t3 33.5v616h-132v-558q0 -7 0.5 -12t-5.5 -14q-7 -10 -12.5 -10.5t-14.5 -0.5h-295q-8 0 -14.5 0.5t-12.5 10.5q-4 7 -4.5 12.5t-0.5 13.5v558h-132v-616q0 -17 3 -33.5t20 -31.5q16 -14 33.5 -16.5
t32.5 -2.5h157v-169z" />
    <glyph glyph-name="afii10017" unicode="&#x410;" horiz-adv-x="698" 
d="M-30 0h139l71 177h337l72 -177h139l-264 629q-19 44 -44.5 61.5t-70.5 17.5q-47 0 -71.5 -17.5t-43.5 -61.5zM329 556q3 8 8 18.5t12 10.5t12 -10.5t8 -18.5l114 -285h-269z" />
    <glyph glyph-name="afii10018" unicode="&#x411;" horiz-adv-x="725" 
d="M649 700h-494q-28 0 -45 -8.5t-26 -17.5q-16 -17 -20 -37.5t-4 -38.5v-505q0 -15 3 -32.5t16 -32.5q10 -11 26.5 -19.5t43.5 -8.5h378q26 0 46 5t34.5 12t24 15t15.5 14q15 17 26.5 53t11.5 104q0 49 -8 87.5t-28 64.5q-14 17 -30 27.5t-32.5 16t-32.5 7t-29 1.5h-333
v145q0 7 1 17.5t9 17.5q7 5 17 6.5t20 1.5h410v105zM192 302h267q17 0 35.5 -2.5t32.5 -16.5q16 -15 19 -35.5t3 -40.5q0 -16 -2 -40.5t-19 -41.5q-15 -15 -33 -17.5t-36 -2.5h-212q-11 0 -26.5 1t-23.5 12q-2 2 -3.5 9t-1.5 30v145z" />
    <glyph glyph-name="afii10019" unicode="&#x412;" horiz-adv-x="722" 
d="M192 301h268q32 0 48.5 -10.5t22.5 -18.5q10 -14 12.5 -35t2.5 -36q0 -17 -3.5 -37t-14.5 -34q-15 -18 -38 -21.5t-39 -3.5h-208q-8 0 -21.5 1t-21.5 10q-4 5 -6 14.5t-2 26.5v144zM192 556q0 6 1.5 15t7.5 16t14 7.5t16 0.5h216q17 0 34 -2t31 -16q17 -16 20 -38.5
t3 -36.5q0 -36 -5.5 -51t-9.5 -20q-14 -19 -33 -22t-39 -3h-256v150zM572 354v4q20 2 35.5 10t30.5 26q23 28 28 56.5t5 57.5q0 17 -1.5 37t-6 40t-13 39t-23.5 34q-14 14 -30 22.5t-33 13t-33.5 5.5t-30.5 1h-344q-17 0 -37.5 -5t-36.5 -24q-11 -14 -16.5 -33t-5.5 -39
v-500q0 -30 9.5 -47.5t14.5 -23.5q21 -24 45 -26t50 -2h335q16 0 32.5 0.5t32.5 5t32 13.5t31 26q30 34 35 73t5 74q0 15 -0.5 31t-3.5 32.5t-10 32t-19 29.5q-13 14 -32.5 24.5t-44.5 12.5z" />
    <glyph glyph-name="afii10020" unicode="&#x413;" horiz-adv-x="611" 
d="M192 0v549q0 10 0.5 20t5.5 16q7 8 21 9t25 1h377v105h-468q-23 0 -40.5 -8t-28.5 -19q-17 -17 -20.5 -35.5t-3.5 -38.5v-599h132z" />
    <glyph glyph-name="afii10021" unicode="&#x414;" horiz-adv-x="793" 
d="M49 105h-59v-105h813v105h-59l-235 529q-17 38 -41 56t-71 18q-27 0 -45 -6t-31 -16t-21 -23.5t-15 -28.5zM380 559q2 5 6.5 13.5t10.5 8.5t10 -8.5t6 -13.5l196 -454h-425z" />
    <glyph glyph-name="afii10022" unicode="&#x415;" horiz-adv-x="651" 
d="M621 0v105h-374q-16 0 -27.5 1.5t-17.5 7.5q-10 8 -10 27v164h415v105h-415v141q0 8 1.5 17t9.5 17q8 7 17.5 8.5t18.5 1.5h378v105h-449q-20 0 -43.5 -4t-40.5 -23q-11 -13 -17.5 -32.5t-6.5 -40.5v-496q0 -20 4 -42.5t22 -39.5q17 -17 37 -19.5t43 -2.5h455z" />
    <glyph glyph-name="afii10024" unicode="&#x416;" horiz-adv-x="1068" 
d="M-20 0h168l238 267q32 36 39 60.5t7 32.5q0 25 -12.5 46t-23.5 34l-220 260h-160l257 -287q11 -11 20 -23.5t9 -28.5q0 -19 -13 -37t-24 -29zM1088 0l-285 295q-11 11 -24 29t-13 37q0 16 9 28.5t20 23.5l257 287h-160l-220 -260q-11 -14 -23.5 -34.5t-12.5 -45.5
q0 -29 16 -53t30 -40l238 -267h168zM468 0h132v700h-132v-700z" />
    <glyph glyph-name="afii10025" unicode="&#x417;" horiz-adv-x="665" 
d="M50 0h362q36 0 78 4.5t72 23.5q22 14 34.5 33.5t19 41t8 43.5t1.5 41q0 43 -5 70t-15 44q-14 24 -38.5 37t-53.5 15v4q34 8 59 31q28 26 34 57.5t6 65.5q0 39 -7 77.5t-36 68.5q-17 16 -35.5 25t-37.5 13t-38 4.5t-36 0.5h-368v-105h338q16 0 32 -2t29 -13
q18 -15 20.5 -37t2.5 -42q0 -16 -2 -37.5t-15 -35.5q-11 -12 -34.5 -17t-57.5 -5h-303v-105h320q42 0 58.5 -7.5t21.5 -11.5q18 -16 21.5 -39t3.5 -40q0 -11 -1 -23t-4 -23.5t-10 -21.5t-19 -17q-8 -5 -20 -7.5t-24.5 -3.5t-23.5 -1.5t-15 -0.5h-322v-105z" />
    <glyph glyph-name="afii10026" unicode="&#x418;" horiz-adv-x="786" 
d="M726 0v582q0 13 -2 34.5t-12 41.5t-32 35t-61 15q-36 0 -62.5 -16t-54.5 -62l-282 -462q-5 -8 -9 -15t-10 -7q-10 0 -11 10t-1 22l4 522h-133v-588q0 -15 2 -35.5t11.5 -39.5t30.5 -32t59 -13q27 0 45 6t30 15.5t20.5 21t15.5 23.5l288 465q8 12 14 22t12 10
q7 0 8.5 -7.5t1.5 -15.5l-5 -532h133z" />
    <glyph glyph-name="afii10027" unicode="&#x419;" horiz-adv-x="786" 
d="M726 0v582q0 13 -2 34.5t-12 41.5t-32 35t-61 15q-36 0 -62.5 -16t-54.5 -62l-282 -462q-5 -8 -9 -15t-10 -7q-10 0 -11 10t-1 22l4 522h-133v-588q0 -15 2 -35.5t11.5 -39.5t30.5 -32t59 -13q27 0 45 6t30 15.5t20.5 21t15.5 23.5l288 465q8 12 14 22t12 10
q7 0 8.5 -7.5t1.5 -15.5l-5 -532h133zM194 859q8 -26 25 -56t43 -49q23 -17 56 -25.5t72 -8.5q32 0 67.5 7t61.5 27q26 19 43 49t25 56h-95q-4 -13 -11.5 -24.5t-16.5 -19.5q-17 -14 -36.5 -17.5t-37.5 -3.5q-17 0 -36.5 3.5t-36.5 17.5q-9 8 -16.5 19.5t-11.5 24.5h-95z
" />
    <glyph glyph-name="afii10028" unicode="&#x41a;" horiz-adv-x="700" 
d="M730 0l-331 295q-14 13 -27.5 28t-13.5 38q0 18 10.5 29.5t22.5 22.5l302 287h-163l-265 -262q-14 -14 -24 -36t-10 -42q0 -18 9 -42.5t35 -48.5l288 -269h167zM60 0h132v700h-132v-700z" />
    <glyph glyph-name="afii10029" unicode="&#x41b;" horiz-adv-x="695" 
d="M-30 0h140l221 559q2 6 5.5 13t11.5 7t11 -6.5t5 -13.5l221 -559h140l-270 642q-5 12 -12 24t-19 21t-30 15t-46 6t-46 -6t-30 -15t-19 -21t-12 -24z" />
    <glyph glyph-name="afii10030" unicode="&#x41c;" horiz-adv-x="992" 
d="M775 543q2 6 7 14.5t10 8.5q3 0 7.5 -3.5t4.5 -17.5l-4 -545h132v616q0 48 -32 70t-81 22q-19 0 -36 -3t-33 -12.5t-29.5 -27t-24.5 -47.5l-181 -467q-5 -11 -9.5 -18.5t-9.5 -7.5t-9.5 7.5t-9.5 18.5l-181 467q-7 18 -16 34.5t-22.5 29t-34 19.5t-50.5 7
q-8 0 -26.5 -1.5t-37.5 -10.5t-34 -27.5t-15 -52.5v-616h132l-3 545q0 2 1.5 11.5t9.5 9.5q5 0 10 -8.5t7 -14.5l179 -467q6 -17 13 -32t18 -26.5t27.5 -18.5t41.5 -7q23 0 39 5.5t27 16.5t18.5 26.5t15.5 35.5z" />
    <glyph glyph-name="afii10031" unicode="&#x41d;" horiz-adv-x="748" 
d="M688 700h-132v-287h-364v287h-132v-700h132v308h364v-308h132v700z" />
    <glyph glyph-name="afii10032" unicode="&#x41e;" horiz-adv-x="799" 
d="M400 708q-32 0 -68.5 -1t-73.5 -8t-72.5 -22t-64.5 -43q-29 -27 -45 -61.5t-24 -72t-10 -76t-2 -74.5q0 -30 1.5 -67t9 -75.5t24 -75.5t46.5 -66q29 -28 64.5 -43t73 -22t74 -8t67.5 -1q30 0 67 1t74.5 8t73 22t64.5 43q27 26 43 61t24 73t10.5 76.5t2.5 73.5q0 34 -2 73
t-10.5 77t-24.5 73t-43 61q-29 28 -64.5 43t-73 22t-74 8t-67.5 1zM176 350q0 81 11.5 125.5t31.5 70.5q31 38 78 47.5t102 9.5q54 0 102 -9.5t79 -47.5q8 -10 16 -25t14 -38t9.5 -55.5t3.5 -77.5q0 -42 -3.5 -74t-9.5 -55t-13.5 -39t-16.5 -27q-16 -20 -36 -31.5
t-43.5 -17.5t-49 -7.5t-52.5 -1.5t-53 1.5t-49 7.5t-43 17.5t-35 31.5q-9 11 -16.5 26.5t-13.5 39t-9.5 55t-3.5 74.5z" />
    <glyph glyph-name="afii10033" unicode="&#x41f;" horiz-adv-x="743" 
d="M511 595q7 0 16 -0.5t16 -8.5q7 -7 7.5 -16t0.5 -17v-553h132v605q0 18 -4.5 36t-20.5 34q-18 18 -38 21.5t-41 3.5h-414q-24 0 -42 -3.5t-37 -21.5q-17 -17 -21.5 -34t-4.5 -36v-605h132v553q0 9 2 18.5t7 14.5q7 8 15.5 8.5t16.5 0.5h278z" />
    <glyph glyph-name="afii10034" unicode="&#x420;" horiz-adv-x="728" 
d="M192 0v248h328q31 0 59 9t48 25q21 17 33 41t18 50.5t8 53t2 47.5q0 22 -1.5 47t-7 50t-16 47.5t-28.5 39.5q-16 16 -34.5 24.5t-37 12.5t-36 4.5t-31.5 0.5h-333q-18 0 -40 -5t-39 -22q-18 -18 -21 -38t-3 -40v-595h132zM192 353v200q0 9 1 17.5t8 15.5q8 8 16 8.5
t15 0.5h213q17 0 41 -3.5t41 -20.5t21 -45t4 -51q0 -10 -0.5 -23t-3 -26t-7 -25.5t-12.5 -21.5q-17 -20 -40.5 -23t-45.5 -3h-251z" />
    <glyph glyph-name="afii10035" unicode="&#x421;" 
d="M629 0v105h-237q-62 0 -109 13t-74 54q-5 8 -11 21t-11 33t-8 48.5t-3 67.5q0 78 11.5 121.5t27.5 66.5q15 22 34.5 35t43 20t50.5 8.5t56 1.5h219v105h-281q-19 0 -47 -2t-60 -11t-64 -26.5t-58 -48.5q-22 -26 -35.5 -57.5t-20.5 -67t-9.5 -73t-2.5 -74.5q0 -29 2 -62.5
t9 -67.5t21 -67t39 -61q24 -27 52.5 -43.5t58 -25t58.5 -11t54 -2.5h295z" />
    <glyph glyph-name="afii10036" unicode="&#x422;" 
d="M395 0v595h274v105h-679v-105h273v-595h132z" />
    <glyph glyph-name="afii10037" unicode="&#x423;" horiz-adv-x="684" 
d="M337 0l367 700h-144l-213 -424l-221 424h-146l299 -545l-85 -155h143z" />
    <glyph glyph-name="afii10038" unicode="&#x424;" horiz-adv-x="932" 
d="M400 700v-57h-100q-40 0 -72 -3t-58 -11.5t-46.5 -23t-36.5 -38.5q-31 -45 -39 -98.5t-8 -109.5q0 -54 7 -109t33 -99q32 -51 81.5 -67t114.5 -16h124v-68h132v68h124q65 0 114.5 16t81.5 67q26 44 33 99t7 109q0 56 -8 109.5t-39 98.5q-33 47 -83.5 61.5t-130.5 14.5
h-99v57h-132zM400 172h-59q-25 0 -48 2t-42.5 9t-35 20t-24.5 35q-5 11 -10 36.5t-5 84.5q0 29 2 49.5t4.5 35t5.5 23t6 13.5q10 19 24.5 30.5t31.5 17.5t35.5 8t36.5 2h78v-366zM532 172v366h78q38 0 72.5 -10t54.5 -48q10 -19 14.5 -46.5t4.5 -74.5q0 -53 -4 -79.5
t-11 -41.5q-9 -22 -24.5 -35t-35 -20t-42.5 -9t-48 -2h-59z" />
    <glyph glyph-name="afii10039" unicode="&#x425;" horiz-adv-x="628" 
d="M658 0l-269 355l261 345h-157l-179 -252l-179 252h-157l261 -345l-269 -355h157l187 262l187 -262h157z" />
    <glyph glyph-name="afii10040" unicode="&#x426;" horiz-adv-x="769" 
d="M779 0v105h-96v595h-132v-595h-314q-8 0 -20 1.5t-19 9.5t-6.5 21t0.5 23v540h-132v-598q0 -20 5 -42.5t25 -39.5q18 -15 39 -17.5t43 -2.5h607z" />
    <glyph glyph-name="afii10041" unicode="&#x427;" horiz-adv-x="716" 
d="M656 0v700h-132v-297h-249q-15 0 -38 3.5t-37 17.5t-16 33t-2 39v204h-132v-228q0 -35 5.5 -62t22.5 -51q15 -22 34 -34t37 -18t32.5 -7.5t21.5 -1.5h321v-298h132z" />
    <glyph glyph-name="afii10042" unicode="&#x428;" horiz-adv-x="1044" 
d="M456 700v-595h-227q-8 0 -16.5 1.5t-14.5 9.5q-5 8 -5.5 16.5t-0.5 16.5v551h-132v-611q0 -17 3 -33.5t20 -32.5q16 -15 34 -19t34 -4h742q10 0 31 3t38 20q16 16 19 35.5t3 30.5v611h-132v-551q0 -8 -0.5 -16.5t-5.5 -16.5q-6 -8 -14 -9.5t-16 -1.5h-228v595h-132z" />
    <glyph glyph-name="afii10043" unicode="&#x429;" horiz-adv-x="1076" 
d="M1086 105h-96v595h-132v-595h-270v595h-132v-595h-228q-8 0 -16 1.5t-14 9.5q-5 8 -5.5 16.5t-0.5 16.5v551h-132v-611q0 -15 4 -33t19 -33t33.5 -19t34.5 -4h935v105z" />
    <glyph glyph-name="afii10044" unicode="&#x42a;" horiz-adv-x="792" 
d="M-10 595h97q21 0 30 -11q2 -3 5 -11t3 -26v-441q0 -20 4 -40.5t18 -37.5q6 -7 21 -17.5t42 -10.5h372q32 0 55.5 7t40.5 16.5t27 20t15 17.5q2 3 7 12t10.5 26.5t10 44t4.5 63.5t-6 75t-20 64q-13 24 -31.5 37t-38 20t-37.5 8.5t-30 1.5h-332v186q0 29 -7.5 47t-15.5 27
q-17 19 -38.5 23t-33.5 4h-172v-105zM257 308h264q18 0 35.5 -1t31.5 -12q20 -15 24 -38t4 -46q0 -22 -3 -46.5t-22 -40.5q-8 -7 -20 -11t-23 -5.5t-20.5 -2t-13.5 -0.5h-213q-11 0 -21.5 1.5t-16.5 9.5q-5 6 -5.5 16.5t-0.5 15.5v160z" />
    <glyph glyph-name="afii10045" unicode="&#x42b;" horiz-adv-x="955" 
d="M895 0v700h-132v-700h132zM60 700v-594q0 -20 4 -40.5t18 -37.5q6 -7 21 -17.5t42 -10.5h372q32 0 55.5 7t40.5 16.5t27 20t15 17.5q2 3 7 12t10.5 26.5t10 44t4.5 63.5t-6 75t-20 64q-13 24 -31.5 37t-38 20t-37.5 8.5t-30 1.5h-332v287h-132zM192 308h264q18 0 35.5 -1
t31.5 -12q20 -15 24 -38t4 -46q0 -22 -3 -46.5t-22 -40.5q-8 -7 -20 -11t-23 -5.5t-20.5 -2t-13.5 -0.5h-213q-11 0 -21.5 1.5t-16.5 9.5q-5 6 -5.5 16.5t-0.5 15.5v160z" />
    <glyph glyph-name="afii10046" unicode="&#x42c;" horiz-adv-x="727" 
d="M60 700v-594q0 -20 4 -40.5t18 -37.5q6 -7 21 -17.5t42 -10.5h372q32 0 55.5 7t40.5 16.5t27 20t15 17.5q2 3 7 12t10.5 26.5t10 44t4.5 63.5t-6 75t-20 64q-13 24 -31.5 37t-38 20t-37.5 8.5t-30 1.5h-332v287h-132zM192 308h264q18 0 35.5 -1t31.5 -12q20 -15 24 -38
t4 -46q0 -22 -3 -46.5t-22 -40.5q-8 -7 -20 -11t-23 -5.5t-20.5 -2t-13.5 -0.5h-213q-11 0 -21.5 1.5t-16.5 9.5q-5 6 -5.5 16.5t-0.5 15.5v160z" />
    <glyph glyph-name="afii10047" unicode="&#x42d;" horiz-adv-x="666" 
d="M40 0h300q21 0 45.5 2.5t51 9t52.5 18.5t49 32q53 46 70.5 118t17.5 176q0 36 -2 73t-10 72.5t-23.5 68t-41.5 58.5q-26 25 -55 39.5t-57.5 21.5t-54 9t-42.5 2h-290v-105h248q50 0 84.5 -14t55.5 -34q29 -29 39.5 -65.5t12.5 -73.5h-426v-105h426q-1 -59 -14 -98
t-53 -66q-24 -17 -56.5 -25.5t-81.5 -8.5h-245v-105z" />
    <glyph glyph-name="afii10048" unicode="&#x42e;" horiz-adv-x="1038" 
d="M60 700v-700h132v305h88q-1 -30 3 -63t14 -65t25.5 -61t37.5 -50q29 -28 64.5 -43t73 -22t74 -8t67.5 -1t67.5 1t74 8t73 22t64.5 43q28 27 44 61.5t24 72t10 76.5t2 74q0 91 -15 164t-65 120q-30 28 -65 43t-72 22t-73.5 8t-68.5 1t-68.5 -1t-73.5 -8t-72.5 -22
t-64.5 -43q-21 -20 -36.5 -46.5t-25 -56t-14 -61t-4.5 -60.5h-89v290h-131zM416 350q0 79 12 123.5t32 70.5q17 21 38.5 33t45.5 18t48 7t47 1t47 -1t47.5 -7t45 -18t38.5 -33q21 -26 33 -70t12 -124q0 -75 -11.5 -120t-33.5 -73q-31 -40 -75 -50t-103 -10q-27 0 -52.5 1.5
t-48.5 7.5t-42.5 18t-35.5 33q-20 26 -32 70.5t-12 122.5z" />
    <glyph glyph-name="afii10049" unicode="&#x42f;" horiz-adv-x="739" 
d="M679 0v590q0 24 -4 43.5t-24 38.5q-19 18 -39.5 23t-37.5 5h-343q-45 0 -83 -11t-65 -53q-12 -19 -19 -39.5t-10 -41t-3.5 -40t-0.5 -36.5q0 -44 5 -87t26 -79q18 -31 49 -50t73 -19h91v-4l-264 -240h170l234 229q20 20 25 35.5t5 25.5v16q0 16 -7.5 24.5t-17.5 12.5
t-20 5t-15 1h-138q-24 0 -41 10.5t-25 24.5q-8 12 -11 33t-3 58q0 26 3.5 52.5t20.5 44.5q16 17 34 20t34 3h220q10 0 18.5 -1.5t16.5 -9.5q9 -8 11.5 -17.5t2.5 -17.5v-549h132z" />
    <glyph glyph-name="afii10065" unicode="&#x430;" horiz-adv-x="555" 
d="M65 530v-90h261q14 0 29.5 -4t27.5 -19q10 -12 12.5 -25t2.5 -25v-37h-230q-21 0 -46.5 -4.5t-50.5 -26.5q-30 -26 -37.5 -60t-7.5 -69q0 -15 1 -34t5.5 -39t14 -38.5t25.5 -32.5q23 -20 48.5 -23t47.5 -3h253q19 0 39 3.5t34 17.5t17.5 34t3.5 34v275q0 45 -11 76.5
t-28 48.5q-18 19 -47 30t-63 11h-301zM398 240v-122q0 -6 -1 -11.5t-7 -10.5t-13.5 -5.5t-12.5 -0.5h-163q-11 0 -21.5 5t-16.5 11q-11 11 -13.5 29t-2.5 30q0 29 5 41t8 16q10 13 23.5 15.5t19.5 2.5h195z" />
    <glyph glyph-name="afii10066" unicode="&#x431;" horiz-adv-x="574" 
d="M517 610v90h-285q-37 0 -64.5 -8t-47 -20.5t-32 -26.5t-19.5 -26q-19 -32 -24 -66t-5 -60v-276q0 -35 3.5 -69t23.5 -69q19 -32 46 -49t57 -25t61.5 -9.5t59.5 -1.5q30 0 60.5 1.5t60 9t55 23.5t44.5 46q14 21 21.5 46.5t11 50.5t4 48t0.5 41q0 43 -5.5 88.5t-29.5 81.5
q-20 31 -62.5 54.5t-115.5 23.5h-178q-1 23 7.5 44t20.5 32q21 19 50 22.5t51 3.5h231zM157 418h152q41 0 62 -14.5t29 -24.5q13 -17 20 -46.5t7 -80.5q0 -16 -1 -35t-4.5 -37.5t-11 -35t-19.5 -28.5q-17 -16 -46 -24t-56 -8q-37 0 -63.5 10.5t-41.5 27.5q-11 12 -19 32.5
t-8 51.5v212z" />
    <glyph glyph-name="afii10067" unicode="&#x432;" horiz-adv-x="551" 
d="M436 275q20 2 36 10.5t27 20.5q16 18 20 42.5t4 45.5q0 19 -4 47t-24 51q-12 14 -27.5 21.5t-31.5 11.5t-32 4.5t-29 0.5h-240q-17 0 -35.5 -3.5t-35.5 -17.5t-20.5 -31t-3.5 -31v-369q0 -13 3 -30t17 -29q14 -13 33.5 -16t36.5 -3h252q23 0 53 4.5t54 28.5q13 13 20 29
t10.5 32t4.5 30.5t1 25.5q0 21 -3.5 44.5t-19.5 43.5q-9 11 -26 21.5t-40 13.5v2zM157 319v95q0 5 1 10t6 10t11 5.5t11 0.5h154q12 0 24 -2t22 -11q11 -10 13.5 -23t2.5 -25q0 -11 -2.5 -22.5t-12.5 -21.5q-11 -11 -24.5 -13.5t-24.5 -2.5h-181zM157 229h183
q10 0 24.5 -2.5t25.5 -14.5q10 -11 12 -24.5t2 -25.5q0 -13 -2.5 -29t-13.5 -27t-26 -13.5t-28 -2.5h-146q-7 0 -13.5 1t-11.5 7q-3 5 -4.5 11.5t-1.5 12.5v107z" />
    <glyph glyph-name="afii10068" unicode="&#x433;" horiz-adv-x="463" 
d="M157 0v398q0 10 0.5 17.5t7.5 14.5q4 4 10 7t14 3h294v90h-369q-17 0 -34 -4.5t-29 -23.5q-8 -13 -9.5 -28t-1.5 -31v-443h117z" />
    <glyph glyph-name="afii10069" unicode="&#x434;" horiz-adv-x="577" 
d="M38 90h-48v-90h597v90h-47l-166 394q-8 20 -25.5 36t-59.5 16q-41 0 -59 -15t-27 -37zM278 419q2 5 5 9.5t6 4.5q5 0 6.5 -5t3.5 -9l127 -329h-274z" />
    <glyph glyph-name="afii10070" unicode="&#x435;" horiz-adv-x="563" 
d="M520 0v90h-259q-16 0 -32.5 2t-31.5 8.5t-26 19t-17 33.5q-3 12 -5 34t-2 39h308q16 0 30.5 4t26.5 16q17 17 21 38.5t4 41.5q0 25 -3 49.5t-11.5 47t-23 41.5t-37.5 34q-37 23 -82.5 28.5t-92.5 5.5q-19 0 -44 -1t-52 -5.5t-53.5 -14.5t-48.5 -29t-34.5 -42t-19 -50.5
t-8 -60t-1.5 -69.5q0 -53 6 -104t32 -89q16 -23 36 -36.5t41 -20.5t43 -8.5t42 -1.5h294zM147 316q1 26 3.5 48.5t20.5 42.5q12 13 26.5 20.5t29.5 10.5t29 3.5t26 0.5q25 0 51.5 -3.5t48.5 -20.5q13 -10 23.5 -28t10.5 -43q0 -11 -4.5 -21t-21.5 -10h-243z" />
    <glyph glyph-name="afii10072" unicode="&#x436;" horiz-adv-x="805" 
d="M459 0v530h-113v-530h113zM825 0l-200 233q-6 7 -14 20t-8 21q0 4 3.5 13t18.5 26l181 217h-136l-150 -188q-14 -17 -25.5 -36t-11.5 -36q0 -18 10.5 -33.5t20.5 -26.5l173 -210h138zM-20 0h138l173 210q10 11 20.5 26.5t10.5 33.5q0 17 -11.5 36t-25.5 36l-151 188h-136
l182 -217q6 -7 14 -19.5t8 -19.5q0 -8 -8.5 -21t-13.5 -20z" />
    <glyph glyph-name="afii10073" unicode="&#x437;" horiz-adv-x="530" 
d="M40 0h313q26 0 54 4.5t52 26.5q15 14 28 42t13 75q0 37 -8 59t-19 34q-9 11 -23.5 20t-36.5 11v3q21 2 36 11t24 20t16.5 32t7.5 57q0 24 -6.5 52.5t-28.5 49.5q-23 23 -52 28t-58 5h-302v-90h258q7 0 22.5 -2t27.5 -12q7 -6 12.5 -17t5.5 -30t-5.5 -30t-11.5 -17
q-11 -11 -22.5 -12.5t-25.5 -1.5h-256v-90h252q9 0 23.5 -2t26.5 -11q15 -11 18.5 -25t3.5 -28q0 -23 -5.5 -36.5t-12.5 -20.5q-11 -11 -25.5 -13t-29.5 -2h-266v-90z" />
    <glyph glyph-name="afii10074" unicode="&#x438;" horiz-adv-x="599" 
d="M559 0v455q0 30 -10 46t-22.5 24t-25.5 9.5t-19 1.5q-18 0 -37 -6.5t-35 -29.5l-236 -347q-3 -5 -6 -9.5t-8 -4.5q-6 0 -7 3.5t-1 10.5l5 377h-117v-461q0 -11 2.5 -24t10.5 -24t23 -19t41 -8q30 0 46 10.5t30 31.5l233 341q6 9 9 11.5t5 2.5q6 0 6 -4v-10l-4 -377h117z
" />
    <glyph glyph-name="afii10075" unicode="&#x439;" horiz-adv-x="599" 
d="M559 0v455q0 30 -10 46t-22.5 24t-25.5 9.5t-19 1.5q-18 0 -37 -6.5t-35 -29.5l-236 -347q-3 -5 -6 -9.5t-8 -4.5q-6 0 -7 3.5t-1 10.5l5 377h-117v-461q0 -11 2.5 -24t10.5 -24t23 -19t41 -8q30 0 46 10.5t30 31.5l233 341q6 9 9 11.5t5 2.5q6 0 6 -4v-10l-4 -377h117z
M301 626q-17 0 -35.5 4.5t-33.5 19.5q-8 8 -15 20.5t-10 22.5h-91q8 -29 23.5 -57t33.5 -44q29 -26 65 -32.5t63 -6.5t63 6.5t65 32.5q18 16 33.5 44t23.5 57h-91q-3 -10 -10 -22.5t-15 -20.5q-15 -15 -33.5 -19.5t-35.5 -4.5z" />
    <glyph glyph-name="afii10076" unicode="&#x43a;" horiz-adv-x="514" 
d="M544 0l-226 236q-6 6 -12.5 17.5t-6.5 19.5q0 13 9 24.5t16 18.5l201 214h-139l-169 -188q-11 -13 -24 -31t-13 -38t10.5 -36t19.5 -26l193 -211h141zM157 0v530h-117v-530h117z" />
    <glyph glyph-name="afii10077" unicode="&#x43b;" horiz-adv-x="566" 
d="M-10 0h120l163 409q2 4 4 9.5t6 5.5t6 -5.5t4 -9.5l163 -409h120l-215 492q-11 23 -32.5 33.5t-45.5 10.5t-45.5 -10.5t-32.5 -33.5z" />
    <glyph glyph-name="afii10078" unicode="&#x43c;" horiz-adv-x="740" 
d="M573 382q2 3 4.5 7.5t4.5 4.5t4 -2.5t2 -7.5l-5 -384h117v460q0 39 -27.5 57.5t-63.5 18.5q-33 0 -55 -12.5t-35 -44.5l-134 -337q-2 -4 -6.5 -12.5t-8.5 -8.5t-8.5 8.5t-6.5 12.5l-134 337q-13 32 -35 44.5t-55 12.5q-36 0 -63.5 -18.5t-27.5 -57.5v-460h117l-5 384
q0 2 0.5 5.5t5.5 3.5q3 0 5 -4.5t3 -6.5l136 -344q6 -16 21 -30t47 -14t47 14t21 30z" />
    <glyph glyph-name="afii10079" unicode="&#x43d;" horiz-adv-x="567" 
d="M527 0v530h-117v-212h-253v212h-117v-530h117v228h253v-228h117z" />
    <glyph glyph-name="afii10080" unicode="&#x43e;" horiz-adv-x="616" 
d="M308 536q-24 0 -52 -1t-57 -6.5t-56 -17t-49 -31.5q-23 -21 -36.5 -49.5t-20.5 -58t-9 -58.5t-2 -51q0 -20 2 -47.5t8.5 -57t20 -57.5t37.5 -50q22 -20 49 -31.5t56 -17t57 -7t52 -1.5q23 0 51 1.5t57.5 7t57 17t48.5 31.5q29 28 48.5 79.5t19.5 136.5q0 21 -2 49t-9 57
t-20.5 57.5t-36.5 49.5q-22 20 -49 31.5t-56 17t-57 6.5t-52 1zM147 264q0 13 0.5 31t3.5 37.5t10 38.5t19 33t28.5 22.5t33.5 13t34.5 5.5t31.5 1q16 0 33 -1t33.5 -5.5t32 -13t28.5 -22.5q14 -15 21 -33.5t10 -37.5t3 -37v-32q0 -35 -4.5 -71t-30.5 -65t-59.5 -36.5
t-66.5 -7.5q-32 0 -66.5 7.5t-60.5 36.5q-25 29 -29.5 66t-4.5 70z" />
    <glyph glyph-name="afii10081" unicode="&#x43f;" horiz-adv-x="568" 
d="M130 530q-17 0 -36 -3t-36 -23q-14 -17 -16 -32.5t-2 -29.5v-442h117v409q0 7 2 14t6 11q6 6 20 6h198q5 0 11 -1.5t10 -4.5q5 -5 6 -12.5t1 -12.5v-409h117v442q0 17 -2.5 32.5t-14.5 29.5q-15 18 -34 22t-39 4h-308z" />
    <glyph glyph-name="afii10082" unicode="&#x440;" horiz-adv-x="559" 
d="M157 0h148q20 0 44.5 1.5t50 9t49 23t42.5 42.5q14 20 22.5 44t13 50t5.5 53t1 53q0 22 -1 47.5t-6.5 51.5t-17 51t-31.5 46q-19 20 -41 31.5t-43.5 17.5t-40 7.5t-31.5 1.5h-185q-15 0 -33 -3t-33 -14q-10 -8 -20 -23.5t-10 -41.5v-618h117v170zM157 90v325q0 10 8 18
q3 2 7.5 4.5t8.5 2.5h115q39 0 65 -17t37 -43q5 -11 9.5 -35.5t4.5 -78.5q0 -59 -7 -87t-15 -40q-10 -16 -33 -32.5t-67 -16.5h-133z" />
    <glyph glyph-name="afii10083" unicode="&#x441;" horiz-adv-x="513" 
d="M487 0v90h-190q-18 0 -37.5 1.5t-37.5 7.5t-33 17t-25 30q-5 10 -8.5 24.5t-5.5 29.5t-2.5 29.5t-0.5 26.5q0 6 0.5 18.5t1 27t2.5 29t5 25.5q10 34 40.5 59t89.5 25h189v90h-227q-36 0 -62.5 -6t-46 -14.5t-32.5 -18.5t-21 -18q-22 -23 -34 -50.5t-18 -56t-7 -56.5
t-1 -52q0 -57 7.5 -105.5t40.5 -87.5q18 -21 39.5 -34t42.5 -20t41 -9t35 -2h255z" />
    <glyph glyph-name="afii10084" unicode="&#x442;" horiz-adv-x="515" 
d="M316 0v440h199v90h-515v-90h199v-440h117z" />
    <glyph glyph-name="afii10085" unicode="&#x443;" horiz-adv-x="542" 
d="M566 528h-119l-180 -405l-170 407h-121l236 -528l-81 -173h119z" />
    <glyph glyph-name="afii10086" unicode="&#x444;" horiz-adv-x="806" 
d="M345 700v-170h-109q-21 0 -44 -3t-46.5 -11.5t-45 -25t-37.5 -43.5q-13 -21 -20.5 -45.5t-11 -49t-4.5 -48.5t-1 -45q0 -50 7.5 -99t36.5 -88q19 -26 41 -40.5t44.5 -21.5t44.5 -8.5t40 -1.5h105v-170h117v170h104q19 0 41 1.5t44.5 8.5t44 21.5t40.5 40.5q30 42 37 87.5
t7 99.5q0 45 -4.5 94t-32.5 94q-17 27 -38 43.5t-44 25t-46.5 11.5t-44.5 3h-108v170h-117zM345 90h-59q-48 0 -75.5 10.5t-42.5 36.5q-15 25 -18 56t-3 65q0 58 6 90t19 50q11 15 25.5 23t29.5 12.5t30 5.5t27 1h61v-350zM462 90v350h60q12 0 27.5 -1t30.5 -5.5t29 -12.5
t25 -23q15 -21 20 -55.5t5 -84.5q0 -34 -3 -65t-18 -56q-15 -26 -42.5 -36.5t-75.5 -10.5h-58z" />
    <glyph glyph-name="afii10087" unicode="&#x445;" horiz-adv-x="493" 
d="M517 0l-203 272l189 258h-133l-124 -182l-124 182h-133l190 -258l-203 -272h137l133 196l134 -196h137z" />
    <glyph glyph-name="afii10088" unicode="&#x446;" horiz-adv-x="591" 
d="M601 0v90h-75v440h-117v-440h-212q-6 0 -16 1t-16 7q-5 5 -6.5 13.5t-1.5 16.5v402h-117v-456q0 -15 3 -29t19 -28q14 -12 29 -14.5t29 -2.5h481z" />
    <glyph glyph-name="afii10089" unicode="&#x447;" horiz-adv-x="555" 
d="M515 0v530h-117v-218h-177q-16 0 -34 4t-30 22q-8 13 -9 29t-1 30v133h-117v-158q0 -24 4 -53.5t21 -52.5q11 -15 25 -23.5t28.5 -13t29 -6t26.5 -1.5h234v-222h117z" />
    <glyph glyph-name="afii10090" unicode="&#x448;" horiz-adv-x="819" 
d="M351 530v-440h-166q-5 0 -11.5 1.5t-11.5 7.5q-4 5 -4.5 12t-0.5 14v405h-117v-450q0 -17 3 -32t16 -28q15 -15 34.5 -17.5t39.5 -2.5h553q20 0 38.5 2.5t35.5 17.5q14 14 16.5 28t2.5 32v450h-117v-405q0 -7 -0.5 -14t-4.5 -12q-5 -6 -11 -7.5t-11 -1.5h-167v440h-117z
" />
    <glyph glyph-name="afii10091" unicode="&#x449;" horiz-adv-x="855" 
d="M351 530v-440h-167q-7 0 -12.5 1t-10.5 8q-4 5 -4 26v405h-117v-450q0 -14 2.5 -30.5t16.5 -30.5q16 -16 35 -17.5t39 -1.5h722v90h-76v440h-117v-440h-194v440h-117z" />
    <glyph glyph-name="afii10092" unicode="&#x44a;" horiz-adv-x="614" 
d="M0 530v-90h68q7 0 13.5 -1t11.5 -8q4 -5 4.5 -12t0.5 -13v-325q0 -16 2.5 -32t17.5 -30q14 -14 29.5 -16.5t29.5 -2.5h269q25 0 52 4t50 24q14 13 22 30t12 35t5 35.5t1 30.5q0 32 -5.5 67t-29.5 63q-22 25 -48 32.5t-51 7.5h-239v126q0 11 -3.5 28.5t-17.5 30.5
q-9 8 -22 12t-24 4h-148zM215 239h190q10 0 23.5 -2.5t24.5 -14.5t12.5 -28.5t1.5 -27.5q0 -14 -2 -31t-12 -28q-11 -12 -25 -14.5t-27 -2.5h-153q-7 0 -14 1.5t-12 6.5q-6 6 -6.5 14.5t-0.5 14.5v112z" />
    <glyph glyph-name="afii10093" unicode="&#x44b;" horiz-adv-x="750" 
d="M40 530v-449q0 -16 2.5 -32t17.5 -30q14 -14 29.5 -16.5t29.5 -2.5h269q25 0 52 4t50 24q14 13 22 30t12 35t5 35.5t1 30.5q0 32 -5.5 67t-29.5 63q-22 25 -48 32.5t-51 7.5h-239v201h-117zM593 0h117v530h-117v-530zM157 239h190q10 0 23.5 -2.5t24.5 -14.5t12.5 -28.5
t1.5 -27.5q0 -14 -2 -31t-12 -28q-11 -12 -25 -14.5t-27 -2.5h-153q-7 0 -14 1.5t-12 6.5q-6 6 -6.5 14.5t-0.5 14.5v112z" />
    <glyph glyph-name="afii10094" unicode="&#x44c;" horiz-adv-x="556" 
d="M40 530v-449q0 -16 2.5 -32t17.5 -30q14 -14 29.5 -16.5t29.5 -2.5h269q25 0 52 4t50 24q14 13 22 30t12 35t5 35.5t1 30.5q0 32 -5.5 67t-29.5 63q-22 25 -48 32.5t-51 7.5h-239v201h-117zM157 239h190q10 0 23.5 -2.5t24.5 -14.5t12.5 -28.5t1.5 -27.5q0 -14 -2 -31
t-12 -28q-11 -12 -25 -14.5t-27 -2.5h-153q-7 0 -14 1.5t-12 6.5q-6 6 -6.5 14.5t-0.5 14.5v112z" />
    <glyph glyph-name="afii10095" unicode="&#x44d;" horiz-adv-x="522" 
d="M26 0h239q27 0 53 2t49.5 9t44 20t37.5 35q23 31 35 81t12 128q0 74 -12.5 121.5t-38.5 76.5q-9 10 -21.5 20t-31 18t-42.5 13.5t-55 5.5h-262v-90h203q11 0 26 -1t31 -5t31.5 -11.5t26.5 -20.5q13 -16 19 -38.5t5 -41.5h-335v-90h336q0 -21 -4 -45.5t-12 -40.5
q-16 -31 -48.5 -43.5t-77.5 -12.5h-208v-90z" />
    <glyph glyph-name="afii10096" unicode="&#x44e;" horiz-adv-x="817" 
d="M40 0h117v228h80q-2 -63 16 -107t47 -70q22 -20 48.5 -31.5t54 -17t55.5 -7t54 -1.5q24 0 52.5 1.5t57.5 7t55.5 17t47.5 31.5q32 31 49 87.5t17 131.5q0 82 -19 133.5t-47 77.5q-21 19 -47.5 30.5t-55 16.5t-57.5 6.5t-53 1.5q-26 0 -54 -1.5t-55.5 -6.5t-54 -16.5
t-48.5 -30.5q-33 -29 -47 -69.5t-16 -93.5h-80v212h-117v-530zM355 259q0 35 3 59.5t7 41.5t9 27t10 16q12 16 29 24.5t34.5 12.5t34.5 5t30 1t30 -1t35 -5t35 -12.5t29 -24.5q3 -4 8 -13t9.5 -24.5t8 -40t3.5 -58.5q0 -35 -3.5 -59t-8 -40t-9.5 -25t-9 -14
q-12 -16 -28.5 -25t-33.5 -13.5t-34.5 -5.5t-31.5 -1q-15 0 -32 1t-34 5.5t-33 13.5t-28 25q-20 26 -25 62.5t-5 67.5z" />
    <glyph glyph-name="afii10097" unicode="&#x44f;" horiz-adv-x="568" 
d="M20 0h137l165 188q8 9 14 21.5t6 32.5q0 16 -6 25t-14.5 13.5t-17 5.5t-13.5 1h-71q-15 0 -28 2.5t-23 16.5q-5 8 -8 21t-3 39q0 14 2 29.5t11 26.5q7 8 19 13t26 5h153q8 0 18 -1t16 -7t7 -18t1 -15v-399h117v433q0 13 -3.5 37t-21.5 41q-15 14 -34 16.5t-32 2.5h-270
q-33 0 -55 -10t-36 -24q-26 -26 -32.5 -60.5t-6.5 -63.5q0 -27 5 -63t25 -63q11 -15 33.5 -30t62.5 -15h28q3 0 6.5 -0.5t3.5 -5.5t-7 -12z" />
    <glyph glyph-name="afii10071" unicode="&#x451;" horiz-adv-x="563" 
d="M334 609h108v98h-108v-98zM227 609v98h-109v-98h109zM520 0v90h-259q-16 0 -32.5 2t-31.5 8.5t-26 19t-17 33.5q-3 12 -5 34t-2 39h308q16 0 30.5 4t26.5 16q17 17 21 38.5t4 41.5q0 25 -3 49.5t-11.5 47t-23 41.5t-37.5 34q-37 23 -82.5 28.5t-92.5 5.5q-19 0 -44 -1
t-52 -5.5t-53.5 -14.5t-48.5 -29t-34.5 -42t-19 -50.5t-8 -60t-1.5 -69.5q0 -53 6 -104t32 -89q16 -23 36 -36.5t41 -20.5t43 -8.5t42 -1.5h294zM147 316q1 26 3.5 48.5t20.5 42.5q12 13 26.5 20.5t29.5 10.5t29 3.5t26 0.5q25 0 51.5 -3.5t48.5 -20.5q13 -10 23.5 -28
t10.5 -43q0 -11 -4.5 -21t-21.5 -10h-243z" />
    <glyph glyph-name="afii10099" unicode="&#x452;" horiz-adv-x="600" 
d="M78 0h117v442h137q21 0 43.5 -5t41.5 -27q17 -20 21.5 -44t4.5 -39v-173q0 -26 -2.5 -51.5t-9.5 -52.5q-5 -17 -13 -41.5t-24 -54.5q-8 -15 -17.5 -31t-20.5 -32.5t-22 -32t-21 -28.5h130q23 29 36.5 51.5t24.5 45.5q9 17 15 30.5t10.5 26t8.5 26t8 31.5q7 28 10.5 52
t3.5 56v184q0 22 -1.5 43.5t-7.5 42t-18 39t-33 35.5q-25 20 -55 28.5t-77 8.5h-173v60h155v66h-155v44h-117v-44h-78v-66h78v-590z" />
    <glyph glyph-name="afii10100" unicode="&#x453;" horiz-adv-x="463" 
d="M157 0v398q0 10 0.5 17.5t7.5 14.5q4 4 10 7t14 3h294v90h-369q-17 0 -34 -4.5t-29 -23.5q-8 -13 -9.5 -28t-1.5 -31v-443h117zM336 767l-161 -133l59 -74l162 132z" />
    <glyph glyph-name="afii10101" unicode="&#x454;" horiz-adv-x="523" 
d="M497 0v90h-228q-49 0 -71.5 15t-33.5 36q-10 19 -15.5 43t-3.5 50h338v84h-337q0 20 5 42.5t16 39.5t33 30.5t66 13.5h224v86h-261q-14 0 -33 -2t-39.5 -8t-41 -17.5t-37.5 -31.5t-27.5 -44.5t-16 -50.5t-7 -52t-1.5 -47q0 -50 5 -85.5t12.5 -60t15.5 -40t15 -24.5
q19 -25 42 -38.5t48 -20t49 -7.5t45 -1h239z" />
    <glyph glyph-name="afii10102" unicode="&#x455;" horiz-adv-x="528" 
d="M33 0h339q20 0 42.5 3.5t42.5 18.5q16 12 25 27t13.5 31t5.5 30.5t1 24.5q0 22 -5.5 48t-27.5 49q-20 21 -52 33.5t-80 26.5l-114 32q-5 1 -14 4t-18.5 6.5t-18.5 7.5t-15 9q-12 10 -14.5 20t-2.5 21t2 20.5t13 17.5q10 8 20.5 9t20.5 1h281v90h-299q-17 0 -34.5 -1
t-34 -5.5t-31.5 -14t-27 -25.5q-16 -22 -20.5 -46t-4.5 -44t4.5 -44t20.5 -46t45 -37.5t71 -26.5l102 -28q28 -8 45 -13t27.5 -9t15.5 -6.5t8 -5.5q10 -9 12.5 -19t2.5 -21q0 -6 -1 -15.5t-9 -17.5q-8 -10 -19 -12.5t-20 -2.5h-298v-90z" />
    <glyph glyph-name="afii10103" unicode="&#x456;" horiz-adv-x="197" 
d="M40 0h117v530h-117v-530zM157 607v93h-117v-93h117z" />
    <glyph glyph-name="afii10104" unicode="&#x457;" horiz-adv-x="253" 
d="M68 0h117v530h-117v-530zM173 600h100v108h-100v-108zM80 600v108h-100v-108h100z" />
    <glyph glyph-name="afii10105" unicode="&#x458;" horiz-adv-x="275" 
d="M-40 -178q75 -3 125 6.5t82 32.5q9 7 20.5 18.5t22 29.5t18 43.5t7.5 60.5v517h-117v-493q0 -43 -10.5 -65.5t-30.5 -36.5q-20 -15 -44.5 -19.5t-72.5 -3.5v-90zM235 607v93h-117v-93h117z" />
    <glyph glyph-name="afii10106" unicode="&#x459;" horiz-adv-x="907" 
d="M-10 0h130l238 433q8 14 18 14q4 0 9.5 -4.5t5.5 -20.5v-341q0 -4 0.5 -11.5t2.5 -16.5t5.5 -18t10.5 -16q14 -14 31.5 -16.5t28.5 -2.5h274q26 0 50 3t47 25q14 13 22 30.5t12 35.5t5 35.5t1 32.5q0 29 -6 64t-33 61q-22 21 -47.5 26t-42.5 5h-244v140q0 40 -26.5 59
t-94.5 19q-29 0 -48 -5t-31.5 -13t-20 -17t-12.5 -17zM508 234h190q14 0 27 -4t21 -12q10 -11 12 -27t2 -27t-2 -28t-13 -29t-24.5 -14.5t-22.5 -2.5h-157q-5 0 -13.5 1t-13.5 7q-2 2 -4 8.5t-2 20.5v107z" />
    <glyph glyph-name="afii10107" unicode="&#x45a;" horiz-adv-x="926" 
d="M763 0q24 0 49 3t48 25q14 13 22 30.5t12 35.5t5 35t1 30q0 30 -6 65t-33 62q-14 14 -35.5 24t-54.5 10h-244v210h-117v-210h-253v210h-117v-530h117v230h253v-149q0 -4 0.5 -11.5t2.5 -16.5t5.5 -18t10.5 -16q14 -14 31.5 -16.5t28.5 -2.5h274zM527 230h189q13 0 26 -2
t23 -12q10 -11 12 -24.5t2 -27.5q0 -15 -2 -30.5t-13 -26.5q-11 -12 -24 -14.5t-24 -2.5h-157q-4 0 -12.5 1t-13.5 7q-2 2 -4 8.5t-2 20.5v103z" />
    <glyph glyph-name="afii10108" unicode="&#x45b;" horiz-adv-x="600" 
d="M78 0h117v442h137q19 0 41.5 -4.5t42.5 -26.5q19 -22 23 -48.5t4 -44.5v-318h117v349q0 31 -6 55t-14.5 41t-18.5 28.5t-19 18.5q-29 23 -64.5 30.5t-83.5 7.5h-159v60h155v66h-155v44h-117v-44h-78v-66h78v-590z" />
    <glyph glyph-name="afii10109" unicode="&#x45c;" horiz-adv-x="514" 
d="M544 0l-226 236q-6 6 -12.5 17.5t-6.5 19.5q0 13 9 24.5t16 18.5l201 214h-139l-169 -188q-11 -13 -24 -31t-13 -38t10.5 -36t19.5 -26l193 -211h141zM157 0v530h-117v-530h117zM339 768l-161 -133l59 -74l162 132z" />
    <glyph glyph-name="afii10110" unicode="&#x45e;" horiz-adv-x="570" 
d="M580 528h-119l-178 -400l-169 402h-124l236 -528l-81 -172h119zM284 626q-20 0 -36 4.5t-32 19.5q-11 11 -17 22.5t-8 20.5h-91q7 -28 22 -55.5t35 -45.5q29 -26 63.5 -32.5t63.5 -6.5q28 0 63 6.5t65 32.5q20 17 35 45t22 56h-91q-2 -9 -8 -20.5t-17 -22.5
q-15 -15 -32 -19.5t-37 -4.5z" />
    <glyph glyph-name="afii10193" unicode="&#x45f;" horiz-adv-x="567" 
d="M224 -176h120v176h110q17 0 30.5 2.5t26.5 16.5q11 12 13.5 25.5t2.5 25.5v460h-117v-413q0 -7 -0.5 -14t-4.5 -11t-9 -4.5t-10 -0.5h-204q-5 0 -10.5 0.5t-9.5 4.5t-4.5 11t-0.5 14v413h-117v-460q0 -11 2.5 -25t13.5 -26q13 -14 27.5 -16.5t30.5 -2.5h110v-176z" />
    <glyph glyph-name="afii10050" unicode="&#x490;" horiz-adv-x="610" 
d="M70 0h132v552q0 26 5 35q5 8 10.5 8.5t12.5 0.5h326q11 0 29 3t31 19q10 12 12 27.5t2 20.5v159h-132v-86q0 -10 -1 -18t-5 -13q-6 -7 -13.5 -7.5t-16.5 -0.5h-297q-20 0 -38.5 -4t-33.5 -21q-12 -14 -17.5 -33t-5.5 -39v-603z" />
    <glyph glyph-name="afii10098" unicode="&#x491;" horiz-adv-x="458" 
d="M40 0h117v413q0 5 0.5 14t3.5 12t11.5 4.5t13.5 1.5h218q14 0 30.5 2.5t27.5 13.5t13.5 26t2.5 27v144h-114v-100v-10q0 -4 -6 -10q-6 -5 -11.5 -6.5t-13.5 -1.5h-224q-12 0 -25 -2.5t-27 -16.5t-15.5 -27.5t-1.5 -27.5v-456z" />
    <glyph glyph-name="cyrAcyrbreve" unicode="&#x4d0;" horiz-adv-x="698" 
d="M-30 0h139l71 177h337l72 -177h139l-264 629q-19 44 -44.5 61.5t-70.5 17.5q-47 0 -71.5 -17.5t-43.5 -61.5zM329 556q3 8 8 18.5t12 10.5t12 -10.5t8 -18.5l114 -285h-269zM350 802q-20 0 -36 4.5t-32 19.5q-11 11 -17 22.5t-8 20.5h-91q7 -28 22 -55.5t35 -45.5
q29 -26 63.5 -32.5t63.5 -6.5q28 0 63 6.5t65 32.5q20 17 35 45t22 56h-91q-2 -9 -8 -20.5t-17 -22.5q-15 -15 -32 -19.5t-37 -4.5z" />
    <glyph glyph-name="cyracyrbreve" unicode="&#x4d1;" horiz-adv-x="555" 
d="M65 530v-90h261q14 0 29.5 -4t27.5 -19q10 -12 12.5 -25t2.5 -25v-37h-230q-21 0 -46.5 -4.5t-50.5 -26.5q-30 -26 -37.5 -60t-7.5 -69q0 -15 1 -34t5.5 -39t14 -38.5t25.5 -32.5q23 -20 48.5 -23t47.5 -3h253q19 0 39 3.5t34 17.5t17.5 34t3.5 34v275q0 45 -11 76.5
t-28 48.5q-18 19 -47 30t-63 11h-301zM398 240v-122q0 -6 -1 -11.5t-7 -10.5t-13.5 -5.5t-12.5 -0.5h-163q-11 0 -21.5 5t-16.5 11q-11 11 -13.5 29t-2.5 30q0 29 5 41t8 16q10 13 23.5 15.5t19.5 2.5h195zM272 626q-20 0 -36 4.5t-32 19.5q-11 11 -17 22.5t-8 20.5h-91
q7 -28 22 -55.5t35 -45.5q29 -26 63.5 -32.5t63.5 -6.5q28 0 63 6.5t65 32.5q20 17 35 45t22 56h-91q-2 -9 -8 -20.5t-17 -22.5q-15 -15 -32 -19.5t-37 -4.5z" />
    <glyph glyph-name="cyrAdieresis" unicode="&#x4d2;" horiz-adv-x="698" 
d="M-30 0h139l71 177h337l72 -177h139l-264 629q-19 44 -44.5 61.5t-70.5 17.5q-47 0 -71.5 -17.5t-43.5 -61.5zM329 556q3 8 8 18.5t12 10.5t12 -10.5t8 -18.5l114 -285h-269zM520 760v110h-120v-110h120zM298 760v110h-120v-110h120z" />
    <glyph glyph-name="cyradieresis" unicode="&#x4d3;" horiz-adv-x="555" 
d="M65 530v-90h261q14 0 29.5 -4t27.5 -19q10 -12 12.5 -25t2.5 -25v-37h-230q-21 0 -46.5 -4.5t-50.5 -26.5q-30 -26 -37.5 -60t-7.5 -69q0 -15 1 -34t5.5 -39t14 -38.5t25.5 -32.5q23 -20 48.5 -23t47.5 -3h253q19 0 39 3.5t34 17.5t17.5 34t3.5 34v275q0 45 -11 76.5
t-28 48.5q-18 19 -47 30t-63 11h-301zM398 240v-122q0 -6 -1 -11.5t-7 -10.5t-13.5 -5.5t-12.5 -0.5h-163q-11 0 -21.5 5t-16.5 11q-11 11 -13.5 29t-2.5 30q0 29 5 41t8 16q10 13 23.5 15.5t19.5 2.5h195zM332 600h108v108h-108v-108zM224 600v108h-108v-108h108z" />
    <glyph glyph-name="cyrAE" unicode="&#x4d4;" horiz-adv-x="1092" 
d="M-20 0h148l101 176h254v-75q0 -16 3.5 -36.5t20.5 -38.5q19 -19 42.5 -22.5t44.5 -3.5h458v105h-383q-12 0 -24 0.5t-20 7.5q-5 5 -7.5 13.5t-2.5 14.5v167h424v96h-424v147q0 8 1.5 17.5t9.5 17.5t17 8.5t18 0.5h387v105h-567q-31 0 -59.5 -9t-50.5 -45zM455 566
q8 14 13 20.5t15 8.5v-320h-197z" />
    <glyph glyph-name="cyrae" unicode="&#x4d5;" horiz-adv-x="988" 
d="M78 530v-85h261q8 0 26.5 -3t31.5 -20q6 -8 11 -23t5 -27v-47h-231q-18 0 -46 -4t-51 -22q-15 -12 -24 -28t-13.5 -33t-6 -34.5t-1.5 -33.5q0 -14 1 -33t5.5 -39.5t13.5 -39.5t25 -32q23 -20 50 -23t47 -3h216q16 0 33.5 2t30.5 12q15 12 20 34q29 -31 61 -39.5t71 -8.5
h298v90h-258q-26 0 -44 5.5t-30 14.5t-19.5 20t-11.5 22q-5 15 -8 36.5t-1 41.5h308q13 0 27 2.5t27 13.5q19 16 22.5 40t3.5 40q0 18 -2 41.5t-9.5 47.5t-22 46t-38.5 38q-20 14 -59 23.5t-114 9.5q-43 0 -74.5 -4t-55 -12t-40.5 -20t-30 -27q-3 6 -9.5 16t-20.5 20
t-36 17.5t-56 7.5h-283zM412 242v-124q0 -5 -1 -11t-7 -11q-5 -5 -13 -5.5t-13 -0.5h-163q-11 0 -23.5 5t-17.5 11q-8 9 -11.5 26.5t-3.5 34.5q0 14 2.5 30.5t10.5 26.5q5 6 16 12t29 6h195zM540 312q1 28 3.5 50.5t19.5 43.5q12 15 26 23t28.5 11.5t29 4t28.5 0.5
q29 0 52 -4t46 -23q17 -14 26.5 -31.5t9.5 -43.5q0 -12 -4.5 -21.5t-21.5 -9.5h-243z" />
    <glyph glyph-name="cyrIecyrbreve" unicode="&#x4d6;" horiz-adv-x="651" 
d="M621 0v105h-374q-16 0 -27.5 1.5t-17.5 7.5q-10 8 -10 27v164h415v105h-415v141q0 8 1.5 17t9.5 17q8 7 17.5 8.5t18.5 1.5h378v105h-449q-20 0 -43.5 -4t-40.5 -23q-11 -13 -17.5 -32.5t-6.5 -40.5v-496q0 -20 4 -42.5t22 -39.5q17 -17 37 -19.5t43 -2.5h455zM350 802
q-20 0 -36 4.5t-32 19.5q-11 11 -17 22.5t-8 20.5h-91q7 -28 22 -55.5t35 -45.5q29 -26 63.5 -32.5t63.5 -6.5q28 0 63 6.5t65 32.5q20 17 35 45t22 56h-91q-2 -9 -8 -20.5t-17 -22.5q-15 -15 -32 -19.5t-37 -4.5z" />
    <glyph glyph-name="cyriecyrbreve" unicode="&#x4d7;" horiz-adv-x="563" 
d="M520 0v90h-259q-16 0 -32.5 2t-31.5 8.5t-26 19t-17 33.5q-3 12 -5 34t-2 39h308q16 0 30.5 4t26.5 16q17 17 21 38.5t4 41.5q0 25 -3 49.5t-11.5 47t-23 41.5t-37.5 34q-37 23 -82.5 28.5t-92.5 5.5q-19 0 -44 -1t-52 -5.5t-53.5 -14.5t-48.5 -29t-34.5 -42t-19 -50.5
t-8 -60t-1.5 -69.5q0 -53 6 -104t32 -89q16 -23 36 -36.5t41 -20.5t43 -8.5t42 -1.5h294zM147 316q1 26 3.5 48.5t20.5 42.5q12 13 26.5 20.5t29.5 10.5t29 3.5t26 0.5q25 0 51.5 -3.5t48.5 -20.5q13 -10 23.5 -28t10.5 -43q0 -11 -4.5 -21t-21.5 -10h-243zM294 626
q-20 0 -36 4.5t-32 19.5q-11 11 -17 22.5t-8 20.5h-91q7 -28 22 -55.5t35 -45.5q29 -26 63.5 -32.5t63.5 -6.5q28 0 63 6.5t65 32.5q20 17 35 45t22 56h-91q-2 -9 -8 -20.5t-17 -22.5q-15 -15 -32 -19.5t-37 -4.5z" />
    <glyph glyph-name="cyrZhedieresis" unicode="&#x4dc;" horiz-adv-x="1068" 
d="M-20 0h168l238 267q32 36 39 60.5t7 32.5q0 25 -12.5 46t-23.5 34l-220 260h-160l257 -287q11 -11 20 -23.5t9 -28.5q0 -19 -13 -37t-24 -29zM1088 0l-285 295q-11 11 -24 29t-13 37q0 16 9 28.5t20 23.5l257 287h-160l-220 -260q-11 -14 -23.5 -34.5t-12.5 -45.5
q0 -29 16 -53t30 -40l238 -267h168zM468 0h132v700h-132v-700zM705 760v110h-120v-110h120zM483 760v110h-120v-110h120z" />
    <glyph glyph-name="cyrzhedieresis" unicode="&#x4dd;" horiz-adv-x="805" 
d="M459 0v530h-113v-530h113zM825 0l-200 233q-6 7 -14 20t-8 21q0 4 3.5 13t18.5 26l181 217h-136l-150 -188q-14 -17 -25.5 -36t-11.5 -36q0 -18 10.5 -33.5t20.5 -26.5l173 -210h138zM-20 0h138l173 210q10 11 20.5 26.5t10.5 33.5q0 17 -11.5 36t-25.5 36l-151 188h-136
l182 -217q6 -7 14 -19.5t8 -19.5q0 -8 -8.5 -21t-13.5 -20zM456 600h108v108h-108v-108zM348 600v108h-108v-108h108z" />
    <glyph glyph-name="cyrZedieresis" unicode="&#x4de;" horiz-adv-x="665" 
d="M50 0h362q36 0 78 4.5t72 23.5q22 14 34.5 33.5t19 41t8 43.5t1.5 41q0 43 -5 70t-15 44q-14 24 -38.5 37t-53.5 15v4q34 8 59 31q28 26 34 57.5t6 65.5q0 39 -7 77.5t-36 68.5q-17 16 -35.5 25t-37.5 13t-38 4.5t-36 0.5h-368v-105h338q16 0 32 -2t29 -13
q18 -15 20.5 -37t2.5 -42q0 -16 -2 -37.5t-15 -35.5q-11 -12 -34.5 -17t-57.5 -5h-303v-105h320q42 0 58.5 -7.5t21.5 -11.5q18 -16 21.5 -39t3.5 -40q0 -11 -1 -23t-4 -23.5t-10 -21.5t-19 -17q-8 -5 -20 -7.5t-24.5 -3.5t-23.5 -1.5t-15 -0.5h-322v-105zM484 760v110h-120
v-110h120zM262 760v110h-120v-110h120z" />
    <glyph glyph-name="cyrzedieresis" unicode="&#x4df;" horiz-adv-x="530" 
d="M40 0h313q26 0 54 4.5t52 26.5q15 14 28 42t13 75q0 37 -8 59t-19 34q-9 11 -23.5 20t-36.5 11v3q21 2 36 11t24 20t16.5 32t7.5 57q0 24 -6.5 52.5t-28.5 49.5q-23 23 -52 28t-58 5h-302v-90h258q7 0 22.5 -2t27.5 -12q7 -6 12.5 -17t5.5 -30t-5.5 -30t-11.5 -17
q-11 -11 -22.5 -12.5t-25.5 -1.5h-256v-90h252q9 0 23.5 -2t26.5 -11q15 -11 18.5 -25t3.5 -28q0 -23 -5.5 -36.5t-12.5 -20.5q-11 -11 -25.5 -13t-29.5 -2h-266v-90zM319 600h108v108h-108v-108zM211 600v108h-108v-108h108z" />
    <glyph glyph-name="cyrImacron" unicode="&#x4e2;" horiz-adv-x="786" 
d="M726 0v582q0 13 -2 34.5t-12 41.5t-32 35t-61 15q-36 0 -62.5 -16t-54.5 -62l-282 -462q-5 -8 -9 -15t-10 -7q-10 0 -11 10t-1 22l4 522h-133v-588q0 -15 2 -35.5t11.5 -39.5t30.5 -32t59 -13q27 0 45 6t30 15.5t20.5 21t15.5 23.5l288 465q8 12 14 22t12 10
q7 0 8.5 -7.5t1.5 -15.5l-5 -532h133zM558 750v84h-340v-84h340z" />
    <glyph glyph-name="cyrimacron" unicode="&#x4e3;" horiz-adv-x="599" 
d="M559 0v455q0 30 -10 46t-22.5 24t-25.5 9.5t-19 1.5q-18 0 -37 -6.5t-35 -29.5l-236 -347q-3 -5 -6 -9.5t-8 -4.5q-6 0 -7 3.5t-1 10.5l5 377h-117v-461q0 -11 2.5 -24t10.5 -24t23 -19t41 -8q30 0 46 10.5t30 31.5l233 341q6 9 9 11.5t5 2.5q6 0 6 -4v-10l-4 -377h117z
M469 600v84h-340v-84h340z" />
    <glyph glyph-name="cyrIdieresis" unicode="&#x4e4;" horiz-adv-x="786" 
d="M726 0v582q0 13 -2 34.5t-12 41.5t-32 35t-61 15q-36 0 -62.5 -16t-54.5 -62l-282 -462q-5 -8 -9 -15t-10 -7q-10 0 -11 10t-1 22l4 522h-133v-588q0 -15 2 -35.5t11.5 -39.5t30.5 -32t59 -13q27 0 45 6t30 15.5t20.5 21t15.5 23.5l288 465q8 12 14 22t12 10
q7 0 8.5 -7.5t1.5 -15.5l-5 -532h133zM541 760v110h-120v-110h120zM319 760v110h-120v-110h120z" />
    <glyph glyph-name="cyridieresis" unicode="&#x4e5;" horiz-adv-x="599" 
d="M559 0v455q0 30 -10 46t-22.5 24t-25.5 9.5t-19 1.5q-18 0 -37 -6.5t-35 -29.5l-236 -347q-3 -5 -6 -9.5t-8 -4.5q-6 0 -7 3.5t-1 10.5l5 377h-117v-461q0 -11 2.5 -24t10.5 -24t23 -19t41 -8q30 0 46 10.5t30 31.5l233 341q6 9 9 11.5t5 2.5q6 0 6 -4v-10l-4 -377h117z
M353 600h108v108h-108v-108zM245 600v108h-108v-108h108z" />
    <glyph glyph-name="cyrOdieresis" unicode="&#x4e6;" horiz-adv-x="799" 
d="M400 708q-32 0 -68.5 -1t-73.5 -8t-72.5 -22t-64.5 -43q-29 -27 -45 -61.5t-24 -72t-10 -76t-2 -74.5q0 -30 1.5 -67t9 -75.5t24 -75.5t46.5 -66q29 -28 64.5 -43t73 -22t74 -8t67.5 -1q30 0 67 1t74.5 8t73 22t64.5 43q27 26 43 61t24 73t10.5 76.5t2.5 73.5q0 34 -2 73
t-10.5 77t-24.5 73t-43 61q-29 28 -64.5 43t-73 22t-74 8t-67.5 1zM176 350q0 81 11.5 125.5t31.5 70.5q31 38 78 47.5t102 9.5q54 0 102 -9.5t79 -47.5q8 -10 16 -25t14 -38t9.5 -55.5t3.5 -77.5q0 -42 -3.5 -74t-9.5 -55t-13.5 -39t-16.5 -27q-16 -20 -36 -31.5
t-43.5 -17.5t-49 -7.5t-52.5 -1.5t-53 1.5t-49 7.5t-43 17.5t-35 31.5q-9 11 -16.5 26.5t-13.5 39t-9.5 55t-3.5 74.5zM570 760v110h-120v-110h120zM348 760v110h-120v-110h120z" />
    <glyph glyph-name="cyrodieresis" unicode="&#x4e7;" horiz-adv-x="616" 
d="M308 536q-24 0 -52 -1t-57 -6.5t-56 -17t-49 -31.5q-23 -21 -36.5 -49.5t-20.5 -58t-9 -58.5t-2 -51q0 -20 2 -47.5t8.5 -57t20 -57.5t37.5 -50q22 -20 49 -31.5t56 -17t57 -7t52 -1.5q23 0 51 1.5t57.5 7t57 17t48.5 31.5q29 28 48.5 79.5t19.5 136.5q0 21 -2 49t-9 57
t-20.5 57.5t-36.5 49.5q-22 20 -49 31.5t-56 17t-57 6.5t-52 1zM147 264q0 13 0.5 31t3.5 37.5t10 38.5t19 33t28.5 22.5t33.5 13t34.5 5.5t31.5 1q16 0 33 -1t33.5 -5.5t32 -13t28.5 -22.5q14 -15 21 -33.5t10 -37.5t3 -37v-32q0 -35 -4.5 -71t-30.5 -65t-59.5 -36.5
t-66.5 -7.5q-32 0 -66.5 7.5t-60.5 36.5q-25 29 -29.5 66t-4.5 70zM363 600h108v108h-108v-108zM255 600v108h-108v-108h108z" />
    <glyph glyph-name="cyrUmacron" unicode="&#x4ee;" horiz-adv-x="684" 
d="M337 0l367 700h-144l-213 -424l-221 424h-146l299 -545l-85 -155h143zM512 750v84h-340v-84h340z" />
    <glyph glyph-name="cyrumacron" unicode="&#x4ef;" horiz-adv-x="542" 
d="M566 528h-119l-180 -405l-170 407h-121l236 -528l-81 -173h119zM452 600v84h-340v-84h340z" />
    <glyph glyph-name="cyrUdieresis" unicode="&#x4f0;" horiz-adv-x="684" 
d="M337 0l367 700h-144l-213 -424l-221 424h-146l299 -545l-85 -155h143zM513 760v110h-120v-110h120zM291 760v110h-120v-110h120z" />
    <glyph glyph-name="cyrudieresis" unicode="&#x4f1;" horiz-adv-x="542" 
d="M566 528h-119l-180 -405l-170 407h-121l236 -528l-81 -173h119zM341 600h108v108h-108v-108zM233 600v108h-108v-108h108z" />
    <glyph glyph-name="cyrUdblacute" unicode="&#x4f2;" horiz-adv-x="684" 
d="M337 0l367 700h-144l-213 -424l-221 424h-146l299 -545l-85 -155h143zM295 953l-148 -147l67 -66l148 147zM507 953l-147 -147l66 -66l148 147z" />
    <glyph glyph-name="cyrudblacute" unicode="&#x4f3;" horiz-adv-x="542" 
d="M566 528h-119l-180 -405l-170 407h-121l236 -528l-81 -173h119zM260 773l-148 -147l63 -62l148 147zM472 773l-147 -147l62 -62l148 147z" />
    <glyph glyph-name="cyrChedieresis" unicode="&#x4f4;" horiz-adv-x="716" 
d="M656 0v700h-132v-297h-249q-15 0 -38 3.5t-37 17.5t-16 33t-2 39v204h-132v-228q0 -35 5.5 -62t22.5 -51q15 -22 34 -34t37 -18t32.5 -7.5t21.5 -1.5h321v-298h132zM529 760v110h-120v-110h120zM307 760v110h-120v-110h120z" />
    <glyph glyph-name="cyrchedieresis" unicode="&#x4f5;" horiz-adv-x="555" 
d="M515 0v530h-117v-218h-177q-16 0 -34 4t-30 22q-8 13 -9 29t-1 30v133h-117v-158q0 -24 4 -53.5t21 -52.5q11 -15 25 -23.5t28.5 -13t29 -6t26.5 -1.5h234v-222h117zM331 600h108v108h-108v-108zM223 600v108h-108v-108h108z" />
    <glyph glyph-name="cyrYerudieresis" unicode="&#x4f8;" horiz-adv-x="955" 
d="M895 0v700h-132v-700h132zM60 700v-594q0 -20 4 -40.5t18 -37.5q6 -7 21 -17.5t42 -10.5h372q32 0 55.5 7t40.5 16.5t27 20t15 17.5q2 3 7 12t10.5 26.5t10 44t4.5 63.5t-6 75t-20 64q-13 24 -31.5 37t-38 20t-37.5 8.5t-30 1.5h-332v287h-132zM192 308h264q18 0 35.5 -1
t31.5 -12q20 -15 24 -38t4 -46q0 -22 -3 -46.5t-22 -40.5q-8 -7 -20 -11t-23 -5.5t-20.5 -2t-13.5 -0.5h-213q-11 0 -21.5 1.5t-16.5 9.5q-5 6 -5.5 16.5t-0.5 15.5v160zM648 760v110h-120v-110h120zM426 760v110h-120v-110h120z" />
    <glyph glyph-name="cyryerudieresis" unicode="&#x4f9;" horiz-adv-x="750" 
d="M40 530v-449q0 -16 2.5 -32t17.5 -30q14 -14 29.5 -16.5t29.5 -2.5h269q25 0 52 4t50 24q14 13 22 30t12 35t5 35.5t1 30.5q0 32 -5.5 67t-29.5 63q-22 25 -48 32.5t-51 7.5h-239v201h-117zM593 0h117v530h-117v-530zM157 239h190q10 0 23.5 -2.5t24.5 -14.5t12.5 -28.5
t1.5 -27.5q0 -14 -2 -31t-12 -28q-11 -12 -25 -14.5t-27 -2.5h-153q-7 0 -14 1.5t-12 6.5q-6 6 -6.5 14.5t-0.5 14.5v112zM429 600h108v108h-108v-108zM321 600v108h-108v-108h108z" />
    <glyph glyph-name="endash" unicode="&#x2013;" horiz-adv-x="572" 
d="M40 218h492v103h-492v-103z" />
    <glyph glyph-name="emdash" unicode="&#x2014;" horiz-adv-x="1087" 
d="M60 218h967v103h-967v-103z" />
    <glyph glyph-name="quoteleft" unicode="&#x2018;" horiz-adv-x="291" 
d="M281 542l-134 196l-87 -53l126 -201z" />
    <glyph glyph-name="quoteright" unicode="&#x2019;" horiz-adv-x="261" 
d="M87 484l134 196l-95 58l-126 -201z" />
    <glyph glyph-name="quotesinglbase" unicode="&#x201a;" horiz-adv-x="281" 
d="M87 -116l134 196l-94 58l-127 -201z" />
    <glyph glyph-name="quotedblleft" unicode="&#x201c;" horiz-adv-x="495" 
d="M97 738l-87 -53l126 -201l94 58zM301 738l-87 -53l127 -201l94 58z" />
    <glyph glyph-name="quotedblright" unicode="&#x201d;" horiz-adv-x="495" 
d="M10 537l87 -53l134 196l-94 58zM215 537l86 -53l134 196l-94 58z" />
    <glyph glyph-name="quotedblbase" unicode="&#x201e;" horiz-adv-x="485" 
d="M0 -63l87 -53l133 196l-94 58zM204 -63l87 -53l134 196l-94 58z" />
    <glyph glyph-name="dagger" unicode="&#x2020;" horiz-adv-x="493" 
d="M292 -170v586h161v85h-161v199h-91v-199h-161v-85h161v-586h91z" />
    <glyph glyph-name="daggerdbl" unicode="&#x2021;" horiz-adv-x="493" 
d="M201 -170h91v193h161v85h-161v309h161v85h-161v198h-91v-198h-161v-85h161v-309h-161v-85h161v-193z" />
    <glyph glyph-name="bullet" unicode="&#x2022;" horiz-adv-x="493" 
d="M60 349q0 -38 14.5 -72t40 -59.5t59.5 -40.5t73 -15q38 0 72 15t59.5 40.5t40 59.5t14.5 72q0 39 -14.5 72.5t-40 59t-59.5 40t-72 14.5q-39 0 -73 -14.5t-59.5 -40t-40 -59.5t-14.5 -72z" />
    <glyph glyph-name="ellipsis" unicode="&#x2026;" horiz-adv-x="664" 
d="M182 0v129h-122v-129h122zM393 0v129h-122v-129h122zM604 0v129h-122v-129h122z" />
    <glyph glyph-name="perthousand" unicode="&#x2030;" horiz-adv-x="1174" 
d="M188 0h88l357 700h-88zM215 706q-28 0 -60 -5.5t-56 -28.5q-14 -13 -21.5 -30t-11.5 -35t-5 -36t-1 -33q0 -17 1 -35t5 -35.5t11.5 -34t21.5 -29.5q24 -23 56 -28.5t60 -5.5q27 0 59 5.5t56 28.5q13 13 21 29.5t12 34.5t5.5 36t1.5 34q0 15 -1.5 33.5t-5.5 36.5t-12 34.5
t-21 29.5q-24 23 -56 28.5t-59 5.5zM142 538q0 33 4.5 51.5t12.5 28.5q11 14 26.5 17.5t29.5 3.5q13 0 28 -3.5t27 -17.5q14 -16 16 -39.5t2 -40.5t-2 -40.5t-16 -39.5q-12 -14 -27 -17.5t-28 -3.5q-14 0 -29.5 3.5t-26.5 17.5q-8 10 -12.5 28.5t-4.5 51.5zM602 330
q-28 0 -60 -5.5t-56 -28.5q-14 -13 -21.5 -30t-11.5 -35t-5 -36t-1 -33q0 -17 1 -35t5 -35.5t11.5 -34t21.5 -29.5q24 -23 56 -28.5t60 -5.5q27 0 59 5.5t56 28.5q13 13 21 29.5t12 34.5t5.5 36t1.5 34q0 15 -1.5 33.5t-5.5 36.5t-12 34.5t-21 29.5q-24 23 -56 28.5t-59 5.5
zM529 162q0 33 4.5 51.5t12.5 28.5q11 14 26.5 17.5t29.5 3.5q13 0 28 -3.5t27 -17.5q14 -16 16 -39.5t2 -40.5t-2 -40.5t-16 -39.5q-12 -14 -27 -17.5t-28 -3.5q-14 0 -29.5 3.5t-26.5 17.5q-8 10 -12.5 28.5t-4.5 51.5zM959 330q-28 0 -60 -5.5t-56 -28.5
q-14 -13 -21.5 -30t-11.5 -35t-5 -36t-1 -33q0 -17 1 -35t5 -35.5t11.5 -34t21.5 -29.5q24 -23 56 -28.5t60 -5.5q27 0 59 5.5t56 28.5q13 13 21 29.5t12 34.5t5.5 36t1.5 34q0 15 -1.5 33.5t-5.5 36.5t-12 34.5t-21 29.5q-24 23 -56 28.5t-59 5.5zM886 162q0 33 4.5 51.5
t12.5 28.5q11 14 26.5 17.5t29.5 3.5q13 0 28 -3.5t27 -17.5q14 -16 16 -39.5t2 -40.5t-2 -40.5t-16 -39.5q-12 -14 -27 -17.5t-28 -3.5q-14 0 -29.5 3.5t-26.5 17.5q-8 10 -12.5 28.5t-4.5 51.5z" />
    <glyph glyph-name="guilsinglleft" unicode="&#x2039;" horiz-adv-x="358" 
d="M298 473l-80 60l-137 -191q-7 -10 -14 -24.5t-7 -36.5t7 -36.5t14 -24.5l137 -190l80 59l-113 162q-5 6 -8.5 14t-3.5 16q0 10 4.5 17.5l7.5 12.5z" />
    <glyph glyph-name="guilsinglright" unicode="&#x203a;" horiz-adv-x="358" 
d="M60 473l113 -162l7.5 -12.5t4.5 -17.5q0 -8 -3.5 -16t-8.5 -14l-113 -162l80 -59l137 190q7 10 14 24.5t7 36.5t-7 36.5t-14 24.5l-137 191z" />
    <glyph glyph-name="fraction" unicode="&#x2044;" horiz-adv-x="507" 
d="M69 -166l438 906h-69l-438 -906h69z" />
    <glyph glyph-name="Euro" unicode="&#x20ac;" horiz-adv-x="702" 
d="M672 0v105h-226q-59 0 -88 6.5t-41 12.5q-24 11 -44.5 34.5t-24.5 65.5h281v89h-288v75h346v89h-338q4 38 22.5 61t39.5 34q14 7 32 12t37.5 7t38 3t33.5 1h211v105h-270q-62 0 -121 -16t-99 -62q-26 -30 -39.5 -71t-17.5 -74h-76v-89h68v-75h-68v-89h75
q5 -41 18.5 -80.5t42.5 -71.5q41 -44 97.5 -58t116.5 -14h282z" />
    <glyph glyph-name="afii61352" unicode="&#x2116;" horiz-adv-x="1068" 
d="M665 700h-120v-516q0 -4 -0.5 -10.5t-6.5 -6.5q-2 0 -5.5 3.5t-8.5 13.5l-261 469q-10 18 -23 29t-27 16.5t-28 7.5t-26 2q-36 0 -56 -12t-29.5 -27.5t-11.5 -31.5t-2 -24v-613h120v514q0 5 1 12.5t9 7.5q5 0 8 -6t5 -11l258 -466q12 -21 26 -32.5t28.5 -17.5t28.5 -7.5
t26 -1.5q8 0 24 2t31.5 12t27.5 29.5t12 55.5v609zM739 283h269v62h-269v-62zM739 513q0 -21 3.5 -46t22.5 -43q10 -9 23.5 -14t28.5 -8t29.5 -3.5t26.5 -0.5q33 0 62.5 5t46.5 21q19 18 22.5 43t3.5 46v79q0 21 -3.5 46t-22.5 43q-17 16 -46.5 21t-62.5 5q-12 0 -26.5 -0.5
t-29.5 -3.5t-28.5 -8t-23.5 -14q-19 -18 -22.5 -43t-3.5 -46v-79zM926 528q0 -11 -2 -25t-11 -23q-5 -5 -14 -8.5t-26 -3.5q-8 0 -19.5 2t-19.5 10q-9 9 -11 23t-2 25v51q0 11 2 25t11 23q8 8 19.5 10t19.5 2q10 0 21 -2t19 -10q9 -9 11 -23t2 -25v-51z" />
    <glyph glyph-name="trademark" unicode="&#x2122;" horiz-adv-x="1039" 
d="M241 298v323h152v80h-393v-80h152v-323h89zM875 597q2 4 5 8t6 4q2 0 5 -1.5t3 -9.5v-300h85v360q0 21 -17 34.5t-59 13.5q-25 0 -48.5 -8t-33.5 -34l-99 -266q-2 -3 -4.5 -8t-5.5 -5t-5.5 5t-4.5 8l-99 266q-8 20 -26 31t-56 11q-37 0 -56 -14t-19 -34v-360h85v300
q0 8 3 9.5t5 1.5q3 0 6 -4t5 -8l97 -258q12 -32 29.5 -38.5t35.5 -6.5q33 0 45 12.5t20 32.5z" />
    <glyph glyph-name="partialdiff" unicode="&#x2202;" horiz-adv-x="573" 
d="M415 530h-188q-21 0 -42.5 -2t-42.5 -8.5t-40.5 -20t-34.5 -37.5q-41 -64 -41 -205q0 -63 10.5 -112t45.5 -87q19 -21 39 -32.5t41 -17t42 -7t41 -1.5h171q23 0 45 3t41 18q20 17 25.5 38.5t5.5 38.5v372q0 51 -8.5 95t-34.5 76q-18 22 -43 34.5t-50 19t-47.5 8.5
t-36.5 2h-250v-90h223q19 0 48 -3.5t50 -20.5q12 -11 20.5 -27t10.5 -34zM416 440v-308q0 -11 -2.5 -19t-12.5 -15q-8 -5 -15.5 -6.5t-15.5 -1.5h-100q-29 0 -53 8.5t-38 24.5q-12 13 -18.5 34t-9.5 42t-3.5 39.5t-0.5 27.5q0 36 3 60.5t7.5 41t9.5 26.5t10 15q20 23 47 27
t53 4h139z" />
    <glyph glyph-name="product" unicode="&#x220f;" horiz-adv-x="743" 
d="M511 595q7 0 16 -0.5t16 -8.5q7 -7 7.5 -16t0.5 -17v-553h132v605q0 18 -4.5 36t-20.5 34q-18 18 -38 21.5t-41 3.5h-414q-24 0 -42 -3.5t-37 -21.5q-17 -17 -21.5 -34t-4.5 -36v-605h132v553q0 9 2 18.5t7 14.5q7 8 15.5 8.5t16.5 0.5h278z" />
    <glyph glyph-name="summation" unicode="&#x2211;" horiz-adv-x="622" 
d="M158 574q-8 5 -13.5 7t-5.5 5q0 7 7.5 8t9.5 1h432v105h-485q-32 0 -52.5 -22.5t-20.5 -73.5q0 -17 2 -30.5t9.5 -25.5t22 -23.5t38.5 -23.5l238 -121q5 -3 12 -6.5t7 -8.5q0 -4 -6 -7.5t-12 -7.5l-235 -137q-26 -15 -41 -27.5t-22.5 -25.5t-10 -28t-2.5 -35
q0 -9 1 -25.5t8.5 -32t23 -27.5t44.5 -12h485v105h-436q-4 0 -9.5 1t-5.5 6q0 4 6 7.5t11 6.5l245 145q18 11 30.5 19.5t20 18.5t11 22t3.5 29q0 20 -5 33.5t-14 23.5t-21 17t-27 15z" />
    <glyph glyph-name="minus" unicode="&#x2212;" horiz-adv-x="580" 
d="M520 274v85h-460v-85h460z" />
    <glyph glyph-name="radical" unicode="&#x221a;" horiz-adv-x="658" 
d="M376 827l-91 -381q-14 -58 -27 -127.5t-22 -169.5h-11v12l-5 61q0 6 -1.5 16t-3 20.5t-3 20t-2.5 14.5l-21 91h-189v-105h98l61 -279h140l174 722h185v105h-282z" />
    <glyph glyph-name="infinity" unicode="&#x221e;" horiz-adv-x="842" 
d="M424 315q38 -50 87 -74.5t100 -24.5q40 0 75 14.5t61 40.5t40.5 62t14.5 80q0 42 -14.5 78t-40 62t-60.5 40.5t-76 14.5q-52 0 -103.5 -25.5t-88.5 -74.5q-20 27 -44 46t-49.5 31t-50 17.5t-46.5 5.5q-40 0 -74.5 -14.5t-60 -41t-40 -62.5t-14.5 -78q0 -43 14.5 -79
t40 -62t61 -40.5t76.5 -14.5q60 0 110 29t82 70zM581 503q36 0 64 -24t28 -66q0 -14 -4 -30t-14.5 -30t-27.5 -23t-43 -9q-36 0 -67 25.5t-46 65.5q17 38 47 64.5t63 26.5zM259 321q-38 0 -63.5 22.5t-25.5 67.5q0 42 23.5 67t63.5 25q36 0 67.5 -25.5t46.5 -65.5
q-14 -39 -44 -65t-68 -26z" />
    <glyph glyph-name="integral" unicode="&#x222b;" horiz-adv-x="423" 
d="M270 530q0 24 6.5 44t23.5 31q16 11 43 13.5t72 2.5v86q-18 1 -45 1t-56 -4t-57 -13.5t-49 -27.5q-17 -14 -27.5 -31.5t-16.5 -36t-8.5 -36t-2.5 -30.5v-521q0 -24 -6.5 -44t-23.5 -31q-16 -11 -43 -13.5t-72 -2.5v-86q18 -1 45 -1t56 4t57 13.5t49 27.5q17 14 27.5 31.5
t16.5 36t8.5 36t2.5 30.5v521z" />
    <glyph glyph-name="approxequal" unicode="&#x2248;" horiz-adv-x="473" 
d="M91 332q5 10 13 20t16 16q15 12 35 12q16 0 30 -5.5t26 -13.5l34 -20q14 -8 32 -11.5t32 -3.5q40 0 66 19q17 11 32.5 31t25.5 39l-51 33q-3 -6 -10 -18t-12 -18q-6 -7 -16 -12.5t-25 -5.5q-20 0 -33.5 7t-23.5 12l-41 22q-10 5 -25 10.5t-35 5.5t-35.5 -5.5t-26.5 -13.5
q-16 -11 -32.5 -30t-26.5 -34zM91 186q5 10 13 20t16 16q15 12 35 12q16 0 30 -5.5t26 -13.5l34 -20q14 -8 32 -11.5t32 -3.5q40 0 66 19q17 11 32.5 31t25.5 39l-51 33q-3 -6 -10 -18t-12 -18q-6 -7 -16.5 -12.5t-26.5 -5.5q-15 0 -28.5 5.5t-27.5 13.5l-40 22
q-17 10 -33 13t-27 3q-20 0 -35.5 -5.5t-26.5 -13.5q-16 -11 -32.5 -30t-26.5 -34z" />
    <glyph glyph-name="notequal" unicode="&#x2260;" horiz-adv-x="580" 
d="M520 197v85h-204l37 66h167v85h-120l59 107h-69l-59 -107h-271v-85h224l-37 -66h-187v-85h140l-62 -113h69l62 113h251z" />
    <glyph glyph-name="lessequal" unicode="&#x2264;" horiz-adv-x="581" 
d="M520 67v85h-460v-85h460zM60 424l461 -232v92l-297 140l297 140v92z" />
    <glyph glyph-name="greaterequal" unicode="&#x2265;" horiz-adv-x="581" 
d="M61 67h460v85h-460v-85zM521 424l-461 232v-92l297 -140l-297 -140v-92z" />
    <glyph glyph-name="lozenge" unicode="&#x25ca;" horiz-adv-x="440" 
d="M390 350l-170 375l-170 -375l170 -375zM306 350l-86 -189l-86 189l86 189z" />
    <glyph glyph-name="fi" unicode="&#xf001;" horiz-adv-x="549" 
d="M199 0v440h145v90h-145q-1 32 9 49.5t21 25.5q16 11 43 13.5t72 2.5v86q-23 1 -51 0t-56.5 -5.5t-54.5 -14t-45 -24.5q-17 -14 -27.5 -31.5t-16.5 -36t-8.5 -36t-2.5 -30.5h-74v-89h74v-440h117zM392 0h117v530h-117v-530zM509 607v93h-117v-93h117z" />
    <glyph glyph-name="fi" unicode="&#xfb01;" horiz-adv-x="549" 
d="M199 0v440h145v90h-145q-1 32 9 49.5t21 25.5q16 11 43 13.5t72 2.5v86q-23 1 -51 0t-56.5 -5.5t-54.5 -14t-45 -24.5q-17 -14 -27.5 -31.5t-16.5 -36t-8.5 -36t-2.5 -30.5h-74v-89h74v-440h117zM392 0h117v530h-117v-530zM509 607v93h-117v-93h117z" />
    <glyph glyph-name="fl" unicode="&#xf002;" horiz-adv-x="549" 
d="M199 0v440h145v90h-145q-1 32 9 49.5t21 25.5q16 11 43 13.5t72 2.5v86q-23 1 -51 0t-56.5 -5.5t-54.5 -14t-45 -24.5q-17 -14 -27.5 -31.5t-16.5 -36t-8.5 -36t-2.5 -30.5h-74v-89h74v-440h117zM392 0h117v700h-117v-700z" />
    <glyph glyph-name="fl" unicode="&#xfb02;" horiz-adv-x="549" 
d="M199 0v440h145v90h-145q-1 32 9 49.5t21 25.5q16 11 43 13.5t72 2.5v86q-23 1 -51 0t-56.5 -5.5t-54.5 -14t-45 -24.5q-17 -14 -27.5 -31.5t-16.5 -36t-8.5 -36t-2.5 -30.5h-74v-89h74v-440h117zM392 0h117v700h-117v-700z" />
    <glyph glyph-name="Accent" unicode="&#xf401;" horiz-adv-x="2" 
d="M-298 947l-161 -133l59 -74l162 132z" />
    <glyph glyph-name="Breve" unicode="&#xf406;" horiz-adv-x="489" 
d="M244 802q-20 0 -36 4.5t-32 19.5q-11 11 -17 22.5t-8 20.5h-91q7 -28 22 -55.5t35 -45.5q29 -26 63.5 -32.5t63.5 -6.5q28 0 63 6.5t65 32.5q20 17 35 45t22 56h-91q-2 -9 -8 -20.5t-17 -22.5q-15 -15 -32 -19.5t-37 -4.5z" />
    <glyph glyph-name="Cedilla" unicode="&#xf407;" horiz-adv-x="258" 
d="M40 -190h86q16 0 33.5 2t31.5 12q10 7 18.5 21t8.5 40q0 14 -4.5 29t-18.5 26q-12 10 -25.5 12.5t-24.5 2.5h-13q-2 0 -5 0.5t-3 4.5q0 1 1 3.5t2 4.5l16 32h-60l-26 -53q-2 -5 -4.5 -11t-2.5 -13q0 -13 9 -19q5 -3 12 -4t12 -1h37q8 0 17 -2t9 -14t-9.5 -14.5
t-18.5 -2.5h-78v-56z" />
    <glyph glyph-name="Circumflex" unicode="&#xf408;" horiz-adv-x="457" 
d="M371 740l46 62l-141 113q-11 8 -22.5 13t-25.5 5t-25.5 -5t-22.5 -13l-140 -113l46 -62l117 97q7 5 12.5 7.5t13.5 2.5q10 0 15 -2.5t10 -7.5z" />
    <glyph glyph-name="Commaaccent" unicode="&#xf409;" horiz-adv-x="218" 
d="M86 -289l92 218l-103 41l-85 -222z" />
    <glyph glyph-name="Apostrophe" unicode="&#xf40a;" horiz-adv-x="218" 
d="M86 740l92 218l-103 41l-85 -222z" />
    <glyph glyph-name="Dotaccent" unicode="&#xf40b;" horiz-adv-x="252" 
d="M192 760v116h-132v-116h132z" />
    <glyph glyph-name="Ring" unicode="&#xf40c;" horiz-adv-x="311" 
d="M156 959q-20 0 -42 -3.5t-40 -18.5q-12 -11 -23 -32t-11 -60q0 -38 11 -59t23 -32q17 -15 40 -19t42 -4q32 0 51.5 7t30.5 16q22 18 27.5 43.5t5.5 47.5q0 23 -5.5 48.5t-27.5 43.5q-19 16 -41.5 19t-40.5 3zM100 845q0 9 2.5 21t10.5 22q10 11 21 13.5t22 2.5t22 -2.5
t20 -13.5q8 -10 10.5 -22t2.5 -21q0 -10 -2.5 -21t-10.5 -21q-5 -6 -15 -11.5t-27 -5.5t-27.5 5.5t-15.5 11.5q-8 10 -10.5 21t-2.5 21z" />
    <glyph glyph-name="Tilde" unicode="&#xf40d;" horiz-adv-x="473" 
d="M91 755q5 10 13 20.5t16 15.5q6 5 15 8.5t21 3.5q20 0 32 -6.5t23 -12.5l34 -20q14 -8 32 -11.5t33 -3.5q39 0 65 19q17 11 32.5 31t25.5 39l-51 33q-3 -6 -10 -18t-12 -18q-6 -7 -16.5 -12.5t-26.5 -5.5q-18 0 -32 7l-24 12l-40 22q-17 10 -33 13t-27 3
q-20 0 -35.5 -5.5t-26.5 -13.5q-16 -11 -32.5 -30t-26.5 -34z" />
    <glyph glyph-name="Ogonek" unicode="&#xf40e;" horiz-adv-x="225" 
d="M185 -180v60h-42q-5 0 -14 1.5t-9 11.5q0 2 1.5 5.5t6.5 13.5l48 88h-80l-46 -88q-10 -18 -10 -37q0 -12 4 -23.5t13 -19.5t20 -10t21 -2h87z" />
    <glyph glyph-name="Udotaccent" unicode="&#xf47e;" horiz-adv-x="728" 
d="M364 97q-15 0 -33.5 1.5t-37 6t-36 13.5t-31.5 24q-25 27 -29.5 60t-4.5 62v436h-132v-454q0 -45 10.5 -91.5t50.5 -87.5q26 -27 58.5 -42t65.5 -22.5t64 -9t55 -1.5t55 1.5t64 9t65.5 22.5t58.5 42q40 41 50.5 87.5t10.5 91.5v454h-132v-436q0 -13 -0.5 -29t-4 -32
t-10 -32t-18.5 -29q-14 -15 -32 -24t-37 -13.5t-37.5 -6t-32.5 -1.5zM430 760v116h-132v-116h132z" />
    <glyph glyph-name="udotaccent" unicode="&#xf47f;" horiz-adv-x="570" 
d="M530 95v435h-117v-397q0 -8 -1 -16t-9 -16q-11 -11 -34 -11h-97q-32 0 -55.5 6t-39.5 28q-11 15 -15.5 36.5t-4.5 56.5v313h-117v-334q0 -49 10.5 -88t43.5 -68q27 -23 59.5 -31.5t78.5 -8.5h187q21 0 43.5 3t39.5 17q20 16 24 38.5t4 36.5zM225 600h119v100h-119v-100z
" />
    <glyph glyph-name="cyrEscyrcedilla" unicode="&#xf4c8;" 
d="M629 105h-237q-62 0 -109 13t-74 54q-5 8 -11 21t-11 33t-8 48.5t-3 67.5q0 78 11.5 121.5t27.5 66.5q15 22 34.5 35t43 20t50.5 8.5t56 1.5h219v105h-281q-19 0 -47 -2t-60 -11t-64 -26.5t-58 -48.5q-22 -26 -35.5 -57.5t-20.5 -67t-9.5 -73t-2.5 -74.5q0 -29 2 -62.5
t9 -67.5t21 -67t39 -61q24 -27 52.5 -43.5t58 -25t58.5 -11t54 -2.5h61l-26 -53q-2 -5 -4.5 -11t-2.5 -13q0 -13 9 -19q5 -3 12 -4t12 -1h37q8 0 17 -2t9 -14t-9.5 -14.5t-18.5 -2.5h-78v-56h86q16 0 33.5 2t31.5 12q10 7 18.5 21t8.5 40q0 14 -4.5 29t-18.5 26
q-12 10 -25.5 12.5t-24.5 2.5h-13q-2 0 -5 0.5t-3 4.5q0 1 1 3.5t2 4.5l16 32h174v105z" />
    <glyph glyph-name="cyrescyrcedilla" unicode="&#xf4c9;" horiz-adv-x="513" 
d="M487 90h-190q-18 0 -37.5 1.5t-37.5 7.5t-33 17t-25 30q-5 10 -8.5 24.5t-5.5 29.5t-2.5 29.5t-0.5 26.5q0 6 0.5 18.5t1 27t2.5 29t5 25.5q10 34 40.5 59t89.5 25h189v90h-227q-36 0 -62.5 -6t-46 -14.5t-32.5 -18.5t-21 -18q-22 -23 -34 -50.5t-18 -56t-7 -56.5t-1 -52
q0 -57 7.5 -105.5t40.5 -87.5q18 -21 39.5 -34t42.5 -20t41 -9t35 -2h48l-26 -53q-2 -5 -4.5 -11t-2.5 -13q0 -13 9 -19q5 -3 12 -4t12 -1h37q8 0 17 -2t9 -14t-9.5 -14.5t-18.5 -2.5h-78v-56h86q16 0 33.5 2t31.5 12q10 7 18.5 21t8.5 40q0 14 -4.5 29t-18.5 26
q-12 10 -25.5 12.5t-24.5 2.5h-13q-2 0 -5 0.5t-3 4.5q0 1 1 3.5t2 4.5l16 32h147v90z" />
    <glyph glyph-name="cyrUacute" unicode="&#xf4cc;" horiz-adv-x="684" 
d="M337 0l367 700h-144l-213 -424l-221 424h-146l299 -545l-85 -155h143zM416 947l-161 -133l59 -74l162 132z" />
    <glyph glyph-name="cyruacute" unicode="&#xf4cd;" horiz-adv-x="542" 
d="M566 528h-119l-180 -405l-170 407h-121l236 -528l-81 -173h119zM332 767l-161 -133l59 -74l162 132z" />
    <glyph glyph-name="commaaccent" unicode="&#xf6c3;" horiz-adv-x="218" 
d="M86 -279l92 218l-103 41l-85 -222z" />
    <glyph glyph-name="Acute" unicode="&#xf6c9;" horiz-adv-x="301" 
d="M201 947l-161 -133l59 -74l162 132z" />
    <glyph glyph-name="Caron" unicode="&#xf6ca;" horiz-adv-x="457" 
d="M371 923l-117 -95q-6 -5 -11 -8.5t-14 -3.5t-15 4t-11 8l-117 95l-46 -62l140 -113q11 -8 22.5 -13t25.5 -5t25.5 5t22.5 13l141 113z" />
    <glyph glyph-name="Dieresis" unicode="&#xf6cb;" horiz-adv-x="462" 
d="M402 760v110h-120v-110h120zM180 760v110h-120v-110h120z" />
    <glyph glyph-name="Grave" unicode="&#xf6ce;" horiz-adv-x="301" 
d="M100 947l-60 -75l162 -132l59 74z" />
    <glyph glyph-name="Hungarumlaut" unicode="&#xf6cf;" horiz-adv-x="507" 
d="M188 953l-148 -147l67 -66l148 147zM400 953l-147 -147l66 -66l148 147z" />
    <glyph glyph-name="Macron" unicode="&#xf6d0;" horiz-adv-x="420" 
d="M380 750v84h-340v-84h340z" />
    <glyph glyph-name="cyrBreve" unicode="&#xf6d1;" horiz-adv-x="489" 
d="M244 802q-20 0 -36 4.5t-32 19.5q-11 11 -17 22.5t-8 20.5h-91q7 -28 22 -55.5t35 -45.5q29 -26 63.5 -32.5t63.5 -6.5q28 0 63 6.5t65 32.5q20 17 35 45t22 56h-91q-2 -9 -8 -20.5t-17 -22.5q-15 -15 -32 -19.5t-37 -4.5z" />
    <glyph glyph-name="cyrbreve" unicode="&#xf6d4;" horiz-adv-x="449" 
d="M224 626q-20 0 -36 4.5t-32 19.5q-11 11 -17 22.5t-8 20.5h-91q7 -28 22 -55.5t35 -45.5q29 -26 63.5 -32.5t63.5 -6.5q28 0 63 6.5t65 32.5q20 17 35 45t22 56h-91q-2 -9 -8 -20.5t-17 -22.5q-15 -15 -32 -19.5t-37 -4.5z" />
    <glyph glyph-name="commainferior" unicode="&#xf6e1;" horiz-adv-x="218" 
d="M86 -279l92 218l-103 41l-85 -222z" />
    <glyph glyph-name="commasuperior" unicode="&#xf6e2;" horiz-adv-x="218" 
d="M86 560l92 218l-103 41l-85 -222z" />
    <glyph glyph-name="mu" horiz-adv-x="608" 
d="M60 -178h112v243q14 -24 31.5 -38t35.5 -21.5t34 -9.5t28 -2q44 0 78 19.5t56 58.5v-72h113v530h-117v-330q0 -17 -5.5 -31t-12.5 -25t-13.5 -18t-8.5 -9q-19 -18 -40 -26t-49 -8q-38 0 -60 12.5t-33 23.5q-13 14 -22.5 36t-9.5 48v327h-117v-708z" />
    <glyph glyph-name="cyrtcedilla" horiz-adv-x="515" 
d="M515 530h-515v-90h199v-440h32l-26 -53q-2 -5 -4.5 -11t-2.5 -13q0 -13 9 -19q5 -3 12 -4t12 -1h37q8 0 17 -2t9 -14t-9.5 -14.5t-18.5 -2.5h-78v-56h86q16 0 33.5 2t31.5 12q10 7 18.5 21t8.5 40q0 14 -4.5 29t-18.5 26q-12 10 -25.5 12.5t-24.5 2.5h-13q-2 0 -5 0.5
t-3 4.5q0 1 1 3.5t2 4.5l16 32h25v440h199v90z" />
    <glyph glyph-name="dotlessi1" horiz-adv-x="197" 
d="M40 0h117v530h-117v-530z" />
    <glyph glyph-name="cyrTcedilla" 
d="M669 595v105h-679v-105h273v-595h39l-26 -53q-2 -5 -4.5 -11t-2.5 -13q0 -13 9 -19q5 -3 12 -4t12 -1h37q8 0 17 -2t9 -14t-9.5 -14.5t-18.5 -2.5h-78v-56h86q16 0 33.5 2t31.5 12q10 7 18.5 21t8.5 40q0 14 -4.5 29t-18.5 26q-12 10 -25.5 12.5t-24.5 2.5h-13
q-2 0 -5 0.5t-3 4.5q0 1 1 3.5t2 4.5l16 32h33v595h274z" />
    <glyph glyph-name="hyphenminus" horiz-adv-x="580" 
d="M520 274v85h-460v-85h460z" />
    </font>
</defs>
</svg>
